<svg xmlns="http://www.w3.org/2000/svg" viewBox="0 0 20 16" fill="currentColor">
  <path d="M3.27 1.71c.36.41.78 1.22 1.16 2.39.37 1.13.68 2.48.88 3.86.2 1.38.3 2.77.27 3.96a7.14 7.14 0 0 1-.42 2.62A1.03 1.03 0 0 0 7 15.4c.43-.9.6-2.15.63-3.44a25.8 25.8 0 0 0-.3-4.3 26.02 26.02 0 0 0-.96-4.21A8.98 8.98 0 0 0 4.78.34a1.03 1.03 0 0 0-1.5 1.36zm8.18 8.69a24.1 24.1 0 0 0-2.87 2.65 22.96 22.96 0 0 0 .02-2.92 29.3 29.3 0 0 1 3.24-2.57 22.96 22.96 0 0 0 2.85.64 24.1 24.1 0 0 0-3.24 2.2zM9.73 5.77c-.64-.26-1.28-.54-1.9-.83a22.95 22.95 0 0 0-.86-2.8c1 .62 2.24 1.21 3.52 1.72 1.3.51 2.62.93 3.78 1.17 1.2.25 2.11.3 2.65.18a1.03 1.03 0 0 1 .43 2c-.97.22-2.23.1-3.5-.17-1.3-.28-2.74-.73-4.12-1.27z"/>
</svg>
