<svg xmlns="http://www.w3.org/2000/svg" viewBox="0 0 18 16" fill="currentColor">
  <path fill-rule="evenodd" d="M5.768.675A1 1 0 0 1 6.714 0h4.572a1 1 0 0 1 .946.675l4.813 14A1 1 0 0 1 16.098 16h-5.21a1 1 0 0 1-.676-.263l-2.755-2.525-.726 2.113a1 1 0 0 1-.946.675H1.901a1 1 0 0 1-.946-1.325l4.813-14zM8.207 6.42 6.804 10.5h1.587L9 8.727l.61 1.773H5.784a.5.5 0 0 0-.337.869l.804.737-.765 2.225a.25.25 0 0 1-.236.169H2.952a.25.25 0 0 1-.236-.331L6.699 2.582a.1.1 0 0 1 .189 0L8.207 6.42zm4.542 8.08a.25.25 0 0 1-.237-.169l-4.296-12.5a.25.25 0 0 1 .236-.331h2.3a.25.25 0 0 1 .236.169l4.296 12.5a.25.25 0 0 1-.236.331h-2.3zM8.356 12h1.769l.686 1.995c.034.098-.086.177-.162.107L8.356 12z"/>
</svg>
