<svg xmlns="http://www.w3.org/2000/svg" viewBox="0 0 16 16" fill="currentColor">
  <path fill-rule="evenodd" d="M5.36 0a.5.5 0 0 0-.474.342l-4.667 14A.5.5 0 0 0 .694 15H5.14a.5.5 0 0 0 .474-.342l.816-2.449 2.927 2.661a.5.5 0 0 0 .336.13h5.613a.5.5 0 0 0 .475-.658l-4.667-14A.5.5 0 0 0 10.64 0H5.36zm2.113 5.919L6.113 10h-.82a.5.5 0 0 0-.336.87l.664.604-.785 2.355A.25.25 0 0 1 4.6 14H1.734a.25.25 0 0 1-.237-.33L5.703 1.054a.078.078 0 0 1 .148 0L7.473 5.92zM8 7.5 7.167 10h1.666L8 7.5zm6.503 6.17a.25.25 0 0 1-.237.33H11.4a.25.25 0 0 1-.237-.17L6.997 1.33A.25.25 0 0 1 7.234 1H10.1a.25.25 0 0 1 .237.17l4.167 12.5zm-5.313-2.6.907 2.722a.158.158 0 0 1-.256.167l-3.063-2.785A.1.1 0 0 1 6.845 11h2.268l.077.07z"/>
  <path fill-rule="evenodd" d="M5.36 0a.5.5 0 0 0-.474.342l-4.667 14A.5.5 0 0 0 .694 15H5.14a.5.5 0 0 0 .474-.342l.816-2.449 2.927 2.661a.5.5 0 0 0 .336.13h5.613a.5.5 0 0 0 .475-.658l-4.667-14A.5.5 0 0 0 10.64 0H5.36zm2.113 5.919L6.113 10h-.82a.5.5 0 0 0-.336.87l.664.604-.785 2.355A.25.25 0 0 1 4.6 14H1.734a.25.25 0 0 1-.237-.33L5.703 1.054a.078.078 0 0 1 .148 0L7.473 5.92zM8 7.5 7.167 10h1.666L8 7.5zm6.503 6.17a.25.25 0 0 1-.237.33H11.4a.25.25 0 0 1-.237-.17L6.997 1.33A.25.25 0 0 1 7.234 1H10.1a.25.25 0 0 1 .237.17l4.167 12.5zm-5.313-2.6.907 2.722a.158.158 0 0 1-.256.167l-3.063-2.785A.1.1 0 0 1 6.845 11h2.268l.077.07z"/>
</svg>
