<svg xmlns="http://www.w3.org/2000/svg" viewBox="0 0 16 16" fill="currentColor">
  <path fill-rule="evenodd" d="M5.694 2a.5.5 0 0 0-.475.342l-4 12a.5.5 0 0 0 .475.658h3.712a.5.5 0 0 0 .475-.342l.692-2.077L9.09 14.87a.5.5 0 0 0 .337.13h4.746a.5.5 0 0 0 .474-.658l-4-12A.5.5 0 0 0 10.173 2h-4.48zM7.41 6.934l-1.244 3.733H5.76a.5.5 0 0 0-.336.87l.348.316-.662 1.986a.25.25 0 0 1-.237.17H2.72a.25.25 0 0 1-.237-.329L6.039 3.014a.034.034 0 0 1 .065 0l1.307 3.92zM7.933 8.5l-.722 2.167h1.445L7.933 8.5zm5.45 5.18a.25.25 0 0 1-.237.33h-2.152a.25.25 0 0 1-.237-.171L7.25 3.319a.25.25 0 0 1 .237-.329h2.151a.25.25 0 0 1 .237.171l3.507 10.52zm-4.63-2.023a.25.25 0 0 1 .169.065l.074.068a.25.25 0 0 1 .07.106l.666 2a.087.087 0 0 1-.14.091l-2.563-2.33h1.725z"/>
</svg>
