<svg xmlns="http://www.w3.org/2000/svg" viewBox="0 0 20 16" fill="currentColor">
  <path fill-rule="evenodd" d="M6.768.675A1 1 0 0 1 7.714 0h4.572a1 1 0 0 1 .946.675l4.813 14A1 1 0 0 1 17.098 16h-5.21a1 1 0 0 1-.676-.263l-2.755-2.525-.726 2.113a1 1 0 0 1-.946.675H2.901a1 1 0 0 1-.945-1.325l4.812-14zM9.207 6.42 7.804 10.5h1.587L10 8.727l.61 1.773H6.142a.25.25 0 0 0-.17.434l1.28 1.172-.766 2.225a.25.25 0 0 1-.236.169H3.952a.25.25 0 0 1-.236-.331l3.84-11.174a.25.25 0 0 1 .474 0L9.207 6.42zm4.542 8.08a.25.25 0 0 1-.237-.169l-4.296-12.5a.25.25 0 0 1 .236-.331h2.3a.25.25 0 0 1 .236.169l4.296 12.5a.25.25 0 0 1-.236.331h-2.3zM9.356 12h1.769l.494 1.437c.084.245-.214.44-.405.266L9.356 12z"/>
</svg>
