<svg xmlns="http://www.w3.org/2000/svg" viewBox="0 0 20 16" fill="currentColor">
  <path fill-rule="evenodd" d="M6.77.68A1 1 0 0 1 7.7 0h4.58a1 1 0 0 1 .94.68l4.82 14A1 1 0 0 1 17.1 16h-5.21a1 1 0 0 1-.68-.26L8.46 13.2l-.73 2.11a1 1 0 0 1-.95.68H2.9a1 1 0 0 1-.94-1.32l4.8-14zM9.2 6.42 7.8 10.5h1.58L10 8.73l.61 1.77H6.78a.5.5 0 0 0-.33.87l.8.74-.76 2.22a.25.25 0 0 1-.24.17h-2.3a.25.25 0 0 1-.23-.33L7.7 2.58a.1.1 0 0 1 .19 0L9.2 6.42zm4.54 8.08a.25.25 0 0 1-.24-.17L9.2 1.83a.25.25 0 0 1 .24-.33h2.3a.25.25 0 0 1 .24.17l4.3 12.5a.25.25 0 0 1-.24.33h-2.3zM9.35 12h1.78l.68 2c.03.1-.09.17-.16.1L9.35 12z"/>
</svg>
