<svg xmlns="http://www.w3.org/2000/svg" viewBox="0 0 20 16" fill="currentColor">
  <path fill-rule="evenodd" d="M13.17 16a2 2 0 0 0 1.42-.59l2.82-2.82a2 2 0 0 0 .59-1.42V2a2 2 0 0 0-2-2H6.83A2 2 0 0 0 5.4.59L2.6 3.4A2 2 0 0 0 2 4.83V14a2 2 0 0 0 2 2h9.17zm-.67-9.5a1 1 0 0 0-1-1h-7a1 1 0 0 0-1 1v7a1 1 0 0 0 1 1h7a1 1 0 0 0 1-1v-7zm-.44-5h2.84a.25.25 0 0 1 .17.43l-1.92 1.92a.5.5 0 0 1-.36.15H9.56l2.5-2.5zM7.44 4l2.5-2.5H6.83a.5.5 0 0 0-.36.15L4.55 3.57a.25.25 0 0 0 .17.43h2.72zM14 5.33a.5.5 0 0 1 .15-.35l1.92-1.93a.25.25 0 0 1 .43.18v7.94a.5.5 0 0 1-.15.36l-1.92 1.92a.25.25 0 0 1-.43-.17V5.33z"/>
</svg>
