<svg xmlns="http://www.w3.org/2000/svg" viewBox="0 0 16 16" fill="currentColor">
  <path fill-rule="evenodd" d="M11.172 16a2 2 0 0 0 1.414-.586l2.828-2.828A2 2 0 0 0 16 11.172V2a2 2 0 0 0-2-2H4.828a2 2 0 0 0-1.414.586L.586 3.414A2 2 0 0 0 0 4.828V14a2 2 0 0 0 2 2h9.172zM10.5 6.5a1 1 0 0 0-1-1h-7a1 1 0 0 0-1 1v7a1 1 0 0 0 1 1h7a1 1 0 0 0 1-1v-7zm-.44-5h2.836a.25.25 0 0 1 .177.427l-1.927 1.927a.5.5 0 0 1-.353.146H7.56l2.5-2.5zM5.44 4l2.5-2.5H4.827a.5.5 0 0 0-.353.146L2.548 3.573A.25.25 0 0 0 2.725 4h2.714zM12 5.328a.5.5 0 0 1 .146-.353l1.927-1.927a.25.25 0 0 1 .427.177v7.947a.5.5 0 0 1-.146.353l-1.927 1.927a.25.25 0 0 1-.427-.177V5.328z"/>
</svg>
