<svg xmlns="http://www.w3.org/2000/svg" viewBox="0 0 20 16" fill="currentColor">
  <path fill-rule="evenodd" d="M13.17 16a2 2 0 0 0 1.42-.59l2.82-2.82a2 2 0 0 0 .59-1.42V2a2 2 0 0 0-2-2H6.83A2 2 0 0 0 5.4.59L2.6 3.4A2 2 0 0 0 2 4.83V14c0 1.1.9 2 2 2h9.17zM11.5 5.5a1 1 0 0 1 1 1v7a1 1 0 0 1-1 1h-7a1 1 0 0 1-1-1v-7a1 1 0 0 1 1-1h7zm.56-4h2.84c.22 0 .33.27.17.43l-1.92 1.92a.5.5 0 0 1-.36.15H9.56l2.5-2.5zM7.44 4H4.72a.25.25 0 0 1-.17-.43l1.92-1.92a.5.5 0 0 1 .36-.15h3.1L7.44 4zM14 5.33a.5.5 0 0 1 .15-.36l1.92-1.92a.25.25 0 0 1 .43.17v7.95a.5.5 0 0 1-.15.36l-1.92 1.92a.25.25 0 0 1-.43-.17V5.33z"/>
</svg>
