<svg xmlns="http://www.w3.org/2000/svg" viewBox="0 0 14 16" fill="currentColor">
  <path fill-rule="evenodd" d="M3.25 4.886a2.501 2.501 0 1 0-1.5 0v6.228a2.501 2.501 0 1 0 2.925 1.152 2.28 2.28 0 0 1-.626-.728 2.493 2.493 0 0 0-.799-.424V9.25a.5.5 0 0 1 .5-.5h.818l1.5-1.5H3.75a.5.5 0 0 1-.5-.5V4.886zM3.5 2.5a1 1 0 1 1-2 0 1 1 0 0 1 2 0zm-1 12a1 1 0 1 0 0-2 1 1 0 0 0 0 2zm9.75-9.614v1.682l-.982-.982a2.505 2.505 0 0 0-.518-.398v-.302a2.501 2.501 0 1 1 1.5 0zM11.5 3.5a1 1 0 1 0 0-2 1 1 0 0 0 0 2z"/>
  <path d="M10.207 6.646a1 1 0 0 0-1.414 0L5.5 9.94A.75.75 0 1 0 6.56 11l2.19-2.19v6.44a.75.75 0 0 0 1.5 0V8.81L12.44 11a.75.75 0 0 0 1.06-1.06l-3.293-3.294z"/>
</svg>
