<svg xmlns="http://www.w3.org/2000/svg" viewBox="0 0 20 16" fill="currentColor">
  <path fill-rule="evenodd" d="M12.793 6.646a1 1 0 0 1 1.414 0L17.5 9.94A.75.75 0 1 1 16.44 11l-2.19-2.19v6.44a.75.75 0 0 1-1.5 0V8.81L10.56 11A.75.75 0 0 1 9.5 9.94l3.293-3.294zM8 2.5c0 1.12-.736 2.067-1.75 2.386V6.75a.5.5 0 0 0 .5.5h3.318l-1.5 1.5H6.75a.5.5 0 0 0-.5.5v1.864a2.501 2.501 0 1 1-1.5 0V4.886A2.501 2.501 0 1 1 8 2.5zm7.25 3.068v-.682a2.501 2.501 0 1 0-1.579-.027 2.49 2.49 0 0 1 1.579.71zM5.5 3.5a1 1 0 1 0 0-2 1 1 0 0 0 0 2zm1 10a1 1 0 1 1-2 0 1 1 0 0 1 2 0zm9-11a1 1 0 1 1-2 0 1 1 0 0 1 2 0z"/>
</svg>
