<svg xmlns="http://www.w3.org/2000/svg" viewBox="0 0 20 16" fill="currentColor">
  <path fill-rule="evenodd" d="M6.25 4.89a2.5 2.5 0 1 0-1.5 0v6.22a2.5 2.5 0 1 0 2.92 1.16 2.28 2.28 0 0 1-.62-.73 2.5 2.5 0 0 0-.8-.43V9.25c0-.28.22-.5.5-.5h.82l1.5-1.5H6.75a.5.5 0 0 1-.5-.5V4.89zM6.5 2.5a1 1 0 1 1-2 0 1 1 0 0 1 2 0zm-1 12a1 1 0 1 1 0-2 1 1 0 0 1 0 2zm9.75-9.61v1.68l-.98-.98a2.5 2.5 0 0 0-.52-.4v-.3a2.5 2.5 0 1 1 1.5 0zM14.5 3.5a1 1 0 1 0 0-2 1 1 0 0 0 0 2z"/>
  <path d="M13.2 6.65a1 1 0 0 0-1.4 0L8.5 9.94A.75.75 0 1 0 9.56 11l2.19-2.19v6.44a.75.75 0 0 0 1.5 0V8.81L15.44 11a.75.75 0 0 0 1.06-1.06l-3.3-3.3z"/>
</svg>
