<svg xmlns="http://www.w3.org/2000/svg" viewBox="0 0 20 16" fill="currentColor">
  <path d="M6.75 6.5a.75.75 0 1 1 0 1.5.75.75 0 0 1 0-1.5zm4 .75a.75.75 0 1 0-1.5 0 .75.75 0 0 0 1.5 0zm2.5-.75a.75.75 0 1 1 0 1.5.75.75 0 0 1 0-1.5zM7.5 9.75a.75.75 0 1 0-1.5 0 .75.75 0 0 0 1.5 0zM10 9a.75.75 0 1 1 0 1.5.75.75 0 0 1 0-1.5zm4 .75a.75.75 0 1 0-1.5 0 .75.75 0 0 0 1.5 0zM6.75 11.5a.75.75 0 1 1 0 1.5.75.75 0 0 1 0-1.5zm4 .75a.75.75 0 1 0-1.5 0 .75.75 0 0 0 1.5 0z"/>
  <path fill-rule="evenodd" d="M6.75 0A.75.75 0 0 0 6 .75V2H5a2 2 0 0 0-2 2v10c0 1.1.9 2 2 2h10a2 2 0 0 0 2-2V4a2 2 0 0 0-2-2h-1V.75a.75.75 0 0 0-1.5 0V2h-5V.75A.75.75 0 0 0 6.75 0zM4.5 5h11v9a.5.5 0 0 1-.5.5H5a.5.5 0 0 1-.5-.5V5z"/>
</svg>
