<svg xmlns="http://www.w3.org/2000/svg" viewBox="0 0 20 16" fill="currentColor">
  <path d="M1.92 1.878c0-.506.375-.934.877-1L9.36.007A1.01 1.01 0 0 1 10.5 1.01v6.167H1.92V1.878zm0 11.607c0 .506.375.934.877 1l3.414.453V12.09a1.49 1.49 0 0 1 1.49-1.491h2.8V8.186H1.92v5.299zm16.152-5.299v2.787a1.485 1.485 0 0 0-.985-.373H11.51V8.186h6.561zm-5.687-6.301a1.01 1.01 0 0 0-.874 1v4.292h6.561V2.274a1.01 1.01 0 0 0-1.144-1l-4.543.611zm.126 11.921-.298-.936a1.22 1.22 0 0 1-.047-.25h-.016a1.068 1.068 0 0 1-.048.243l-.303.943h.712z"/>
  <path fill-rule="evenodd" d="M6.715 12.098c0-.548.445-.993.994-.993h9.37c.548 0 .993.445.993.993v2.808a.994.994 0 0 1-.993.994h-9.37a.994.994 0 0 1-.994-.994v-2.808zm3.889 2.71c-.204.098-.469.147-.796.147-.427 0-.763-.126-1.008-.377-.244-.25-.366-.585-.366-1.003 0-.445.137-.806.411-1.083.276-.277.633-.416 1.071-.416.272 0 .501.035.688.103v.604a1.218 1.218 0 0 0-.637-.167c-.262 0-.472.082-.633.247-.16.164-.24.386-.24.667 0 .27.075.484.227.645.15.159.355.238.61.238.246 0 .47-.06.673-.178v.572zm2.932.098h-.683l-.198-.619h-.99l-.196.62h-.68l1.014-2.784h.743l.99 2.783zm2.851 0h-.632l-1.147-1.748a2.525 2.525 0 0 1-.14-.231h-.008c.01.098.016.248.016.45v1.53h-.592v-2.784h.675l1.104 1.694c.05.077.098.152.14.227h.008a2.963 2.963 0 0 1-.016-.382v-1.539h.592v2.783z"/>
</svg>
