<svg xmlns="http://www.w3.org/2000/svg" viewBox="0 0 20 16" fill="currentColor">
  <path d="M2.11 2.33c0-.5.37-.91.85-.97L9.36.5a.98.98 0 0 1 1.12.97V7.5H2.1V2.33zm0 11.32c0 .49.37.9.85.97l3.33.44v-2.73c0-.83.67-1.5 1.5-1.5h2.69V8.48H2.1v5.17zm15.75-5.17v2.74a1.5 1.5 0 0 0-1.01-.39h-5.4V8.48h6.4zm-5.55-6.14a.98.98 0 0 0-.85.97V7.5h6.4V2.72a.98.98 0 0 0-1.12-.98l-4.43.6zm.26 11.8-.3-.94a1.23 1.23 0 0 1-.05-.25h-.02c0 .08-.02.16-.04.24l-.3.95h.7z"/>
  <path fill-rule="evenodd" d="M6.78 12.33a1 1 0 0 1 1-1h9.08a1 1 0 0 1 1 1V15a1 1 0 0 1-1 1H7.78a1 1 0 0 1-1-1v-2.67zm3.87 2.82v-.58c-.2.12-.43.18-.68.18a.8.8 0 0 1-.61-.24.9.9 0 0 1-.23-.64c0-.29.08-.51.24-.68a.85.85 0 0 1 .64-.24c.24 0 .45.05.64.16v-.6c-.19-.07-.42-.1-.7-.1a1.42 1.42 0 0 0-1.49 1.5c0 .42.13.76.37 1.01.25.25.59.38 1.02.38.33 0 .6-.05.8-.15zm2.95.1-1-2.8h-.75l-1.01 2.8h.68l.2-.62h1l.2.62h.68zm2.87 0v-2.8h-.6V14c0 .19 0 .32.02.38h-.01a4.08 4.08 0 0 0-.14-.23l-1.11-1.7h-.68v2.8h.6v-1.54l-.02-.45.15.23 1.15 1.76h.64z"/>
</svg>
