<svg xmlns="http://www.w3.org/2000/svg" viewBox="0 0 20 16" fill="currentColor">
  <path d="M2.11 2.33c0-.5.37-.91.85-.97L9.37.5a.98.98 0 0 1 1.12.97V7.5H2.1V2.33zm0 11.32c0 .49.37.9.85.97l3.33.44a1.52 1.52 0 0 1 0-.07v-2.66a1.5 1.5 0 0 1 1.5-1.5h2.69V8.48H2.1v5.17zm15.75-5.17v2.74a1.5 1.5 0 0 0-1.01-.39h-5.39V8.48h6.4zM12.3 2.34a.98.98 0 0 0-.85.97V7.5h6.4V2.72a.98.98 0 0 0-1.12-.98l-4.43.6zm.26 11.8-.3-.94a1.23 1.23 0 0 1-.05-.25h-.02a1.07 1.07 0 0 1-.04.24l-.3.95h.7z"/>
  <path fill-rule="evenodd" d="M6.79 12.32a1 1 0 0 1 1-1h9.07a1 1 0 0 1 1 1V15a1 1 0 0 1-1 1H7.79a1 1 0 0 1-1-1v-2.67zm3.86 2.83c-.2.1-.47.15-.8.15-.43 0-.77-.13-1.02-.38a1.38 1.38 0 0 1-.37-1.01c0-.45.14-.81.42-1.09.28-.28.63-.42 1.08-.42.27 0 .5.04.69.1v.61a1.23 1.23 0 0 0-.64-.17.85.85 0 0 0-.64.25.92.92 0 0 0-.24.67c0 .28.07.5.23.65a.8.8 0 0 0 .61.24c.25 0 .47-.06.68-.18v.58zm2.95.1h-.69l-.2-.62h-1l-.2.62h-.67l1.02-2.8h.74l1 2.8zm2.87 0h-.64l-1.15-1.76a2.53 2.53 0 0 1-.14-.23h-.01l.01.45v1.54h-.6v-2.8h.69l1.11 1.7.14.23a3 3 0 0 1 0-.38v-1.55h.59v2.8z"/>
</svg>
