<svg xmlns="http://www.w3.org/2000/svg" viewBox="0 0 16 16" fill="currentColor">
  <path d="M.11 2.33c0-.493.366-.91.855-.975L7.362.51a.984.984 0 0 1 1.113.975v6.012H.11V2.331zm0 11.316c0 .493.366.91.855.975l3.33.44a1.524 1.524 0 0 1-.002-.069v-2.659a1.5 1.5 0 0 1 1.5-1.5h2.682V8.48H.11v5.166zM15.856 8.48v2.742a1.495 1.495 0 0 0-1.008-.389H9.46V8.48h6.397zm-5.544-6.142a.984.984 0 0 0-.853.975v4.183h6.397V2.717a.984.984 0 0 0-1.115-.975l-4.429.596zm.256 11.805-.301-.942a1.228 1.228 0 0 1-.047-.252h-.016a1.071 1.071 0 0 1-.048.244l-.305.95h.717z"/>
  <path fill-rule="evenodd" d="M4.785 12.325a1 1 0 0 1 1-1h9.071a1 1 0 0 1 1 1V15a1 1 0 0 1-1 1H5.785a1 1 0 0 1-1-1v-2.675zm3.863 2.825c-.205.1-.472.149-.801.149-.43 0-.768-.127-1.014-.38-.246-.252-.369-.588-.369-1.009 0-.448.138-.811.414-1.09.278-.278.637-.418 1.078-.418.274 0 .504.035.692.104v.607a1.225 1.225 0 0 0-.64-.168c-.264 0-.476.083-.638.248-.161.166-.242.39-.242.672 0 .271.076.487.229.649.152.16.357.24.615.24.246 0 .471-.06.676-.18v.576zm2.95.1h-.687l-.199-.623h-.996l-.197.623h-.684l1.02-2.8h.748l.996 2.8zm2.87 0h-.637l-1.154-1.76a2.531 2.531 0 0 1-.14-.232h-.008c.01.099.015.25.015.453v1.539h-.596v-2.8h.68l1.112 1.704c.05.077.097.153.14.229h.008a2.999 2.999 0 0 1-.016-.385v-1.549h.596v2.801z"/>
</svg>
