<svg xmlns="http://www.w3.org/2000/svg" viewBox="0 0 16 16" fill="currentColor">
  <path fill-rule="evenodd" d="M5 6a1 1 0 0 1 1-1h4a1 1 0 0 1 1 1v4a1 1 0 0 1-1 1H6a1 1 0 0 1-1-1V6zm1 4V6h4v4H6z"/>
  <path fill-rule="evenodd" d="M5 1.5V3a2 2 0 0 0-2 2H1.5a.5.5 0 0 0 0 1H3v1.5H1.5a.5.5 0 0 0 0 1H3V10H1.5a.5.5 0 0 0 0 1H3a2 2 0 0 0 2 2v1.5a.5.5 0 0 0 1 0V13h1.5v1.5a.5.5 0 0 0 1 0V13H10v1.5a.5.5 0 0 0 1 0V13a2 2 0 0 0 2-2h1.5a.5.5 0 0 0 0-1H13V8.5h1.5a.5.5 0 0 0 0-1H13V6h1.5a.5.5 0 0 0 0-1H13a2 2 0 0 0-2-2V1.5a.5.5 0 0 0-1 0V3H8.5V1.5a.5.5 0 0 0-1 0V3H6V1.5a.5.5 0 0 0-1 0zM5 4h6a1 1 0 0 1 1 1v6a1 1 0 0 1-1 1H5a1 1 0 0 1-1-1V5a1 1 0 0 1 1-1z"/>
</svg>
