<svg xmlns="http://www.w3.org/2000/svg" viewBox="0 0 16 16" fill="currentColor">
  <path fill-rule="evenodd" d="M6 5a1 1 0 0 0-1 1v4a1 1 0 0 0 1 1h4a1 1 0 0 0 1-1V6a1 1 0 0 0-1-1H6zm.5 1.5v3h3v-3h-3z"/>
  <path fill-rule="evenodd" d="M4 .75V2a2 2 0 0 0-2 2H.75a.75.75 0 0 0 0 1.5H2v1.75H.75a.75.75 0 0 0 0 1.5H2v1.75H.75a.75.75 0 0 0 0 1.5H2a2 2 0 0 0 2 2v1.25a.75.75 0 0 0 1.5 0V14h1.75v1.25a.75.75 0 0 0 1.5 0V14h1.75v1.25a.75.75 0 0 0 1.5 0V14a2 2 0 0 0 2-2h1.25a.75.75 0 0 0 0-1.5H14V8.75h1.25a.75.75 0 0 0 0-1.5H14V5.5h1.25a.75.75 0 0 0 0-1.5H14a2 2 0 0 0-2-2V.75a.75.75 0 0 0-1.5 0V2H8.75V.75a.75.75 0 0 0-1.5 0V2H5.5V.75a.75.75 0 0 0-1.5 0zM4 3.5h8a.5.5 0 0 1 .5.5v8a.5.5 0 0 1-.5.5H4a.5.5 0 0 1-.5-.5V4a.5.5 0 0 1 .5-.5z"/>
</svg>
