<svg xmlns="http://www.w3.org/2000/svg" viewBox="0 0 20 16" fill="currentColor">
  <g clip-path="url(#a)">
    <path d="M8 15a.75.75 0 0 1-.515-.927l3.588-12.558a.75.75 0 1 1 1.442.412L8.927 14.485A.75.75 0 0 1 8 15zm9.94-7L14 4.06A.75.75 0 0 1 15.06 3l4.293 4.293a1 1 0 0 1 0 1.414L15.062 13A.75.75 0 0 1 14 11.94L17.938 8zM6 3a.75.75 0 0 1 0 1.06L2.06 8 6 11.94A.75.75 0 1 1 4.94 13L.645 8.707a1 1 0 0 1 0-1.414L4.94 3A.75.75 0 0 1 6 3z"/>
  </g>
  <defs>
    <clipPath id="a">
      <path d="M0 0h20v16H0z"/>
    </clipPath>
  </defs>
</svg>
