<svg xmlns="http://www.w3.org/2000/svg" viewBox="0 0 20 16" fill="currentColor">
  <path fill-rule="evenodd" d="M7.25 8a2.75 2.75 0 1 1 5.5 0 2.75 2.75 0 0 1-5.5 0zM10 6.75a1.25 1.25 0 1 0 0 2.5 1.25 1.25 0 0 0 0-2.5z"/>
  <path d="M10 3.25c0-.414.338-.755.748-.7a5.503 5.503 0 0 1 4.702 4.702c.055.41-.286.748-.7.748s-.743-.339-.82-.746a4.004 4.004 0 0 0-3.184-3.185C10.339 3.993 10 3.664 10 3.25z"/>
  <path fill-rule="evenodd" d="M10 16a8 8 0 1 0 0-16 8 8 0 0 0 0 16zm0-1.5a6.5 6.5 0 1 0 0-13 6.5 6.5 0 0 0 0 13z"/>
</svg>
