<svg xmlns="http://www.w3.org/2000/svg" viewBox="0 0 16 16" fill="currentColor">
  <path fill-rule="evenodd" d="M5.25 8a2.75 2.75 0 1 1 5.5 0 2.75 2.75 0 0 1-5.5 0zM8 6.75a1.25 1.25 0 1 0 0 2.5 1.25 1.25 0 0 0 0-2.5z"/>
  <path d="M8 3.25c0-.414.338-.755.748-.7a5.503 5.503 0 0 1 4.702 4.702c.055.41-.286.748-.7.748s-.743-.339-.82-.746A4.004 4.004 0 0 0 8.747 4.07C8.339 3.993 8 3.664 8 3.25z"/>
  <path fill-rule="evenodd" d="M8 16A8 8 0 1 0 8 0a8 8 0 0 0 0 16zm0-1.5a6.5 6.5 0 1 0 0-13 6.5 6.5 0 0 0 0 13z"/>
</svg>
