<svg xmlns="http://www.w3.org/2000/svg" viewBox="0 0 20 16" fill="currentColor">
  <path d="M11 8a1 1 0 1 1-2 0 1 1 0 0 1 2 0z"/>
  <path fill-rule="evenodd" d="M10 12a4 4 0 1 0 0-8 4 4 0 0 0 0 8zm0-1.5a2.5 2.5 0 1 0 0-5 2.5 2.5 0 0 0 0 5z"/>
  <path fill-rule="evenodd" d="M10 1c4.367 0 8.08 2.8 9.443 6.702a.905.905 0 0 1 0 .596C18.08 12.2 14.367 15 10 15S1.92 12.2.557 8.298a.905.905 0 0 1 0-.596C1.92 3.799 5.633 1 10 1zm0 12.5a8.503 8.503 0 0 1-7.815-5.15.887.887 0 0 1 0-.7 8.503 8.503 0 0 1 15.63 0 .887.887 0 0 1 0 .7A8.503 8.503 0 0 1 10 13.5z"/>
</svg>
