<svg xmlns="http://www.w3.org/2000/svg" viewBox="0 0 20 16" fill="currentColor">
  <path fill-rule="evenodd" d="M3.5 2v12a.5.5 0 0 0 .5.5h1v-5a1 1 0 0 1 1-1h8a1 1 0 0 1 1 1v5h1a.5.5 0 0 0 .5-.5V5.828a.5.5 0 0 0-.146-.353l1.06-1.06A2 2 0 0 1 18 5.827V14a2 2 0 0 1-2 2H4a2 2 0 0 1-2-2V2a2 2 0 0 1 2-2h8.172a2 2 0 0 1 1.414.586l3.828 3.828-1.06 1.06-3.829-3.828a.5.5 0 0 0-.353-.146H12v3a1 1 0 0 1-1 1H6a1 1 0 0 1-1-1v-3H4a.5.5 0 0 0-.5.5zm10 12.5v-4a.5.5 0 0 0-.5-.5H7a.5.5 0 0 0-.5.5v4h7zm-7-13h4v2a.5.5 0 0 1-.5.5H7a.5.5 0 0 1-.5-.5v-2z"/>
</svg>
