<svg xmlns="http://www.w3.org/2000/svg" viewBox="0 0 20 16" fill="currentColor">
  <path d="M13.25 8.5a1.25 1.25 0 1 0 0-2.5 1.25 1.25 0 0 0 0 2.5z"/>
  <path fill-rule="evenodd" d="M2 12.5c0 1.1.9 2 2 2h12a2 2 0 0 0 2-2v-7a2 2 0 0 0-2-2H9.3a.5.5 0 0 1-.44-.28l-.3-.61a2 2 0 0 0-1.8-1.11H4a2 2 0 0 0-2 2v9zm12.28.5L8.94 7.83a2.75 2.75 0 0 0-3.86.03L3.5 9.44V3.5c0-.28.22-.5.5-.5h2.76c.2 0 .37.1.45.28l.31.61A2 2 0 0 0 9.31 5H16c.28 0 .5.22.5.5v7a.5.5 0 0 1-.5.5h-1.72zM6.14 8.92a1.25 1.25 0 0 1 1.75-.01L12.12 13H4a.5.5 0 0 1-.5-.5v-.94l2.64-2.64z"/>
</svg>
