<svg xmlns="http://www.w3.org/2000/svg" viewBox="0 0 20 16" fill="currentColor">
  <path d="M4.75 6h.75v-.75a.75.75 0 0 1 1.5 0V6h.75a.75.75 0 0 1 0 1.5H7v.75a.75.75 0 0 1-1.5 0V7.5h-.75a.75.75 0 0 1 0-1.5zM13 7a1 1 0 1 0 0-2 1 1 0 0 0 0 2zm3 1a1 1 0 1 1-2 0 1 1 0 0 1 2 0z"/>
  <path fill-rule="evenodd" d="m19.04 5.54.72 4.08a4 4 0 0 1-7.37 3.1c-.2-.4-.58-.72-1.04-.72h-2.7c-.46 0-.84.32-1.04.73a4 4 0 0 1-7.37-3.1l.72-4.09A4.88 4.88 0 0 1 4.48 1.7 19.5 19.5 0 0 1 9.61 1h.78c1.73 0 3.46.23 5.13.69a4.87 4.87 0 0 1 3.52 3.85zm-.74 4.48.05.12a2.5 2.5 0 1 1-4.77 1.49 1.5 1.5 0 0 0-1.45-1.13H7.87a1.5 1.5 0 0 0-1.45 1.13 2.5 2.5 0 1 1-4.77-1.49l.05-.12.74-4.22a3.38 3.38 0 0 1 2.44-2.67A18 18 0 0 1 9.6 2.5h.78a18 18 0 0 1 4.73.63 3.38 3.38 0 0 1 2.44 2.67l.74 4.22z"/>
</svg>
