<svg xmlns="http://www.w3.org/2000/svg" viewBox="0 0 20 16" fill="currentColor">
  <path d="M4.75 6h.75v-.75a.75.75 0 0 1 1.5 0V6h.75a.75.75 0 0 1 0 1.5H7v.75a.75.75 0 0 1-1.5 0V7.5h-.75a.75.75 0 0 1 0-1.5zM13 7a1 1 0 1 0 0-2 1 1 0 0 0 0 2zm3 1a1 1 0 1 1-2 0 1 1 0 0 1 2 0z"/>
  <path fill-rule="evenodd" d="m19.04 5.54.72 4.08a4 4 0 0 1-7.37 3.1c-.2-.4-.58-.72-1.04-.72h-2.7c-.46 0-.84.32-1.04.73a4 4 0 0 1-7.37-3.1l.72-4.09A4.87 4.87 0 0 1 4.48 1.7 19.5 19.5 0 0 1 9.61 1h.78c1.73 0 3.46.23 5.13.69 1.82.5 3.19 2 3.52 3.85zm-.74 4.48-.74-4.22a3.37 3.37 0 0 0-2.44-2.67 18 18 0 0 0-4.73-.63H9.6a18 18 0 0 0-4.73.63A3.37 3.37 0 0 0 2.44 5.8l-.74 4.22-.05.12A2.5 2.5 0 0 0 4 13.5a2.5 2.5 0 0 0 2.42-1.87 1.5 1.5 0 0 1 1.45-1.13h4.26c.68 0 1.28.46 1.45 1.13a2.5 2.5 0 1 0 4.77-1.49l-.05-.12z"/>
</svg>
