<svg xmlns="http://www.w3.org/2000/svg" viewBox="0 0 20 16" fill="currentColor">
  <path d="M4.75 6h.75v-.75a.75.75 0 0 1 1.5 0V6h.75a.75.75 0 0 1 0 1.5H7v.75a.75.75 0 0 1-1.5 0V7.5h-.75a.75.75 0 0 1 0-1.5zM13 7a1 1 0 1 0 0-2 1 1 0 0 0 0 2zm3 1a1 1 0 1 1-2 0 1 1 0 0 1 2 0z"/>
  <path fill-rule="evenodd" d="m19.037 5.543.72 4.082a4 4 0 0 1-7.366 3.103c-.197-.412-.584-.728-1.04-.728H8.649c-.456 0-.843.316-1.04.727A4 4 0 0 1 .243 9.625l.72-4.082a4.875 4.875 0 0 1 3.518-3.856A19.498 19.498 0 0 1 9.61 1h.778c1.733 0 3.458.231 5.13.687a4.874 4.874 0 0 1 3.518 3.856zm-.734 4.473.046.124a2.5 2.5 0 1 1-4.77 1.486 1.5 1.5 0 0 0-1.453-1.126H7.874a1.5 1.5 0 0 0-1.453 1.126 2.502 2.502 0 1 1-4.77-1.486l.046-.124.743-4.213a3.375 3.375 0 0 1 2.436-2.669A17.998 17.998 0 0 1 9.61 2.5h.778a18 18 0 0 1 4.736.634 3.375 3.375 0 0 1 2.435 2.67l.743 4.212z"/>
</svg>
