<svg xmlns="http://www.w3.org/2000/svg" viewBox="0 0 16 16" fill="currentColor">
  <path fill-rule="evenodd" d="M7.993 11a3 3 0 1 0 0-6 3 3 0 0 0 0 6zm0-1.5a1.5 1.5 0 1 0 0-3 1.5 1.5 0 0 0 0 3z"/>
  <path fill-rule="evenodd" d="m4.045 2.834-.757-.437c-.374-.216-.849-.171-1.144.145a8.03 8.03 0 0 0-1.01 1.338l-.146.253a7.952 7.952 0 0 0-.649 1.531c-.126.413.073.846.447 1.062l.76.438a6.46 6.46 0 0 0-.001 1.672l-.759.438c-.374.216-.573.649-.447 1.062a7.95 7.95 0 0 0 .65 1.532l.144.251c.29.482.63.93 1.011 1.34.295.315.77.36 1.144.144l.757-.437c.446.34.933.62 1.448.834v.878c0 .432.276.821.697.918a8.023 8.023 0 0 0 3.606 0c.42-.097.697-.486.697-.918V14a6.508 6.508 0 0 0 1.447-.834l.757.437c.374.216.85.171 1.144-.144.381-.409.72-.857 1.01-1.338l.147-.255a7.9 7.9 0 0 0 .648-1.53c.126-.413-.073-.846-.447-1.062l-.76-.438a6.462 6.462 0 0 0 .001-1.672l.76-.438c.373-.216.572-.649.446-1.062a7.953 7.953 0 0 0-.648-1.53l-.147-.255a8.027 8.027 0 0 0-1.01-1.338c-.295-.315-.77-.36-1.144-.144l-.757.437A6.526 6.526 0 0 0 10.493 2v-.878c0-.432-.277-.821-.697-.918A8.025 8.025 0 0 0 7.996 0h-.008C7.37 0 6.768.07 6.19.204c-.421.097-.697.486-.697.918V2a6.508 6.508 0 0 0-1.448.834zm3.373-1.309a.474.474 0 0 0-.425.48v.662a.5.5 0 0 1-.308.461l-.615.257c-.41.17-.782.387-1.115.642l-.53.404a.5.5 0 0 1-.553.035l-.571-.33a.474.474 0 0 0-.628.128c-.087.123-.17.25-.248.379l-.13.227a5.95 5.95 0 0 0-.199.39.474.474 0 0 0 .204.608l.573.331a.5.5 0 0 1 .246.498l-.086.662a4.96 4.96 0 0 0 0 1.283l.086.662a.5.5 0 0 1-.246.497l-.573.331a.474.474 0 0 0-.204.608c.062.133.128.263.198.39l.131.227c.078.13.161.256.248.379.141.201.414.25.628.127l.571-.33a.5.5 0 0 1 .554.036l.53.404c.342.261.717.477 1.114.642l.615.257a.5.5 0 0 1 .308.461v.662c0 .247.18.459.425.48a6.604 6.604 0 0 0 1.149 0 .474.474 0 0 0 .426-.48v-.662a.5.5 0 0 1 .307-.461l.616-.257a5.01 5.01 0 0 0 1.114-.642l.53-.404a.5.5 0 0 1 .553-.035l.572.33a.474.474 0 0 0 .628-.128c.086-.123.168-.249.246-.378l.133-.229c.07-.127.135-.257.197-.389a.474.474 0 0 0-.203-.608l-.574-.331a.5.5 0 0 1-.246-.498l.086-.662a4.958 4.958 0 0 0 0-1.283l-.085-.662a.5.5 0 0 1 .245-.497l.574-.331a.474.474 0 0 0 .203-.608 6.508 6.508 0 0 0-.197-.389l-.133-.23a6.479 6.479 0 0 0-.246-.377.474.474 0 0 0-.629-.128l-.571.33a.5.5 0 0 1-.553-.035l-.53-.404a5.026 5.026 0 0 0-1.114-.642L9.3 3.128a.5.5 0 0 1-.307-.461v-.662a.474.474 0 0 0-.426-.48 6.602 6.602 0 0 0-.57-.025h-.008a6.61 6.61 0 0 0-.57.025z"/>
</svg>
