<svg xmlns="http://www.w3.org/2000/svg" viewBox="0 0 20 16" fill="currentColor">
  <path fill-rule="evenodd" d="M10 11a3 3 0 1 0 0-6 3 3 0 0 0 0 6zm0-1.5a1.5 1.5 0 1 0 0-3 1.5 1.5 0 0 0 0 3z"/>
  <path fill-rule="evenodd" d="M6.04 2.83 5.3 2.4a.92.92 0 0 0-1.15.14 8.03 8.03 0 0 0-1 1.34L3 4.13a7.95 7.95 0 0 0-.65 1.53c-.13.42.07.85.45 1.07l.76.43a6.46 6.46 0 0 0 0 1.68l-.76.43a.92.92 0 0 0-.45 1.07A7.95 7.95 0 0 0 3 11.87l.14.25c.3.48.63.93 1.01 1.34.3.31.77.36 1.15.14l.76-.43c.44.34.93.62 1.44.83v.88c0 .43.28.82.7.92a8.02 8.02 0 0 0 3.6 0c.43-.1.7-.49.7-.92V14a6.5 6.5 0 0 0 1.45-.83l.76.43c.37.22.85.17 1.14-.14.38-.41.72-.86 1.01-1.34l.15-.25a7.9 7.9 0 0 0 .65-1.53.92.92 0 0 0-.45-1.07l-.76-.43a6.46 6.46 0 0 0 0-1.68l.76-.43a.93.93 0 0 0 .45-1.07A7.95 7.95 0 0 0 17 4.13l-.15-.25a8.03 8.03 0 0 0-1-1.34.93.93 0 0 0-1.15-.14l-.76.43A6.53 6.53 0 0 0 12.49 2v-.88a.93.93 0 0 0-.7-.92A8.02 8.02 0 0 0 10 0a8.2 8.2 0 0 0-1.8.2c-.42.1-.7.49-.7.92V2a6.5 6.5 0 0 0-1.45.83zm3.38-1.3a.47.47 0 0 0-.43.48v.66a.5.5 0 0 1-.3.46l-.62.25a5 5 0 0 0-1.12.65l-.53.4a.5.5 0 0 1-.55.04l-.57-.33a.47.47 0 0 0-.63.12l-.25.38-.13.23a5.95 5.95 0 0 0-.2.39.47.47 0 0 0 .21.6l.57.34a.5.5 0 0 1 .25.5l-.09.66a4.96 4.96 0 0 0 0 1.28l.09.66a.5.5 0 0 1-.25.5l-.57.33a.47.47 0 0 0-.2.61c.06.13.12.26.2.39l.12.23.25.38c.14.2.42.25.63.12l.57-.33a.5.5 0 0 1 .56.04l.53.4a5 5 0 0 0 1.11.65l.61.25a.5.5 0 0 1 .31.46V14c0 .24.18.45.43.48a6.6 6.6 0 0 0 1.15 0 .47.47 0 0 0 .42-.48v-.67a.5.5 0 0 1 .31-.46l.62-.25a5.01 5.01 0 0 0 1.11-.65l.53-.4a.5.5 0 0 1 .55-.04l.58.33a.47.47 0 0 0 .62-.12l.25-.38.13-.23.2-.39a.47.47 0 0 0-.2-.6l-.58-.34a.5.5 0 0 1-.24-.5l.08-.66a4.96 4.96 0 0 0 0-1.28l-.08-.66a.5.5 0 0 1 .24-.5l.58-.33a.47.47 0 0 0 .2-.61 6.5 6.5 0 0 0-.2-.39l-.13-.23a6.48 6.48 0 0 0-.25-.38.47.47 0 0 0-.63-.12l-.57.33a.5.5 0 0 1-.55-.04l-.53-.4a5.03 5.03 0 0 0-1.11-.64l-.62-.26a.5.5 0 0 1-.3-.46V2a.47.47 0 0 0-.43-.48A6.6 6.6 0 0 0 10 1.5h-.01a6.61 6.61 0 0 0-.57.03z"/>
</svg>
