<svg xmlns="http://www.w3.org/2000/svg" viewBox="0 0 20 16" fill="currentColor">
  <path fill-rule="evenodd" d="M10 11a3 3 0 1 0 0-6 3 3 0 0 0 0 6zm0-1.5a1.5 1.5 0 1 1 0-3 1.5 1.5 0 0 1 0 3z"/>
  <path fill-rule="evenodd" d="M6.04 2.83 5.3 2.4a.93.93 0 0 0-1.15.14c-.38.41-.72.86-1 1.34L3 4.13c-.27.48-.49 1-.65 1.53-.13.42.07.85.45 1.07l.76.43a6.46 6.46 0 0 0 0 1.68l-.76.43a.92.92 0 0 0-.45 1.07c.16.53.38 1.05.65 1.53l.14.25c.3.48.63.93 1.01 1.34.3.31.77.36 1.15.14l.76-.43c.44.34.93.62 1.44.83v.88c0 .43.28.82.7.92a8.02 8.02 0 0 0 3.6 0c.43-.1.7-.49.7-.92V14a6.5 6.5 0 0 0 1.45-.83l.76.43c.37.22.85.17 1.14-.14.38-.41.72-.86 1.01-1.34l.15-.25c.26-.49.48-1 .65-1.53a.92.92 0 0 0-.45-1.07l-.76-.43c.07-.55.07-1.11 0-1.68l.76-.43a.92.92 0 0 0 .45-1.07A7.96 7.96 0 0 0 17 4.13l-.15-.25a8.03 8.03 0 0 0-1-1.34.93.93 0 0 0-1.15-.14l-.76.43A6.53 6.53 0 0 0 12.49 2v-.88a.92.92 0 0 0-.7-.92 8.02 8.02 0 0 0-3.6 0c-.42.1-.7.49-.7.92V2a6.5 6.5 0 0 0-1.45.83zm3.38-1.3.57-.03c.2 0 .39 0 .58.02.24.03.42.24.42.49v.66c0 .2.12.38.31.46l.62.25c.4.17.77.39 1.11.65l.53.4a.5.5 0 0 0 .55.04l.57-.33a.47.47 0 0 1 .63.12l.25.38.13.23.2.39c.1.22 0 .48-.2.6l-.58.34a.5.5 0 0 0-.24.5l.08.66c.06.43.06.86 0 1.28l-.08.66c-.03.2.07.4.24.5l.58.33c.2.13.3.39.2.61l-.2.39-.13.23-.25.38a.47.47 0 0 1-.63.12l-.57-.33a.5.5 0 0 0-.55.04l-.53.4a5 5 0 0 1-1.11.65l-.62.25a.5.5 0 0 0-.3.46V14a.5.5 0 0 1-.43.49 6.6 6.6 0 0 1-1.15 0 .47.47 0 0 1-.43-.49v-.66a.5.5 0 0 0-.3-.46l-.62-.25c-.4-.17-.77-.39-1.11-.65l-.53-.4a.5.5 0 0 0-.56-.04l-.57.33a.47.47 0 0 1-.63-.12 6.5 6.5 0 0 1-.24-.38l-.14-.23a6.5 6.5 0 0 1-.2-.39.47.47 0 0 1 .21-.6l.57-.34a.5.5 0 0 0 .25-.5l-.09-.66a4.96 4.96 0 0 1 0-1.28l.09-.66a.5.5 0 0 0-.25-.5l-.57-.33a.47.47 0 0 1-.2-.61c.06-.13.12-.26.2-.39l.13-.23c.07-.13.16-.25.24-.38.14-.2.42-.25.63-.12l.57.33c.18.1.4.08.56-.04l.52-.4a5 5 0 0 1 1.12-.65l.61-.25A.5.5 0 0 0 9 2.67V2c0-.25.18-.46.43-.49z"/>
</svg>
