<svg xmlns="http://www.w3.org/2000/svg" viewBox="0 0 20 16" fill="currentColor">
  <path d="M7.35 12.56c0 .07-.07.12-.17.12S7 12.64 7 12.56c0-.06.08-.12.17-.12.1 0 .18.05.18.12zm-1-.14c-.02.06.04.14.14.15.08.04.18 0 .2-.06.02-.07-.04-.14-.14-.17-.08-.02-.18.01-.2.08zm1.42-.06c-.09.02-.15.09-.14.16 0 .06.09.1.19.08.09-.02.15-.08.15-.14-.01-.07-.1-.1-.2-.1zM9.9 0C5.42 0 2 3.4 2 7.87a8.09 8.09 0 0 0 5.47 7.72c.41.07.56-.18.56-.4l-.01-1.97s-2.26.48-2.74-.97c0 0-.36-.93-.9-1.18 0 0-.73-.5.06-.5 0 0 .8.07 1.24.84.71 1.25 1.9.89 2.35.67.08-.51.29-.87.52-1.08-1.8-.2-3.62-.46-3.62-3.57 0-.88.24-1.33.76-1.9a3.05 3.05 0 0 1 .08-2.19c.68-.2 2.23.87 2.23.87a7.58 7.58 0 0 1 2.03-.27 8 8 0 0 1 2.02.27s1.55-1.08 2.23-.87a3.1 3.1 0 0 1 .08 2.2c.52.56.83 1 .83 1.9 0 3.1-1.9 3.35-3.7 3.56.3.25.55.74.55 1.5l-.01 2.69c0 .21.15.46.56.39A8.01 8.01 0 0 0 18 7.88C18 3.4 14.37 0 9.9 0zM5.13 11.13c-.04.03-.03.1.03.16.05.05.12.08.17.04.04-.04.03-.11-.03-.17-.05-.05-.12-.08-.16-.03zm-.34-.27c-.03.05 0 .1.07.13.05.03.12.02.14-.02.02-.04-.01-.1-.07-.13-.07-.02-.12 0-.14.02zm1.04 1.15c-.05.05-.03.14.04.2.08.08.17.09.21.03.05-.04.03-.13-.04-.2s-.17-.08-.2-.03zm-.37-.47c-.05.03-.05.12 0 .19.06.07.14.1.18.07.06-.04.06-.12 0-.2-.04-.07-.12-.1-.18-.06z"/>
</svg>
