<svg xmlns="http://www.w3.org/2000/svg" viewBox="0 0 16 16" fill="currentColor">
  <path d="M8.857 4.786a.464.464 0 0 0 0-.929H7a.464.464 0 1 0 0 .929h1.857z"/>
  <path fill-rule="evenodd" d="M7.013 8.025c.523-.41 1.306-.372 1.81.061.172.148.341.287.498.414.144.116.264.223.373.32.437.386.688.609 1.485.609a4.179 4.179 0 0 0 4.178-4.179c0-2.321-.928-3.25-4.178-3.25h-6.5C1.429 2 .5 2 .5 5.25a4.179 4.179 0 0 0 4.179 4.179c.746 0 1.296-.494 1.833-.975.162-.145.323-.29.488-.418l.013-.01zm-.63-.776.013-.01c.92-.721 2.233-.638 3.079.089.161.139.321.27.475.395.161.13.296.249.403.344l.004.004c.24.212.308.263.377.296.04.02.142.062.445.062a3.179 3.179 0 0 0 3.178-3.179c0-1.061-.217-1.487-.504-1.722C13.503 3.242 12.771 3 11.18 3h-6.5c-.83 0-1.444.001-1.931.046-.492.046-.723.129-.84.204-.135.085-.408.34-.408 2A3.179 3.179 0 0 0 4.68 8.429c.3 0 .567-.183 1.166-.72l.01-.009c.155-.139.337-.302.528-.451z"/>
  <path d="M4.883 13.85c-.762-.625-1.29-1.374-1.548-1.892l.83-.416c.206.41.653 1.054 1.307 1.59.65.533 1.478.94 2.457.94.978 0 1.806-.407 2.456-.94.654-.536 1.102-1.18 1.307-1.59l.83.416c-.259.518-.786 1.267-1.548 1.892-.766.628-1.796 1.15-3.045 1.15-1.25 0-2.28-.522-3.046-1.15z"/>
</svg>
