<svg xmlns="http://www.w3.org/2000/svg" viewBox="0 0 20 16" fill="currentColor">
  <path fill-rule="evenodd" d="m8.04 6.754.014-.012.96 1.152L9 7.906c-.177.148-.35.313-.525.48C7.897 8.935 7.304 9.5 6.5 9.5 4.015 9.5 2 7.36 2 4.719 2 1 3 1 6.5 1h7C17 1 18 2.063 18 4.719c0 2.64-2.015 4.781-4.5 4.781-.858 0-1.129-.255-1.599-.697-.117-.11-.247-.233-.401-.366-.17-.146-.354-.306-.541-.477-.532-.486-1.391-.527-1.945-.066l-.96-1.152c1.16-.966 2.86-.854 3.917.11.17.157.34.305.507.448.18.155.33.296.446.405l.005.005c.127.12.194.181.252.229a.632.632 0 0 0 .052.04c.027.007.104.021.267.021 1.572 0 3-1.382 3-3.281 0-1.202-.239-1.565-.422-1.724-.25-.218-.889-.495-2.578-.495h-7c-.902 0-1.536.002-2.032.05-.499.05-.655.134-.69.157a.103.103 0 0 0-.026.028.893.893 0 0 0-.098.243c-.09.32-.154.85-.154 1.74C3.5 6.619 4.928 8 6.5 8c.026 0 .092-.002.25-.106.187-.122.38-.3.69-.595l.015-.014c.165-.157.369-.351.585-.531zm5.182 1.22.01.004-.01-.003z"/>
  <path d="M5.421 11.793c-.453.165-.651.7-.341 1.07C6.165 14.155 7.964 15 10 15c2.011 0 3.792-.825 4.88-2.09.317-.37.12-.911-.337-1.078-.338-.123-.71.006-.958.266-.779.816-2.02 1.402-3.585 1.402-1.586 0-2.837-.6-3.614-1.433-.248-.265-.624-.398-.965-.274zM11.5 4.5a.5.5 0 0 0 0-1h-3a.5.5 0 0 0 0 1h3z"/>
</svg>
