<svg xmlns="http://www.w3.org/2000/svg" viewBox="0 0 16 16" fill="currentColor">
  <path d="M9 4a.5.5 0 0 0 0-1H7a.5.5 0 0 0 0 1h2z"/>
  <path fill-rule="evenodd" d="M7 7.5c-.177.14-.35.294-.525.45C5.897 8.47 5.304 9 4.5 9A4.5 4.5 0 0 1 0 4.5C0 1 1 1 4.5 1h7C15 1 16 2 16 4.5A4.5 4.5 0 0 1 11.5 9c-.858 0-1.129-.24-1.599-.656A11.398 11.398 0 0 0 9.5 8c-.17-.137-.351-.286-.537-.446-.543-.466-1.385-.507-1.949-.065L7 7.5zm-.603-.798c.96-.752 2.333-.667 3.218.094.174.15.348.292.514.427.172.139.315.266.431.368l.004.004c.257.227.338.29.424.331.057.028.179.074.512.074A3.5 3.5 0 0 0 15 4.5c0-1.15-.235-1.64-.57-1.914C14.03 2.26 13.216 2 11.5 2h-7c-.892 0-1.558.001-2.087.05-.534.05-.796.14-.939.231C1.291 2.398 1 2.716 1 4.5A3.5 3.5 0 0 0 4.5 8c.357 0 .667-.22 1.307-.794l.01-.01c.168-.15.363-.324.566-.483l.014-.011z"/>
  <path d="M4.72 13.762a6.862 6.862 0 0 1-1.42-1.604.462.462 0 0 1 .2-.658c.247-.123.547-.023.7.208.262.396.651.868 1.154 1.28C6.054 13.562 6.946 14 8 14c1.054 0 1.946-.438 2.646-1.012a5.882 5.882 0 0 0 1.155-1.28c.152-.23.452-.332.699-.208a.462.462 0 0 1 .2.658 6.86 6.86 0 0 1-1.42 1.604C10.454 14.438 9.346 15 8 15c-1.346 0-2.454-.562-3.28-1.238z"/>
</svg>
