<svg xmlns="http://www.w3.org/2000/svg" viewBox="0 0 20 16" fill="currentColor">
  <path fill-rule="evenodd" d="M8.04 6.75h.01l.96 1.14-.01.02c-.18.14-.35.3-.53.48C7.9 8.93 7.3 9.5 6.5 9.5 4.01 9.5 2 7.36 2 4.72 2 1 3 1 6.5 1h7C17 1 18 2.06 18 4.72c0 2.64-2.02 4.78-4.5 4.78-.86 0-1.13-.26-1.6-.7l-.4-.36-.54-.48A1.51 1.51 0 0 0 9 7.89l-.96-1.15a3.01 3.01 0 0 1 3.92.11l.5.45.45.4v.01l.26.23a.63.63 0 0 0 .05.04c.03 0 .1.02.27.02 1.57 0 3-1.38 3-3.28 0-1.2-.24-1.57-.42-1.72-.25-.22-.9-.5-2.58-.5h-7c-.9 0-1.54 0-2.03.05-.5.05-.66.13-.7.16a.1.1 0 0 0-.02.03.9.9 0 0 0-.1.24c-.09.32-.15.85-.15 1.74C3.5 6.62 4.93 8 6.5 8c.03 0 .1 0 .25-.1.19-.13.38-.3.69-.6l.01-.01c.17-.16.37-.36.59-.54zm5.18 1.22h.01z"/>
  <path d="M5.42 11.8c-.45.16-.65.7-.34 1.06A6.41 6.41 0 0 0 10 15a6.4 6.4 0 0 0 4.88-2.09c.32-.37.12-.91-.34-1.08a.9.9 0 0 0-.95.27A4.89 4.89 0 0 1 10 13.5c-1.59 0-2.84-.6-3.61-1.43a.92.92 0 0 0-.97-.28zm6.08-7.3a.5.5 0 0 0 0-1h-3a.5.5 0 0 0 0 1h3z"/>
</svg>
