<svg xmlns="http://www.w3.org/2000/svg" viewBox="0 0 20 16" fill="currentColor">
  <path fill-rule="evenodd" d="M14 0H6a2 2 0 0 0-2 2v.17a5 5 0 0 0 2.43 4.29l.78.47c.81.48.81 1.66 0 2.14l-.78.47A5 5 0 0 0 4 13.84V14c0 1.1.9 2 2 2h8a2 2 0 0 0 2-2v-.17a5 5 0 0 0-2.43-4.29l-.78-.47a1.25 1.25 0 0 1 0-2.14l.78-.47A5 5 0 0 0 16 2.16V2a2 2 0 0 0-2-2zM9.32 8h1.36c0 .91.44 1.82 1.33 2.36l.8.47a3.5 3.5 0 0 1 1.69 3V14a.5.5 0 0 1-.5.5H6a.5.5 0 0 1-.5-.5v-.17a3.5 3.5 0 0 1 1.7-3l.79-.47A2.73 2.73 0 0 0 9.32 8z"/>
</svg>
