<svg xmlns="http://www.w3.org/2000/svg" viewBox="0 0 20 16" fill="currentColor">
  <path fill-rule="evenodd" d="M14 1.5H6a.5.5 0 0 0-.5.5v.17a3.5 3.5 0 0 0 1.7 3l.79.47a2.75 2.75 0 0 1 0 4.72l-.8.47a3.5 3.5 0 0 0-1.69 3V14c0 .28.22.5.5.5h8a.5.5 0 0 0 .5-.5v-.17a3.5 3.5 0 0 0-1.7-3l-.79-.47a2.75 2.75 0 0 1 0-4.72l.8-.47a3.5 3.5 0 0 0 1.69-3V2a.5.5 0 0 0-.5-.5zM6 0h8a2 2 0 0 1 2 2v.17a5 5 0 0 1-2.43 4.29l-.78.47a1.25 1.25 0 0 0 0 2.14l.78.47a5 5 0 0 1 2.43 4.3V14a2 2 0 0 1-2 2H6a2 2 0 0 1-2-2v-.17a5 5 0 0 1 2.43-4.29l.78-.47c.81-.48.81-1.66 0-2.14l-.78-.47A5 5 0 0 1 4 2.16V2c0-1.1.9-2 2-2z"/>
</svg>
