<svg xmlns="http://www.w3.org/2000/svg" viewBox="0 0 18 16" fill="currentColor">
  <path d="m7.657 8.23.114-.413a.25.25 0 0 0-.24-.317H3.25a.25.25 0 0 0-.25.25v1c0 .138.112.25.25.25h4.07c.155 0 .272-.14.272-.296 0-.155.02-.314.065-.474zM8.553 6a.25.25 0 0 0 .177-.073l1-1a.25.25 0 0 0-.177-.427H3.25a.25.25 0 0 0-.25.25v1c0 .138.112.25.25.25h5.303z"/>
  <path d="M16.5 10V5.228l1.5-1.5V10a2 2 0 0 1-2 2H9.121l-3.207 3.207c-1.26 1.26-3.414.368-3.414-1.414V12H2a2 2 0 0 1-2-2V2a2 2 0 0 1 2-2h12.657l-1.5 1.5H2a.5.5 0 0 0-.5.5v8a.5.5 0 0 0 .5.5h2v3.293a.5.5 0 0 0 .854.353L8.5 10.5H16a.5.5 0 0 0 .5-.5z"/>
  <path d="m10.941 8.666 6.464-6.464a.25.25 0 0 0 0-.354L16.344.788a.25.25 0 0 0-.354 0L9.516 7.263a.25.25 0 0 0-.064.11l-.35 1.257a.25.25 0 0 0 .278.314l1.42-.208a.25.25 0 0 0 .141-.07z"/>
</svg>
