<svg xmlns="http://www.w3.org/2000/svg" viewBox="0 0 20 16" fill="currentColor">
  <path d="m8.66 8.23.11-.41a.25.25 0 0 0-.24-.32H4.25a.25.25 0 0 0-.25.25v1c0 .14.11.25.25.25h4.07c.15 0 .27-.14.27-.3 0-.15.02-.31.07-.47zM9.56 6a.25.25 0 0 0 .17-.07l1-1a.25.25 0 0 0-.18-.43h-6.3a.25.25 0 0 0-.25.25v1c0 .14.11.25.25.25h5.3z"/>
  <path d="M17.5 10V5.23l1.5-1.5V10a2 2 0 0 1-2 2h-6.88l-3.2 3.2a2 2 0 0 1-3.42-1.4V12H3a2 2 0 0 1-2-2V2a2 2 0 0 1 2-2h12.66l-1.5 1.5H3a.5.5 0 0 0-.5.5v8a.5.5 0 0 0 .5.5h2v3.3a.5.5 0 0 0 .85.35L9.5 10.5H17a.5.5 0 0 0 .5-.5z"/>
  <path d="m11.94 8.67 6.47-6.47a.25.25 0 0 0 0-.35L17.34.79a.25.25 0 0 0-.35 0l-6.47 6.47a.25.25 0 0 0-.07.11l-.35 1.26a.25.25 0 0 0 .28.31l1.42-.2a.25.25 0 0 0 .14-.07z"/>
</svg>
