<svg xmlns="http://www.w3.org/2000/svg" viewBox="0 0 20 16" fill="currentColor">
  <g clip-path="url(#a)">
    <path fill-rule="evenodd" d="m7.428 14.572 9.658-9.658a2 2 0 0 0 0-2.828L15.914.914a2 2 0 0 0-2.828 0l-9.658 9.658a2 2 0 0 0-.547 1.022l-.734 3.67a.5.5 0 0 0 .588.589l3.671-.734a2 2 0 0 0 1.022-.547zM13.061 3.06l-8.572 8.572a.5.5 0 0 0-.137.255l-.44 2.2 2.2-.44a.5.5 0 0 0 .256-.137l8.571-8.572-1.878-1.878z"/>
  </g>
  <defs>
    <clipPath id="a">
      <path d="M0 0h20v16H0z"/>
    </clipPath>
  </defs>
</svg>
