<svg xmlns="http://www.w3.org/2000/svg" viewBox="0 0 20 16" fill="currentColor">
  <path fill-rule="evenodd" d="M4.48 9h4.98l-1.5 5.5h1.22l3.5-5.5H15a2 2 0 0 0 1.06-.3l.77-.49a.25.25 0 0 0 0-.42l-.77-.49A2 2 0 0 0 15 7h-2.32l-3.5-5.5H7.97L9.46 7H4.47l-1-2.5H2.5v7h.98l1-2.5zM5.5 5.5l-.75-1.87A1 1 0 0 0 3.82 3H2a1 1 0 0 0-1 1v8a1 1 0 0 0 1 1h1.82a1 1 0 0 0 .93-.63l.75-1.87h2l-1.16 4.24A1 1 0 0 0 7.31 16h2.14a1 1 0 0 0 .85-.46l3.2-5.04h2.21a1 1 0 0 0 .53-.15l2.4-1.5a1 1 0 0 0 0-1.7l-2.4-1.5a1 1 0 0 0-.53-.15H13.5L10.3.46A1 1 0 0 0 9.45 0H7.31a1 1 0 0 0-.96 1.26L7.5 5.5h-2z"/>
</svg>
