<svg xmlns="http://www.w3.org/2000/svg" viewBox="0 0 16 16" fill="currentColor">
  <path d="M12.5 5a1.5 1.5 0 1 1-3 0 1.5 1.5 0 0 1 3 0z"/>
  <path fill-rule="evenodd" d="M6.495 3.5H3.14a2 2 0 0 0-1.962 1.608L.74 7.304A1 1 0 0 0 1.72 8.5h2.466a.82.82 0 0 1 .223.408l2.684 2.684c.115.115.257.19.408.223v2.841a1 1 0 0 0 1.287.958l2.288-.686a2 2 0 0 0 1.425-1.916V9.505a8.092 8.092 0 0 0 3.194-7.647l-.133-.927a.58.58 0 0 0-.492-.493l-.928-.132A8.092 8.092 0 0 0 6.495 3.5zm3.95 5.488L7.822 10.2l-2.02-2.021 1.21-2.625a6.592 6.592 0 0 1 6.918-3.763l.245.035.035.245a6.592 6.592 0 0 1-3.763 6.917zM4.693 7l.923-2H3.14a.5.5 0 0 0-.49.402L2.33 7h2.362zM11 10.385l-2 .923v2.676l1.644-.493a.5.5 0 0 0 .356-.48v-2.626z"/>
  <path fill-rule="evenodd" d="M5.268 10.732a2.5 2.5 0 0 1 0 3.536C4.29 15.244 1.476 16.476.5 15.5c-.976-.976.256-3.791 1.232-4.768a2.5 2.5 0 0 1 3.536 0zm-1.06 1.06a1 1 0 0 1 0 1.415c-.279.278-1 .726-1.788.983a3.233 3.233 0 0 1-.774.164 3.23 3.23 0 0 1 .164-.774c.257-.789.705-1.509.983-1.787a1 1 0 0 1 1.414 0z"/>
</svg>
