<svg xmlns="http://www.w3.org/2000/svg" viewBox="0 0 20 16" fill="currentColor">
  <path d="M14.5 5a1.5 1.5 0 1 1-3 0 1.5 1.5 0 0 1 3 0z"/>
  <path fill-rule="evenodd" d="M8.5 3.5H5.13a2 2 0 0 0-1.96 1.6l-.44 2.2a1 1 0 0 0 .98 1.2h2.47a.82.82 0 0 1 .22.4l2.68 2.7c.12.1.26.18.41.21v2.85a1 1 0 0 0 1.29.95l2.29-.68A2 2 0 0 0 14.5 13V9.5a8.1 8.1 0 0 0 3.2-7.65l-.14-.93a.58.58 0 0 0-.49-.5L16.14.3A8.1 8.1 0 0 0 8.5 3.5zm3.94 5.49L9.82 10.2 7.8 8.18l1.21-2.63a6.6 6.6 0 0 1 6.92-3.76l.24.04.04.24A6.6 6.6 0 0 1 12.45 9zM6.7 7l.93-2H5.14a.5.5 0 0 0-.49.4L4.33 7h2.36zm6.3 3.38-2 .93v2.67l1.64-.49a.5.5 0 0 0 .36-.48v-2.63z"/>
  <path fill-rule="evenodd" d="M7.27 10.73a2.5 2.5 0 0 1 0 3.54c-.98.97-3.8 2.2-4.77 1.23-.98-.98.26-3.8 1.23-4.77a2.5 2.5 0 0 1 3.54 0zM6.2 11.8a1 1 0 0 1 0 1.42c-.28.27-1 .72-1.79.98a3.23 3.23 0 0 1-.77.16 3.23 3.23 0 0 1 .16-.77c.26-.79.7-1.5.98-1.79a1 1 0 0 1 1.42 0z"/>
</svg>
