<svg xmlns="http://www.w3.org/2000/svg" viewBox="0 0 16 16" fill="currentColor">
  <path d="M13 3.75a.75.75 0 1 1-1.5 0 .75.75 0 0 1 1.5 0zm-3.25.75a.75.75 0 1 0 0-1.5.75.75 0 0 0 0 1.5zm2.5 6a.75.75 0 1 0 0-1.5.75.75 0 0 0 0 1.5zm-1.75-.75a.75.75 0 1 1-1.5 0 .75.75 0 0 1 1.5 0z"/>
  <path fill-rule="evenodd" d="M0 2a2 2 0 0 1 2-2h12a2 2 0 0 1 2 2v12a2 2 0 0 1-2 2H2a2 2 0 0 1-2-2V2zm2-.5h12a.5.5 0 0 1 .5.5v4h-13V2a.5.5 0 0 1 .5-.5zm-.5 6V14a.5.5 0 0 0 .5.5h12a.5.5 0 0 0 .5-.5V7.5h-13z"/>
</svg>
