<svg xmlns="http://www.w3.org/2000/svg" viewBox="0 0 20 16" fill="currentColor">
  <path d="M9.25 10.75v-2h-2a.75.75 0 0 1 0-1.5h2v-2a.75.75 0 0 1 1.5 0v2h2a.75.75 0 0 1 0 1.5h-2v2a.75.75 0 0 1-1.5 0z"/>
  <path fill-rule="evenodd" d="M9.3.26 3.4 2.47A1.87 1.87 0 0 0 2.18 4.5C2.9 8.97 5.36 16 10 16c4.64 0 7.1-7.03 7.82-11.5.14-.89-.4-1.72-1.23-2.03L10.7.27a2 2 0 0 0-1.4 0zM3.94 3.88l5.88-2.21a.5.5 0 0 1 .36 0l5.88 2.2c.24.1.3.28.28.39a22.44 22.44 0 0 1-2.27 6.94c-1.21 2.18-2.6 3.3-4.07 3.3-1.47 0-2.86-1.12-4.07-3.3a22.44 22.44 0 0 1-2.27-6.94c-.01-.11.04-.3.28-.38z"/>
</svg>
