<svg xmlns="http://www.w3.org/2000/svg" viewBox="0 0 20 16" fill="currentColor">
  <path d="M10.75 8.3v1.45a.75.75 0 0 1-1.5 0V8.3a1.5 1.5 0 1 1 1.5 0z"/>
  <path fill-rule="evenodd" d="M3.41 2.47 9.3.27a2 2 0 0 1 1.4 0l5.89 2.2a1.86 1.86 0 0 1 1.23 2.02C17.1 8.98 14.64 16 10 16 5.36 16 2.9 8.97 2.18 4.5c-.14-.89.4-1.72 1.23-2.03zm6.41-.8-5.88 2.2c-.23.1-.3.28-.28.39.34 2.12 1.1 4.82 2.27 6.94 1.21 2.18 2.6 3.3 4.07 3.3 1.47 0 2.86-1.12 4.07-3.3a22.47 22.47 0 0 0 2.27-6.94c.01-.11-.04-.3-.28-.39l-5.88-2.2a.5.5 0 0 0-.36 0z"/>
</svg>
