<svg xmlns="http://www.w3.org/2000/svg" viewBox="0 0 16 16" fill="currentColor">
  <path d="M8.75 8.3v1.45a.75.75 0 1 1-1.5 0V8.3a1.5 1.5 0 1 1 1.5 0z"/>
  <path fill-rule="evenodd" d="M1.412 2.47 7.298.264a2 2 0 0 1 1.404 0l5.886 2.208c.836.313 1.37 1.141 1.229 2.023C15.103 8.969 12.639 16 8 16 3.36 16 .897 8.969.183 4.494c-.14-.882.393-1.71 1.229-2.023zm6.412-.802L1.938 3.875c-.233.088-.291.272-.274.382.34 2.127 1.093 4.822 2.267 6.94C5.144 13.384 6.531 14.5 8 14.5c1.47 0 2.856-1.116 4.069-3.303 1.174-2.118 1.927-4.813 2.267-6.94.017-.11-.04-.294-.274-.382L8.176 1.668a.5.5 0 0 0-.352 0z"/>
</svg>
