<svg xmlns="http://www.w3.org/2000/svg" viewBox="0 0 20 16" fill="currentColor">
  <path d="M5 2.5 6.2.49A1 1 0 0 1 7.08 0h10.05a.5.5 0 0 1 .43.76L16.5 2.5H5zM3 5H1.54a.5.5 0 0 1-.39-.81L2.2 2.87a1 1 0 0 1 .78-.37H5L3 5zm11 0H3v9a2 2 0 0 0 2 2h3.26a5.5 5.5 0 0 1-.89-1.5H5.5a1 1 0 0 1-1-1v-7h8V7c1.1 0 2.14.33 3 .89V5h.59a1 1 0 0 0 .7-.3l1.36-1.35a.5.5 0 0 0-.36-.85H16.5L14 5z"/>
  <path d="M12.25 13a.75.75 0 1 0 0-1.5.75.75 0 0 0 0 1.5z"/>
  <path fill-rule="evenodd" d="M16 12.25a3.75 3.75 0 1 1-7.5 0 3.75 3.75 0 0 1 7.5 0zm-1.5 0a2.25 2.25 0 1 1-4.5 0 2.25 2.25 0 0 1 4.5 0z"/>
</svg>
