<svg xmlns="http://www.w3.org/2000/svg" viewBox="0 0 18 16" fill="currentColor">
  <path d="M4 2.5 5.209.486A1 1 0 0 1 6.066 0h10.05a.5.5 0 0 1 .43.757L15.5 2.5H4zM2 5H.54a.5.5 0 0 1-.39-.812L1.2 2.875a1 1 0 0 1 .78-.375H4L2 5zm11 0H2v9a2 2 0 0 0 2 2h3.257a5.496 5.496 0 0 1-.882-1.5H4.5a1 1 0 0 1-1-1v-7h8V7c1.107 0 2.137.327 3 .89V5h.586a1 1 0 0 0 .707-.293l1.353-1.353a.5.5 0 0 0-.353-.854H15.5L13 5z"/>
  <path d="M11.25 13a.75.75 0 1 0 0-1.5.75.75 0 0 0 0 1.5z"/>
  <path fill-rule="evenodd" d="M15 12.25a3.75 3.75 0 1 1-7.5 0 3.75 3.75 0 0 1 7.5 0zm-1.5 0a2.25 2.25 0 1 1-4.5 0 2.25 2.25 0 0 1 4.5 0z"/>
</svg>
