<svg xmlns="http://www.w3.org/2000/svg" viewBox="0 0 20 16" fill="currentColor">
  <path d="M4.35 3.64c.42-.16.88-.16 1.3 0l1.66.67a.5.5 0 0 0 .38 0l1.66-.67.56 1.4-1.67.66a2 2 0 0 1-1.48 0l-1.67-.66a.25.25 0 0 0-.18 0l-1.67.66a2 2 0 0 1-.24.08V16H1.5V5.6l-.65-.26a1 1 0 0 1-.59-1.22L1.5 0h17l1.24 4.12a1 1 0 0 1-.59 1.22l-.65.26V16H17V8.5h-3.75a.25.25 0 0 0-.25.25V16h-1.5V8.75c0-.97.78-1.75 1.75-1.75H17V5.78a2 2 0 0 1-.24-.08l-1.67-.66.56-1.4 1.66.67a.5.5 0 0 0 .38 0l.48-.2-.79-2.61H2.62l-.79 2.62.48.19a.5.5 0 0 0 .38 0l1.66-.67z"/>
  <path d="m14.9 5.04-.55-1.4c.42-.16.88-.16 1.3 0l-.56 1.4a.25.25 0 0 0-.18 0z"/>
  <path d="m10.1 5.04.55-1.4 1.66.67a.5.5 0 0 0 .38 0l1.66-.67.56 1.4-1.67.66a2 2 0 0 1-1.48 0l-1.67-.66z"/>
  <path d="m10.1 5.04.55-1.4a1.75 1.75 0 0 0-1.3 0l.56 1.4a.25.25 0 0 1 .18 0z"/>
  <path fill-rule="evenodd" d="M4.5 9c0-1.1.9-2 2-2H8a2 2 0 0 1 2 2v2a2 2 0 0 1-2 2H6.5a2 2 0 0 1-2-2V9zm2-.5A.5.5 0 0 0 6 9v2c0 .28.22.5.5.5H8a.5.5 0 0 0 .5-.5V9a.5.5 0 0 0-.5-.5H6.5z"/>
</svg>
