<svg xmlns="http://www.w3.org/2000/svg" viewBox="0 0 14 16" fill="currentColor">
  <path d="M4.5 12.5v-6A.5.5 0 0 1 5 6h.5a.5.5 0 0 1 .5.5v6a.5.5 0 0 1-.5.5H5a.5.5 0 0 1-.5-.5zm3.5-6v6a.5.5 0 0 0 .5.5H9a.5.5 0 0 0 .5-.5v-6A.5.5 0 0 0 9 6h-.5a.5.5 0 0 0-.5.5z"/>
  <path fill-rule="evenodd" d="m3.5 3 .221-1.329A2 2 0 0 1 5.694 0h2.612a2 2 0 0 1 1.973 1.671L10.5 3h2.75a.75.75 0 0 1 0 1.5H13l-.841 9.673A2 2 0 0 1 10.166 16H3.834a2 2 0 0 1-1.993-1.827L1 4.5H.75a.75.75 0 0 1 0-1.5H3.5zM5 3h4l-.386-1.158A.5.5 0 0 0 8.14 1.5H5.86a.5.5 0 0 0-.474.342L5 3zm5.665 11.043.83-9.543h-8.99l.83 9.543a.5.5 0 0 0 .499.457h6.332a.5.5 0 0 0 .498-.457z"/>
</svg>
