<svg xmlns="http://www.w3.org/2000/svg" viewBox="0 0 20 16" fill="currentColor">
  <path d="M7.5 12.5v-6A.5.5 0 0 1 8 6h.5a.5.5 0 0 1 .5.5v6a.5.5 0 0 1-.5.5H8a.5.5 0 0 1-.5-.5zm3.5-6v6a.5.5 0 0 0 .5.5h.5a.5.5 0 0 0 .5-.5v-6A.5.5 0 0 0 12 6h-.5a.5.5 0 0 0-.5.5z"/>
  <path fill-rule="evenodd" d="m6.5 3 .22-1.33A2 2 0 0 1 8.7 0h2.62a2 2 0 0 1 1.97 1.67L13.5 3h2.75a.75.75 0 0 1 0 1.5H16l-.84 9.67a2 2 0 0 1-2 1.83H6.84a2 2 0 0 1-1.99-1.83L4 4.5h-.25a.75.75 0 0 1 0-1.5H6.5zM8 3h4l-.39-1.16a.5.5 0 0 0-.47-.34H8.86a.5.5 0 0 0-.47.34L8 3zm5.67 11.04.82-9.54H5.5l.83 9.54a.5.5 0 0 0 .5.46h6.34a.5.5 0 0 0 .5-.46z"/>
</svg>
