<svg xmlns="http://www.w3.org/2000/svg" viewBox="0 0 20 16" fill="currentColor">
  <path d="M7.5 12.5v-6A.5.5 0 0 1 8 6h.5a.5.5 0 0 1 .5.5v6a.5.5 0 0 1-.5.5H8a.5.5 0 0 1-.5-.5zm3.5-6v6a.5.5 0 0 0 .5.5h.5a.5.5 0 0 0 .5-.5v-6A.5.5 0 0 0 12 6h-.5a.5.5 0 0 0-.5.5z"/>
  <path fill-rule="evenodd" d="m6.5 3 .221-1.329A2 2 0 0 1 8.694 0h2.612a2 2 0 0 1 1.973 1.671L13.5 3h2.75a.75.75 0 0 1 0 1.5H16l-.841 9.673A2 2 0 0 1 13.166 16H6.834a2 2 0 0 1-1.993-1.827L4 4.5h-.25a.75.75 0 0 1 0-1.5H6.5zM8 3h4l-.386-1.158a.5.5 0 0 0-.474-.342H8.86a.5.5 0 0 0-.474.342L8 3zm5.665 11.043.83-9.543h-8.99l.83 9.543a.5.5 0 0 0 .499.457h6.332a.5.5 0 0 0 .498-.457z"/>
</svg>
