<svg xmlns="http://www.w3.org/2000/svg" viewBox="0 0 20 16" fill="currentColor">
  <path d="M16.36 4.74v.43c0 4.33-3.3 9.33-9.32 9.33A9.27 9.27 0 0 1 2 13.02c.26.03.52.04.8.04a6.57 6.57 0 0 0 4.06-1.4A3.29 3.29 0 0 1 3.8 9.4a3.46 3.46 0 0 0 1.48-.06A3.28 3.28 0 0 1 2.65 6.1v-.04c.44.24.94.4 1.48.42a3.28 3.28 0 0 1-1.46-2.73c0-.61.16-1.17.45-1.66a9.32 9.32 0 0 0 6.76 3.43 3.7 3.7 0 0 1-.08-.75 3.28 3.28 0 0 1 3.28-3.28c.94 0 1.8.4 2.4 1.04a6.46 6.46 0 0 0 2.07-.8 3.27 3.27 0 0 1-1.44 1.81c.66-.07 1.3-.25 1.89-.5a7.05 7.05 0 0 1-1.65 1.69z"/>
</svg>
