<svg xmlns="http://www.w3.org/2000/svg" viewBox="0 0 20 16" fill="currentColor">
  <path fill-rule="evenodd" d="M11.36 3.75a3.75 3.75 0 1 1-7.5 0 3.75 3.75 0 0 1 7.5 0zm-1.5 0a2.25 2.25 0 1 1-4.5 0 2.25 2.25 0 0 1 4.5 0z"/>
  <path d="M1.77 13.47c-.81-.87-1.08-2.22-.32-3.14a3.64 3.64 0 0 1 2.3-1.28 27.35 27.35 0 0 1 5.5-.22 3.49 3.49 0 0 0-.68 1.47 25.84 25.84 0 0 0-4.62.24 2.14 2.14 0 0 0-1.34.75c-.08.1-.13.22-.1.43.03.23.15.5.36.72A6.48 6.48 0 0 0 7.6 14.5a7 7 0 0 0 .92-.06c.06.52.24 1 .51 1.43A8.05 8.05 0 0 1 7.6 16a7.98 7.98 0 0 1-5.84-2.53zm12.73-.22a.75.75 0 1 0 0-1.5.75.75 0 0 0 0 1.5z"/>
  <path fill-rule="evenodd" d="M10 11a2 2 0 0 1 2-2V7.5a2.5 2.5 0 0 1 5 0V9a2 2 0 0 1 2 2v3a2 2 0 0 1-2 2h-5a2 2 0 0 1-2-2v-3zm7-.5a.5.5 0 0 1 .5.5v3a.5.5 0 0 1-.5.5h-5a.5.5 0 0 1-.5-.5v-3a.5.5 0 0 1 .5-.5h5zm-1.5-3V9h-2V7.5a1 1 0 1 1 2 0z"/>
</svg>
