<svg xmlns="http://www.w3.org/2000/svg" viewBox="0 0 20 16" fill="currentColor">
  <path fill-rule="evenodd" d="M13.75 3.75a3.75 3.75 0 1 1-7.5 0 3.75 3.75 0 0 1 7.5 0zm-1.5 0a2.25 2.25 0 1 0-4.5 0 2.25 2.25 0 0 0 4.5 0zm-8.09 9.72c-.81-.87-1.08-2.22-.32-3.14a3.64 3.64 0 0 1 2.3-1.28 27.8 27.8 0 0 1 7.73 0c.92.13 1.73.6 2.29 1.28.76.92.5 2.27-.32 3.14a7.98 7.98 0 0 1-11.68 0zM5 11.29c-.08.1-.13.22-.1.43.03.23.15.5.36.72a6.48 6.48 0 0 0 9.48 0c.21-.22.33-.49.36-.72.03-.2-.02-.34-.1-.43-.33-.4-.8-.67-1.34-.75a25.85 25.85 0 0 0-7.32 0c-.54.08-1.01.35-1.34.75z"/>
</svg>
