<svg xmlns="http://www.w3.org/2000/svg" viewBox="0 0 20 16" fill="currentColor">
  <path fill-rule="evenodd" d="M11.36 3.75a3.75 3.75 0 1 1-7.5 0 3.75 3.75 0 0 1 7.5 0zm-1.5 0a2.25 2.25 0 1 0-4.5 0 2.25 2.25 0 0 0 4.5 0z"/>
  <path d="M1.77 13.47c-.81-.87-1.08-2.22-.32-3.14a3.64 3.64 0 0 1 2.3-1.28c2.43-.35 4.9-.36 7.34-.05h-.84c-.9 0-1.67.53-2.03 1.28-1.43-.03-2.85.06-4.27.26-.54.08-1.01.35-1.34.75-.08.1-.13.22-.1.43.03.23.15.5.36.72a6.48 6.48 0 0 0 8.2 1.06H12v1.19a7.96 7.96 0 0 1-10.23-1.22z"/>
  <path d="M15 7.25v3.25h3.25a.75.75 0 0 1 0 1.5H15v3.25a.75.75 0 0 1-1.5 0V12h-3.25a.75.75 0 0 1 0-1.5h3.25V7.25a.75.75 0 0 1 1.5 0z"/>
</svg>
