<svg xmlns="http://www.w3.org/2000/svg" viewBox="0 0 20 16" fill="currentColor">
  <path fill-rule="evenodd" d="M11.36 3.75a3.75 3.75 0 1 1-7.5 0 3.75 3.75 0 0 1 7.5 0zm-1.5 0a2.25 2.25 0 1 0-4.5 0 2.25 2.25 0 0 0 4.5 0z"/>
  <path d="M1.77 13.47c-.81-.87-1.08-2.22-.32-3.14a3.64 3.64 0 0 1 2.3-1.28c1.82-.26 3.67-.33 5.5-.22-.33.42-.57.92-.68 1.47-1.54-.06-3.09.02-4.62.24-.54.08-1.01.35-1.34.75-.08.1-.13.22-.1.43.03.23.15.5.36.72a6.48 6.48 0 0 0 5.66 2c.06.52.24 1 .51 1.43a8.06 8.06 0 0 1-7.27-2.4zm12.73-.22a.75.75 0 1 0 0-1.5.75.75 0 0 0 0 1.5z"/>
  <path fill-rule="evenodd" d="M10 11c0-1.1.9-2 2-2V7.5a2.5 2.5 0 0 1 5 0V9a2 2 0 0 1 2 2v3a2 2 0 0 1-2 2h-5a2 2 0 0 1-2-2v-3zm7-.5h-5a.5.5 0 0 0-.5.5v3c0 .28.22.5.5.5h5a.5.5 0 0 0 .5-.5v-3a.5.5 0 0 0-.5-.5zm-1.5-3a1 1 0 1 0-2 0V9h2V7.5z"/>
</svg>
