<svg xmlns="http://www.w3.org/2000/svg" viewBox="0 0 20 16" fill="currentColor">
  <path fill-rule="evenodd" d="M11.36 3.75a3.75 3.75 0 1 1-7.5 0 3.75 3.75 0 0 1 7.5 0zm-1.5 0a2.25 2.25 0 1 0-4.5 0 2.25 2.25 0 0 0 4.5 0z"/>
  <path d="M1.77 13.47c-.81-.87-1.08-2.22-.32-3.14a3.64 3.64 0 0 1 2.3-1.28c1.25-.18 2.53-.27 3.8-.27-.34.4-.55.9-.55 1.47v.03c-1.02.03-2.04.11-3.05.26-.54.08-1.01.35-1.34.75-.08.1-.13.22-.1.43.03.23.15.5.36.72a6.48 6.48 0 0 0 8.63.77v1.78a7.96 7.96 0 0 1-9.73-1.52z"/>
  <path d="M14.5 5.75V9.5h3.75a.75.75 0 0 1 0 1.5H14.5v4.25a.75.75 0 0 1-1.5 0V11H9.25a.75.75 0 0 1 0-1.5H13V5.75a.75.75 0 0 1 1.5 0z"/>
</svg>
