<svg xmlns="http://www.w3.org/2000/svg" viewBox="0 0 20 16" fill="currentColor">
  <path fill-rule="evenodd" d="M11.36 3.75a3.75 3.75 0 1 1-7.5 0 3.75 3.75 0 0 1 7.5 0zm-1.5 0a2.25 2.25 0 1 1-4.5 0 2.25 2.25 0 0 1 4.5 0z"/>
  <path d="M1.772 13.47c-.816-.871-1.082-2.22-.32-3.138a3.64 3.64 0 0 1 2.29-1.28 27.355 27.355 0 0 1 3.806-.274A2.243 2.243 0 0 0 7 10.25v.035a25.83 25.83 0 0 0-3.046.253 2.14 2.14 0 0 0-1.348.753c-.076.09-.126.222-.099.433.03.228.15.497.36.72A6.478 6.478 0 0 0 7.61 14.5c1.46 0 2.805-.48 3.89-1.292v1.784A7.964 7.964 0 0 1 7.61 16a7.978 7.978 0 0 1-5.838-2.53z"/>
  <path d="M14.5 5.75V9.5h3.75a.75.75 0 0 1 0 1.5H14.5v4.25a.75.75 0 0 1-1.5 0V11H9.25a.75.75 0 0 1 0-1.5H13V5.75a.75.75 0 0 1 1.5 0z"/>
</svg>
