<svg xmlns="http://www.w3.org/2000/svg" viewBox="0 0 20 16" fill="currentColor">
  <path fill-rule="evenodd" d="M11.36 3.75a3.75 3.75 0 1 1-7.5 0 3.75 3.75 0 0 1 7.5 0zm-1.5 0a2.25 2.25 0 1 1-4.5 0 2.25 2.25 0 0 1 4.5 0z"/>
  <path d="M1.77 13.47c-.81-.87-1.08-2.22-.32-3.14a3.64 3.64 0 0 1 2.3-1.28 27.36 27.36 0 0 1 3.8-.27A2.24 2.24 0 0 0 7 10.25v.04a25.83 25.83 0 0 0-3.05.25 2.14 2.14 0 0 0-1.34.75c-.08.1-.13.22-.1.43.03.23.15.5.36.72A6.48 6.48 0 0 0 7.6 14.5c1.46 0 2.8-.48 3.89-1.3V15a7.96 7.96 0 0 1-3.89 1 7.98 7.98 0 0 1-5.84-2.53z"/>
  <path d="M14.5 5.75V9.5h3.75a.75.75 0 0 1 0 1.5H14.5v4.25a.75.75 0 0 1-1.5 0V11H9.25a.75.75 0 0 1 0-1.5H13V5.75a.75.75 0 0 1 1.5 0z"/>
</svg>
