<svg xmlns="http://www.w3.org/2000/svg" viewBox="0 0 20 16" fill="currentColor">
  <path fill-rule="evenodd" d="M11.44 3.75a3.75 3.75 0 1 1-7.5 0 3.75 3.75 0 0 1 7.5 0zm-1.5 0a2.25 2.25 0 1 0-4.5 0 2.25 2.25 0 0 0 4.5 0z"/>
  <path d="M2.68 11.3c.33-.4.8-.68 1.35-.76 1.57-.23 3.15-.3 4.73-.24a2.24 2.24 0 0 1-.21-1.5c-1.58-.06-3.16.03-4.73.25-.93.13-1.73.6-2.3 1.28-.75.92-.49 2.27.33 3.14a7.98 7.98 0 0 0 6.76 2.48 2.25 2.25 0 0 1 .04-1.52 6.55 6.55 0 0 1-5.7-1.99 1.28 1.28 0 0 1-.37-.72.59.59 0 0 1 .1-.43zm8.07 3.2h7.5a.75.75 0 0 1 0 1.5h-7.5a.75.75 0 0 1 0-1.5zm7.5-1.5h-7.5a.75.75 0 0 1 0-1.5h7.5a.75.75 0 0 1 0 1.5zm0-4.5h-7.5a.75.75 0 0 0 0 1.5h7.5a.75.75 0 0 0 0-1.5z"/>
</svg>
