<svg xmlns="http://www.w3.org/2000/svg" viewBox="0 0 14 16" fill="currentColor">
  <path fill-rule="evenodd" d="M10.75 3.75a3.75 3.75 0 1 1-7.5 0 3.75 3.75 0 0 1 7.5 0zm-1.5 0a2.25 2.25 0 1 1-4.5 0 2.25 2.25 0 0 1 4.5 0zm-8.089 9.72C.346 12.598.08 11.25.842 10.331a3.64 3.64 0 0 1 2.29-1.28 27.354 27.354 0 0 1 7.736 0 3.64 3.64 0 0 1 2.29 1.28c.763.918.496 2.267-.32 3.137A7.978 7.978 0 0 1 7 16a7.978 7.978 0 0 1-5.839-2.53zm.835-2.179a2.14 2.14 0 0 1 1.348-.753 25.852 25.852 0 0 1 7.312 0 2.14 2.14 0 0 1 1.348.753c.076.09.126.222.099.433a1.35 1.35 0 0 1-.359.72A6.478 6.478 0 0 1 7 14.5a6.478 6.478 0 0 1-4.744-2.056 1.351 1.351 0 0 1-.359-.72c-.027-.211.023-.342.099-.433z"/>
</svg>
