<svg xmlns="http://www.w3.org/2000/svg" viewBox="0 0 20 16" fill="currentColor">
  <path fill-rule="evenodd" d="M13.75 3.75a3.75 3.75 0 1 1-7.5 0 3.75 3.75 0 0 1 7.5 0zm-1.5 0a2.25 2.25 0 1 1-4.5 0 2.25 2.25 0 0 1 4.5 0zm-8.09 9.72c-.81-.87-1.08-2.22-.32-3.14a3.64 3.64 0 0 1 2.3-1.28 27.35 27.35 0 0 1 7.73 0 3.64 3.64 0 0 1 2.29 1.28c.76.92.5 2.27-.32 3.14A7.98 7.98 0 0 1 10 16a7.98 7.98 0 0 1-5.84-2.53zM5 11.29a2.14 2.14 0 0 1 1.34-.75 25.85 25.85 0 0 1 7.32 0 2.14 2.14 0 0 1 1.34.75c.08.1.13.22.1.43a1.35 1.35 0 0 1-.36.72A6.48 6.48 0 0 1 10 14.5a6.48 6.48 0 0 1-4.74-2.06 1.35 1.35 0 0 1-.36-.72c-.03-.2.02-.34.1-.43z"/>
</svg>
