<svg xmlns="http://www.w3.org/2000/svg" viewBox="0 0 20 16" fill="currentColor">
  <path fill-rule="evenodd" d="M10 7.5c.12 0 .24 0 .36-.02.38-.3.86-.48 1.39-.48h.12a3.75 3.75 0 1 0-1.87.5zm0-6A2.25 2.25 0 1 1 10 6a2.25 2.25 0 0 1 0-4.5z"/>
  <path d="M6.13 9.05c1.14-.16 2.28-.25 3.42-.27a2.26 2.26 0 0 0 .2 1.5c-1.14.01-2.28.1-3.4.26-.55.08-1.02.35-1.35.75-.08.1-.13.22-.1.43.03.23.15.5.36.72a6.48 6.48 0 0 0 4.37 2.05 2.25 2.25 0 0 0 0 1.5 7.98 7.98 0 0 1-5.47-2.52c-.81-.87-1.08-2.22-.32-3.14a3.64 3.64 0 0 1 2.3-1.28z"/>
  <path fill-rule="evenodd" d="M2.75 6.5a2.25 2.25 0 1 0 0-4.5 2.25 2.25 0 0 0 0 4.5zm0-1.5a.75.75 0 1 1 0-1.5.75.75 0 0 1 0 1.5z"/>
  <path d="M4.8 7.84c.12-.05.2-.16.2-.3a.3.3 0 0 0-.3-.29H2.75A2.75 2.75 0 0 0 0 10v1.25a.75.75 0 0 0 1.5 0V10c0-.69.56-1.25 1.25-1.25h.5c.44-.39.97-.7 1.54-.91zm6.95 6.66h7.5a.75.75 0 0 1 0 1.5h-7.5a.75.75 0 0 1 0-1.5zm7.5-1.5h-7.5a.75.75 0 0 1 0-1.5h7.5a.75.75 0 0 1 0 1.5zm0-4.5h-7.5a.75.75 0 0 0 0 1.5h7.5a.75.75 0 0 0 0-1.5z"/>
</svg>
