<svg xmlns="http://www.w3.org/2000/svg" viewBox="0 0 18 16" fill="currentColor">
  <path fill-rule="evenodd" d="M10.36 3.75a3.75 3.75 0 1 1-7.5 0 3.75 3.75 0 0 1 7.5 0zm-1.5 0a2.25 2.25 0 1 1-4.5 0 2.25 2.25 0 0 1 4.5 0z"/>
  <path d="M.772 13.47c-.816-.871-1.082-2.22-.32-3.138a3.64 3.64 0 0 1 2.29-1.28 27.354 27.354 0 0 1 5.514-.225 3.486 3.486 0 0 0-.685 1.469 25.842 25.842 0 0 0-4.617.242 2.14 2.14 0 0 0-1.348.753c-.076.09-.126.222-.099.433.03.228.15.497.36.72A6.478 6.478 0 0 0 6.61 14.5c.311 0 .617-.022.917-.064.065.523.245 1.01.515 1.436A8.055 8.055 0 0 1 6.61 16a7.978 7.978 0 0 1-5.838-2.53zm12.728-.22a.75.75 0 1 0 0-1.5.75.75 0 0 0 0 1.5z"/>
  <path fill-rule="evenodd" d="M9 11a2 2 0 0 1 2-2V7.5a2.5 2.5 0 0 1 5 0V9a2 2 0 0 1 2 2v3a2 2 0 0 1-2 2h-5a2 2 0 0 1-2-2v-3zm7-.5a.5.5 0 0 1 .5.5v3a.5.5 0 0 1-.5.5h-5a.5.5 0 0 1-.5-.5v-3a.5.5 0 0 1 .5-.5h5zm-1.5-3V9h-2V7.5a1 1 0 1 1 2 0z"/>
</svg>
