<svg xmlns="http://www.w3.org/2000/svg" viewBox="0 0 20 16" fill="currentColor">
  <path fill-rule="evenodd" d="M6.77 3.78 10.7.65a.5.5 0 0 1 .81.39v13.92a.5.5 0 0 1-.81.39l-3.92-3.13a1 1 0 0 0-.62-.22H3.5a1 1 0 0 1-1-1V5a1 1 0 0 1 1-1h2.65a1 1 0 0 0 .62-.22zm-.62 6.72c.57 0 1.12.2 1.56.55L10 12.88V3.12L7.71 4.95c-.44.36-1 .55-1.56.55H4v5h2.15z"/>
  <path d="M18 8a5 5 0 0 1-5 5v-1.5a3.5 3.5 0 1 0 0-7V3a5 5 0 0 1 5 5z"/>
  <path d="M15.5 8a2.5 2.5 0 0 1-2.5 2.5V9a1 1 0 1 0 0-2V5.5A2.5 2.5 0 0 1 15.5 8z"/>
</svg>
