<svg xmlns="http://www.w3.org/2000/svg" viewBox="0 0 20 16" fill="currentColor">
  <path d="M11.5 15.5h-.07c.05-.17.07-.35.07-.54V14a6 6 0 0 0 0-12v-.96c0-.19-.02-.37-.07-.54h.07a7.5 7.5 0 0 1 0 15z"/>
  <path d="M16.5 8a5 5 0 0 1-5 5v-1.5a3.5 3.5 0 1 0 0-7V3a5 5 0 0 1 5 5z"/>
  <path d="M14 8a2.5 2.5 0 0 1-2.5 2.5V9a1 1 0 1 0 0-2V5.5A2.5 2.5 0 0 1 14 8z"/>
  <path fill-rule="evenodd" d="M5.27 3.78 9.2.65a.5.5 0 0 1 .81.39v13.92a.5.5 0 0 1-.81.39l-3.92-3.13a1 1 0 0 0-.62-.22H2a1 1 0 0 1-1-1V5a1 1 0 0 1 1-1h2.65a1 1 0 0 0 .62-.22zm-.62 6.72c.57 0 1.12.2 1.56.55l2.29 1.83V3.12L6.21 4.95c-.44.36-1 .55-1.56.55H2.5v5h2.15z"/>
</svg>
