<svg xmlns="http://www.w3.org/2000/svg" viewBox="0 0 20 16" fill="currentColor"><path d="M9 7.5a2 2 0 1 0 0-4 2 2 0 0 0 0 4ZM5.76 9.88c-.44.52-.29 1.04.18 1.53.83.89 1.75 1.19 3.06 1.19 1.3 0 2.23-.3 3.06-1.19.47-.5.62-1 .18-1.53a2.06 2.06 0 0 0-1.3-.72 12.2 12.2 0 0 0-3.88 0c-.53.07-.99.34-1.3.72Z"/><path fill-rule="evenodd" d="M4.5 0a2 2 0 0 0-2 2v12c0 1.1.9 2 2 2h9a2 2 0 0 0 2-2V2a2 2 0 0 0-2-2h-9Zm9 1.5c.28 0 .5.22.5.5v12a.5.5 0 0 1-.5.5h-9A.5.5 0 0 1 4 14V2c0-.28.22-.5.5-.5h9Z"/><path d="M17.25 2a.75.75 0 0 0-.75.75v1.5a.75.75 0 0 0 1.5 0v-1.5a.75.75 0 0 0-.75-.75Zm-.75 6.75v-1.5a.75.75 0 0 1 1.5 0v1.5a.75.75 0 0 1-1.5 0Zm0 3v1.5a.75.75 0 0 0 1.5 0v-1.5a.75.75 0 0 0-1.5 0Z"/></svg>