<svg xmlns="http://www.w3.org/2000/svg" viewBox="0 0 20 16" fill="currentColor"><path d="M12.23 1.34a7.52 7.52 0 0 1 4.93 4.93 3.5 3.5 0 0 0-4.93-4.93Zm-4.46 0a7.52 7.52 0 0 0-4.93 4.93 3.5 3.5 0 0 1 4.93-4.93ZM9.25 8.5V5.75a.75.75 0 0 1 1.5 0v2.44l.91.91a.75.75 0 1 1-1.06 1.06L9.53 9.1a.76.76 0 0 1-.03-.03.75.75 0 0 1-.25-.56Z"/><path fill-rule="evenodd" d="M10 15c1.35 0 2.6-.4 3.63-1.1l1.31 1.52a.75.75 0 0 0 1.14-.98l-1.3-1.53A6.5 6.5 0 1 0 10 15Zm0-1.5a5 5 0 1 1 0-10 5 5 0 0 1 0 10Z"/><path d="M6.37 13.9c-.42-.29-.8-.62-1.14-.99l-1.31 1.53a.75.75 0 1 0 1.14.98l1.3-1.53Z"/></svg>