<svg xmlns="http://www.w3.org/2000/svg" viewBox="0 0 20 21" fill="currentColor"><path d="M7.56 1.3A10.02 10.02 0 0 0 .9 6.85 4.5 4.5 0 0 1 7.56 1.3ZM19.1 6.85a10.02 10.02 0 0 0-6.66-5.55 4.5 4.5 0 0 1 6.66 5.55ZM11 10.17V8a1 1 0 0 0-2 0v2.17a3 3 0 0 0 .88 2.12l.46.46a1 1 0 0 0 1.41-1.41l-.46-.46a1 1 0 0 1-.29-.7Z"/><path fill-rule="evenodd" d="M18 11a8 8 0 0 1-2.34 5.65l1.52 1.95a1 1 0 0 1-1.58 1.22l-1.52-1.94a7.96 7.96 0 0 1-8.16 0L4.4 19.82a1 1 0 0 1-1.58-1.22l1.52-1.95A8 8 0 1 1 18 11Zm-2 0a6 6 0 1 0-12 0 6 6 0 0 0 12 0Z"/></svg>