<svg xmlns="http://www.w3.org/2000/svg" viewBox="0 0 20 20" fill="currentColor"><path d="M.83 2.14c.46.51.98 1.53 1.46 2.98a31 31 0 0 1 1.1 4.83c.25 1.73.38 3.46.34 4.95a8.92 8.92 0 0 1-.53 3.27 1.28 1.28 0 1 0 2.32 1.1c.53-1.13.73-2.7.77-4.31.04-1.66-.1-3.54-.37-5.38a32.52 32.52 0 0 0-1.2-5.26A11.23 11.23 0 0 0 2.73.42a1.28 1.28 0 1 0-1.9 1.72ZM11.06 13a30.12 30.12 0 0 0-3.59 3.3 28.69 28.69 0 0 0 .03-3.65 36.56 36.56 0 0 1 4.05-3.2 28.7 28.7 0 0 0 3.56.8c-1.29.71-2.7 1.67-4.05 2.74ZM8.91 7.2c-.8-.31-1.6-.66-2.37-1.03a28.68 28.68 0 0 0-1.08-3.49c1.26.77 2.8 1.51 4.4 2.14 1.62.65 3.27 1.16 4.73 1.47a9.1 9.1 0 0 0 3.31.23 1.28 1.28 0 0 1 .54 2.5c-1.22.26-2.79.1-4.38-.22-1.62-.34-3.42-.9-5.15-1.6Z"/></svg>