<svg xmlns="http://www.w3.org/2000/svg" viewBox="0 0 16 16" fill="currentColor"><path fill-rule="evenodd" d="M10.47 6.78a.75.75 0 1 0 1.06-1.06l-3-3a.75.75 0 0 0-1.06 0l-3 3a.75.75 0 0 0 1.06 1.06L8 4.31l2.47 2.47ZM5.53 9.22a.75.75 0 0 0-1.06 1.06l3 3c.3.3.77.3 1.06 0l3-3a.75.75 0 1 0-1.06-1.06L8 11.69 5.53 9.22Z"/><path d="M10.47 6.78a.75.75 0 1 0 1.06-1.06l-3-3a.75.75 0 0 0-1.06 0l-3 3a.75.75 0 0 0 1.06 1.06L8 4.31l2.47 2.47ZM5.53 9.22a.75.75 0 0 0-1.06 1.06l3 3c.3.3.77.3 1.06 0l3-3a.75.75 0 1 0-1.06-1.06L8 11.69 5.53 9.22Z"/></svg>