<svg xmlns="http://www.w3.org/2000/svg" viewBox="0 0 24 24" fill="currentColor"><path d="M19.07 3H4.93C3.86 3 3 3.86 3 4.93v14.14C3 20.14 3.86 21 4.93 21h14.14c1.07 0 1.93-.86 1.93-1.93V4.93C21 3.86 20.14 3 19.07 3ZM8.1 17.16a.8.8 0 1 1-1.39-.8l.58-1c.64-.19 1.17-.04 1.59.46l-.78 1.34ZM13.68 15h-7.3a.8.8 0 0 1-.8-.8.8.8 0 0 1 .8-.81h2.04l2.63-4.55-.82-1.42a.8.8 0 0 1 .3-1.1.8.8 0 0 1 1.09.3l.36.61.35-.61a.8.8 0 1 1 1.4.8l-3.45 5.97h2.5c.8 0 1.26.95.9 1.6Zm3.95 0h-1.17l.79 1.36a.8.8 0 0 1-1.4.8l-2.97-5.14c-.67-1.17-.19-2.33.29-2.73l2.37 4.1h2.09a.8.8 0 0 1 0 1.6Z"/></svg>