<svg xmlns="http://www.w3.org/2000/svg" viewBox="0 0 24 24" fill="currentColor"><path d="m12.75 12.75-1.5-1.5-2.88 4.38 4.38-2.88ZM12 2a10 10 0 1 0 0 20 10 10 0 0 0 0-20Zm6.28 7.05.6-.25a.32.32 0 0 1 .25.6l-.6.24a.32.32 0 0 1-.25-.6Zm-3.92-3.58.24-.6a.32.32 0 0 1 .6.25l-.25.6a.32.32 0 1 1-.6-.25ZM12 4.1a.32.32 0 0 1 .32.32v.64a.32.32 0 0 1-.64 0v-.64A.32.32 0 0 1 12 4.1Zm-3.02.6a.32.32 0 0 1 .42.17l.24.6a.32.32 0 1 1-.6.24l-.24-.6a.32.32 0 0 1 .18-.41ZM6.4 6.4a.32.32 0 0 1 .46 0l.45.46a.32.32 0 0 1-.45.45l-.46-.45a.32.32 0 0 1 0-.46ZM4.1 12a.32.32 0 0 1 .32-.32h.64a.32.32 0 0 1 0 .64h-.64A.32.32 0 0 1 4.1 12Zm1.62 2.95-.6.25a.32.32 0 0 1-.25-.6l.6-.24a.32.32 0 0 1 .25.6Zm.17-5.48a.32.32 0 0 1-.42.17l-.6-.24a.32.32 0 0 1 .25-.6l.6.25a.32.32 0 0 1 .17.42Zm3.75 9.06-.24.6a.32.32 0 0 1-.53.1.32.32 0 0 1-.07-.35l.25-.6a.32.32 0 0 1 .42-.18.32.32 0 0 1 .17.43Zm2.68 1.05a.32.32 0 1 1-.64 0v-.64a.32.32 0 1 1 .64 0v.64Zm2.7-.28a.32.32 0 0 1-.42-.17l-.24-.6a.32.32 0 0 1 .6-.24l.24.6a.32.32 0 0 1-.18.41Zm2.57-1.71a.32.32 0 0 1-.46 0l-.45-.46a.32.32 0 0 1 .45-.45l.46.45a.32.32 0 0 1 0 .46Zm-4.37-4.37-7.1 4.65 4.66-7.09 7.1-4.65-4.66 7.09Zm6.08 1.8a.32.32 0 0 1-.42.18l-.6-.25a.32.32 0 1 1 .25-.6l.6.25a.32.32 0 0 1 .17.42Zm.28-2.7h-.64a.32.32 0 1 1 0-.64h.64a.32.32 0 1 1 0 .64Z"/></svg>