<svg xmlns="http://www.w3.org/2000/svg" viewBox="0 0 20 16" fill="currentColor"><path d="M15.5 1h-11C3.67 1 3 1.67 3 2.5v11c0 .83.67 1.5 1.5 1.5h11c.83 0 1.5-.67 1.5-1.5v-11c0-.83-.67-1.5-1.5-1.5ZM6.97 12.02a.62.62 0 1 1-1.08-.63l.44-.77c.5-.15.92-.04 1.24.36l-.6 1.04Zm4.34-1.69H5.62A.63.63 0 0 1 5 9.71c0-.35.28-.63.63-.63h1.59l2.04-3.54-.64-1.1a.63.63 0 0 1 .23-.86c.3-.17.68-.06.85.23l.28.48.28-.48a.62.62 0 1 1 1.08.63L8.66 9.08h1.94c.63 0 .98.74.7 1.25Zm3.06 0h-.9l.61 1.06a.63.63 0 0 1-1.08.63l-2.31-4c-.52-.91-.15-1.82.22-2.13l1.84 3.2h1.63c.34 0 .62.27.62.62 0 .34-.28.62-.63.62Z"/></svg>