<svg xmlns="http://www.w3.org/2000/svg" viewBox="0 0 16 16" fill="currentColor"><path stroke="#000" stroke-linecap="round" stroke-linejoin="round" stroke-width="1.5" d="M8 12.75v-12m0 12L2.75 7.5M8 12.75l5.25-5.25"/><path stroke="#000" stroke-linecap="round" stroke-miterlimit="16" stroke-width="1.5" d="M2.75 15.25h10.5"/><path d="M8 0c.41 0 .75.34.75.75v10.19l3.97-3.97a.75.75 0 1 1 1.06 1.06l-5.25 5.25c-.3.3-.77.3-1.06 0L2.22 8.03a.75.75 0 0 1 1.06-1.06l3.97 3.97V.75C7.25.34 7.59 0 8 0ZM2 15.25c0-.41.34-.75.75-.75h10.5a.75.75 0 0 1 0 1.5H2.75a.75.75 0 0 1-.75-.75Z"/></svg>