<svg xmlns="http://www.w3.org/2000/svg" viewBox="0 0 20 16" fill="currentColor"><path fill-rule="evenodd" d="M6.77.67A1 1 0 0 1 7.7 0h4.58a1 1 0 0 1 .94.67l4.81 14A1 1 0 0 1 17.1 16h-5.21a1 1 0 0 1-.68-.26L8.46 13.2l-.73 2.12a1 1 0 0 1-.94.67H2.9a1 1 0 0 1-.94-1.33l4.8-14ZM9.2 6.42 7.89 2.58a.1.1 0 0 0-.2 0L3.73 14.17c-.06.16.06.33.23.33h2.3c.1 0 .2-.07.24-.17l.76-2.22-.8-.74a.5.5 0 0 1 .34-.87h3.82L10 8.73l-.6 1.77H7.8l1.4-4.08Zm4.3 7.91c.04.1.13.17.24.17h2.3c.17 0 .29-.17.23-.33l-4.3-12.5a.25.25 0 0 0-.23-.17h-2.3a.25.25 0 0 0-.23.33l4.3 12.5ZM9.36 12l2.29 2.1c.08.07.2 0 .16-.1l-.69-2H9.37Z"/></svg>