<svg xmlns="http://www.w3.org/2000/svg" viewBox="0 0 20 16" fill="currentColor"><g clip-path="url(#a)"><path fill-rule="evenodd" d="M.1 16H2l.04.04.03-.04h15.86l.03.04L18 16h2V0h-2l-.04-.04-.03.04H2.07l-.03-.04L2 0H0v16h.1Zm18.9-.1h.9V.1H18V7h1v8.9ZM17.9 7V3c0-.5-.4-.9-.9-.9v3.2c.2.54.36 1.1.43 1.7h.47Zm-.45.1h.45V13c0 .5-.4.9-.9.9v-3.2a7.48 7.48 0 0 0 .45-3.6Zm-.12-.1A7.35 7.35 0 0 0 17 5.6V7h.33Zm-.33.1h.35a7.47 7.47 0 0 1-.35 3.3V7.1Zm-.1-.1V5.32a7.39 7.39 0 0 0-.9-1.65V7h.9Zm-.9.1h.9v3.58c-.23.6-.53 1.15-.9 1.65V7.1Zm-.1-.1V3.53c-.2-.25-.4-.5-.63-.73l-3.11 3.11c.3.31.52.68.67 1.09h3.07Zm-3.04.1h3.04v5.37c-.2.25-.4.5-.63.73l-3.11-3.11a2.99 2.99 0 0 0 .7-2.99Zm-.14-.1a2.9 2.9 0 0 0-.63-1.01L11.07 7h1.65Zm-1.75.1h1.79a2.9 2.9 0 0 1-.67 2.92l-1.99-2v-.05l.87-.87Zm-.04-.1 1.09-1.09a2.9 2.9 0 0 0-4.03 0L10 7.93V7h.93Zm-.83.83V7.1h.73l-.73.73Zm-.1.24L7.99 10.1c.52.5 1.23.81 2.01.81V8.07ZM10 11a3 3 0 0 1-2.09-.84l-3.1 3.1c.22.23.47.45.72.64H10V11Zm.1 2.9V11a2.99 2.99 0 0 0 1.99-.84l3.1 3.1c-.22.23-.47.45-.72.64H10.1Zm-.1.1H5.67c.5.37 1.06.67 1.65.9H10V14Zm.1.9V14h4.23c-.5.37-1.06.67-1.65.9H10.1Zm-.1.1H7.6c.75.26 1.56.4 2.4.4V15Zm.1.4V15h2.3a7.3 7.3 0 0 1-2.3.4Zm-.1.1c-.95 0-1.86-.18-2.7-.5H4.1c0 .5.4.9.9.9h5v-.4Zm.1.4v-.4a7.48 7.48 0 0 0 2.6-.5h3.2c0 .5-.4.9-.9.9h-4.9Zm5.34 0h2.39l-1.16-1.16A1 1 0 0 1 16 15a1 1 0 0 1-.56.9Zm2.56 0V7.1h.9v8.8H18Zm-7.9-5V8.17l1.92 1.92c-.5.48-1.18.78-1.92.8ZM4.56.1H2.17l1.16 1.16A1 1 0 0 1 4 1a1 1 0 0 1 .56-.9ZM2.1.17l1.16 1.16A1 1 0 0 0 3 2a1 1 0 0 0-.9.56V.17ZM2.1 3v10c0 .5.4.9.9.9v-3.2a7.48 7.48 0 0 1 0-5.4V2.1c-.5 0-.9.4-.9.9Zm1-.9v2.96A7.5 7.5 0 0 1 4 3.5V2.1h-.9Zm1.07 0 .56.56c.2-.2.42-.38.64-.56h-1.2ZM5.5 2H4.1v-.9h2.96A7.5 7.5 0 0 0 5.5 2Zm.03.1c-.25.2-.5.4-.73.63l3.11 3.11a2.99 2.99 0 0 1 4.18 0l3.1-3.1a7.43 7.43 0 0 0-.72-.64H5.53Zm-.8.7 3.11 3.11a2.99 2.99 0 0 0 0 4.18l-3.1 3.1a7.43 7.43 0 0 1-.64-.72V3.53c.2-.25.4-.5.63-.73ZM7.1 8c0 .78.31 1.5.81 2.02L9.93 8 7.9 5.99c-.49.51-.8 1.23-.8 2.01ZM5.67 2c.5-.37 1.06-.67 1.65-.9h5.36c.6.23 1.15.53 1.65.9H5.67Zm8.96.1c.22.18.44.36.64.56l.56-.56h-1.2ZM15.9 2h-1.4a7.5 7.5 0 0 0-1.56-.9h2.96V2Zm.1.1v1.4c.36.48.66 1 .9 1.56V2.1H16Zm.9-.1a.9.9 0 0 0-.23-.6l-.6.6h.83Zm1 .56A1 1 0 0 0 17 2a1 1 0 0 0-.26-.67L17.9.17v2.4Zm0 10.88a1 1 0 0 1-.9.56 1 1 0 0 1-.26.67l1.16 1.16v-2.4Zm-1 .46v-2.96a7.49 7.49 0 0 1-.9 1.56v1.4h.9Zm-.83.1h.83a.9.9 0 0 1-.23.6l-.6-.6Zm-.24-.1-.56-.56c-.2.2-.42.38-.64.56h1.2Zm-1.33.1h1.4v.9h-2.96a7.49 7.49 0 0 0 1.56-.9Zm-9.13-.1a7.52 7.52 0 0 1-.64-.56l-.56.56h1.2ZM4.1 14h1.4c.48.36 1 .66 1.56.9H4.1V14Zm-.1-.1v-1.4a7.5 7.5 0 0 1-.9-1.56v2.96H4Zm-.9.1c0 .23.09.44.23.6l.6-.6H3.1ZM3 14a1 1 0 0 1-.9-.56v2.39l1.16-1.16A1 1 0 0 1 3 14Zm-1-1v2.9H.1V.1H2V13ZM3.93 2H3.1a.9.9 0 0 1 .23-.6l.6.6ZM2.6 8c0-.84.14-1.65.4-2.4v4.8A7.39 7.39 0 0 1 2.6 8ZM4 3.67c-.37.5-.67 1.06-.9 1.65v5.36c.23.6.53 1.15.9 1.65V3.67ZM2.17 15.9l1.16-1.16A1 1 0 0 0 4 15c0 .4.23.74.56.9H2.17Zm1.23-1.23a.9.9 0 0 0 .6.23v-.83l-.6.6Zm12.6.23a.9.9 0 0 0 .6-.23l-.6-.6v.83ZM17.83.1l-1.16 1.16A1 1 0 0 0 16 1a1 1 0 0 0-.56-.9h2.39ZM16 1.93V1.1a.9.9 0 0 1 .6.23l-.6.6ZM15 .1c.5 0 .9.4.9.9h-3.2a7.48 7.48 0 0 0-5.4 0H4.1c0-.5.4-.9.9-.9h10Zm-5 .5c.84 0 1.65.14 2.4.4H7.6C8.34.74 9.15.6 10 .6Zm-6.6.73A.9.9 0 0 1 4 1.1v.83l-.6-.6Zm.7 2.04v-1.2l.56.56c-.2.2-.38.42-.56.64Zm0 9.26v1.2l.56-.56c-.2-.2-.38-.42-.56-.64Zm11.8-9.26v-1.2l-.56.56c.2.2.38.42.56.64Zm0 9.26v1.2l-.56-.56c.2-.2.38-.42.56-.64Z"/><path fill-rule="evenodd" d="M8.63 14.28a1 1 0 0 0 1.62-.78V2.54a1 1 0 0 0-1.62-.78L2.02 7.04c-.63.5-.63 1.45 0 1.95l6.6 5.29ZM3.2 8.02l5.55-4.44v8.88L3.2 8.02Z"/><path d="m15.63 14.28-3.88-3.1V9.26l4 3.2V3.58l-4 3.2V4.86l3.88-3.1a1 1 0 0 1 1.62.78V13.5a1 1 0 0 1-1.62.78Z"/></g><defs><clipPath id="a"><path d="M0 0h20v16H0z"/></clipPath></defs></svg>