<svg xmlns="http://www.w3.org/2000/svg" viewBox="0 0 20 16" fill="currentColor"><path d="M8 4a.75.75 0 0 0-1.5 0v8A.75.75 0 0 0 8 12V4Zm3.5 0A.75.75 0 0 0 10 4v8a.75.75 0 0 0 1.5 0V4Z"/><path fill-rule="evenodd" d="M4.75 0C3.78 0 3 .78 3 1.75v11.5A2.75 2.75 0 0 0 5.75 16h6.5A2.75 2.75 0 0 0 15 13.25v-1.31h1.25c.97 0 1.75-.79 1.75-1.75V5.75C18 4.78 17.22 4 16.25 4H15V1.75C15 .78 14.22 0 13.25 0h-8.5ZM4.5 1.75c0-.14.11-.25.25-.25h8.5c.14 0 .25.11.25.25v11.5c0 .69-.56 1.25-1.25 1.25h-6.5c-.69 0-1.25-.56-1.25-1.25V1.75Zm11.75 8.69H15V5.5h1.25c.14 0 .25.11.25.25v4.44c0 .13-.11.25-.25.25Z"/></svg>