<svg xmlns="http://www.w3.org/2000/svg" viewBox="0 0 20 16" fill="currentColor"><path fill-rule="evenodd" d="M10.4 2.5h-.65a.75.75 0 0 1 0-1.5h.66c.64 0 1.23.35 1.53.9l1.64 3 1.22 2.28a4 4 0 1 1-1.32.71l-.61-1.14-2.44 3.92c-.32.52-.88.83-1.49.83h-.97a4 4 0 1 1-3-4.38l.91-1.82-.46-.69a.25.25 0 0 0-.2-.11H3.74a.75.75 0 0 1 0-1.5H5.2c.59 0 1.14.3 1.46.78l.48.72h4.5l-1.02-1.87a.25.25 0 0 0-.22-.13ZM4.29 8.52 4 8.5a2.5 2.5 0 1 0 2.45 3h-.83a1.75 1.75 0 0 1-1.57-2.53l.23-.45Zm11.06 2.83-1.13-2.1A2.5 2.5 0 0 0 16 13.5a2.5 2.5 0 1 0-.47-4.96l1.13 2.1a.75.75 0 0 1-1.32.71ZM11.57 6h-3.4l1.77 2.62L11.57 6ZM9.05 9.98l-2.2-3.25-1.46 2.9c-.08.17.04.37.23.37h3.32c.04 0 .07 0 .1-.02Z"/></svg>