<svg xmlns="http://www.w3.org/2000/svg" viewBox="0 0 20 16" fill="currentColor"><path d="M6.75 3a.75.75 0 0 0 0 1.5h6.5a.75.75 0 0 0 0-1.5h-6.5Zm1.5 2.5a.75.75 0 0 0 0 1.5h3.5a.75.75 0 0 0 0-1.5h-3.5Z"/><path fill-rule="evenodd" d="M3 2.75v11C3 14.99 4 16 5.25 16h11a.75.75 0 0 0 0-1.5H15V13h1.25c.41 0 .75-.34.75-.75v-9.5A2.75 2.75 0 0 0 14.25 0h-8.5A2.75 2.75 0 0 0 3 2.75ZM5.75 1.5h8.5c.69 0 1.25.56 1.25 1.25v8.75H5.25c-.26 0-.52.05-.75.13V2.75c0-.69.56-1.25 1.25-1.25ZM5.25 13h8.25v1.5H5.25a.75.75 0 0 1 0-1.5Z"/></svg>