<svg xmlns="http://www.w3.org/2000/svg" viewBox="0 0 20 16" fill="currentColor"><path fill-rule="evenodd" d="M3.68.07a1 1 0 0 0-1.18.98v9.76c0 .45.3.85.75.96l6.5 1.69a1 1 0 0 0 .5 0l6.5-1.69a1 1 0 0 0 .75-.96V1.05a1 1 0 0 0-1.18-.98L10 1.24 3.68.07ZM4 1.65l5.25.97v9.16L4 10.42V1.65Zm12 8.77-5.25 1.36V2.62L16 1.65v8.77Z"/><path d="M1.5 2A.75.75 0 0 0 0 2v9.43c0 1.27.87 2.37 2.1 2.67l7.25 1.76c.43.1.87.1 1.3 0l7.25-1.76c1.23-.3 2.1-1.4 2.1-2.67V2a.75.75 0 0 0-1.5 0v9.43c0 .57-.4 1.08-.95 1.21l-7.25 1.77c-.2.04-.4.04-.6 0l-7.25-1.77a1.25 1.25 0 0 1-.95-1.21V2Z"/></svg>