<svg xmlns="http://www.w3.org/2000/svg" viewBox="0 0 20 16" fill="currentColor"><path d="M11.42 6.3c0-.7-.49-1.08-1.34-1.08H8.5v2.23h1.33c1.03 0 1.6-.42 1.6-1.16Zm5.74-.4a9.8 9.8 0 0 1-.31-3.07c.03-.96-.7-1.83-1.7-1.83H4.86c-1 0-1.75.88-1.71 1.83.03.91-.01 2.1-.31 3.06-.3.97-.8 1.58-1.63 1.66v.9c.82.07 1.33.68 1.63 1.65.3.97.34 2.15.3 3.07-.03.95.72 1.83 1.72 1.83h10.27c1 0 1.74-.88 1.7-1.83-.02-.92.02-2.1.31-3.07.3-.97.8-1.58 1.63-1.66v-.89c-.82-.08-1.33-.69-1.62-1.66Zm-6.78 5.82H7.32V4.27h3.05c1.35 0 2.24.74 2.24 1.86 0 .8-.6 1.5-1.36 1.62v.04c1.03.11 1.73.83 1.73 1.82 0 1.32-.98 2.11-2.6 2.11Zm-.31-3.4H8.5v2.46h1.64c1.07 0 1.63-.43 1.63-1.24 0-.8-.58-1.21-1.7-1.21Z"/></svg>