<svg xmlns="http://www.w3.org/2000/svg" viewBox="0 0 16 16" fill="currentColor"><path d="M7 4a2 2 0 0 1-.8 1.6l1.7.36.17-.28.15.25 1.54-.33-.8-1.4 2.59-1.5 1.3 2.24 1.53-.33-1.78-3.1a1 1 0 0 0-1.37-.36L8.3 2.85A3.5 3.5 0 0 0 1.55 4.6l.07.01 1.62.35A2 2 0 1 1 7 4ZM1.41 5.59 8 7l-1.78 3.12a.5.5 0 0 1-.63.21L.46 8.19a.5.5 0 0 1-.28-.65L.84 5.9a.5.5 0 0 1 .57-.3ZM8 7l1.78 3.12c.13.22.4.3.63.21l5.13-2.14a.5.5 0 0 0 .28-.65l-.66-1.65a.5.5 0 0 0-.57-.3L8 7Z"/><path d="M1 9.5v3.24c0 .79.52 1.48 1.28 1.69l5.52 1.54c.13.04.27.04.4 0l5.52-1.54c.76-.21 1.28-.9 1.28-1.69V9.5l-1.5.63v2.61c0 .11-.07.21-.18.24l-4.57 1.28v-3.94L8 9.02l-.75 1.31v3.93l-4.57-1.28a.25.25 0 0 1-.18-.24v-2.62L1 9.5Z"/></svg>