<svg xmlns="http://www.w3.org/2000/svg" viewBox="0 0 20 16" fill="currentColor"><path d="m16.64 4.31-1.7.3.1-.06-1.5-2.6-2.59 1.5.97 1.68-1.57.28-.42-.72c-.05.25-.13.5-.23.73l-1.56-.27a2 2 0 1 0-3.57-.62L3 4.24V4a3.5 3.5 0 0 1 6.65-1.52 1 1 0 0 1 .12-.08l3.46-2a1 1 0 0 1 1.37.37l2 3.46a1 1 0 0 1 .04.08ZM10 7 1.9 5.57a.5.5 0 0 0-.55.3L.7 7.52a.5.5 0 0 0 .3.66l6.61 2.2a.5.5 0 0 0 .6-.23L10 7Zm0 0 1.8 3.14c.11.21.36.3.59.23l6.6-2.2a.5.5 0 0 0 .31-.66l-.65-1.63a.5.5 0 0 0-.55-.3L10 7Z"/><path d="M10 9.5c.41 0 .75.34.75.75v3.94l5.75-1.8v-1.8l1.5-.5v2.67a1 1 0 0 1-.7.96l-6.7 2.1a2 2 0 0 1-1.2 0l-6.7-2.1a1 1 0 0 1-.7-.96V10.1l1.5.5v1.8l5.75 1.8v-3.94c0-.41.34-.75.75-.75Z"/></svg>