<svg xmlns="http://www.w3.org/2000/svg" viewBox="0 0 16 16" fill="currentColor"><path d="M4.75 1A2.75 2.75 0 0 0 2 3.75v1.92c0 .33-.13.65-.37.89L.8 7.4a.85.85 0 0 0 0 1.2l.84.84c.24.24.37.56.37.89v1.92A2.75 2.75 0 0 0 4.75 15h.5a.75.75 0 0 0 0-1.5h-.5c-.69 0-1.25-.56-1.25-1.25v-1.92c0-.73-.29-1.43-.8-1.95L2.3 8l.38-.38c.52-.52.81-1.22.81-1.95V3.75c0-.69.56-1.25 1.25-1.25h.5a.75.75 0 0 0 0-1.5h-.5Zm6.5 14A2.75 2.75 0 0 0 14 12.25v-1.92c0-.33.13-.65.37-.89l.84-.84a.85.85 0 0 0 0-1.2l-.84-.84a1.25 1.25 0 0 1-.37-.89V3.75A2.75 2.75 0 0 0 11.25 1h-.5a.75.75 0 0 0 0 1.5h.5c.69 0 1.25.56 1.25 1.25v1.92c0 .73.29 1.43.8 1.95l.39.38-.38.38a2.76 2.76 0 0 0-.81 1.95v1.92c0 .69-.56 1.25-1.25 1.25h-.5a.75.75 0 0 0 0 1.5h.5Z"/></svg>