<svg xmlns="http://www.w3.org/2000/svg" viewBox="0 0 20 20" fill="currentColor"><path fill-rule="evenodd" d="M6 6.86a3.5 3.5 0 1 0-2 0v6.28a3.5 3.5 0 1 0 4.47 2.89 3 3 0 0 1-1.76-2.58 3.48 3.48 0 0 0-.71-.3V12a1 1 0 0 1 1-1h.76l2-2H7a3 3 0 0 0-1 .17V6.86ZM5 15a1.5 1.5 0 1 1 0 3 1.5 1.5 0 0 1 0-3ZM6.5 3.5a1.5 1.5 0 1 1-3 0 1.5 1.5 0 0 1 3 0Zm12 0a3.5 3.5 0 0 1-2.43 3.33 3 3 0 0 0-3.25-.59A3.5 3.5 0 1 1 18.5 3.5ZM15 5a1.5 1.5 0 1 0 0-3 1.5 1.5 0 0 0 0 3Z"/><path d="M17.59 14 15 11.41V19a1 1 0 1 1-2 0v-7.59L10.41 14A1 1 0 0 1 9 12.59l4.3-4.3a1 1 0 0 1 1.4 0l4.3 4.3A1 1 0 0 1 17.59 14Z"/></svg>