<svg xmlns="http://www.w3.org/2000/svg" viewBox="0 0 20 16" fill="currentColor"><path d="M11.5 4v-.5a1.5 1.5 0 0 0-3 0V4H7v-.5a3 3 0 0 1 6 0V4h-1.5Z"/><path fill-rule="evenodd" d="M6 10.25v1.25c0 .3.03.58.09.85L4 14.44a.75.75 0 0 0 1.06 1.06l1.68-1.68a4 4 0 0 0 6.52 0l1.68 1.68A.75.75 0 0 0 16 14.44l-2.09-2.1c.06-.26.09-.55.09-.84v-1.25h2.25a.75.75 0 0 0 0-1.5H14V6.56l2-2a.75.75 0 1 0-1.06-1.06l-2 2H7.06l-2-2A.75.75 0 0 0 4 4.56l2 2v2.19H3.75a.75.75 0 0 0 0 1.5H6ZM7.5 7h5v4.5a2.5 2.5 0 0 1-5 0V7Z"/></svg>