<svg xmlns="http://www.w3.org/2000/svg" viewBox="0 0 24 24" fill="currentColor"><path d="M7 6a1 1 0 0 1 1-1h8a1 1 0 0 1 1 1v15h2V6a3 3 0 0 0-3-3H8a3 3 0 0 0-3 3v15h2V6Z"/><path d="M9.5 7a.5.5 0 0 0-.5.5v1c0 .28.22.5.5.5h1a.5.5 0 0 0 .5-.5v-1a.5.5 0 0 0-.5-.5h-1Zm3.5.5c0-.28.22-.5.5-.5h1c.28 0 .5.22.5.5v1a.5.5 0 0 1-.5.5h-1a.5.5 0 0 1-.5-.5v-1ZM9.5 11a.5.5 0 0 0-.5.5v1c0 .28.22.5.5.5h1a.5.5 0 0 0 .5-.5v-1a.5.5 0 0 0-.5-.5h-1Zm3.5.5c0-.28.22-.5.5-.5h1c.28 0 .5.22.5.5v1a.5.5 0 0 1-.5.5h-1a.5.5 0 0 1-.5-.5v-1ZM10.5 21v-4.5a1.5 1.5 0 0 1 3 0V21h-3Z"/></svg>