<svg xmlns="http://www.w3.org/2000/svg" viewBox="0 0 20 16" fill="currentColor"><path d="M5.5 2.75c0-.69.56-1.25 1.25-1.25h6.5c.69 0 1.25.56 1.25 1.25V16H16V2.75A2.75 2.75 0 0 0 13.25 0h-6.5A2.75 2.75 0 0 0 4 2.75V16h1.5V2.75Z"/><path d="M7 4.5v-1c0-.28.22-.5.5-.5h1c.28 0 .5.22.5.5v1a.5.5 0 0 1-.5.5h-1a.5.5 0 0 1-.5-.5Zm4-1v1c0 .28.22.5.5.5h1a.5.5 0 0 0 .5-.5v-1a.5.5 0 0 0-.5-.5h-1a.5.5 0 0 0-.5.5Zm-4 5v-1c0-.28.22-.5.5-.5h1c.28 0 .5.22.5.5v1a.5.5 0 0 1-.5.5h-1a.5.5 0 0 1-.5-.5Zm4-1v1c0 .28.22.5.5.5h1a.5.5 0 0 0 .5-.5v-1a.5.5 0 0 0-.5-.5h-1a.5.5 0 0 0-.5.5ZM8.5 16v-3.5a1 1 0 0 1 1-1h1a1 1 0 0 1 1 1V16h-3Z"/></svg>