<svg xmlns="http://www.w3.org/2000/svg" viewBox="0 0 24 24" fill="currentColor"><path d="M11 10a1 1 0 1 1 2 0 1 1 0 0 1-2 0Zm5-1a1 1 0 1 0 0 2 1 1 0 0 0 0-2Zm-9 1a1 1 0 1 1 2 0 1 1 0 0 1-2 0Zm5 2a1 1 0 1 0 0 2 1 1 0 0 0 0-2Zm3 1a1 1 0 1 1 2 0 1 1 0 0 1-2 0Zm-7-1a1 1 0 1 0 0 2 1 1 0 0 0 0-2Zm3 4a1 1 0 1 1 2 0 1 1 0 0 1-2 0Zm-3-1a1 1 0 1 0 0 2 1 1 0 0 0 0-2Z"/><path fill-rule="evenodd" d="M7 1a1 1 0 0 1 1 1v1h8V2a1 1 0 1 1 2 0v1h1a2 2 0 0 1 2 2v14a2 2 0 0 1-2 2H5a2 2 0 0 1-2-2V5c0-1.1.9-2 2-2h1V2a1 1 0 0 1 1-1ZM5 19h14V7H5v12Z"/></svg>