<svg xmlns="http://www.w3.org/2000/svg" viewBox="0 0 24 24" fill="currentColor"><path d="M12.75 15.5c.41 0 .75.34.75.75s.34.75.75.75h.5c.41 0 .75-.34.75-.75s.34-.75.75-.75.75-.34.75-.75v-.5a.75.75 0 0 0-.75-.75.75.75 0 0 1-.75-.75.75.75 0 0 0-.75-.75h-.5a.75.75 0 0 0-.75.75c0 .41-.34.75-.75.75a.75.75 0 0 0-.75.75v.5c0 .41.34.75.75.75ZM8.5 13.25a.75.75 0 0 0-.75-.75.75.75 0 0 1-.75-.75v-.5c0-.41.34-.75.75-.75s.75-.34.75-.75.34-.75.75-.75h.5c.41 0 .75.34.75.75s.34.75.75.75.75.34.75.75v.5c0 .41-.34.75-.75.75a.75.75 0 0 0-.75.75c0 .41-.34.75-.75.75h-.5a.75.75 0 0 1-.75-.75Z"/><path fill-rule="evenodd" d="M7 1a1 1 0 0 1 1 1v1h8V2a1 1 0 1 1 2 0v1h1a2 2 0 0 1 2 2v14a2 2 0 0 1-2 2H5a2 2 0 0 1-2-2V5c0-1.1.9-2 2-2h1V2a1 1 0 0 1 1-1Zm12 6H5v12h14V7Z"/></svg>