<svg xmlns="http://www.w3.org/2000/svg" viewBox="0 0 20 16" fill="currentColor"><path d="M11.3 9h-.05a.75.75 0 0 1 0-1.5h.05a.2.2 0 0 0 .2-.2v-.05a.75.75 0 0 1 1.5 0v.05c0 .11.09.2.2.2h.05a.75.75 0 0 1 0 1.5h-.05a.2.2 0 0 0-.2.2v.05a.75.75 0 0 1-1.5 0V9.2a.2.2 0 0 0-.2-.2Zm-4.55 3h.05c.11 0 .2.09.2.2v.05a.75.75 0 0 0 1.5 0v-.05c0-.11.09-.2.2-.2h.05a.75.75 0 0 0 0-1.5H8.7a.2.2 0 0 1-.2-.2v-.05a.75.75 0 0 0-1.5 0v.05a.2.2 0 0 1-.2.2h-.05a.75.75 0 0 0 0 1.5Z"/><path fill-rule="evenodd" d="M6.75 0A.75.75 0 0 0 6 .75V2H5a2 2 0 0 0-2 2v10c0 1.1.9 2 2 2h10a2 2 0 0 0 2-2V4a2 2 0 0 0-2-2h-1V.75a.75.75 0 0 0-1.5 0V2h-5V.75A.75.75 0 0 0 6.75 0ZM4.5 5h11v9a.5.5 0 0 1-.5.5H5a.5.5 0 0 1-.5-.5V5Z"/></svg>