<svg xmlns="http://www.w3.org/2000/svg" viewBox="0 0 20 20" fill="currentColor"><path d="M9 9a1 1 0 1 1 2 0 1 1 0 0 1-2 0Zm5-1a1 1 0 1 0 0 2 1 1 0 0 0 0-2ZM5 9a1 1 0 1 1 2 0 1 1 0 0 1-2 0Zm5 2a1 1 0 1 0 0 2 1 1 0 0 0 0-2Zm3 1a1 1 0 1 1 2 0 1 1 0 0 1-2 0Zm-7-1a1 1 0 1 0 0 2 1 1 0 0 0 0-2Zm3 4a1 1 0 1 1 2 0 1 1 0 0 1-2 0Zm-3-1a1 1 0 1 0 0 2 1 1 0 0 0 0-2Z"/><path fill-rule="evenodd" d="M5 0a1 1 0 0 1 1 1v1h8V1a1 1 0 1 1 2 0v1h1a2 2 0 0 1 2 2v14a2 2 0 0 1-2 2H3a2 2 0 0 1-2-2V4c0-1.1.9-2 2-2h1V1a1 1 0 0 1 1-1ZM3 18h14V6H3v12Z"/></svg>