<svg xmlns="http://www.w3.org/2000/svg" viewBox="0 0 20 20" fill="currentColor"><path d="M10.75 14.5c.41 0 .75.34.75.75s.34.75.75.75h.5c.41 0 .75-.34.75-.75s.34-.75.75-.75.75-.34.75-.75v-.5a.75.75 0 0 0-.75-.75.75.75 0 0 1-.75-.75.75.75 0 0 0-.75-.75h-.5a.75.75 0 0 0-.75.75c0 .41-.34.75-.75.75a.75.75 0 0 0-.75.75v.5c0 .41.34.75.75.75ZM6.5 12.25a.75.75 0 0 0-.75-.75.75.75 0 0 1-.75-.75v-.5c0-.41.34-.75.75-.75s.75-.34.75-.75.34-.75.75-.75h.5c.41 0 .75.34.75.75s.34.75.75.75.75.34.75.75v.5c0 .41-.34.75-.75.75a.75.75 0 0 0-.75.75c0 .41-.34.75-.75.75h-.5a.75.75 0 0 1-.75-.75Z"/><path fill-rule="evenodd" d="M5 0a1 1 0 0 1 1 1v1h8V1a1 1 0 1 1 2 0v1h1a2 2 0 0 1 2 2v14a2 2 0 0 1-2 2H3a2 2 0 0 1-2-2V4c0-1.1.9-2 2-2h1V1a1 1 0 0 1 1-1Zm12 6H3v12h14V6Z"/></svg>