<svg xmlns="http://www.w3.org/2000/svg" viewBox="0 0 20 16" fill="currentColor"><path fill-rule="evenodd" d="m9 0 1.5 2.5L12 1c2 1.5 2.5 2.5 2.5 4.5A4.5 4.5 0 0 1 10 10h-.16a4.34 4.34 0 0 1-4.32-4.66c.11-.62.6-2.94 2.25-4.48A5.37 5.37 0 0 1 9 0Zm3.09 3.03L10.2 4.92 8.56 2.19c-.36.4-.65.86-.9 1.35-.43.9-.6 1.75-.66 2.05v.07A2.84 2.84 0 0 0 9.84 8.5H10a3 3 0 0 0 3-3 3.4 3.4 0 0 0-.32-1.72c-.12-.22-.3-.46-.59-.75Z"/><path d="M4.26 9.8a.75.75 0 0 0-.52 1.4l4.07 1.5-5.07 1.85a.75.75 0 1 0 .52 1.4L10 13.5l6.74 2.46a.75.75 0 1 0 .52-1.4l-5.07-1.86 4.07-1.49a.75.75 0 1 0-.52-1.4L10 11.9 4.26 9.8Z"/></svg>