<svg xmlns="http://www.w3.org/2000/svg" viewBox="0 0 20 16" fill="currentColor"><path d="M6.5 9a1 1 0 1 1-2 0 1 1 0 0 1 2 0Zm9 0a1 1 0 1 1-2 0 1 1 0 0 1 2 0Z"/><path fill-rule="evenodd" d="m14.67 2.88.88 2.64A2.75 2.75 0 0 1 18 8.25v6a.75.75 0 0 1-1.5 0V12.5h-13v1.75a.75.75 0 0 1-1.5 0v-6a2.75 2.75 0 0 1 2.45-2.73l.88-2.64A2.75 2.75 0 0 1 7.94 1h4.12c1.18 0 2.23.76 2.6 1.88Zm-7.91.47L6.04 5.5h7.92l-.72-2.15a1.25 1.25 0 0 0-1.18-.85H7.94c-.54 0-1.01.34-1.18.85Zm9.74 4.9c0-.69-.56-1.25-1.25-1.25H4.75c-.69 0-1.25.56-1.25 1.25V11h13V8.25Z"/></svg>