<svg xmlns="http://www.w3.org/2000/svg" viewBox="0 0 16 16" fill="currentColor"><path d="M5 6v4a1 1 0 0 0 1 1h4a1 1 0 0 0 1-1V6a1 1 0 0 0-1-1H6a1 1 0 0 0-1 1Zm1.5 3.5v-3h3v3h-3Z"/><path d="M5 0c.41 0 .75.34.75.75V2h1.5V.75a.75.75 0 0 1 1.5 0V2h1.5V.75a.75.75 0 0 1 1.5 0v1.34a3 3 0 0 1 2.16 2.16h1.34a.75.75 0 0 1 0 1.5H14v1.5h1.25a.75.75 0 0 1 0 1.5H14v1.5h1.25a.75.75 0 0 1 0 1.5h-1.34a3 3 0 0 1-2.16 2.16v1.34a.75.75 0 0 1-1.5 0V14h-1.5v1.25a.75.75 0 0 1-1.5 0V14h-1.5v1.25a.75.75 0 0 1-1.5 0v-1.34a3 3 0 0 1-2.16-2.16H.75a.75.75 0 0 1 0-1.5H2v-1.5H.75a.75.75 0 0 1 0-1.5H2v-1.5H.75a.75.75 0 0 1 0-1.5h1.34a3 3 0 0 1 2.16-2.16V.75C4.25.34 4.59 0 5 0Zm6 3.5H5c-.83 0-1.5.67-1.5 1.5v6c0 .83.67 1.5 1.5 1.5h6c.83 0 1.5-.67 1.5-1.5V5c0-.83-.67-1.5-1.5-1.5Z"/></svg>