<svg xmlns="http://www.w3.org/2000/svg" viewBox="0 0 20 16" fill="currentColor"><path fill-rule="evenodd" d="M8 5a1 1 0 0 0-1 1v4a1 1 0 0 0 1 1h4a1 1 0 0 0 1-1V6a1 1 0 0 0-1-1H8Zm.5 1.5h3v3h-3v-3Z"/><path fill-rule="evenodd" d="M6 .75V2a2 2 0 0 0-2 2H2.75a.75.75 0 0 0 0 1.5H4v1.75H2.75a.75.75 0 0 0 0 1.5H4v1.75H2.75a.75.75 0 0 0 0 1.5H4c0 1.1.9 2 2 2v1.25a.75.75 0 0 0 1.5 0V14h1.75v1.25a.75.75 0 0 0 1.5 0V14h1.75v1.25a.75.75 0 0 0 1.5 0V14a2 2 0 0 0 2-2h1.25a.75.75 0 0 0 0-1.5H16V8.75h1.25a.75.75 0 0 0 0-1.5H16V5.5h1.25a.75.75 0 0 0 0-1.5H16a2 2 0 0 0-2-2V.75a.75.75 0 0 0-1.5 0V2h-1.75V.75a.75.75 0 0 0-1.5 0V2H7.5V.75a.75.75 0 0 0-1.5 0ZM6 3.5h8c.28 0 .5.22.5.5v8a.5.5 0 0 1-.5.5H6a.5.5 0 0 1-.5-.5V4c0-.28.22-.5.5-.5Z"/></svg>