<svg xmlns="http://www.w3.org/2000/svg" viewBox="0 0 24 24" fill="currentColor"><path d="M5 6a3 3 0 0 1 3-3h8a3 3 0 0 1 3 3v1h1a3 3 0 0 1 3 3v11h-2V10a1 1 0 0 0-1-1h-1a2 2 0 0 1-2-2V6a1 1 0 0 0-1-1H8a1 1 0 0 0-1 1v5a2 2 0 0 1-2 2H4a1 1 0 0 0-1 1v7H1v-7a3 3 0 0 1 3-3h1V6Z"/><path d="M9 7.5c0-.28.22-.5.5-.5h1c.28 0 .5.22.5.5v1a.5.5 0 0 1-.5.5h-1a.5.5 0 0 1-.5-.5v-1ZM5.5 15a.5.5 0 0 0-.5.5v1c0 .28.22.5.5.5h1a.5.5 0 0 0 .5-.5v-1a.5.5 0 0 0-.5-.5h-1Zm11.5.5c0-.28.22-.5.5-.5h1c.28 0 .5.22.5.5v1a.5.5 0 0 1-.5.5h-1a.5.5 0 0 1-.5-.5v-1Zm.5-4.5a.5.5 0 0 0-.5.5v1c0 .28.22.5.5.5h1a.5.5 0 0 0 .5-.5v-1a.5.5 0 0 0-.5-.5h-1ZM13 7.5c0-.28.22-.5.5-.5h1c.28 0 .5.22.5.5v1a.5.5 0 0 1-.5.5h-1a.5.5 0 0 1-.5-.5v-1ZM9.5 11a.5.5 0 0 0-.5.5v1c0 .28.22.5.5.5h1a.5.5 0 0 0 .5-.5v-1a.5.5 0 0 0-.5-.5h-1Zm3.5.5c0-.28.22-.5.5-.5h1c.28 0 .5.22.5.5v1a.5.5 0 0 1-.5.5h-1a.5.5 0 0 1-.5-.5v-1ZM10.5 21v-4.5a1.5 1.5 0 0 1 3 0V21h-3Z"/></svg>