<svg xmlns="http://www.w3.org/2000/svg" viewBox="0 0 20 16" fill="currentColor"><path d="M3.5 2.75A2.75 2.75 0 0 1 6.25 0h6.5a2.75 2.75 0 0 1 2.75 2.75v.75h1.75A2.75 2.75 0 0 1 20 6.25V16h-1.5V6.25c0-.69-.56-1.25-1.25-1.25h-2C14.56 5 14 4.44 14 3.75v-1c0-.69-.56-1.25-1.25-1.25h-6.5C5.56 1.5 5 2.06 5 2.75v5C5 8.44 4.44 9 3.75 9h-1c-.69 0-1.25.56-1.25 1.25V16H0v-5.75A2.75 2.75 0 0 1 2.75 7.5h.75V2.75Z"/><path d="M6.5 3.5v1c0 .28.22.5.5.5h1a.5.5 0 0 0 .5-.5v-1A.5.5 0 0 0 8 3H7a.5.5 0 0 0-.5.5Zm4 1v-1c0-.28.22-.5.5-.5h1c.28 0 .5.22.5.5v1a.5.5 0 0 1-.5.5h-1a.5.5 0 0 1-.5-.5Zm-4 3v1c0 .28.22.5.5.5h1a.5.5 0 0 0 .5-.5v-1A.5.5 0 0 0 8 7H7a.5.5 0 0 0-.5.5Zm4 1v-1c0-.28.22-.5.5-.5h1c.28 0 .5.22.5.5v1a.5.5 0 0 1-.5.5h-1a.5.5 0 0 1-.5-.5Zm4.5-1v1c0 .28.22.5.5.5h1a.5.5 0 0 0 .5-.5v-1a.5.5 0 0 0-.5-.5h-1a.5.5 0 0 0-.5.5Zm0 4c0-.28.22-.5.5-.5h1c.28 0 .5.22.5.5v1a.5.5 0 0 1-.5.5h-1a.5.5 0 0 1-.5-.5v-1ZM3 11v1c0 .28.22.5.5.5h1A.5.5 0 0 0 5 12v-1a.5.5 0 0 0-.5-.5h-1a.5.5 0 0 0-.5.5Zm5.5 5v-3.5a1 1 0 0 1 1-1h1a1 1 0 0 1 1 1V16h-3Z"/></svg>