<svg xmlns="http://www.w3.org/2000/svg" viewBox="0 0 20 16" fill="currentColor"><path d="M12 2.5H5a.5.5 0 0 0-.5.5v7c0 .28.22.5.5.5h3.2a3.1 3.1 0 0 0-.28 1.5H5a2 2 0 0 1-2-2V3c0-1.1.9-2 2-2h7a2 2 0 0 1 2 2v3.63c-.42.06-.84.2-1.23.43l-.27.17V3a.5.5 0 0 0-.5-.5Z"/><path fill-rule="evenodd" d="M13.55 8.35c.8-.48 1.83-.25 2.35.53l.9 1.33c.55.83.3 1.96-.56 2.47l-3.29 1.97c-.8.48-1.83.25-2.35-.53l-.9-1.33c-.55-.83-.3-1.96.56-2.47l3.29-1.97Zm1.1 1.36a.25.25 0 0 0-.33-.08l-2.38 1.43 1.17 1.75 2.35-1.41a.25.25 0 0 0 .08-.36l-.89-1.33Z"/></svg>