<svg xmlns="http://www.w3.org/2000/svg" viewBox="0 0 16 16" fill="currentColor"><path d="M6.78 4.72c.3.3.3.77 0 1.06L4.56 8l2.22 2.22a.75.75 0 1 1-1.06 1.06l-2.4-2.4a1.25 1.25 0 0 1 0-1.76l2.4-2.4c.3-.3.77-.3 1.06 0Zm2.44 0c.3-.3.77-.3 1.06 0l2.4 2.4c.48.48.48 1.28 0 1.76l-2.4 2.4a.75.75 0 0 1-1.06-1.06L11.44 8 9.22 5.78a.75.75 0 0 1 0-1.06Z"/><path d="M2.75 2A2.75 2.75 0 0 0 0 4.75v6.5A2.75 2.75 0 0 0 2.75 14h10.5A2.75 2.75 0 0 0 16 11.25v-6.5A2.75 2.75 0 0 0 13.25 2H2.75ZM1.5 4.75c0-.69.56-1.25 1.25-1.25h10.5c.69 0 1.25.56 1.25 1.25v6.5c0 .69-.56 1.25-1.25 1.25H2.75c-.69 0-1.25-.56-1.25-1.25v-6.5Z"/></svg>