<svg xmlns="http://www.w3.org/2000/svg" viewBox="0 0 20 16" fill="currentColor"><path d="M6.56 8 9 5.56c.3-.3.3-.77 0-1.06a.75.75 0 0 0-1.06 0L5.32 7.12a1.25 1.25 0 0 0 0 1.76l2.62 2.62c.3.3.77.3 1.06 0 .3-.3.3-.77 0-1.06L6.56 8Zm6.88 0L11 5.56a.75.75 0 0 1 1.06-1.06l2.62 2.62c.48.48.48 1.28 0 1.76l-2.62 2.62c-.3.3-.77.3-1.06 0a.75.75 0 0 1 0-1.06L13.44 8Z"/><path fill-rule="evenodd" d="M2 4c0-1.1.9-2 2-2h12a2 2 0 0 1 2 2v8a2 2 0 0 1-2 2H4a2 2 0 0 1-2-2V4Zm2-.5a.5.5 0 0 0-.5.5v8c0 .28.22.5.5.5h12a.5.5 0 0 0 .5-.5V4a.5.5 0 0 0-.5-.5H4Z"/></svg>