<svg xmlns="http://www.w3.org/2000/svg" viewBox="0 0 20 16" fill="currentColor"><path fill-rule="evenodd" d="M15.5 6.5c0 1.24-2.46 2.25-5.5 2.25s-5.5-1-5.5-2.25c0-1.24 2.46-2.25 5.5-2.25s5.5 1 5.5 2.25Zm-2.18-.2A9.16 9.16 0 0 0 10 5.75c-1.37 0-2.55.23-3.32.55l-.42.2c.1.06.25.13.42.2.77.32 1.95.55 3.32.55 1.37 0 2.55-.23 3.32-.55l.42-.2c-.1-.06-.25-.13-.42-.2Z"/><path fill-rule="evenodd" d="M2 10V6.5C2 4.01 5.58 2 10 2s8 2.01 8 4.5V10c0 2.2-3.58 4-8 4s-8-1.8-8-4Zm14.5-3.5c0-.46-.35-1.18-1.58-1.87A10.28 10.28 0 0 0 10 3.5c-2 0-3.74.46-4.92 1.13C3.85 5.32 3.5 6.04 3.5 6.5c0 .46.35 1.18 1.58 1.87C6.26 9.04 8 9.5 10 9.5s3.74-.46 4.92-1.13c1.23-.69 1.58-1.41 1.58-1.87Zm0 2.62c-.49.39-1.08.72-1.75 1v1.48l.24-.11c1.28-.65 1.51-1.26 1.51-1.49v-.88Zm-3.25 3v-1.5c-.78.19-1.62.31-2.5.36v1.5c.9-.05 1.75-.18 2.5-.37Zm-4 .36v-1.5a12.87 12.87 0 0 1-3-.5v1.5c.86.26 1.88.44 3 .5Zm-4.5-1.13V9.9a7.08 7.08 0 0 1-1.25-.78V10c0 .21.2.76 1.25 1.35Z"/></svg>