<svg xmlns="http://www.w3.org/2000/svg" viewBox="0 0 20 16" fill="currentColor"><path d="M12.25 0c.41 0 .75.34.75.75V4.5c0 .28.22.5.5.5h3.75a.75.75 0 0 1 0 1.5H13.5a2 2 0 0 1-2-2V.75c0-.41.34-.75.75-.75ZM7 15.25a.75.75 0 0 0 1.5 0V11.5a2 2 0 0 0-2-2H2.75a.75.75 0 0 0 0 1.5H6.5c.28 0 .5.22.5.5v3.75ZM17.25 11a.75.75 0 0 0 0-1.5H13.5a2 2 0 0 0-2 2v3.75a.75.75 0 0 0 1.5 0V11.5c0-.28.22-.5.5-.5h3.75ZM2.75 5a.75.75 0 0 0 0 1.5H6.5a2 2 0 0 0 2-2V.75a.75.75 0 0 0-1.5 0V4.5a.5.5 0 0 1-.5.5H2.75Z"/></svg>