<svg xmlns="http://www.w3.org/2000/svg" viewBox="0 0 20 16" fill="currentColor"><path fill-rule="evenodd" d="M13 3a3 3 0 0 1-1.01 2.25l.92 1.81c-.4.3-.85.53-1.33.69l-.93-1.82a3.01 3.01 0 0 1-1.3 0L7.73 9.09a6.49 6.49 0 0 0 7.13-1.77c.28-.31.74-.4 1.08-.16.34.24.42.7.16 1.02a7.98 7.98 0 0 1-9.05 2.26l-2.63 5.15a.75.75 0 0 1-1.34-.68l2.63-5.16a8.04 8.04 0 0 1-1.8-1.57.7.7 0 0 1 .15-1.02c.34-.24.8-.15 1.08.16.37.41.8.78 1.26 1.1L8 5.24A3 3 0 0 1 10 0a3 3 0 0 1 3 3Zm-1.5 0a1.5 1.5 0 1 0-3 0 1.5 1.5 0 0 0 3 0Z"/><path d="m13.64 11.78 1.94 3.81a.75.75 0 0 0 1.34-.68l-1.95-3.81c-.42.26-.87.49-1.33.68Z"/></svg>