<svg xmlns="http://www.w3.org/2000/svg" viewBox="0 0 16 16" fill="currentColor"><path d="M7.75 0C6.78 0 6 .78 6 1.75v9c0 .97.78 1.75 1.75 1.75h5.5c.97 0 1.75-.78 1.75-1.75v-7c0-.2-.08-.39-.22-.53l-3-3a.75.75 0 0 0-.53-.22h-3.5ZM7.5 1.75c0-.14.11-.25.25-.25h2.75v2.25c0 .41.34.75.75.75h2.25v6.25c0 .14-.11.25-.25.25h-5.5a.25.25 0 0 1-.25-.25v-9Z"/><path d="M2.75 3.5H5V5H2.75a.25.25 0 0 0-.25.25v9c0 .14.11.25.25.25h5.5c.14 0 .25-.11.25-.25v-.75H10v.75c0 .97-.78 1.75-1.75 1.75h-5.5C1.78 16 1 15.22 1 14.25v-9c0-.97.78-1.75 1.75-1.75Z"/></svg>