<svg xmlns="http://www.w3.org/2000/svg" viewBox="0 0 24 24" fill="currentColor"><path fill-rule="evenodd" d="M8 13a3 3 0 1 0 0-6 3 3 0 0 0 0 6Zm0-2a1 1 0 1 1 0-2 1 1 0 0 1 0 2Z"/><path d="M17 9a1 1 0 1 0 0-2h-3a1 1 0 1 0 0 2h3Zm1 2a1 1 0 0 1-1 1h-3a1 1 0 1 1 0-2h3a1 1 0 0 1 1 1Zm-2 6a1 1 0 1 0 0-2H6a1 1 0 1 0 0 2h10Z"/><path fill-rule="evenodd" d="M5 4a3 3 0 0 0-3 3v10a3 3 0 0 0 3 3h14a3 3 0 0 0 3-3V7a3 3 0 0 0-3-3H5Zm14 2a1 1 0 0 1 1 1v10a1 1 0 0 1-1 1H5a1 1 0 0 1-1-1V7a1 1 0 0 1 1-1h14Z"/></svg>