<svg xmlns="http://www.w3.org/2000/svg" viewBox="0 0 20 16" fill="currentColor"><path fill-rule="evenodd" d="M5.5 9a2.5 2.5 0 1 0 0-5 2.5 2.5 0 0 0 0 5Zm0-1.5a1 1 0 1 1 0-2 1 1 0 0 1 0 2Z"/><path d="M3.75 12h12.5a.75.75 0 0 0 0-1.5H3.75a.75.75 0 0 0 0 1.5Zm11-6.5h-4.5a.75.75 0 0 1 0-1.5h4.5a.75.75 0 0 1 0 1.5Zm-4.5 3.25h3.5a.75.75 0 0 0 0-1.5h-3.5a.75.75 0 0 0 0 1.5Z"/><path fill-rule="evenodd" d="M2 1a2 2 0 0 0-2 2v10c0 1.1.9 2 2 2h16a2 2 0 0 0 2-2V3a2 2 0 0 0-2-2H2Zm16 1.5c.28 0 .5.22.5.5v10a.5.5 0 0 1-.5.5H2a.5.5 0 0 1-.5-.5V3c0-.28.22-.5.5-.5h16Z"/></svg>