<svg xmlns="http://www.w3.org/2000/svg" viewBox="0 0 16 16" fill="currentColor"><path fill-rule="evenodd" d="M3.75 1.5c-.69 0-1.25.56-1.25 1.25V9H7v2H1.25C.56 11 0 10.44 0 9.75 0 9.34.34 9 .75 9H1V2.75A2.75 2.75 0 0 1 3.75 0h8.5A2.75 2.75 0 0 1 15 2.75v.68a3.73 3.73 0 0 0-1.5-.42v-.26c0-.69-.56-1.25-1.25-1.25h-8.5ZM9.5 6.75c0-.69.56-1.25 1.25-1.25h2.5c.69 0 1.25.56 1.25 1.25v6.5c0 .69-.56 1.25-1.25 1.25h-2.5c-.69 0-1.25-.56-1.25-1.25v-6.5ZM10.75 4A2.75 2.75 0 0 0 8 6.75v6.5A2.75 2.75 0 0 0 10.75 16h2.5A2.75 2.75 0 0 0 16 13.25v-6.5A2.75 2.75 0 0 0 13.25 4h-2.5Z"/></svg>