<svg xmlns="http://www.w3.org/2000/svg" viewBox="0 0 20 16" fill="currentColor"><path d="M7.5 4.7v.5a.3.3 0 0 0 .59.13l.22-.45a.43.43 0 1 0-.81-.19Z"/><path fill-rule="evenodd" d="M10 16a8 8 0 1 0 0-16 8 8 0 0 0 0 16Zm5.9-5.25a.85.85 0 0 0-.62-.25.92.92 0 0 1-.51-.15l-1.02-.68a1 1 0 0 0-.55-.17h-.4a1 1 0 0 1-.55-.17l-1-.66a1 1 0 0 0-.55-.17h-.96a1 1 0 0 0-.45.1l-1.5.75a1 1 0 0 0-.44.45l-.24.49a1 1 0 0 0-.11.45v.85c0 .26.1.52.3.7l.9.92a1 1 0 0 0 .71.29h.84c.41 0 .75.34.75.75 0 .08.01.16.04.23l-.54.02A6.5 6.5 0 0 1 5.5 3.31v.53a.4.4 0 0 0 .74.17l.16-.32a.65.65 0 0 1 .3-.29l.14-.07a.85.85 0 0 0 .35-1.2 6.47 6.47 0 0 1 3.48-.6.96.96 0 0 0-.46.26l-1 1a.7.7 0 0 0-.21.5v.21c0 .28.22.5.5.5h.15c.2 0 .35-.16.35-.35 0-.1.04-.19.1-.25l.2-.2a.7.7 0 0 1 .5-.2h.35a.35.35 0 0 1 .25.6l-.73.73a1 1 0 0 1-.4.24l-.97.33a.44.44 0 0 0-.3.42c0 .11-.05.23-.13.3l-.58.59a1 1 0 0 0-.29.7v.16c0 .51.42.93.94.93.34 0 .66-.2.81-.5l.09-.18a.59.59 0 0 1 .78-.26l.82.41a.27.27 0 0 0 .36-.36l-.1-.2a.4.4 0 0 1 .24-.56l.86-.28a.3.3 0 0 0 .2-.28.3.3 0 0 1 .3-.29h.95a.25.25 0 1 1 0 .5h-.46a.7.7 0 0 0-.5.2l-.19.2a.35.35 0 0 0 .25.6h.36a.7.7 0 0 1 .5.2l.11.12a.6.6 0 0 1 0 .86.62.62 0 0 0-.12.72l.4.8a.9.9 0 0 0 1.2.4l.03-.01a.8.8 0 0 1 .36-.09c-.09.26-.18.5-.3.75Z"/></svg>