<svg xmlns="http://www.w3.org/2000/svg" viewBox="0 0 20 16" fill="currentColor"><path d="M10.08 4.95c.18-.13.14-.45-.08-.45a3.5 3.5 0 1 0 3.18 4.96c.1-.23-.22-.42-.44-.29a2.5 2.5 0 0 1-2.66-4.23Z"/><path fill-rule="evenodd" d="M8.59.94c.7-.96 2.13-.96 2.82 0l.88 1.2c.05.08.14.11.24.1L13.99 2a1.75 1.75 0 0 1 2 2l-.23 1.46c-.01.1.03.19.1.24l1.2.88c.96.7.96 2.13 0 2.82l-1.2.88a.25.25 0 0 0-.1.24l.23 1.46a1.75 1.75 0 0 1-2 2l-1.46-.23a.25.25 0 0 0-.24.1l-.88 1.2c-.7.96-2.13.96-2.82 0l-.88-1.2a.25.25 0 0 0-.24-.1L6.01 14a1.75 1.75 0 0 1-2-2l.23-1.46a.25.25 0 0 0-.1-.24l-1.2-.88a1.75 1.75 0 0 1 0-2.82l1.2-.88a.25.25 0 0 0 .1-.24L4 4.01a1.75 1.75 0 0 1 2-2l1.46.23c.1.01.19-.02.24-.1l.9-1.2Zm1.61.89a.25.25 0 0 0-.4 0l-.87 1.2c-.4.52-1.04.8-1.69.7l-1.46-.24a.25.25 0 0 0-.29.29l.23 1.46c.1.65-.17 1.3-.7 1.69l-1.2.87c-.13.1-.13.3 0 .4l1.2.87c.53.4.8 1.04.7 1.69l-.23 1.46c-.03.17.12.32.29.29l1.46-.23c.65-.1 1.3.17 1.69.7l.87 1.2c.1.13.3.13.4 0l.87-1.2c.4-.53 1.04-.8 1.69-.7l1.46.23c.17.03.32-.12.29-.29l-.23-1.46c-.1-.65.17-1.3.7-1.69l1.2-.87c.13-.1.13-.3 0-.4l-1.2-.87a1.75 1.75 0 0 1-.7-1.69l.23-1.46a.25.25 0 0 0-.29-.29l-1.46.23c-.65.1-1.3-.17-1.69-.7l-.87-1.2Z"/></svg>