<svg xmlns="http://www.w3.org/2000/svg" viewBox="0 0 20 16" fill="currentColor"><path d="M16.83 4.32C15.59 1.9 12.9.5 9.99.5a7.5 7.5 0 0 0-7.33 5.92 5.28 5.28 0 0 1 4.52-2.4c2.4 0 3.66 1.48 3.7 1.52.66.72 1 1.52 1 2.51 0 .32-.16.78-.46 1.17-.05.06-.2.15-.2.33 0 .16.1.3.28.43.85.58 2.43.5 2.44.5A3.6 3.6 0 0 0 17.5 6.9c0-1.3-.48-2.18-.67-2.57ZM8.69 14.64a4.68 4.68 0 0 1-1.41-1.36 4.42 4.42 0 0 1-.6-4.11c.3-.96.9-1.8 1.71-2.39 1.79-1.36 2.87-.17 3-.03l-.15-.3a4 4 0 0 0-1.7-1.62 5.45 5.45 0 0 0-2.36-.56c-1.17 0-2.35.39-3.25 1.07a3.47 3.47 0 0 0-1.41 2.27 7.5 7.5 0 0 0 8.2 7.86c-1.15-.2-2-.81-2.03-.83Zm7.58-2.97a.23.23 0 0 0-.24 0 5.97 5.97 0 0 1-2.72.65c-2.77 0-5.19-1.91-5.19-4.36 0-.28.08-.56.2-.8a5.1 5.1 0 0 0-1.17 1.5c-.45.9-1 2.67.4 4.6.2.26.7.9 1.7 1.43.7.39 1.48.6 2.16.6 1.07 0 3.5-1.02 4.93-3.3a.23.23 0 0 0-.07-.32Z"/></svg>