<svg xmlns="http://www.w3.org/2000/svg" viewBox="0 0 20 16" fill="currentColor"><path fill-rule="evenodd" d="M4.75 10.5c.41 0 .75.34.75.75v2.25h2v-2.25a.75.75 0 0 1 1.5 0v2.25h2v-2.25a.75.75 0 0 1 1.5 0v2.25h2v-2.25a.75.75 0 0 1 1.5 0v2.25h1.5v-6h-2A.5.5 0 0 1 15 7V5h-2a.5.5 0 0 1-.5-.5v-2h-5v2A.5.5 0 0 1 7 5H5v2a.5.5 0 0 1-.5.5h-2v6H4v-2.25c0-.41.34-.75.75-.75ZM1 14V7a1 1 0 0 1 1-1h1.5V4.5a1 1 0 0 1 1-1H6V2a1 1 0 0 1 1-1h6a1 1 0 0 1 1 1v1.5h1.5a1 1 0 0 1 1 1V6H18a1 1 0 0 1 1 1v7a1 1 0 0 1-1 1H2a1 1 0 0 1-1-1Z"/></svg>