<svg xmlns="http://www.w3.org/2000/svg" viewBox="0 0 16 16" fill="currentColor"><path d="M4.25 9.5c.41 0 .75.34.75.75v1a.75.75 0 0 1-1.5 0v-1c0-.41.34-.75.75-.75Zm3.25.75a.75.75 0 0 0-1.5 0v1a.75.75 0 0 0 1.5 0v-1Zm1.75-.75c.41 0 .75.34.75.75v1a.75.75 0 0 1-1.5 0v-1c0-.41.34-.75.75-.75Zm3.25.75a.75.75 0 0 0-1.5 0v1a.75.75 0 0 0 1.5 0v-1Z"/><path d="M4.51 3.5C4.64 2.1 5.81 1 7.25 1h1.5c1.43 0 2.61 1.1 2.74 2.5h1.76A2.75 2.75 0 0 1 16 6.25v6A2.75 2.75 0 0 1 13.25 15H2.75A2.75 2.75 0 0 1 0 12.25v-6A2.75 2.75 0 0 1 2.75 3.5h1.76Zm2.74-1C6.56 2.5 6 3.06 6 3.75v.5c0 .41-.34.75-.75.75h-2.5c-.69 0-1.25.56-1.25 1.25v6c0 .69.56 1.25 1.25 1.25h10.5c.69 0 1.25-.56 1.25-1.25v-6c0-.69-.56-1.25-1.25-1.25h-2.5a.75.75 0 0 1-.75-.75v-.5c0-.69-.56-1.25-1.25-1.25h-1.5Z"/></svg>