<svg xmlns="http://www.w3.org/2000/svg" viewBox="0 0 20 16" fill="currentColor"><path d="M2.75 9.5c.41 0 .75.34.75.75V14c0 .28.22.5.5.5h3.75a.75.75 0 0 1 0 1.5H4a2 2 0 0 1-2-2v-3.75c0-.41.34-.75.75-.75ZM8.5.75c0 .41-.34.75-.75.75H4a.5.5 0 0 0-.5.5v3.75a.75.75 0 0 1-1.5 0V2c0-1.1.9-2 2-2h3.75c.41 0 .75.34.75.75Zm8.75 5.75a.75.75 0 0 1-.75-.75V2a.5.5 0 0 0-.5-.5h-3.75a.75.75 0 0 1 0-1.5H16a2 2 0 0 1 2 2v3.75c0 .41-.34.75-.75.75Zm-5.75 8.75c0-.41.34-.75.75-.75H16a.5.5 0 0 0 .5-.5v-3.75a.75.75 0 0 1 1.5 0V14a2 2 0 0 1-2 2h-3.75a.75.75 0 0 1-.75-.75Z"/></svg>