<svg xmlns="http://www.w3.org/2000/svg" viewBox="0 0 16 16" fill="currentColor"><path d="M1.28.22A.75.75 0 1 0 .22 1.28l2.1 2.1A7.98 7.98 0 0 0 .05 8a8 8 0 0 0 12.47 5.6l2.19 2.18a.75.75 0 1 0 1.06-1.06L1.28.22Zm10.17 12.29A6.5 6.5 0 0 1 1.58 8a6.48 6.48 0 0 1 1.8-3.57l1.31 1.32a4 4 0 0 0 5.56 5.56l1.2 1.2ZM5.78 6.84l3.38 3.38a2.5 2.5 0 0 1-3.37-3.37Zm1.37-2.75 4.76 4.76a4.02 4.02 0 0 0-4.76-4.76Z"/><path d="M14.42 8a6.45 6.45 0 0 1-.91 2.45l1.08 1.08A7.95 7.95 0 0 0 15.94 8a8 8 0 0 0-11.2-6.31l1.17 1.15A6.5 6.5 0 0 1 14.42 8Z"/></svg>