<svg xmlns="http://www.w3.org/2000/svg" viewBox="0 0 20 16" fill="currentColor"><path d="m17.06 4.12-.96.96A8.5 8.5 0 0 1 17.96 8a8.5 8.5 0 0 1-10.03 5.25l-1.2 1.2A9.99 9.99 0 0 0 19.54 8a10 10 0 0 0-2.38-3.98l-.1.1Zm-3.79-2.57-1.2 1.2A8.52 8.52 0 0 0 2.04 8a8.5 8.5 0 0 0 1.86 2.92l-.96.96-.1.1A10 10 0 0 1 .46 8a10 10 0 0 1 12.81-6.45Z"/><path d="M6 8c0 .26.02.5.07.75l1.57-1.57a2.5 2.5 0 0 1 1.54-1.54l1.57-1.57A4.02 4.02 0 0 0 6 8Zm4 4c-.26 0-.5-.02-.75-.07l1.57-1.57a2.5 2.5 0 0 0 1.54-1.54l1.57-1.57A4 4 0 0 1 10 12Zm6-8.94A.75.75 0 0 0 14.94 2L4 12.94A.75.75 0 0 0 5.06 14L16 3.06Z"/></svg>