<svg xmlns="http://www.w3.org/2000/svg" viewBox="0 0 24 24" fill="currentColor"><path fill-rule="evenodd" d="M9.76 20.25a3 3 0 0 0 5.24-2V5.75a3 3 0 0 0-5.24-2L4.19 10a3 3 0 0 0 0 4l5.57 6.25Zm3.24-2a1 1 0 0 1-1.75.67l-5.57-6.25a1 1 0 0 1 0-1.34l5.57-6.25a1 1 0 0 1 1.75.67v12.5Z"/><path d="M17 17.89a1 1 0 0 0 .25.67l1.51 1.69a3 3 0 0 0 5.24-2V5.75a3 3 0 0 0-5.24-2l-1.5 1.7a1 1 0 1 0 1.49 1.33l1.5-1.7a1 1 0 0 1 1.75.67v12.5a1 1 0 0 1-1.75.67l-1.5-1.7a1 1 0 0 0-1.75.67ZM1 21a1 1 0 0 0 1-1V4a1 1 0 1 0-2 0v16a1 1 0 0 0 1 1Z"/></svg>