<svg xmlns="http://www.w3.org/2000/svg" viewBox="0 0 24 24" fill="currentColor"><path fill-rule="evenodd" d="M14.24 3.75a3 3 0 0 0-5.24 2v12.5a3 3 0 0 0 5.24 2L19.8 14a3 3 0 0 0 0-4l-5.57-6.25Zm-3.24 2a1 1 0 0 1 1.75-.67l5.57 6.25a1 1 0 0 1 0 1.34l-5.57 6.25a1 1 0 0 1-1.75-.67V5.75Z"/><path d="M7 6.11a1 1 0 0 0-.25-.67L5.24 3.75a3 3 0 0 0-5.24 2v12.5a3 3 0 0 0 5.24 2l1.5-1.7a1 1 0 1 0-1.49-1.33l-1.5 1.7A1 1 0 0 1 2 18.25V5.75a1 1 0 0 1 1.75-.67l1.5 1.7A1 1 0 0 0 7 6.1ZM23 3a1 1 0 0 0-1 1v16a1 1 0 1 0 2 0V4a1 1 0 0 0-1-1Z"/></svg>