<svg xmlns="http://www.w3.org/2000/svg" viewBox="0 0 24 20" fill="currentColor"><path fill-rule="evenodd" d="M14.24 1.75a3 3 0 0 0-5.24 2v12.5a3 3 0 0 0 5.24 2L19.8 12a3 3 0 0 0 0-4l-5.57-6.25Zm-3.24 2a1 1 0 0 1 1.75-.67l5.57 6.25a1 1 0 0 1 0 1.34l-5.57 6.25a1 1 0 0 1-1.75-.67V3.75Z"/><path d="M7 4.11a1 1 0 0 0-.25-.67L5.24 1.75a3 3 0 0 0-5.24 2v12.5a3 3 0 0 0 5.24 2l1.5-1.7a1 1 0 1 0-1.5-1.33l-1.5 1.7A1 1 0 0 1 2 16.25V3.75a1 1 0 0 1 1.75-.67l1.5 1.7A1 1 0 0 0 7 4.1ZM23 1a1 1 0 0 0-1 1v16a1 1 0 1 0 2 0V2a1 1 0 0 0-1-1Z"/></svg>