<svg xmlns="http://www.w3.org/2000/svg" viewBox="0 0 20 16" fill="currentColor"><path d="M10 11.5a.5.5 0 0 0-.5.5v1c0 .28.22.5.5.5h1a.5.5 0 0 0 .5-.5v-1a.5.5 0 0 0-.5-.5h-1Zm-.5-3c0-.28.22-.5.5-.5h1c.28 0 .5.22.5.5v1a.5.5 0 0 1-.5.5h-1a.5.5 0 0 1-.5-.5v-1Zm4.5 3a.5.5 0 0 0-.5.5v1c0 .28.22.5.5.5h1a.5.5 0 0 0 .5-.5v-1a.5.5 0 0 0-.5-.5h-1Zm-.5-3c0-.28.22-.5.5-.5h1c.28 0 .5.22.5.5v1a.5.5 0 0 1-.5.5h-1a.5.5 0 0 1-.5-.5v-1Z"/><path fill-rule="evenodd" d="M8.5 5.5V1a1 1 0 0 1 1-1h4.09a1 1 0 0 1 .7.3l1.92 1.9a1 1 0 0 1 .29.71V5.5h.5a2 2 0 0 1 2 2V14a2 2 0 0 1-2 2H3a2 2 0 0 1-2-2V4c0-1.1.9-2 2-2h2.5a2 2 0 0 1 2 2v1.5h1ZM15 3.12 13.38 1.5H10v4h5V3.12ZM7.5 7v7a2 2 0 0 1-.06.5H17a.5.5 0 0 0 .5-.5V7.5A.5.5 0 0 0 17 7H7.5ZM6 4a.5.5 0 0 0-.5-.5H3a.5.5 0 0 0-.5.5v10c0 .28.22.5.5.5h2.5A.5.5 0 0 0 6 14V4Z"/></svg>