<svg xmlns="http://www.w3.org/2000/svg" viewBox="0 0 16 16" fill="currentColor"><path d="M5 1.75c0-.14.11-.25.25-.25H8.5v2.25c0 .41.34.75.75.75h2.25v4H13V3.75c0-.2-.08-.39-.22-.53l-3-3A.75.75 0 0 0 9.25 0h-4C4.28 0 3.5.78 3.5 1.75v10c0 .97.78 1.75 1.75 1.75h1.92a1.74 1.74 0 0 1 0-1.5H5.25a.25.25 0 0 1-.25-.25v-10Z"/><path d="M7 15.25c0-.27.06-.52.17-.75H5.25a2.75 2.75 0 0 1-2.75-2.75V2.52c-.85.12-1.5.85-1.5 1.73v7.5C1 14.1 2.9 16 5.25 16h1.92a1.72 1.72 0 0 1-.17-.75Zm1-5c0-.41.34-.75.75-.75h5.5a.75.75 0 0 1 0 1.5h-5.5a.75.75 0 0 1-.75-.75ZM8.75 12a.75.75 0 0 0 0 1.5h5.5a.75.75 0 0 0 0-1.5h-5.5Zm0 2.5a.75.75 0 0 0 0 1.5h5.5a.75.75 0 0 0 0-1.5h-5.5Z"/></svg>