<svg xmlns="http://www.w3.org/2000/svg" viewBox="0 0 20 16" fill="currentColor"><path fill-rule="evenodd" d="M14.42 13.5c.36 0 .67-.26.73-.62a67.49 67.49 0 0 0 .55-4.26A5.7 5.7 0 0 0 8.13 2.8a.66.66 0 0 0-.42.77c.1.48.64.73 1.11.6a4.2 4.2 0 0 1 5.39 4.35 46.39 46.39 0 0 1-.53 4.1c-.08.46.27.88.74.88ZM6 5.5c.25.25.28.64.13.96a4.4 4.4 0 0 0-.4 1.5A56.42 56.42 0 0 1 5 12.8c-.12.56-.78.77-1.14.34a8.07 8.07 0 0 1-.17-.21.72.72 0 0 1-.14-.58 55.27 55.27 0 0 0 .67-4.5c.06-.79.3-1.56.66-2.26.22-.4.76-.44 1.08-.12L6 5.5Zm10.21 7.08c-.02.16.17.25.27.12A7.96 7.96 0 0 0 18 8a.31.31 0 0 0-.46-.27l-.45.23a.7.7 0 0 0-.38.6v.13a48.85 48.85 0 0 1-.5 3.9Zm-1.38-9.04c.3.3.8.34 1.1.04a.66.66 0 0 0 .03-.91 8.01 8.01 0 0 0-13.92 4.5.6.6 0 0 0 .5.64l.5.1c.1.02.18-.05.2-.14A6.8 6.8 0 0 1 10 1.5c1.8 0 3.56.76 4.83 2.04Zm-2.9 9.2c.39.09.63.46.56.85-.1.57-.22 1.15-.34 1.7a.7.7 0 0 1-.54.55c-.06 0-.1.02-.16.03-.5.09-.88-.38-.78-.87.12-.54.24-1.1.34-1.67.08-.43.5-.7.93-.6ZM12.4 10c-.45 0-.8-.4-.75-.84.03-.3.06-.58.07-.84A1.7 1.7 0 0 0 10 6.5a1.8 1.8 0 0 0-1.78 1.67 42.16 42.16 0 0 1-.7 4.8.74.74 0 0 1-1.06.5.76.76 0 0 1-.41-.81 58.19 58.19 0 0 0 .67-4.61A3.3 3.3 0 0 1 10 5a3.2 3.2 0 0 1 3.21 3.43l-.08.91a.74.74 0 0 1-.74.66Zm-2.1 1.63c-.2 1.23-.45 2.56-.72 3.74a.7.7 0 0 1-.78.54 7.93 7.93 0 0 1-.68-.13c-.1-.03-.16-.12-.14-.21a50.77 50.77 0 0 0 1.24-7.32.8.8 0 0 1 .79-.75.7.7 0 0 1 .72.75c-.07.87-.22 2.1-.43 3.38Z"/></svg>