<svg xmlns="http://www.w3.org/2000/svg" viewBox="0 0 20 16" fill="currentColor"><path fill-rule="evenodd" d="M15.62 3.4a4.35 4.35 0 0 1 1.56 1.97 7.98 7.98 0 0 1 .47 4.2 7.75 7.75 0 0 1-15.4-1.32v-.04a7.39 7.39 0 0 1 .13-1.07v-.01c0-.08.06-.42.07-.49l.02-.05a6.55 6.55 0 0 1 2.52-3.87l.26-.14c-.02.27-.04 1.56.27 1.95.51-.6 1.15-1.1 1.87-1.45a3.6 3.6 0 0 0 .02 1.9l.2.15a417.4 417.4 0 0 0 .53.51c.35.35 1.08.7 1.52.92.21.1.36.18.36.2-.02.2-.7.86-.94.86-2.2 0-2.56 1.33-2.56 1.33a3.27 3.27 0 0 0 2.19 2.7c.32.11.66.18 1 .19 3.87.18 4.62-4.62 1.83-6.02a2.7 2.7 0 0 1 1.87.46A3.91 3.91 0 0 0 10 4.29l-.23.01h-.04A5.66 5.66 0 0 1 12.41 0h.03l.01.02c.03.1.06.21.12.3l.08.17.18.3c.5.77 1.03 1.37 1.55 1.96a9.98 9.98 0 0 1 2.03 3.02v-.01a8.05 8.05 0 0 0-.79-2.35Zm-7.34 8.06a2.23 2.23 0 0 0 .08.03h-.01a1.33 1.33 0 0 1-.07-.03Zm8.13-5.7v.01Z"/></svg>