<svg xmlns="http://www.w3.org/2000/svg" viewBox="0 0 20 16" fill="currentColor"><path fill-rule="evenodd" d="M3.5 12.6v2.65a.75.75 0 0 1-1.5 0V.75a.75.75 0 0 1 1.5 0v.34L4.98.7A9.12 9.12 0 0 1 10 .75c1.63.49 3.37.51 5.02.06l2.03-.55c.48-.13.95.23.95.72v9.95c0 .34-.23.63-.55.72l-2.43.66a9.11 9.11 0 0 1-5.02-.06 9.11 9.11 0 0 0-5.02-.06l-1.48.4Zm0-1.56 1.09-.3c1.91-.52 3.94-.5 5.84.07 1.37.41 2.82.43 4.2.06l1.87-.52V1.96l-1.09.3c-1.91.52-3.94.5-5.84-.07a7.62 7.62 0 0 0-4.2-.06l-1.87.52v8.39Z"/></svg>