<svg xmlns="http://www.w3.org/2000/svg" viewBox="0 0 16 16" fill="currentColor"><path d="M1.75 0c.41 0 .75.34.75.75v.48a11.36 11.36 0 0 1 5.61.27 41.9 41.9 0 0 0 .13.04C8.69 1.69 9.9 2 11 2c1.1 0 2.58-.32 3.01-.46a.75.75 0 0 1 .99.71v9c0 .32-.2.6-.51.71-.57.19-2.2.54-3.49.54-1.3 0-2.67-.35-3.22-.53l-.08-.03a9.91 9.91 0 0 0-5.2-.17v3.48a.75.75 0 0 1-1.5 0V.75c0-.41.34-.75.75-.75Zm.75 2.77v7.46a11.36 11.36 0 0 1 5.61.27l.1.03h.03c.45.16 1.67.47 2.76.47.83 0 1.85-.18 2.5-.32V3.2c-.73.15-1.68.29-2.5.29-1.3 0-2.67-.35-3.22-.53l-.08-.03a9.91 9.91 0 0 0-5.2-.17Z"/></svg>