<svg xmlns="http://www.w3.org/2000/svg" viewBox="0 0 16 16" fill="currentColor"><path d="M1.75 0c.41 0 .75.34.75.75v.48a11.36 11.36 0 0 1 5.61.27 41.9 41.9 0 0 0 .13.04C8.69 1.69 9.9 2 11 2c1.1 0 2.58-.32 3.01-.46a.75.75 0 0 1 .99.71v9c0 .32-.2.6-.51.71-.57.19-2.2.54-3.49.54-1.3 0-2.67-.35-3.22-.53l-.08-.03a9.91 9.91 0 0 0-5.2-.17v3.48a.75.75 0 0 1-1.5 0V.75c0-.41.34-.75.75-.75Zm.75 2.77v1.46c.41-.1.92-.17 1.5-.2v-1.5a8.2 8.2 0 0 0-1.5.24Zm3-.24v1.5a11 11 0 0 1 1.75.24V2.82a9.52 9.52 0 0 0-1.75-.3Zm3.25.7v1.46c.4.1.94.2 1.5.27v-1.5c-.54-.04-1.06-.14-1.5-.23Zm-1.5 2.59a9.52 9.52 0 0 0-1.75-.3v1.5a11 11 0 0 1 1.75.25V5.82Zm1.5 1.87c.4.1.94.2 1.5.27v-1.5c-.54-.04-1.06-.14-1.5-.23v1.46Zm-1.5 1.13a9.52 9.52 0 0 0-1.75-.3v1.5a11 11 0 0 1 1.75.25V8.82Zm1.5 1.87c.4.1.94.2 1.5.27v-1.5c-.54-.04-1.06-.14-1.5-.23v1.46Zm3 .27a14.2 14.2 0 0 0 1.75-.28V9.2c-.52.1-1.14.2-1.75.26v1.5Zm0-3a14.2 14.2 0 0 0 1.75-.28V6.2c-.52.1-1.14.2-1.75.26v1.5Zm0-3a14.2 14.2 0 0 0 1.75-.28V3.2c-.52.1-1.14.2-1.75.26v1.5ZM4 10.02v-1.5c-.66.06-1.17.16-1.5.25v1.46c.41-.1.92-.17 1.5-.2Zm-1.5-2.8c.41-.08.92-.16 1.5-.2v-1.5c-.66.06-1.17.16-1.5.25v1.46Z"/></svg>