<svg xmlns="http://www.w3.org/2000/svg" viewBox="0 0 20 16" fill="currentColor"><path fill-rule="evenodd" d="M3.5 15.25v-2.66l1.48-.4a9.11 9.11 0 0 1 5.02.06c1.63.49 3.37.51 5.02.06l2.43-.66a.75.75 0 0 0 .55-.72V.98c0-.5-.47-.85-.95-.72L15.02.8A9.12 9.12 0 0 1 10 .75 9.12 9.12 0 0 0 4.98.69l-1.48.4V.75a.75.75 0 0 0-1.5 0v14.5a.75.75 0 0 0 1.5 0Zm1.09-4.51-1.09.3V9.37l1.68-.46.29-.07v1.7c-.3.05-.6.12-.88.2Zm2.38-.37V8.63c.75-.04 1.51.02 2.25.19v1.7a11.3 11.3 0 0 0-2.25-.15Zm5.75.76a7.55 7.55 0 0 1-2-.24V9.2c.66.13 1.33.2 2 .18v1.75Zm1.5-.17v-1.7c.33-.06.67-.13 1-.22l1.28-.35v1.66l-1.88.52-.4.1Zm0-3.23V5.75a8.9 8.9 0 0 0 1-.21l1.28-.35v1.94l-1.68.46-.6.14Zm-1.5-1.85v2a8.45 8.45 0 0 1-2-.21V5.7c.66.13 1.33.2 2 .18Zm0-1.5a8.45 8.45 0 0 1-2-.21v-1.7c.66.11 1.33.17 2 .16v1.75Zm1.5-.15V2.51c.4-.06.8-.14 1.2-.25l1.08-.3v1.67l-1.68.46-.6.14Zm-7.25.9c.75-.04 1.51.02 2.25.19v1.97a10 10 0 0 0-2.25-.17v-2Zm0-1.5V1.87c.75-.04 1.51.03 2.25.21v1.7a10 10 0 0 0-2.25-.17Zm-1.5 1.7V7.3l-.69.16-1.28.35V5.87l1.68-.46.29-.07Zm0-1.53-.69.16-1.28.35V2.65l1.88-.52.09-.02v1.7Z"/></svg>