<svg xmlns="http://www.w3.org/2000/svg" viewBox="0 0 20 16" fill="currentColor"><path fill-rule="evenodd" d="M3.5 2v12c0 .28.22.5.5.5h1v-5a1 1 0 0 1 1-1h8a1 1 0 0 1 1 1v5h1a.5.5 0 0 0 .5-.5V5.83a.5.5 0 0 0-.15-.36l1.06-1.06A2 2 0 0 1 18 5.83V14a2 2 0 0 1-2 2H4a2 2 0 0 1-2-2V2c0-1.1.9-2 2-2h8.17a2 2 0 0 1 1.42.59L17.4 4.4l-1.06 1.06-3.82-3.82a.5.5 0 0 0-.36-.15H12v3a1 1 0 0 1-1 1H6a1 1 0 0 1-1-1v-3H4a.5.5 0 0 0-.5.5Zm10 12.5v-4a.5.5 0 0 0-.5-.5H7a.5.5 0 0 0-.5.5v4h7Zm-7-13v2c0 .28.22.5.5.5h3a.5.5 0 0 0 .5-.5v-2h-4Z"/></svg>