<svg xmlns="http://www.w3.org/2000/svg" viewBox="0 0 20 16" fill="currentColor"><path fill-rule="evenodd" d="M3 3v10c0 1.1.9 2 2 2h10a2 2 0 0 0 2-2V5.83a2 2 0 0 0-.59-1.42L13.6 1.6a2 2 0 0 0-1.43-.6H5a2 2 0 0 0-2 2Zm1.5 0c0-.28.22-.5.5-.5h1V5a1 1 0 0 0 1 1h4.5a1 1 0 0 0 1-1V2.62l.03.03 2.82 2.82c.1.1.15.23.15.36V13a.5.5 0 0 1-.5.5h-1V10a1 1 0 0 0-1-1H7a1 1 0 0 0-1 1v3.5H5a.5.5 0 0 1-.5-.5V3Zm8 10.5h-5V11c0-.28.22-.5.5-.5h4c.28 0 .5.22.5.5v2.5Zm-5-11H11V4a.5.5 0 0 1-.5.5H8a.5.5 0 0 1-.5-.5V2.5Z"/></svg>