<svg xmlns="http://www.w3.org/2000/svg" viewBox="0 0 16 16" fill="currentColor"><path d="M1 3.75A2.75 2.75 0 0 1 3.75 1h6.42c.73 0 1.43.29 1.95.8l2.07 2.08c.52.52.81 1.22.81 1.95v6.42A2.75 2.75 0 0 1 12.25 15h-8.5A2.75 2.75 0 0 1 1 12.25v-8.5ZM3.75 2.5c-.69 0-1.25.56-1.25 1.25v8.5c0 .69.56 1.25 1.25 1.25H4v-3.25c0-.97.78-1.75 1.75-1.75h4.5c.97 0 1.75.78 1.75 1.75v3.25h.25c.69 0 1.25-.56 1.25-1.25V5.83c0-.33-.13-.65-.37-.89l-2.07-2.07a1.25 1.25 0 0 0-.56-.33v1.21c0 .97-.78 1.75-1.75 1.75h-3C4.78 5.5 4 4.72 4 3.75V2.5h-.25Zm1.75 0v1.25c0 .14.11.25.25.25h3c.14 0 .25-.11.25-.25V2.5H5.5Zm5 11v-3.25a.25.25 0 0 0-.25-.25h-4.5a.25.25 0 0 0-.25.25v3.25h5Z"/></svg>