<svg xmlns="http://www.w3.org/2000/svg" viewBox="0 0 20 20" fill="currentColor"><path d="M9 14.25a1 1 0 1 0 2 0v-6.5a1 1 0 1 0-2 0v6.5Z"/><path fill-rule="evenodd" d="M0 5.13a4 4 0 0 1 5.15-3.84l3.99 1.2a3 3 0 0 0 1.72 0l4-1.2A4 4 0 0 1 20 5.13v8.14a4 4 0 0 1-2.85 3.84l-6.29 1.88a3 3 0 0 1-1.72 0l-6.29-1.88A4 4 0 0 1 0 13.27V5.13Zm18 0a2 2 0 0 0-2.57-1.92l-4 1.2a5 5 0 0 1-2.87 0L4.57 3.2A2 2 0 0 0 2 5.13v8.14a2 2 0 0 0 1.43 1.92l6.28 1.89a1 1 0 0 0 .58 0l6.28-1.89A2 2 0 0 0 18 13.27V5.13Z"/></svg>