<svg xmlns="http://www.w3.org/2000/svg" viewBox="0 0 24 24" fill="currentColor"><path d="M14.5 10a1 1 0 1 0 0-2 1 1 0 0 0 0 2Zm3.5 1.5a1 1 0 1 1-2 0 1 1 0 0 1 2 0ZM9.75 8.75v.5h.5a1 1 0 1 1 0 2h-.5v.5a1 1 0 1 1-2 0v-.5h-.5a1 1 0 1 1 0-2h.5v-.5a1 1 0 1 1 2 0Z"/><path fill-rule="evenodd" d="m21.95 15.56-.4-5.93a5.84 5.84 0 0 0-4.88-5.37c-3.1-.5-6.25-.5-9.34 0a5.84 5.84 0 0 0-4.89 5.37l-.4 5.93a4.16 4.16 0 0 0 7.68 2.49l.99-1.58a1 1 0 0 1 .84-.47h.9a1 1 0 0 1 .84.47l.99 1.58a4.16 4.16 0 0 0 7.67-2.49Zm-2.39-5.8.4 5.94a2.16 2.16 0 0 1-3.99 1.29L15 15.4a3 3 0 0 0-2.55-1.4h-.9a3 3 0 0 0-2.54 1.41l-.98 1.58a2.16 2.16 0 0 1-3.99-1.3l.4-5.93a3.84 3.84 0 0 1 3.21-3.53c2.88-.47 5.82-.47 8.7 0a3.84 3.84 0 0 1 3.21 3.53Z"/></svg>