<svg xmlns="http://www.w3.org/2000/svg" viewBox="0 0 20 20" fill="currentColor"><path d="M12.5 8.25a1 1 0 1 0 0-2 1 1 0 0 0 0 2Zm3.5 1.5a1 1 0 1 1-2 0 1 1 0 0 1 2 0ZM7.75 7v.5h.5a1 1 0 0 1 0 2h-.5v.5a1 1 0 1 1-2 0v-.5h-.5a1 1 0 1 1 0-2h.5V7a1 1 0 1 1 2 0Z"/><path fill-rule="evenodd" d="m19.77 13.16-.97-6.5a5.16 5.16 0 0 0-4.18-4.32 25.8 25.8 0 0 0-9.24 0A5.16 5.16 0 0 0 1.2 6.65l-.97 6.5a4.22 4.22 0 0 0 7.94 2.52l.08-.17a.9.9 0 0 1 .8-.5h1.9c.33 0 .65.2.8.5l.08.17a4.22 4.22 0 0 0 7.94-2.51Zm-2.95-6.21.98 6.5a2.22 2.22 0 0 1-4.18 1.33l-.08-.17a2.9 2.9 0 0 0-2.6-1.61H9.06c-1.1 0-2.1.62-2.6 1.6l-.08.18a2.22 2.22 0 0 1-4.18-1.32l.98-6.51A3.16 3.16 0 0 1 5.74 4.3a23.8 23.8 0 0 1 8.52 0 3.16 3.16 0 0 1 2.56 2.64Z"/></svg>