<svg xmlns="http://www.w3.org/2000/svg" viewBox="0 0 24 24" fill="currentColor"><path d="M15 10a1 1 0 1 0 0-2 1 1 0 0 0 0 2Zm3 1a1 1 0 1 1-2 0 1 1 0 0 1 2 0ZM9.5 8.5V9h.5a1 1 0 1 1 0 2h-.5v.5a1 1 0 1 1-2 0V11H7a1 1 0 1 1 0-2h.5v-.5a1 1 0 1 1 2 0Z"/><path fill-rule="evenodd" d="M13.3 16a1 1 0 0 1 .94.65l.27.7a4.08 4.08 0 0 0 7.85-1.98l-.76-5.5a6 6 0 0 0-4.95-5.1l-1.36-.22a20 20 0 0 0-6.58 0l-1.36.22a6 6 0 0 0-4.95 5.1l-.76 5.5a4.08 4.08 0 0 0 7.85 1.99l.27-.71a1 1 0 0 1 .93-.65h2.62ZM7.69 6.75l1.36-.23a18 18 0 0 1 5.92 0l1.36.23a4 4 0 0 1 3.3 3.4l.76 5.5a2.08 2.08 0 0 1-4 1l-.26-.7A3 3 0 0 0 13.3 14h-2.62a3 3 0 0 0-2.8 1.95l-.27.7a2.08 2.08 0 0 1-4-1l.76-5.5a4 4 0 0 1 3.3-3.4Z"/></svg>