<svg xmlns="http://www.w3.org/2000/svg" viewBox="0 0 20 16" fill="currentColor"><path d="M14 6.44c.3.27.34.74.06 1.05l-1.92 2.2A2.5 2.5 0 0 0 11 8.72l1.93-2.2a.75.75 0 0 1 1.05-.07Z"/><path fill-rule="evenodd" d="M17.5 14.34c-.38.16-.72.16-1.42.16H3.92c-.7 0-1.04 0-1.42-.16a2.4 2.4 0 0 1-.83-.65c-.24-.32-.3-.56-.41-1.05A9.02 9.02 0 0 1 10 1.5a9 9 0 0 1 8.74 11.14c-.11.49-.17.73-.41 1.05a2.4 2.4 0 0 1-.83.65Zm-.21-2.05A7.52 7.52 0 0 0 10 3a7.5 7.5 0 0 0-7.11 9.8 1.13 1.13 0 0 0 .2.16 8.9 8.9 0 0 0 .82.04H8.5a2.5 2.5 0 1 1 3 0h4.58a8.9 8.9 0 0 0 .84-.05 1.15 1.15 0 0 0 .2-.16.4.4 0 0 0 .04-.05l.01-.03.04-.14.08-.28ZM10 12a1 1 0 1 0 0-2 1 1 0 0 0 0 2Z"/></svg>