<svg xmlns="http://www.w3.org/2000/svg" viewBox="0 0 16 16" fill="currentColor"><path d="M8 5a3 3 0 1 0 0 6 3 3 0 0 0 0-6ZM6.5 8a1.5 1.5 0 1 1 3 0 1.5 1.5 0 0 1-3 0Z"/><path d="M8 0a8 8 0 0 0-2.2.3.75.75 0 0 0-.55.73v1.36c-.26.12-.5.26-.74.42l-1.17-.68a.75.75 0 0 0-.9.11c-.5.49-.94 1.04-1.3 1.64v.01L1 4.12v.01c-.34.6-.6 1.25-.76 1.94-.09.32.06.66.35.83l1.17.68a6.33 6.33 0 0 0 0 .84L.6 9.1a.75.75 0 0 0-.35.83c.17.69.42 1.34.76 1.94v.01l.13.23.01.01c.36.6.8 1.15 1.3 1.64.24.23.61.27.9.1l1.17-.67c.24.16.48.3.74.42v1.36c0 .34.22.63.54.72a8 8 0 0 0 4.42 0 .74.74 0 0 0 .54-.72v-1.36c.26-.12.5-.26.74-.42l1.17.68c.29.16.66.12.9-.11.5-.49.94-1.04 1.3-1.64v-.01l.14-.23v-.01c.34-.6.6-1.25.76-1.94a.75.75 0 0 0-.35-.83l-1.17-.68a6.36 6.36 0 0 0 0-.84l1.17-.68c.3-.17.44-.5.35-.83A7.95 7.95 0 0 0 15 4.13l-.13-.24-.01-.01c-.36-.6-.8-1.15-1.3-1.64a.75.75 0 0 0-.9-.1l-1.17.67c-.24-.16-.48-.3-.74-.42V1.03a.75.75 0 0 0-.54-.72A8 8 0 0 0 8 0ZM6.75 2.87V1.62a6.54 6.54 0 0 1 2.5 0v1.25c0 .31.19.6.48.7.45.18.87.42 1.24.72.24.2.57.22.84.07l1.09-.63c.25.28.47.6.67.92l.13.21c.18.33.33.67.45 1.03l-1.09.63a.75.75 0 0 0-.36.76 4.8 4.8 0 0 1 0 1.44c-.05.3.1.6.36.76l1.1.63c-.13.36-.28.7-.46 1.02l-.13.22c-.2.33-.42.64-.67.92l-1.09-.63a.75.75 0 0 0-.84.07c-.37.3-.8.54-1.24.72a.75.75 0 0 0-.48.7v1.25a6.54 6.54 0 0 1-2.5 0v-1.25c0-.31-.19-.6-.48-.7a4.74 4.74 0 0 1-1.24-.72.75.75 0 0 0-.84-.07l-1.09.63c-.25-.28-.47-.6-.67-.92l-.13-.21a6.46 6.46 0 0 1-.45-1.03l1.09-.63a.75.75 0 0 0 .36-.76 4.8 4.8 0 0 1 0-1.44c.05-.3-.1-.6-.36-.76l-1.1-.63c.13-.36.28-.7.47-1.03l.12-.21c.2-.33.42-.64.67-.92l1.09.63c.27.15.6.12.84-.07.37-.3.8-.54 1.24-.72a.75.75 0 0 0 .48-.7Z"/></svg>