<svg xmlns="http://www.w3.org/2000/svg" viewBox="0 0 20 20" fill="currentColor"><path fill-rule="evenodd" d="M14 10a4 4 0 1 1-8 0 4 4 0 0 1 8 0Zm-2 0a2 2 0 1 0-4 0 2 2 0 0 0 4 0Z"/><path fill-rule="evenodd" d="M11.87.17c.84.16 1.38.94 1.38 1.8v.72a8 8 0 0 1 1.46.84l.62-.36c.74-.43 1.68-.35 2.24.3.37.43.7.89 1 1.38l.19.32c.27.49.5 1 .69 1.54.28.8-.13 1.66-.87 2.09l-.62.36a8.08 8.08 0 0 1 0 1.68l.62.36c.74.43 1.15 1.28.87 2.1a9.95 9.95 0 0 1-.7 1.53l-.18.32c-.3.49-.63.95-1 1.38-.56.65-1.5.73-2.24.3l-.62-.36a8 8 0 0 1-1.46.84v.72c0 .86-.54 1.64-1.38 1.8a10.06 10.06 0 0 1-3.74 0c-.84-.16-1.38-.94-1.38-1.8v-.72a8 8 0 0 1-1.46-.84l-.62.36c-.74.43-1.68.35-2.24-.3-.37-.43-.7-.89-1-1.38l-.19-.32c-.27-.49-.5-1-.69-1.54-.28-.8.13-1.66.87-2.09l.62-.36a8.1 8.1 0 0 1 0-1.68l-.62-.36C.68 8.37.27 7.52.55 6.7c.2-.53.42-1.04.7-1.53l.18-.32c.3-.49.63-.95 1-1.38.56-.65 1.5-.73 2.24-.3l.62.36a8 8 0 0 1 1.46-.84v-.72c0-.86.54-1.64 1.38-1.8a10.05 10.05 0 0 1 3.74 0Zm4.35 4.8-1.08.62a1 1 0 0 1-1.09-.06l-.52-.38a6 6 0 0 0-1.1-.64l-.59-.26a1 1 0 0 1-.59-.91V2.1a8.08 8.08 0 0 0-2.5 0v1.24a1 1 0 0 1-.6.91l-.59.26a6 6 0 0 0-1.09.64l-.52.38a1 1 0 0 1-1.1.06l-1.07-.62c-.23.28-.44.58-.63.9l-.16.28c-.18.31-.33.64-.46.98l1.08.62a1 1 0 0 1 .49.97l-.07.65a6.1 6.1 0 0 0 0 1.26l.07.65a1 1 0 0 1-.5.97l-1.07.62c.13.34.28.67.46.98l.16.28c.19.32.4.62.63.9l1.08-.62a1 1 0 0 1 1.09.06l.52.38c.34.25.7.46 1.1.64l.59.26a1 1 0 0 1 .59.91v1.24a8.07 8.07 0 0 0 2.5 0v-1.24a1 1 0 0 1 .6-.91l.59-.26c.38-.18.75-.39 1.09-.64l.52-.38a1 1 0 0 1 1.1-.06l1.07.62c.23-.28.44-.58.63-.9l.16-.28c.18-.31.33-.64.46-.98l-1.08-.62a1 1 0 0 1-.49-.97l.07-.65a6.1 6.1 0 0 0 0-1.26l-.07-.65a1 1 0 0 1 .5-.97l1.07-.62a7.95 7.95 0 0 0-.46-.98l-.16-.28c-.19-.32-.4-.62-.63-.9Z"/></svg>