<svg xmlns="http://www.w3.org/2000/svg" viewBox="0 0 20 16" fill="currentColor"><path fill-rule="evenodd" d="M13 8a3 3 0 1 1-6 0 3 3 0 0 1 6 0Zm-1.5 0a1.5 1.5 0 1 0-3 0 1.5 1.5 0 0 0 3 0Z"/><path fill-rule="evenodd" d="m5.3 2.4.75.43A6.5 6.5 0 0 1 7.5 2v-.88c0-.43.28-.82.7-.92a8.02 8.02 0 0 1 3.6 0c.42.1.7.49.7.92V2c.51.21 1 .5 1.45.83l.75-.43a.93.93 0 0 1 1.15.14c.38.41.72.86 1 1.34l.16.25c.26.49.48 1 .64 1.53a.92.92 0 0 1-.44 1.07l-.76.43c.07.57.07 1.13 0 1.68l.76.43c.37.22.57.65.44 1.07a7.95 7.95 0 0 1-.64 1.53l-.15.25c-.3.48-.63.93-1.01 1.34a.93.93 0 0 1-1.15.14l-.75-.43a6.5 6.5 0 0 1-1.45.83v.88c0 .43-.28.82-.7.92a8.02 8.02 0 0 1-3.6 0 .92.92 0 0 1-.7-.92V14c-.51-.21-1-.5-1.45-.83l-.75.43a.93.93 0 0 1-1.15-.14 7.66 7.66 0 0 1-1-1.34L3 11.87c-.27-.48-.49-1-.65-1.53a.92.92 0 0 1 .44-1.07l.76-.43a6.46 6.46 0 0 1 0-1.68l-.76-.43a.92.92 0 0 1-.44-1.07c.16-.53.38-1.05.65-1.53l.14-.25c.3-.48.63-.93 1.01-1.34A.93.93 0 0 1 5.3 2.4ZM9 2v.67a.5.5 0 0 1-.3.46l-.62.25a5 5 0 0 0-1.12.65l-.53.4a.5.5 0 0 1-.55.04l-.57-.33a.47.47 0 0 0-.63.12l-.25.38-.13.23-.2.39c-.1.22 0 .48.2.6l.58.34c.18.1.27.3.25.5l-.09.66c-.05.42-.06.85 0 1.28l.09.66a.5.5 0 0 1-.25.5l-.57.33a.47.47 0 0 0-.2.61c.06.13.12.26.2.39l.12.23.25.38c.14.2.41.25.63.12l.57-.33a.5.5 0 0 1 .55.04l.53.4c.35.26.72.48 1.12.65l.61.25a.5.5 0 0 1 .31.46V14c0 .25.18.46.43.49a6.6 6.6 0 0 0 1.14 0A.47.47 0 0 0 11 14v-.66c0-.2.12-.38.3-.46l.62-.25c.41-.17.78-.4 1.12-.65l.53-.4a.5.5 0 0 1 .55-.04l.57.33c.22.13.49.08.63-.12l.25-.38.13-.23.2-.39a.47.47 0 0 0-.2-.6l-.58-.34a.5.5 0 0 1-.25-.5l.09-.66c.05-.42.06-.85 0-1.28l-.09-.66a.5.5 0 0 1 .25-.5l.57-.33c.22-.13.31-.39.2-.61a6.45 6.45 0 0 0-.2-.39l-.12-.23a6.53 6.53 0 0 0-.25-.38.47.47 0 0 0-.63-.12l-.57.33a.5.5 0 0 1-.55-.04l-.53-.4a5.02 5.02 0 0 0-1.12-.65l-.61-.25a.5.5 0 0 1-.31-.46V2a.47.47 0 0 0-.43-.49 6.61 6.61 0 0 0-1.15 0A.47.47 0 0 0 9 2Z"/></svg>