<svg xmlns="http://www.w3.org/2000/svg" viewBox="0 0 20 16" fill="currentColor"><path fill-rule="evenodd" d="M10 4 8.68 1.37A2.47 2.47 0 0 0 4 2.47v.28c0 .45.1.87.3 1.25H4a2 2 0 0 0-2 2v2a1 1 0 0 0 1 1h.5v5c0 1.1.9 2 2 2h9a2 2 0 0 0 2-2V9h.5a1 1 0 0 0 1-1V6a2 2 0 0 0-2-2h-.3c.2-.38.3-.8.3-1.25v-.28a2.47 2.47 0 0 0-4.68-1.1L10 4ZM5.5 2.75v-.28a.97.97 0 0 1 1.84-.43L8.32 4H6.75C6.06 4 5.5 3.44 5.5 2.75ZM11.68 4l.98-1.96a.97.97 0 0 1 1.84.43v.28c0 .69-.56 1.25-1.25 1.25h-1.57ZM4 5.5h12c.28 0 .5.22.5.5v1.5h-13V6c0-.28.22-.5.5-.5ZM10.75 9H15v5a.5.5 0 0 1-.5.5h-3.75V9Zm-1.5 5.5H5.5A.5.5 0 0 1 5 14V9h4.25v5.5Z"/></svg>