<svg xmlns="http://www.w3.org/2000/svg" viewBox="0 0 20 16" fill="currentColor"><path d="M7.52 12.28c0 .06-.07.1-.16.1-.1.01-.17-.03-.17-.1 0-.06.07-.11.16-.11.09-.01.17.04.17.1Zm-.94-.14c-.02.06.04.13.13.15.08.03.17 0 .18-.06.02-.06-.04-.13-.13-.16-.07-.02-.16.01-.18.07Zm1.33-.05c-.08.02-.14.08-.14.15.01.06.1.1.18.08.09-.03.15-.08.14-.14 0-.06-.09-.1-.18-.1ZM9.91.5A7.25 7.25 0 0 0 2.5 7.88a7.58 7.58 0 0 0 5.13 7.23c.38.07.52-.17.52-.36l-.01-1.86s-2.12.45-2.56-.9c0 0-.35-.88-.84-1.1 0 0-.7-.48.05-.47 0 0 .75.06 1.16.78.67 1.16 1.78.83 2.2.63.08-.49.27-.82.5-1.02-1.7-.19-3.4-.43-3.4-3.34 0-.83.23-1.25.71-1.78-.08-.2-.34-1.01.08-2.06.63-.2 2.08.82 2.08.82a7.1 7.1 0 0 1 3.8 0s1.46-1.02 2.09-.82a2.9 2.9 0 0 1 .08 2.06c.48.53.78.95.78 1.78 0 2.92-1.78 3.15-3.47 3.34.28.24.51.7.51 1.4v2.53c0 .2.13.44.52.37a7.51 7.51 0 0 0 5.07-7.23C17.5 3.68 14.1.5 9.9.5ZM5.43 10.93c-.04.03-.03.1.02.16.05.05.12.07.16.03.04-.03.03-.1-.02-.16-.05-.05-.12-.07-.16-.03Zm-.33-.24c-.02.03.01.08.07.11.05.03.11.02.13-.02.02-.04 0-.09-.07-.12-.06-.01-.1 0-.13.03Zm.98 1.07c-.05.04-.03.13.04.19.07.07.16.08.2.03.04-.04.02-.13-.04-.19-.07-.07-.16-.08-.2-.03Zm-.34-.44c-.05.03-.05.1 0 .18.05.07.13.1.17.07.05-.04.05-.12 0-.2-.04-.06-.12-.1-.17-.05Z"/></svg>