<svg xmlns="http://www.w3.org/2000/svg" viewBox="0 0 16 16" fill="currentColor"><path d="M5.35 12.56c0 .07-.07.12-.17.12S5 12.64 5 12.56c0-.06.08-.11.17-.11.1-.01.18.04.18.11Zm-1-.14c-.02.06.04.13.14.15.08.04.18 0 .2-.06.02-.06-.04-.14-.14-.17-.09-.02-.18.01-.2.08Zm1.42-.06c-.09.02-.15.09-.14.16 0 .06.09.1.19.08.09-.02.15-.08.14-.15 0-.06-.1-.1-.19-.09ZM7.9 0C3.42 0 0 3.4 0 7.87a8.09 8.09 0 0 0 5.47 7.72c.41.07.56-.18.56-.4l-.01-1.97s-2.26.48-2.74-.97c0 0-.36-.93-.9-1.18 0 0-.73-.5.06-.5 0 0 .8.07 1.24.84.71 1.24 1.9.89 2.36.67.07-.51.28-.87.51-1.08-1.8-.2-3.62-.46-3.62-3.57 0-.88.24-1.33.76-1.9a3.05 3.05 0 0 1 .08-2.19c.68-.2 2.23.87 2.23.87a7.58 7.58 0 0 1 4.05 0s1.55-1.08 2.23-.87c.44 1.12.17 1.98.08 2.2.52.56.83 1 .83 1.9 0 3.1-1.9 3.35-3.7 3.56.3.25.55.74.55 1.5l-.01 2.69c0 .21.15.46.56.4A8.01 8.01 0 0 0 16 7.86C16 3.4 12.37 0 7.9 0ZM3.14 11.13c-.05.03-.04.1.02.16.05.06.12.08.17.04.04-.04.03-.11-.03-.17-.05-.05-.12-.08-.16-.03Zm-.35-.27c-.03.05 0 .1.07.13.05.03.12.02.14-.02.02-.04-.01-.1-.07-.13-.07-.02-.12 0-.14.02Zm1.04 1.15c-.05.04-.03.14.04.2.08.08.17.09.21.04.05-.05.03-.14-.04-.2-.07-.08-.17-.09-.2-.04Zm-.37-.47c-.05.03-.05.11 0 .19.06.07.14.1.19.07.05-.04.05-.12 0-.2-.05-.07-.13-.1-.19-.06Z"/></svg>