<svg xmlns="http://www.w3.org/2000/svg" viewBox="0 0 16 16" fill="currentColor"><path fill-rule="evenodd" d="M2.75 1C1.78 1 1 1.78 1 2.75v2.5C1 6.22 1.78 7 2.75 7h2.5C6.22 7 7 6.22 7 5.25v-2.5C7 1.78 6.22 1 5.25 1h-2.5ZM2.5 2.75c0-.14.11-.25.25-.25h2.5c.14 0 .25.11.25.25v2.5c0 .14-.11.25-.25.25h-2.5a.25.25 0 0 1-.25-.25v-2.5ZM2.75 9C1.78 9 1 9.78 1 10.75v2.5c0 .97.78 1.75 1.75 1.75h2.5C6.22 15 7 14.22 7 13.25v-2.5C7 9.78 6.22 9 5.25 9h-2.5Zm-.25 1.75c0-.14.11-.25.25-.25h2.5c.14 0 .25.11.25.25v2.5c0 .14-.11.25-.25.25h-2.5a.25.25 0 0 1-.25-.25v-2.5Zm6.5-8C9 1.78 9.78 1 10.75 1h2.5c.97 0 1.75.78 1.75 1.75v2.5C15 6.22 14.22 7 13.25 7h-2.5C9.78 7 9 6.22 9 5.25v-2.5Zm1.75-.25a.25.25 0 0 0-.25.25v2.5c0 .14.11.25.25.25h2.5c.14 0 .25-.11.25-.25v-2.5a.25.25 0 0 0-.25-.25h-2.5Zm0 6.5C9.78 9 9 9.78 9 10.75v2.5c0 .97.78 1.75 1.75 1.75h2.5c.97 0 1.75-.78 1.75-1.75v-2.5C15 9.78 14.22 9 13.25 9h-2.5Zm-.25 1.75c0-.14.11-.25.25-.25h2.5c.14 0 .25.11.25.25v2.5c0 .14-.11.25-.25.25h-2.5a.25.25 0 0 1-.25-.25v-2.5Z"/></svg>