<svg xmlns="http://www.w3.org/2000/svg" viewBox="0 0 20 16" fill="currentColor"><path d="M1.25 2a.75.75 0 0 0-.75.75v10.5a.75.75 0 0 0 1.5 0V8.5h6.5v4.75a.75.75 0 0 0 1.5 0V2.75a.75.75 0 0 0-1.5 0V7H2V2.75A.75.75 0 0 0 1.25 2ZM13.4 3.9c.26-.25.62-.4.98-.4h1.66a2 2 0 0 1 1.99 2.25l-.01.04-.01.05a2.18 2.18 0 0 1-1.95 1.37l-.34.02a.78.78 0 0 0 0 1.54l.34.02a2.18 2.18 0 0 1 1.96 1.42v.04a2 2 0 0 1-1.98 2.25h-1.66A1.38 1.38 0 0 1 13 11.12V11a.75.75 0 0 0-1.5 0v.12A2.88 2.88 0 0 0 14.38 14h1.66a3.5 3.5 0 0 0 3.47-3.94v-.04a1.69 1.69 0 0 0-.1-.4A3.68 3.68 0 0 0 18.15 8c.55-.4.98-.96 1.24-1.61.06-.14.1-.27.1-.41l.01-.04A3.5 3.5 0 0 0 16.04 2h-1.66a2.88 2.88 0 0 0-2.88 2.88V5A.75.75 0 0 0 13 5v-.12c0-.36.15-.72.4-.97Z"/></svg>