<svg xmlns="http://www.w3.org/2000/svg" viewBox="0 0 20 16" fill="currentColor"><path d="M1.25 2a.75.75 0 0 0-.75.75v10.5a.75.75 0 0 0 1.5 0V8.5h6.5v4.75a.75.75 0 0 0 1.5 0V2.75a.75.75 0 0 0-1.5 0V7H2V2.75A.75.75 0 0 0 1.25 2ZM13 4.75c0-.69.56-1.25 1.25-1.25h4a.75.75 0 0 0 0-1.5h-4a2.75 2.75 0 0 0-2.75 2.75v1a2.75 2.75 0 0 0 2.75 2.75h1.68a2 2 0 1 1 0 4h-1.48A1.45 1.45 0 0 1 13 11.05V11a.75.75 0 0 0-1.5 0v.05A2.95 2.95 0 0 0 14.45 14h1.48a3.5 3.5 0 1 0 0-7h-1.68C13.56 7 13 6.44 13 5.75v-1Z"/></svg>