<svg xmlns="http://www.w3.org/2000/svg" viewBox="0 0 20 16" fill="currentColor"><path d="M16.5 13c0 .83-.67 1.5-1.5 1.5h-3c0-.83-.67-1.5-1.5-1.5h-1c-.83 0-1.5.67-1.5 1.5v.75c0 .41.34.75.75.75H15a3 3 0 0 0 3-3V8A8 8 0 1 0 2 8v.25a.75.75 0 0 0 1.5 0V8a6.5 6.5 0 0 1 13 0v5Z"/><path fill-rule="evenodd" d="M9 6.5a1 1 0 0 0-1-1H6.5a2 2 0 0 0-2 2v2c0 1.1.9 2 2 2H8a1 1 0 0 0 1-1v-4ZM7.5 10h-1a.5.5 0 0 1-.5-.5v-2c0-.28.22-.5.5-.5h1v3ZM11 6.5a1 1 0 0 1 1-1h1.5a2 2 0 0 1 2 2v2a2 2 0 0 1-2 2H12a1 1 0 0 1-1-1v-4Zm1.5 3.5h1a.5.5 0 0 0 .5-.5v-2a.5.5 0 0 0-.5-.5h-1v3Z"/></svg>