<svg xmlns="http://www.w3.org/2000/svg" viewBox="0 0 20 16" fill="currentColor"><path fill-rule="evenodd" d="M10 3.3 8.88 2.18A4.03 4.03 0 0 0 2 5.03v.37c0 1.22.48 2.38 1.34 3.24L9.3 14.6a1 1 0 0 0 1.42 0l5.95-5.95A4.58 4.58 0 0 0 18 5.4v-.37a4.03 4.03 0 0 0-6.88-2.85L10 3.3Zm1.74.39.44-.45a2.53 2.53 0 0 1 4.32 1.79v.37c0 .82-.32 1.6-.9 2.18l-5.6 5.6-5.6-5.6a3.08 3.08 0 0 1-.9-2.18v-.37a2.53 2.53 0 0 1 4.32-1.8l1.24 1.25-.82 1.18a.5.5 0 0 0 .06.64l1.28 1.28c.1.1.16.26.14.4l-.17 1.6c-.01.1.12.15.18.06l1.3-2.05a.5.5 0 0 0-.06-.62l-.66-.66a.5.5 0 0 1-.05-.66l1.48-1.96Z"/></svg>