<svg xmlns="http://www.w3.org/2000/svg" viewBox="0 0 20 16" fill="currentColor"><path fill-rule="evenodd" d="M8.04 6.75h.01l.96 1.14-.01.02c-.18.14-.35.3-.53.48C7.9 8.94 7.3 9.5 6.5 9.5 4.01 9.5 2 7.36 2 4.72 2 1 3 1 6.5 1h7C17 1 18 2.06 18 4.72c0 2.64-2.01 4.78-4.5 4.78-.86 0-1.13-.25-1.6-.7l-.4-.36-.54-.48A1.5 1.5 0 0 0 9 7.89l-.96-1.15a3 3 0 0 1 3.92.11l.5.45c.19.15.34.3.45.4v.01a5.43 5.43 0 0 0 .31.27c.03 0 .1.02.27.02 1.57 0 3-1.38 3-3.28 0-1.2-.24-1.57-.42-1.72-.25-.22-.9-.5-2.58-.5h-7c-.9 0-1.54 0-2.03.05-.5.05-.66.13-.7.16l-.02.03a.9.9 0 0 0-.1.24c-.09.32-.15.85-.15 1.74C3.5 6.62 4.93 8 6.5 8c.03 0 .1 0 .25-.1.19-.13.38-.3.69-.6l.01-.01c.17-.16.37-.36.59-.54Zm5.18 1.22h.01Z"/><path d="M5.42 11.8c-.45.16-.65.7-.34 1.06A6.41 6.41 0 0 0 10 15c2.01 0 3.8-.82 4.88-2.1.32-.36.12-.9-.34-1.07-.33-.12-.7 0-.96.27A4.88 4.88 0 0 1 10 13.5c-1.59 0-2.84-.6-3.61-1.43a.92.92 0 0 0-.97-.28Zm6.08-7.3a.5.5 0 0 0 0-1h-3a.5.5 0 0 0 0 1h3Z"/></svg>