<svg xmlns="http://www.w3.org/2000/svg" viewBox="0 0 20 16" fill="currentColor"><path fill-rule="evenodd" d="M6 16h8a2 2 0 0 0 2-2v-.17a5 5 0 0 0-2.43-4.29l-.78-.47a1.25 1.25 0 0 1 0-2.14l.78-.47A5 5 0 0 0 16 2.16V2a2 2 0 0 0-2-2H6a2 2 0 0 0-2 2v.17a5 5 0 0 0 2.43 4.29l.78.47c.81.48.81 1.66 0 2.14l-.78.47A5 5 0 0 0 4 13.84V14c0 1.1.9 2 2 2Zm3.32-8c0-.91-.44-1.82-1.33-2.36l-.8-.47a3.5 3.5 0 0 1-1.69-3V2c0-.28.22-.5.5-.5h8c.28 0 .5.22.5.5v.17a3.5 3.5 0 0 1-1.7 3l-.79.47A2.73 2.73 0 0 0 10.68 8H9.32Z"/></svg>