<svg xmlns="http://www.w3.org/2000/svg" viewBox="0 0 20 20" fill="currentColor"><path fill-rule="evenodd" d="M11.22 9H8.78a2.9 2.9 0 0 1-1.17 3.46l-1.07-1.7a.9.9 0 0 0 0-1.53l-.12-.07a8.75 8.75 0 0 1-4-6.16 2.64 2.64 0 0 1 2.6-3h9.95c1.6 0 2.83 1.42 2.6 3a8.75 8.75 0 0 1-3.99 6.16l-.12.07a.9.9 0 0 0 0 1.54l.12.07-1.07 1.7-.12-.08A2.9 2.9 0 0 1 11.22 9ZM5.17 5h9.66c.39-.7.65-1.48.76-2.29a.63.63 0 0 0-.62-.71H5.03a.63.63 0 0 0-.62.71c.11.81.37 1.59.76 2.29Z"/><path d="M13.58 10.84a8.75 8.75 0 0 1 4 6.16c.22 1.58-1.01 3-2.6 3H5.02a2.63 2.63 0 0 1-2.6-3 8.75 8.75 0 0 1 3.99-6.16l.12-.07 1.07 1.69-.12.07A6.75 6.75 0 0 0 5.17 15h9.66a6.75 6.75 0 0 0-2.32-2.47l1.07-1.69Z"/></svg>