<svg xmlns="http://www.w3.org/2000/svg" viewBox="0 0 20 20" fill="currentColor"><path fill-rule="evenodd" d="m6.54 10.77-.12.07a8.75 8.75 0 0 0-4 6.16 2.64 2.64 0 0 0 2.6 3h9.95c1.6 0 2.83-1.42 2.6-3a8.75 8.75 0 0 0-3.99-6.16l-.12-.07a.9.9 0 0 1 0-1.54l.12-.07a8.75 8.75 0 0 0 4-6.16c.22-1.58-1.01-3-2.6-3H5.02a2.63 2.63 0 0 0-2.6 3 8.75 8.75 0 0 0 3.99 6.16l.12.07a.9.9 0 0 1 0 1.54ZM7.6 7.54l-.12-.07A6.75 6.75 0 0 1 4.4 2.7a.63.63 0 0 1 .63-.7h9.94c.38 0 .68.34.62.71a6.75 6.75 0 0 1-3.08 4.76l-.12.07A2.9 2.9 0 0 0 11.22 11H8.78a2.9 2.9 0 0 0-1.17-3.46Z"/></svg>