<svg xmlns="http://www.w3.org/2000/svg" viewBox="0 0 20 20" fill="currentColor"><path fill-rule="evenodd" d="M12.4 12.46a2.9 2.9 0 0 1 0-4.92l1.06 1.7a.9.9 0 0 0 0 1.53l.12.07-1.07 1.7-.12-.08Zm.11-5-.12.08 1.07 1.7.12-.08a8.75 8.75 0 0 0 4-6.16c.22-1.58-1.01-3-2.6-3H5.02a2.63 2.63 0 0 0-2.6 3 8.75 8.75 0 0 0 3.99 6.16l.12.07a.9.9 0 0 1 0 1.54l-.12.07a8.75 8.75 0 0 0-4 6.16 2.64 2.64 0 0 0 2.6 3h9.95c1.6 0 2.83-1.42 2.6-3a8.75 8.75 0 0 0-3.99-6.16l-1.07 1.7a6.75 6.75 0 0 1 3.08 4.75.63.63 0 0 1-.62.71H5.03a.63.63 0 0 1-.62-.71 6.75 6.75 0 0 1 3.08-4.76l.12-.07a2.9 2.9 0 0 0 0-4.92l-.12-.07-1.07 1.69 1.07-1.7A6.75 6.75 0 0 1 4.4 2.72.63.63 0 0 1 5.03 2h9.94c.38 0 .68.34.62.71l1.98.29-1.98-.29a6.75 6.75 0 0 1-3.08 4.76Z"/></svg>