<svg xmlns="http://www.w3.org/2000/svg" viewBox="0 0 20 16" fill="currentColor"><path d="M15.25 5.5h-3a.75.75 0 0 0 0 1.5h3a.75.75 0 0 0 0-1.5Zm-3 2.5h3a.75.75 0 0 1 0 1.5h-3a.75.75 0 0 1 0-1.5ZM7.5 9a2 2 0 1 0 0-4 2 2 0 0 0 0 4Z"/><path fill-rule="evenodd" d="M1 3.5c0-1.1.9-2 2-2h14a2 2 0 0 1 2 2v9a2 2 0 0 1-2 2H3a2 2 0 0 1-2-2v-9Zm1.5.5v8.5c0 .28.22.5.5.5h1.52a4.37 4.37 0 0 1-.08-.09c-.47-.5-.62-1-.18-1.53.31-.38.77-.65 1.3-.72 1.45-.21 2.43-.21 3.88 0 .53.07.99.34 1.3.72.44.52.29 1.04-.18 1.53l-.08.09H17a.5.5 0 0 0 .5-.5V4h-15Z"/></svg>