<svg xmlns="http://www.w3.org/2000/svg" viewBox="0 0 20 16" fill="currentColor"><path d="M10 7.84a2.34 2.34 0 1 1-4.69 0 2.34 2.34 0 0 1 4.7 0Zm2-1.09c0-.41.34-.75.75-.75h2.5a.75.75 0 0 1 0 1.5h-2.5a.75.75 0 0 1-.75-.75ZM12.75 9a.75.75 0 0 0 0 1.5h2.5a.75.75 0 0 0 0-1.5h-2.5Z"/><path fill-rule="evenodd" d="M1 3c0-1.1.9-2 2-2h14a2 2 0 0 1 2 2v10a2 2 0 0 1-2 2H3a2 2 0 0 1-2-2V3Zm16.5 1h-15v9c0 .28.22.5.5.5h.76c-.39-.79-.3-1.76.53-2.07l.32-.1c2.02-.34 4.08-.34 6.1 0l.32.1c.83.31.92 1.28.53 2.07H17a.5.5 0 0 0 .5-.5V4Z"/></svg>