<svg xmlns="http://www.w3.org/2000/svg" viewBox="0 0 16 16" fill="currentColor"><path d="M10.5 7a1.5 1.5 0 1 0 0-3 1.5 1.5 0 0 0 0 3Z"/><path d="M3.75 1A2.75 2.75 0 0 0 1 3.75v8.5A2.75 2.75 0 0 0 3.75 15h8.5A2.75 2.75 0 0 0 15 12.25v-8.5A2.75 2.75 0 0 0 12.25 1h-8.5ZM2.5 3.75c0-.69.56-1.25 1.25-1.25h8.5c.69 0 1.25.56 1.25 1.25v8.5c0 .69-.56 1.25-1.25 1.25h-.19L6.74 8.18a1.75 1.75 0 0 0-2.48 0L2.5 9.94V3.75Zm3.18 5.49 4.26 4.26H3.75c-.69 0-1.25-.56-1.25-1.25v-.19l2.82-2.82c.1-.1.26-.1.36 0Z"/></svg>