<svg xmlns="http://www.w3.org/2000/svg" viewBox="0 0 20 16" fill="currentColor"><path d="M11.25 5.5a1.25 1.25 0 1 0 0-2.5 1.25 1.25 0 0 0 0 2.5Z"/><path fill-rule="evenodd" d="M2 14c0 1.1.9 2 2 2h13a1 1 0 0 0 1-1V2a2 2 0 0 0-2-2H4a2 2 0 0 0-2 2v12Zm14.5.44-3.94-3.94 1.26-1.26c.1-.1.26-.1.36 0l2.32 2.32v2.88Zm-3.74-6.26L11.5 9.44 8.24 6.18a1.75 1.75 0 0 0-2.48 0L3.5 8.44V2c0-.28.22-.5.5-.5h12c.28 0 .5.22.5.5v7.44l-1.26-1.26a1.75 1.75 0 0 0-2.48 0Zm-5.94-.94c.1-.1.26-.1.36 0l7.26 7.26H4a.5.5 0 0 1-.5-.5v-3.44l3.32-3.32Z"/></svg>