<svg xmlns="http://www.w3.org/2000/svg" viewBox="0 0 20 16" fill="currentColor"><g clip-path="url(#a)"><path d="M10 4.4a3.58 3.58 0 1 0 0 7.18 3.58 3.58 0 0 0 0-7.17Zm0 5.93a2.34 2.34 0 1 1 .01-4.68 2.34 2.34 0 0 1 0 4.68Zm4.58-6.07a.84.84 0 1 1-1.68 0 .84.84 0 0 1 1.68 0Zm2.38.85a4.14 4.14 0 0 0-1.14-2.94 4.17 4.17 0 0 0-2.93-1.13 84.81 84.81 0 0 0-5.78 0 4.2 4.2 0 0 0-2.93 1.13 4.16 4.16 0 0 0-1.13 2.94 84.81 84.81 0 0 0 0 5.77c.05 1.13.3 2.12 1.13 2.94a4.18 4.18 0 0 0 2.93 1.13c1.16.07 4.62.07 5.78 0a4.14 4.14 0 0 0 2.93-1.13 4.17 4.17 0 0 0 1.14-2.94 92.5 92.5 0 0 0 0-5.77Zm-1.5 7.01a2.36 2.36 0 0 1-1.33 1.34c-.92.36-3.1.28-4.13.28-1.02 0-3.2.08-4.12-.28a2.36 2.36 0 0 1-1.34-1.34c-.36-.92-.28-3.1-.28-4.12s-.08-3.21.28-4.13c.25-.61.72-1.09 1.34-1.33.92-.37 3.1-.28 4.12-.28s3.21-.08 4.13.28c.61.24 1.09.71 1.33 1.33.37.92.28 3.1.28 4.13 0 1.02.09 3.2-.28 4.13Z"/></g><defs><clipPath id="a"><path d="M0 0h14v16H0z" transform="translate(3)"/></clipPath></defs></svg>