<svg xmlns="http://www.w3.org/2000/svg" viewBox="0 0 20 16" fill="currentColor"><path fill-rule="evenodd" d="M4.75 4.5a1 1 0 1 1 0-2 1 1 0 0 1 0 2Zm0 1.5c.68 0 1.3-.28 1.76-.72l.3.26c.38.37.71.84 1 1.4a4.73 4.73 0 0 0-3.63.36A2.5 2.5 0 1 0 5 11c.08.16.14.37.2.63.15.57.24 1.34.28 2.37.02.55.47 1 1.02 1h8c.55 0 1-.45 1.01-1 .07-2.9.42-4.96 1.02-6.54a2.5 2.5 0 1 0-2.03-2.47l-.7.3a7.73 7.73 0 0 0-3.1-3.5 5.46 5.46 0 0 0-4.52-.34A2.5 2.5 0 1 0 4.75 6Zm9.27 7.5H10.8c.17-2.74.84-4.38 1.77-5.45a6.14 6.14 0 0 1 2.38-1.62l.25.31c-.7 1.74-1.08 3.9-1.18 6.76Zm-4.8 0H6.95a12.6 12.6 0 0 0-.3-2.22 3.64 3.64 0 0 0-1.18-2.1c-.03-.25-.1-.5-.2-.72a3.31 3.31 0 0 1 3.29.53c.39 1.47.57 3.09.64 4.51ZM7.84 4.46c-.2-.2-.41-.37-.64-.52a2.52 2.52 0 0 0-.08-1.21c.9-.21 1.9-.14 2.85.38a6.4 6.4 0 0 1 2.54 2.96 6.8 6.8 0 0 0-2.36 3.11 15.3 15.3 0 0 0-.43-1.52 7.97 7.97 0 0 0-1.88-3.2ZM17 6a1 1 0 1 1 0-2 1 1 0 0 1 0 2ZM4 9.5a1 1 0 1 1-2 0 1 1 0 0 1 2 0Z"/></svg>