<svg xmlns="http://www.w3.org/2000/svg" viewBox="0 0 20 16" fill="currentColor"><path fill-rule="evenodd" d="M10.1 2.38c.17-.8.88-1.38 1.7-1.38h5.45c.97 0 1.75.78 1.75 1.75v5.44c0 .83-.57 1.54-1.38 1.71l-8.25 1.8-2.87 2.87a1.75 1.75 0 0 1-2.99-1.23V9.5l-.72.48A.5.5 0 0 1 2 9.57V8.43c0-.4.45-.63.78-.41l.72.48V7c0-.69-.56-1.25-1.25-1.25H2a.75.75 0 0 1 0-1.5h.25A2.75 2.75 0 0 1 5 7v1.5l.72-.48a.5.5 0 0 1 .78.41v1.14a.5.5 0 0 1-.78.41L5 9.5v3.84c0 .22.27.33.43.17l2.88-2.88 1.79-8.25Zm-.12 7.64L14.5 5.5l2.9 2.9c.06-.05.1-.12.1-.2V2.74a.25.25 0 0 0-.07-.18L14.5 5.5l-2.9-2.9a.25.25 0 0 0-.04.1l-1.58 7.32Z"/></svg>