<svg xmlns="http://www.w3.org/2000/svg" viewBox="0 0 20 16" fill="currentColor"><path d="M17.76 3.62V3.6a.26.26 0 0 0-.02-.04l-.02-.02a.3.3 0 0 0-.02-.03l-.03-.02-.02-.02-3.01-1.73a.25.25 0 0 0-.25 0l-3.01 1.73a.24.24 0 0 0-.03.02l-.02.02-.03.03-.01.02a.3.3 0 0 0-.02.04v.02l-.02.07v3.28l-2.5 1.45V1.98l-.01-.06-.01-.02a.26.26 0 0 0-.02-.04l-.01-.03a.3.3 0 0 0-.03-.02.3.3 0 0 0-.02-.02.3.3 0 0 0-.03-.02l-3-1.74a.25.25 0 0 0-.26 0l-3 1.74a.2.2 0 0 0-.03.02c-.01 0-.02 0-.03.02l-.02.02-.02.03-.01.04-.01.02-.01.06v10.3a.25.25 0 0 0 .12.22l6.02 3.47.04.01.02.01h.15l.04-.02 6.02-3.47a.25.25 0 0 0 .12-.21v-3.3l2.88-1.65a.25.25 0 0 0 .13-.22v-3.5ZM5.5.54 8 1.98 5.5 3.43 3 1.98 5.48.54Zm2.76 1.88V8.7l-1.46.83-1.05.61v-6.3l1.45-.83 1.06-.6Zm0 12.9-5.52-3.18V2.42l1.05.6 1.46.84v6.79l.02.03.01.03.02.02.02.03.02.02.03.02 2.88 1.63v2.88ZM8.5 12 6 10.58l2.62-1.51L11.5 7.4 14 8.85 12.18 9.9 8.5 12Zm5.76.14-5.51 3.18v-2.89l4.08-2.33 1.43-.82v2.86Zm0-3.72-1.05-.6-1.46-.84V4.12l1.06.6 1.45.84v2.86Zm.25-3.3-2.5-1.44 2.5-1.44 2.5 1.44-2.5 1.45Zm.25 3.3V5.56l1.46-.84 1.05-.6v2.85l-2.5 1.45Z"/></svg>