<svg xmlns="http://www.w3.org/2000/svg" viewBox="0 0 16 16" fill="currentColor"><path d="M7.86 1.74c.09-.06.2-.06.28 0l6.17 4.05c.15.1.15.32 0 .42l-2.94 1.93a4.5 4.5 0 0 1 2.58.1l1.19-.78a1.75 1.75 0 0 0 0-2.92L8.96.48a1.75 1.75 0 0 0-1.92 0L.86 4.54a1.75 1.75 0 0 0 0 2.92l6.18 4.06c.3.2.66.3 1.01.28.12-.77.44-1.48.9-2.08l-.81.54a.25.25 0 0 1-.28 0L1.7 6.21a.25.25 0 0 1 0-.42l6.17-4.05Zm.28 12.52.17-.11c.19.47.45.9.78 1.28l-.13.09c-.58.38-1.34.38-1.92 0L.86 11.46a1.75 1.75 0 0 1 0-2.92l.22-.14 1.3.94-.7.45a.25.25 0 0 0 0 .42l6.18 4.05c.09.06.2.06.28 0Z"/><path d="M16 12.5a3.5 3.5 0 1 1-7 0 3.5 3.5 0 0 1 7 0ZM12.5 10a.5.5 0 0 0-.5.5V12h-1.5a.5.5 0 1 0 0 1H12v1.5a.5.5 0 0 0 1 0V13h1.5a.5.5 0 1 0 0-1H13v-1.5a.5.5 0 0 0-.5-.5Z"/></svg>