<svg xmlns="http://www.w3.org/2000/svg" viewBox="0 0 20 16" fill="currentColor"><path fill-rule="evenodd" d="M10.85.36a1.77 1.77 0 0 0-1.7 0L2.21 4.22c-1.2.67-1.2 2.4 0 3.06l6.94 3.86c.53.29 1.17.29 1.7 0l6.94-3.86c1.2-.67 1.2-2.4 0-3.06L10.85.36Zm-.97 1.32a.25.25 0 0 1 .24 0l6.94 3.85c.17.1.17.34 0 .44l-6.94 3.85a.25.25 0 0 1-.24 0L2.94 5.97a.25.25 0 0 1 0-.44l6.94-3.85Z"/><path d="M2.2 11.78a1.75 1.75 0 0 1-.32-2.82l1.53.81-.47.26a.25.25 0 0 0 0 .44l6.94 3.85c.07.05.17.05.24 0l6.94-3.85a.25.25 0 0 0 0-.44l-.47-.26 1.53-.81c.86.77.75 2.22-.33 2.82l-6.94 3.86c-.53.29-1.17.29-1.7 0l-6.94-3.86Z"/></svg>