<svg xmlns="http://www.w3.org/2000/svg" viewBox="0 0 20 16" fill="currentColor"><path d="M9.63 1.68a.25.25 0 0 1 .24 0l6.94 3.85c.17.1.17.34 0 .44l-1.14.63c.54.17 1 .54 1.27 1.01l.6-.33c1.2-.67 1.2-2.4 0-3.06L10.6.36a1.77 1.77 0 0 0-1.7 0L1.96 4.22c-1.2.67-1.2 2.4 0 3.06l6.94 3.86c.22.12.46.19.7.2a2.25 2.25 0 0 1 2.15-1.59h1v-1c0-.2.02-.38.07-.56L9.87 9.82a.25.25 0 0 1-.24 0L2.69 5.97a.25.25 0 0 1 0-.44l6.94-3.85Zm.24 12.64.72-.4c.34.21.73.33 1.16.33h1v.2l-2.15 1.19c-.53.29-1.17.29-1.7 0l-6.94-3.86a1.75 1.75 0 0 1-.33-2.82l1.53.81-.47.26a.25.25 0 0 0 0 .44l6.94 3.85c.07.05.17.05.24 0Zm8.38-4.57h.12c-.09-.3-.25-.57-.5-.8l-.62.34v.46h1Z"/><path d="M15.75 8.75v2.5h2.5a.75.75 0 0 1 0 1.5h-2.5v2.5a.75.75 0 0 1-1.5 0v-2.5h-2.5a.75.75 0 0 1 0-1.5h2.5v-2.5a.75.75 0 0 1 1.5 0Z"/></svg>