<svg xmlns="http://www.w3.org/2000/svg" viewBox="0 0 16 16" fill="currentColor"><path d="M8.96.48a1.75 1.75 0 0 0-1.92 0L.86 4.54a1.75 1.75 0 0 0 0 2.92l6.18 4.06c.58.38 1.34.38 1.92 0l6.18-4.06a1.75 1.75 0 0 0 0-2.92L8.96.48Zm-1.1 1.26c.09-.06.2-.06.28 0l6.17 4.05c.15.1.15.32 0 .42l-6.17 4.05a.25.25 0 0 1-.28 0L1.7 6.21a.25.25 0 0 1 0-.42l6.17-4.05Z"/><path d="m.86 8.54.22-.14 1.3.94-.7.45a.25.25 0 0 0 0 .42l6.18 4.05c.09.06.2.06.28 0l6.17-4.05a.25.25 0 0 0 0-.42l-.69-.45 1.3-.94.22.14a1.75 1.75 0 0 1 0 2.92l-6.18 4.06c-.58.38-1.34.38-1.92 0L.86 11.46a1.75 1.75 0 0 1 0-2.92Z"/></svg>