<svg xmlns="http://www.w3.org/2000/svg" viewBox="0 0 20 16" fill="currentColor"><path fill-rule="evenodd" d="M6.2 9.48c.71.68 1.3 1.54 1.3 2.52h5c0-.98.59-1.84 1.3-2.52A5.48 5.48 0 0 0 10 0a5.5 5.5 0 0 0-3.8 9.48ZM14 5.5a4 4 0 0 1-1.24 2.9 6 6 0 0 0-1.47 2.1H8.7a6 6 0 0 0-1.47-2.1A4 4 0 1 1 14 5.5Z"/><path d="M8.28 15.12c-.5-.39-.78-.99-.78-1.62h5c0 .63-.29 1.23-.78 1.62l-.26.22c-.14.1-.25.24-.33.4a.48.48 0 0 1-.43.26H9.3a.48.48 0 0 1-.43-.26 1.2 1.2 0 0 0-.33-.4l-.26-.22ZM3.5 6c0 .41-.34.75-.75.75h-2a.75.75 0 0 1 0-1.5h2c.41 0 .75.34.75.75Zm15.75.75a.75.75 0 0 0 0-1.5h-2a.75.75 0 0 0 0 1.5h2Zm-14.88-4a.75.75 0 0 1-1.02.27l-1.74-1a.75.75 0 1 1 .75-1.3l1.74 1c.36.21.48.67.27 1.03Zm13.27 8.52a.75.75 0 0 0 .75-1.3l-1.74-1a.75.75 0 0 0-.75 1.3l1.74 1ZM4.37 9.25c.2.36.09.82-.27 1.02l-1.74 1a.75.75 0 0 1-.75-1.3l1.74-1a.75.75 0 0 1 1.02.28Zm14.02-7.23a.75.75 0 0 0-.75-1.3l-1.74 1a.75.75 0 1 0 .75 1.3l1.74-1Z"/></svg>