<svg xmlns="http://www.w3.org/2000/svg" viewBox="0 0 20 16" fill="currentColor"><path d="M4.82 5h-.86V2.02c-.1.06-.2.12-.33.17-.12.04-.25.1-.4.14L3 1.63A4.38 4.38 0 0 0 4.3 1h.52v4ZM3.08 9.7v.3H5.7v-.72H4.08c0-.05.01-.1.04-.16a.7.7 0 0 1 .14-.18l.2-.17a13.4 13.4 0 0 0 .62-.47c.12-.1.22-.2.32-.32a1.32 1.32 0 0 0 .3-.87 1 1 0 0 0-.34-.8c-.23-.2-.53-.31-.92-.31A1.5 1.5 0 0 0 3 6.93l.7.29a1 1 0 0 1 .27-.38c.1-.1.22-.14.36-.14.16 0 .28.04.37.12.09.08.13.2.13.34a.74.74 0 0 1-.19.5 4.48 4.48 0 0 1-.52.46l-.35.27a2.13 2.13 0 0 0-.59.77c-.07.16-.1.34-.1.54Zm.57 4.22L3 14.3c.13.23.3.4.53.52.22.12.5.18.84.18.42 0 .76-.1 1.01-.32.26-.2.39-.5.39-.85a.88.88 0 0 0-.21-.6.98.98 0 0 0-.59-.3v-.02c.23-.07.4-.19.51-.35a.92.92 0 0 0 .17-.55c0-.32-.1-.56-.32-.74a1.4 1.4 0 0 0-.91-.27c-.32 0-.6.07-.82.21-.23.14-.4.32-.51.53l.63.3a.72.72 0 0 1 .26-.29c.1-.06.22-.1.34-.1a.5.5 0 0 1 .33.12.4.4 0 0 1 .14.32c0 .18-.07.32-.2.4-.12.09-.3.13-.56.13h-.29v.66h.32c.26 0 .47.05.62.14.15.1.22.22.22.4 0 .16-.05.29-.17.38a.66.66 0 0 1-.41.13.69.69 0 0 1-.41-.12.74.74 0 0 1-.26-.3Zm4.1-11.67a.75.75 0 0 0 0 1.5h8.5a.75.75 0 0 0 0-1.5h-8.5ZM7 8c0-.41.34-.75.75-.75h8.5a.75.75 0 0 1 0 1.5h-8.5A.75.75 0 0 1 7 8Zm.75 4.25a.75.75 0 0 0 0 1.5h8.5a.75.75 0 0 0 0-1.5h-8.5Z"/></svg>