<svg xmlns="http://www.w3.org/2000/svg" viewBox="0 0 16 16" fill="currentColor"><path d="M2.07 4.5h.77V.92h-.47a3.92 3.92 0 0 1-1.16.57l.21.62a5.48 5.48 0 0 0 .65-.28V4.5ZM5.25 2a.75.75 0 0 0 0 1.5h9a.75.75 0 0 0 0-1.5h-9Zm0 5.25a.75.75 0 0 0 0 1.5h9a.75.75 0 0 0 0-1.5h-9Zm-.75 6c0-.41.34-.75.75-.75h9a.75.75 0 0 1 0 1.5h-9a.75.75 0 0 1-.75-.75Zm-3.38-3.5v-.26c0-.18.03-.34.09-.48a1.62 1.62 0 0 1 .52-.69 6.93 6.93 0 0 1 .58-.45c.08-.06.14-.13.2-.2a.8.8 0 0 0 .12-.2.63.63 0 0 0 .05-.25.37.37 0 0 0-.12-.3.46.46 0 0 0-.33-.1.49.49 0 0 0-.32.12.83.83 0 0 0-.24.33l-.62-.25a1.35 1.35 0 0 1 1.28-.83c.34 0 .61.1.82.27.2.18.3.42.3.72a1.14 1.14 0 0 1-.27.78 4.28 4.28 0 0 1-.83.7l-.18.15c-.06.05-.1.1-.13.16A.31.31 0 0 0 2 9.1h1.45v.64H1.12Zm.47 4.33-.6.35c.12.2.28.36.48.47.2.11.46.17.77.17.37 0 .68-.1.91-.29A.93.93 0 0 0 3.5 14c0-.2-.06-.38-.19-.53a.87.87 0 0 0-.53-.28v-.02c.2-.06.36-.17.47-.31.1-.14.15-.31.15-.5 0-.29-.1-.5-.3-.67-.18-.16-.46-.24-.82-.24-.28 0-.53.06-.74.19-.21.13-.37.28-.46.47l.57.28a.6.6 0 0 1 .24-.26.6.6 0 0 1 .3-.09.5.5 0 0 1 .3.1c.08.07.12.17.12.3 0 .16-.05.28-.17.36a.93.93 0 0 1-.51.11h-.26v.6h.28c.24 0 .43.04.56.13.14.08.2.2.2.35 0 .16-.04.27-.15.35a.6.6 0 0 1-.37.12.65.65 0 0 1-.37-.1.7.7 0 0 1-.23-.28Z"/></svg>