<svg xmlns="http://www.w3.org/2000/svg" viewBox="0 0 20 16" fill="currentColor"><path d="M6.28 1.47c.3.3.3.77 0 1.06L4.46 4.35a1 1 0 0 1-1.42 0l-.82-.82a.75.75 0 0 1 1.06-1.06l.47.47 1.47-1.47c.3-.3.77-.3 1.06 0Zm1.47.78h8.5a.75.75 0 0 1 0 1.5h-8.5a.75.75 0 0 1 0-1.5ZM7 8c0-.41.34-.75.75-.75h8.5a.75.75 0 0 1 0 1.5h-8.5A.75.75 0 0 1 7 8Zm.75 4.25a.75.75 0 0 0 0 1.5h8.5a.75.75 0 0 0 0-1.5h-8.5ZM6.28 7.53a.75.75 0 0 0-1.06-1.06L3.75 7.94l-.47-.47a.75.75 0 0 0-1.06 1.06l.82.82a1 1 0 0 0 1.42 0l1.82-1.82Z"/></svg>