<svg xmlns="http://www.w3.org/2000/svg" viewBox="0 0 20 16" fill="currentColor"><path d="M6.18 1.68c.2.2.2.5 0 .7L3.85 4.71a.5.5 0 0 1-.7 0L1.82 3.38a.5.5 0 0 1 0-.7l.36-.36c.2-.2.5-.2.7 0l.62.62 1.62-1.62c.2-.2.5-.2.7 0l.36.36ZM7 3c0-.41.34-.75.75-.75h8.5a.75.75 0 0 1 0 1.5h-8.5A.75.75 0 0 1 7 3Zm0 5c0-.41.34-.75.75-.75h8.5a.75.75 0 0 1 0 1.5h-8.5A.75.75 0 0 1 7 8Zm.75 4.25a.75.75 0 0 0 0 1.5h8.5a.75.75 0 0 0 0-1.5h-8.5ZM6.18 7.38a.5.5 0 0 0 0-.7l-.36-.36a.5.5 0 0 0-.7 0L3.5 7.94l-.62-.62a.5.5 0 0 0-.7 0l-.36.36a.5.5 0 0 0 0 .7l1.33 1.33c.2.2.5.2.7 0l2.33-2.33Z"/></svg>