<svg xmlns="http://www.w3.org/2000/svg" viewBox="0 0 16 16" fill="currentColor"><path d="M9.04 11.45A6.46 6.46 0 0 0 6.5 11v2.74c0 .97-.78 1.75-1.75 1.75h-1c-.97 0-1.75-.78-1.75-1.75V11h-.25C.78 11 0 10.22 0 9.25v-3.5C0 4.78.78 4 1.75 4h4c1.5 0 2.38-.06 3.29-.44.92-.4 1.93-1.16 3.58-2.75.78-.75 2.13-.23 2.13.9v3.35a3 3 0 0 1 0 4.88v3.35c0 1.13-1.35 1.65-2.13.9-1.65-1.59-2.66-2.35-3.58-2.74Zm.59-6.52a8 8 0 0 1-3.13.56v4.02a8 8 0 0 1 3.13.56c1.09.46 2.17 1.29 3.62 2.65V2.28c-1.45 1.36-2.53 2.19-3.62 2.65ZM5 5.5H1.75a.25.25 0 0 0-.25.25v3.5c0 .14.11.25.25.25H5v-4Zm0 8.25V11H3.5v2.75c0 .14.11.25.25.25h1c.14 0 .25-.11.25-.25Z"/></svg>