<svg xmlns="http://www.w3.org/2000/svg" viewBox="0 0 24 24" fill="currentColor"><path d="M9 9a1 1 0 0 0 0-2H7a1 1 0 0 0 0 2h2Zm8-1a1 1 0 0 1-1 1h-3a1 1 0 1 1 0-2h3a1 1 0 0 1 1 1Zm-6 5a1 1 0 1 0 0-2H7a1 1 0 1 0 0 2h4Z"/><path fill-rule="evenodd" d="M18 3H6a4 4 0 0 0-4 4v6a4 4 0 0 0 4 4v2.3a2.7 2.7 0 0 0 4.62 1.9l4.2-4.2H18a4 4 0 0 0 4-4V7a4 4 0 0 0-4-4ZM8 15.5a.5.5 0 0 0-.5-.5H6a2 2 0 0 1-2-2V7c0-1.1.9-2 2-2h12a2 2 0 0 1 2 2v6a2 2 0 0 1-2 2h-3.8a.5.5 0 0 0-.35.15l-4.64 4.64A.7.7 0 0 1 8 19.3v-3.8Z"/></svg>