<svg xmlns="http://www.w3.org/2000/svg" viewBox="0 0 20 20" fill="currentColor"><path d="M7.75 7.5a1.25 1.25 0 1 0 0-2.5 1.25 1.25 0 0 0 0 2.5Zm5.75-1.25a1.25 1.25 0 1 1-2.5 0 1.25 1.25 0 0 1 2.5 0Zm-6.95 3.87c-.34-.33-.3-.87.03-1.2.44-.44 1.17-.34 1.68.02a2.99 2.99 0 0 0 3.48 0c.5-.36 1.24-.46 1.68-.02.33.33.38.87.03 1.2a4.98 4.98 0 0 1-6.9 0Z"/><path fill-rule="evenodd" d="M16 1H4a4 4 0 0 0-4 4v6a4 4 0 0 0 4 4v2.3a2.7 2.7 0 0 0 4.62 1.9l4.2-4.2H16a4 4 0 0 0 4-4V5a4 4 0 0 0-4-4ZM6 13.5a.5.5 0 0 0-.5-.5H4a2 2 0 0 1-2-2V5c0-1.1.9-2 2-2h12a2 2 0 0 1 2 2v6a2 2 0 0 1-2 2h-3.8a.5.5 0 0 0-.35.15l-4.64 4.64A.7.7 0 0 1 6 17.3v-3.8Z"/></svg>