<svg xmlns="http://www.w3.org/2000/svg" viewBox="0 0 20 16" fill="currentColor"><path d="M4 7.25v-1c0-.14.11-.25.25-.25h5.5c.14 0 .25.11.25.25v1c0 .14-.11.25-.25.25h-5.5A.25.25 0 0 1 4 7.25Zm0-3v-1c0-.14.11-.25.25-.25h8.5c.14 0 .25.11.25.25v1c0 .14-.11.25-.25.25h-8.5A.25.25 0 0 1 4 4.25Z"/><path fill-rule="evenodd" d="M10.12 12H17a2 2 0 0 0 2-2V2a2 2 0 0 0-2-2H3a2 2 0 0 0-2 2v8c0 1.1.9 2 2 2h.5v1.8a2 2 0 0 0 3.41 1.4l3.21-3.2ZM17 1.5c.28 0 .5.22.5.5v8a.5.5 0 0 1-.5.5H9.5l-3.65 3.65a.5.5 0 0 1-.85-.36V10.5H3a.5.5 0 0 1-.5-.5V2c0-.28.22-.5.5-.5h14Z"/></svg>