<svg xmlns="http://www.w3.org/2000/svg" viewBox="0 0 24 25" fill="currentColor"><path d="M12.32 8.73 14.05 7H13a1 1 0 0 0-.68 1.73Z"/><path d="M6 5h9.63a1 1 0 0 0 .71-.3l.83-.85a.5.5 0 0 0-.36-.85H6a4 4 0 0 0-4 4v6a4 4 0 0 0 4 4v2.3a2.7 2.7 0 0 0 4.62 1.9l4.2-4.2H18a4 4 0 0 0 4-4v-1.64a1 1 0 0 0-2 0V13a2 2 0 0 1-2 2h-3.8a.5.5 0 0 0-.35.15l-4.64 4.64A.7.7 0 0 1 8 19.3v-3.8a.5.5 0 0 0-.5-.5H6a2 2 0 0 1-2-2V7c0-1.1.9-2 2-2Z"/><path d="m10.97 13 .34-1.95A1 1 0 0 0 11 11H7a1 1 0 1 0 0 2h3.97ZM9 9a1 1 0 0 0 0-2H7a1 1 0 0 0 0 2h2Zm12.35-2.23a1 1 0 0 0 0-1.42l-.7-.7a1 1 0 0 0-1.42 0l-5.57 5.56a1 1 0 0 0-.27.54l-.27 1.55a.5.5 0 0 0 .58.58l1.55-.27a1 1 0 0 0 .54-.27l5.56-5.57Z"/></svg>