<svg xmlns="http://www.w3.org/2000/svg" viewBox="0 0 20 20" fill="currentColor"><path d="M10.32 6.73 12.05 5H11a1 1 0 0 0-.68 1.73Z"/><path d="M4 3h9.63a1 1 0 0 0 .71-.3l.83-.85a.5.5 0 0 0-.36-.85H4a4 4 0 0 0-4 4v6a4 4 0 0 0 4 4v2.3a2.7 2.7 0 0 0 4.62 1.9l4.2-4.2H16a4 4 0 0 0 4-4V9.36a1 1 0 0 0-2 0V11a2 2 0 0 1-2 2h-3.8a.5.5 0 0 0-.35.15l-4.64 4.64A.7.7 0 0 1 6 17.3v-3.8a.5.5 0 0 0-.5-.5H4a2 2 0 0 1-2-2V5c0-1.1.9-2 2-2Z"/><path d="m8.97 11 .34-1.95A1 1 0 0 0 9 9H5a1 1 0 1 0 0 2h3.97ZM7 7a1 1 0 0 0 0-2H5a1 1 0 0 0 0 2h2Zm12.35-2.23a1 1 0 0 0 0-1.42l-.7-.7a1 1 0 0 0-1.42 0L11.66 8.2a1 1 0 0 0-.27.54l-.27 1.55a.5.5 0 0 0 .58.58l1.55-.27a1 1 0 0 0 .54-.27l5.56-5.57Z"/></svg>