<svg xmlns="http://www.w3.org/2000/svg" viewBox="0 0 24 25" fill="currentColor"><path d="M9 9.75a1 1 0 0 0 0-2H7a1 1 0 0 0 0 2h2Zm7-1a1 1 0 0 1-1 1h-3a1 1 0 1 1 0-2h3a1 1 0 0 1 1 1Zm-5 4a1 1 0 1 0 0-2H7a1 1 0 1 0 0 2h4Z"/><path fill-rule="evenodd" d="M18 3.75H6a4 4 0 0 0-4 4v5a4 4 0 0 0 4 4v2.3a2.7 2.7 0 0 0 4.62 1.9l4.2-4.2H18a4 4 0 0 0 4-4v-5a4 4 0 0 0-4-4Zm-10 12a1 1 0 0 0-1-1H6a2 2 0 0 1-2-2v-5c0-1.1.9-2 2-2h12a2 2 0 0 1 2 2v5a2 2 0 0 1-2 2h-3.59a1 1 0 0 0-.7.3l-4.5 4.5a.7.7 0 0 1-1.21-.5v-3.3Z"/></svg>