<svg xmlns="http://www.w3.org/2000/svg" viewBox="0 0 24 24" fill="currentColor"><path d="M8 15.5v3.8a.7.7 0 0 0 1.2.5l4.65-4.65a.5.5 0 0 1 .36-.15H18a2 2 0 0 0 2-2V9.54l2-2V13a4 4 0 0 1-4 4h-3.17l-4.2 4.2A2.7 2.7 0 0 1 6 19.3V17a4 4 0 0 1-4-4V7a4 4 0 0 1 4-4h12c.6 0 1.17.13 1.68.37a2 2 0 0 0-1.15.57L17.46 5H6a2 2 0 0 0-2 2v6c0 1.1.9 2 2 2h1.5c.28 0 .5.22.5.5Z"/><path d="m13.46 9 2-2H13a1 1 0 1 0 0 2h.46ZM9 9a1 1 0 0 0 0-2H7a1 1 0 0 0 0 2h2Zm2 4a1 1 0 1 0 0-2H7a1 1 0 1 0 0 2h4Zm10.35-6.23a1 1 0 0 0 0-1.42l-.7-.7a1 1 0 0 0-1.42 0l-5.57 5.56a1 1 0 0 0-.27.54l-.27 1.55a.5.5 0 0 0 .58.58l1.55-.27a1 1 0 0 0 .54-.27l5.56-5.57Z"/></svg>