<svg xmlns="http://www.w3.org/2000/svg" viewBox="0 0 20 16" fill="currentColor"><path d="M7.02 7.79A4.65 4.65 0 0 0 10 9c1.06 0 2.05-.44 2.98-1.21A.7.7 0 0 0 13 6.75c-.3-.3-.76-.29-1.09-.03A3.1 3.1 0 0 1 10 7.5a3.1 3.1 0 0 1-1.91-.78c-.33-.26-.8-.26-1.09.03-.3.3-.3.77.02 1.04ZM7.25 4a1 1 0 1 1 2 0 1 1 0 0 1-2 0Zm4.5-1a1 1 0 1 0 0 2 1 1 0 0 0 0-2Z"/><path fill-rule="evenodd" d="M17 12h-6.88l-3.2 3.2a2 2 0 0 1-3.42-1.4V12H3a2 2 0 0 1-2-2V2c0-1.1.9-2 2-2h14a2 2 0 0 1 2 2v8a2 2 0 0 1-2 2Zm.5-10a.5.5 0 0 0-.5-.5H3a.5.5 0 0 0-.5.5v8c0 .28.22.5.5.5h2v3.3c0 .44.54.66.85.35L9.5 10.5H17a.5.5 0 0 0 .5-.5V2Z"/></svg>