<svg xmlns="http://www.w3.org/2000/svg" viewBox="0 0 16 16" fill="currentColor"><path d="M3.75 3a.75.75 0 0 0 0 1.5h8a.75.75 0 0 0 0-1.5h-8Zm0 3a.75.75 0 0 0 0 1.5h5a.75.75 0 0 0 0-1.5h-5Z"/><path d="M2.75 0A2.75 2.75 0 0 0 0 2.75v6.5A2.75 2.75 0 0 0 2.75 12H3v2.36a1.65 1.65 0 0 0 2.77 1.2l3.7-3.5a.28.28 0 0 1 .18-.06h3.6A2.75 2.75 0 0 0 16 9.25v-6.5A2.75 2.75 0 0 0 13.25 0H2.75ZM1.5 2.75c0-.69.56-1.25 1.25-1.25h10.5c.69 0 1.25.56 1.25 1.25v6.5c0 .69-.56 1.25-1.25 1.25h-3.6c-.45 0-.88.17-1.2.48l-3.7 3.48a.15.15 0 0 1-.25-.1v-2.61c0-.69-.56-1.25-1.25-1.25h-.5c-.69 0-1.25-.56-1.25-1.25v-6.5Z"/></svg>