<svg xmlns="http://www.w3.org/2000/svg" viewBox="0 0 24 25" fill="currentColor"><path d="M20 12.75V9.29l1.98-1.98.02.44v5a4 4 0 0 1-4 4h-3.17l-4.2 4.2A2.7 2.7 0 0 1 6 19.06v-2.3a4 4 0 0 1-4-4v-5a4 4 0 0 1 4-4h12c.15 0 .3 0 .44.02l-1.98 1.98H6a2 2 0 0 0-2 2v5c0 1.1.9 2 2 2h1a1 1 0 0 1 1 1v3.3a.7.7 0 0 0 1.2.5l4.5-4.5a1 1 0 0 1 .71-.3H18a2 2 0 0 0 2-2Z"/><path d="M12 7.75h2.46l-1.5 1.5a2 2 0 0 0-.36.5H12a1 1 0 1 1 0-2Zm-3 2a1 1 0 0 0 0-2H7a1 1 0 0 0 0 2h2Zm3 2a1 1 0 0 1-1 1H7a1 1 0 1 1 0-2h4a1 1 0 0 1 1 1Zm9.35-5.23a1 1 0 0 0 0-1.42l-.7-.7a1 1 0 0 0-1.42 0l-5.57 5.56a1 1 0 0 0-.27.54l-.27 1.55a.5.5 0 0 0 .58.58l1.55-.27a1 1 0 0 0 .54-.27l5.56-5.57Z"/></svg>