<svg xmlns="http://www.w3.org/2000/svg" viewBox="0 0 20 16" fill="currentColor"><path d="m18.47 2.58-.97.97V10a.5.5 0 0 1-.5.5H9.5l-3.65 3.65a.5.5 0 0 1-.85-.36V10.5H3a.5.5 0 0 1-.5-.5V2c0-.28.22-.5.5-.5h9.48l1.5-1.5H3a2 2 0 0 0-2 2v8c0 1.1.9 2 2 2h.5v1.8a2 2 0 0 0 3.41 1.4l3.21-3.2H17a2 2 0 0 0 2-2V2a2 2 0 0 0-.04-.38c-.05.35-.22.69-.49.96Z"/><path d="M8.37 6.84 8.6 6H4.25a.25.25 0 0 0-.25.25v1c0 .14.11.25.25.25h4.07c-.03-.21-.01-.43.05-.66ZM4.25 4.5h5.23l1.5-1.5H4.25a.25.25 0 0 0-.25.25v1c0 .14.11.25.25.25Zm7.41 2.78 5.75-5.76c.1-.1.1-.26 0-.35L16.35.1a.25.25 0 0 0-.35 0l-5.77 5.76a.25.25 0 0 0-.07.11l-.34 1.26c-.05.18.1.34.27.32l1.42-.21c.06-.01.1-.04.15-.07Z"/></svg>