<svg xmlns="http://www.w3.org/2000/svg" viewBox="0 0 16 16" fill="currentColor"><path d="M15.7 1.7A1 1 0 0 0 14.3.3L9.01 5.56a1 1 0 0 0-.28.54L8.5 7.5l1.4-.24a1 1 0 0 0 .53-.28l5.28-5.27Z"/><path d="M14.5 9.25V4.33l1.5-1.5v6.42A2.75 2.75 0 0 1 13.25 12h-3.6a.25.25 0 0 0-.17.07l-3.7 3.48A1.65 1.65 0 0 1 3 14.35V12h-.25A2.75 2.75 0 0 1 0 9.25v-6.5A2.75 2.75 0 0 1 2.75 0h10.42l-1.5 1.5H2.75c-.69 0-1.25.56-1.25 1.25v6.5c0 .69.56 1.25 1.25 1.25h.5c.69 0 1.25.56 1.25 1.25v2.6a.15.15 0 0 0 .24.11l3.7-3.48c.33-.31.76-.48 1.2-.48h3.61c.69 0 1.25-.56 1.25-1.25Z"/><path d="M3.75 3h6.42l-1.5 1.5H3.75a.75.75 0 0 1 0-1.5Zm0 3h4l-.26 1.5H3.75a.75.75 0 0 1 0-1.5Z"/></svg>