<svg xmlns="http://www.w3.org/2000/svg" viewBox="0 0 24 24" fill="currentColor"><path fill-rule="evenodd" d="M8 10c0-1.1.9-2 2-2h4a2 2 0 0 1 2 2v4a2 2 0 0 1-2 2h-4a2 2 0 0 1-2-2v-4Zm2 0v4h4v-4h-4Z"/><path fill-rule="evenodd" d="M15 2a1 1 0 0 1 1 1v1a4 4 0 0 1 4 4h1a1 1 0 1 1 0 2h-1v4h1a1 1 0 1 1 0 2h-1a4 4 0 0 1-4 4v1a1 1 0 1 1-2 0v-1h-4v1a1 1 0 1 1-2 0v-1a4 4 0 0 1-4-4H3a1 1 0 1 1 0-2h1v-4H3a1 1 0 0 1 0-2h1a4 4 0 0 1 4-4V3a1 1 0 0 1 2 0v1h4V3a1 1 0 0 1 1-1Zm3 6a2 2 0 0 0-2-2H8a2 2 0 0 0-2 2v8c0 1.1.9 2 2 2h8a2 2 0 0 0 2-2V8Z"/></svg>