<svg xmlns="http://www.w3.org/2000/svg" viewBox="0 0 24 24" fill="currentColor"><path d="M21.1 7.1C19.45 3.86 15.88 2 12 2a10 10 0 0 0-9.78 7.89C3.26 8 5.69 6.69 8.24 6.69c3.2 0 4.89 1.98 4.93 2.03a4.7 4.7 0 0 1 1.33 3.35c0 .42-.21 1.04-.6 1.56-.07.08-.26.2-.26.44 0 .2.13.4.36.57 1.13.78 3.25.67 3.25.67A4.8 4.8 0 0 0 22 10.53c.02-1.75-.62-2.91-.89-3.43ZM10.25 20.86a6.24 6.24 0 0 1-1.88-1.82 5.9 5.9 0 0 1-.8-5.48 6.27 6.27 0 0 1 2.29-3.18c2.38-1.83 3.82-.23 4-.04a5.33 5.33 0 0 0-2.48-2.57 7.27 7.27 0 0 0-3.14-.75 7.2 7.2 0 0 0-4.33 1.44 4.6 4.6 0 0 0-1.89 3.02 10 10 0 0 0 10.94 10.47 6.96 6.96 0 0 1-2.7-1.1Zm10.11-3.97a.31.31 0 0 0-.32 0 7.96 7.96 0 0 1-3.63.87c-3.7 0-6.91-2.55-6.91-5.81 0-.38.1-.74.26-1.08A6.8 6.8 0 0 0 8.2 12.9a5.64 5.64 0 0 0 .54 6.1c.26.36.92 1.21 2.25 1.92.96.51 1.98.8 2.9.8 1.41 0 4.65-1.35 6.57-4.4a.31.31 0 0 0-.1-.43Z"/></svg>