<svg xmlns="http://www.w3.org/2000/svg" viewBox="0 0 20 20" fill="currentColor"><path fill-rule="evenodd" d="M16.72 4.26a5.44 5.44 0 0 1 1.95 2.45 10 10 0 0 1 .63 4.87l-.01.1-.04.28A9.7 9.7 0 0 1 0 10.32v-.05a9.24 9.24 0 0 1 .16-1.35v-.01l.1-.6v-.07A8.19 8.19 0 0 1 3.43 3.4c.1-.06.21-.12.33-.17-.02.34-.05 1.94.33 2.43a7.18 7.18 0 0 1 2.34-1.8c-.2.78-.2 1.6.03 2.37l.25.18.56.54.1.1c.45.44 1.35.89 1.9 1.16.27.13.45.22.45.24-.01.25-.87 1.08-1.16 1.08-2.76 0-3.2 1.67-3.2 1.67a4.1 4.1 0 0 0 2.72 3.36c.41.15.83.23 1.27.25 4.83.22 5.77-5.78 2.28-7.53.82-.1 1.65.1 2.34.57a4.9 4.9 0 0 0-4.6-2.46A7.1 7.1 0 0 1 12.72 0h.02a.03.03 0 0 1 .02.03A3.02 3.02 0 0 0 13 .6l.23.37c.62.97 1.28 1.72 1.93 2.46.97 1.1 1.9 2.15 2.55 3.78V7.2a9.91 9.91 0 0 0-.99-2.94ZM7.55 14.33a3.12 3.12 0 0 0 .08.04 1.69 1.69 0 0 1-.08-.04ZM17.7 7.21v.01Z"/></svg>