<svg xmlns="http://www.w3.org/2000/svg" viewBox="0 0 20 16" fill="currentColor"><path d="M4.34 7.19c.34-.37.57-.84.64-1.36l2.24 1.04c-.3.4-.52.86-.64 1.36L4.34 7.2Zm11.68-1.67a2.5 2.5 0 0 1-.89-1.21l-2.82 2.06c.38.34.68.75.9 1.21l2.81-2.06Zm-3.73 6.13c.38-.33.68-.74.9-1.2l2.22 1.67c-.48.2-.83.66-.9 1.2l-2.22-1.67Z"/><path fill-rule="evenodd" d="M10 11a2 2 0 1 1 0-4 2 2 0 0 1 0 4Zm0 1.5a3.5 3.5 0 1 0 0-7 3.5 3.5 0 0 0 0 7Zm7.5-8a1 1 0 1 1 0-2 1 1 0 0 1 0 2Zm0 1.5a2.5 2.5 0 1 0 0-5 2.5 2.5 0 0 0 0 5Zm-15 .5a1 1 0 1 1 0-2 1 1 0 0 1 0 2Zm0 1.5a2.5 2.5 0 1 0 0-5 2.5 2.5 0 0 0 0 5Z"/><path d="M17.5 13.5a1.5 1.5 0 1 1-3 0 1.5 1.5 0 0 1 3 0Zm-7-11a1.5 1.5 0 1 1-3 0 1.5 1.5 0 0 1 3 0Z"/></svg>