<svg xmlns="http://www.w3.org/2000/svg" viewBox="0 0 20 16" fill="currentColor"><path d="M6 3.5a1.5 1.5 0 1 0 0-3 1.5 1.5 0 0 0 0 3Zm4 0a1.5 1.5 0 1 0 0-3 1.5 1.5 0 0 0 0 3Zm0 4a1.5 1.5 0 1 0 0-3 1.5 1.5 0 0 0 0 3Zm1.5 2.5a1.5 1.5 0 1 1-3 0 1.5 1.5 0 0 1 3 0Zm-4-4a1.5 1.5 0 1 1-3 0 1.5 1.5 0 0 1 3 0ZM6 11.5a1.5 1.5 0 1 0 0-3 1.5 1.5 0 0 0 0 3ZM15.5 2a1.5 1.5 0 1 1-3 0 1.5 1.5 0 0 1 3 0ZM14 7.5a1.5 1.5 0 1 0 0-3 1.5 1.5 0 0 0 0 3Zm1.5 2.5a1.5 1.5 0 1 1-3 0 1.5 1.5 0 0 1 3 0ZM10 15.5a1.5 1.5 0 1 0 0-3 1.5 1.5 0 0 0 0 3Z"/></svg>