<svg xmlns="http://www.w3.org/2000/svg" viewBox="0 0 20 16" fill="currentColor"><path d="M8 4a1 1 0 0 1 1-1h5a1 1 0 0 1 1 1v1.5a1 1 0 0 1-1 1H9a1 1 0 0 1-1-1V4Zm.75 4a.75.75 0 0 0 0 1.5h1.5a.75.75 0 0 0 0-1.5h-1.5Zm4 0a.75.75 0 0 0 0 1.5h1.5a.75.75 0 0 0 0-1.5h-1.5Zm-4 3a.75.75 0 0 0 0 1.5h1.5a.75.75 0 0 0 0-1.5h-1.5Zm4 0a.75.75 0 0 0 0 1.5h1.5a.75.75 0 0 0 0-1.5h-1.5Z"/><path fill-rule="evenodd" d="M5 14.5V2c0-1.1.9-2 2-2h9a2 2 0 0 1 2 2v12a2 2 0 0 1-2 2H4.75A2.75 2.75 0 0 1 2 13.25v-7.5a.75.75 0 0 1 1.5 0v7.5c0 .69.56 1.25 1.25 1.25H5Zm2-13a.5.5 0 0 0-.5.5v12.5H16a.5.5 0 0 0 .5-.5V2a.5.5 0 0 0-.5-.5H7Z"/></svg>