<svg xmlns="http://www.w3.org/2000/svg" viewBox="0 0 20 16" fill="currentColor"><path fill-rule="evenodd" d="M13 12a2 2 0 0 0-.18-.84L16.69 6c.64-.05 1.11-.7.91-1.33C16.96 2.61 15.66 0 10 0S3.04 2.61 2.4 4.67c-.2.63.27 1.28.91 1.33l3.87 5.16A2 2 0 0 0 7 12v2c0 1.1.9 2 2 2h2a2 2 0 0 0 2-2v-2Zm2.96-7.5h-2.79a7.57 7.57 0 0 0-.77-2.79 5.3 5.3 0 0 1 2.33 1.01c.6.5.96 1.1 1.23 1.78ZM10.75 6h4.06l-3.1 4.13A2 2 0 0 0 11 10h-.25V6Zm-1.5 4H9a2 2 0 0 0-.71.13L5.19 6h4.06v4ZM10 1.5c.18 0 .59.12.99.77.28.46.54 1.17.67 2.23H8.34a5.6 5.6 0 0 1 .67-2.23c.4-.65.81-.77.99-.77Zm-3.17 3H4.04c.27-.68.63-1.29 1.23-1.78.48-.4 1.2-.78 2.33-1-.37.69-.65 1.6-.77 2.78Zm2.17 7h2c.28 0 .5.22.5.5v2a.5.5 0 0 1-.5.5H9a.5.5 0 0 1-.5-.5v-2c0-.28.22-.5.5-.5Z"/></svg>