<svg xmlns="http://www.w3.org/2000/svg" viewBox="0 0 16 16" fill="currentColor"><path d="M11.5 4.5a3.5 3.5 0 1 1-7 0 3.5 3.5 0 0 1 7 0Zm-1.5 0a2 2 0 1 0-4 0 2 2 0 0 0 4 0Zm-5.95 9.16c-1.6-1.22-1.74-4 .22-4.46l.33-.05a29.37 29.37 0 0 1 7.13.05c1.96.46 1.82 3.24.22 4.46-.87.67-2.01.84-3.12.84H7.17c-1.1 0-2.24-.17-3.12-.84Zm.56-3c-.14.04-.17.08-.2.11a.7.7 0 0 0-.09.4c0 .45.24 1 .64 1.3.48.37 1.2.53 2.2.53h1.67c1 0 1.73-.16 2.2-.53.41-.3.65-.85.65-1.3a.7.7 0 0 0-.1-.4c-.02-.03-.05-.07-.19-.1a27.86 27.86 0 0 0-6.78 0Z"/><path d="M3.97 6.5H2.75A2.75 2.75 0 0 0 0 9.25v3a.75.75 0 0 0 1.5 0v-3C1.5 8.56 2.06 8 2.75 8h2.42a4.5 4.5 0 0 1-1.2-1.5ZM3.5 3.75a1.75 1.75 0 1 1-3.5 0 1.75 1.75 0 0 1 3.5 0ZM13.25 8h-2.42c.5-.4.91-.92 1.2-1.5h1.22A2.75 2.75 0 0 1 16 9.25v3a.75.75 0 0 1-1.5 0v-3c0-.69-.56-1.25-1.25-1.25Zm1-2.5a1.75 1.75 0 1 0 0-3.5 1.75 1.75 0 0 0 0 3.5Z"/></svg>