<svg xmlns="http://www.w3.org/2000/svg" viewBox="0 0 16 16" fill="currentColor"><path d="M12 4a4 4 0 1 1-8 0 4 4 0 0 1 8 0Zm-1.5 0a2.5 2.5 0 1 0-5 0 2.5 2.5 0 0 0 5 0Zm-7.77 7.01c2.11-.4 4.26-.55 6.4-.46a3.5 3.5 0 0 1 .83-1.46 30.1 30.1 0 0 0-7.5.45c-1.48.28-1.7 2.17-.79 3.36A7.99 7.99 0 0 0 8 16h.27A2 2 0 0 1 8 15v-.5a6.49 6.49 0 0 1-5.14-2.52c-.2-.26-.26-.6-.22-.82a.32.32 0 0 1 .05-.13l.04-.02Z"/><path d="M15 11.5v.5a1 1 0 0 1 1 1v2a1 1 0 0 1-1 1h-5a1 1 0 0 1-1-1v-2a1 1 0 0 1 1-1v-.5a2.5 2.5 0 0 1 5 0Zm-2.5-1a1 1 0 0 0-1 1v.5h2v-.5a1 1 0 0 0-1-1Zm0 4.5a1 1 0 1 0 0-2 1 1 0 0 0 0 2Z"/></svg>