<svg xmlns="http://www.w3.org/2000/svg" viewBox="0 0 16 16" fill="currentColor"><path d="M12 4a4 4 0 1 1-8 0 4 4 0 0 1 8 0Zm-1.5 0a2.5 2.5 0 1 0-5 0 2.5 2.5 0 0 0 5 0Zm-7.77 7.01c1.9-.35 3.8-.51 5.72-.48.28-.57.67-1.06 1.14-1.46a30.1 30.1 0 0 0-7.14.47c-1.47.28-1.7 2.17-.78 3.36a8.05 8.05 0 0 0 7.83 2.96 4.52 4.52 0 0 1-1.04-1.38L8 14.5a6.49 6.49 0 0 1-5.14-2.52c-.2-.26-.26-.6-.22-.82a.32.32 0 0 1 .05-.13l.04-.02Z"/><path d="M13.13 9.06a3.52 3.52 0 0 0-1.27 0 .46.46 0 0 0-.36.46v.4c0 .18-.1.33-.26.41a.48.48 0 0 1-.48.02l-.35-.2a.46.46 0 0 0-.58.08c-.12.14-.24.3-.34.47l-.06.1c-.1.17-.17.35-.23.53-.08.21.02.43.21.54l.35.2c.15.1.23.26.23.43 0 .17-.08.34-.23.42l-.35.2c-.19.12-.29.34-.21.55.06.18.14.36.23.52l.06.11c.1.17.22.33.34.47.15.17.4.2.58.09l.35-.2a.48.48 0 0 1 .48 0c.15.1.26.24.26.42v.4c0 .22.14.42.36.46a3.53 3.53 0 0 0 1.27 0 .46.46 0 0 0 .37-.46v-.41c0-.17.1-.32.24-.4.15-.1.33-.1.48-.02l.36.2c.19.12.43.1.58-.08.12-.14.24-.3.34-.47l.06-.1c.1-.17.17-.35.24-.53a.46.46 0 0 0-.22-.54l-.36-.21a.47.47 0 0 1-.23-.42c0-.17.08-.33.23-.42l.36-.2c.19-.12.29-.34.22-.55a3.5 3.5 0 0 0-.24-.52l-.06-.11c-.1-.17-.22-.33-.34-.47a.46.46 0 0 0-.58-.09l-.36.21a.47.47 0 0 1-.48-.01.48.48 0 0 1-.24-.4v-.42a.46.46 0 0 0-.37-.46Zm.36 3.44a1 1 0 1 1-2 0 1 1 0 0 1 2 0Z"/></svg>