<svg xmlns="http://www.w3.org/2000/svg" viewBox="0 0 20 16" fill="currentColor"><path d="M18.25 7a6.9 6.9 0 0 1-.41 2.37 17.1 17.1 0 0 1-1.5-.26 5.48 5.48 0 0 0-5.09-7.61c-.76 0-1.5.16-2.16.44A17.1 17.1 0 0 1 9 .37 7 7 0 0 1 18.25 7Z"/><path d="M15.25 7c0 .61-.14 1.2-.39 1.72-.48-.16-.95-.34-1.4-.55a2.5 2.5 0 0 0-3.58-3.26 7.6 7.6 0 0 1-.52-1.44A4 4 0 0 1 15.25 7Z"/><path d="M12.25 7a1 1 0 0 1-.1.44 7.47 7.47 0 0 1-1.46-1.27 1 1 0 0 1 1.56.83Z"/><path fill-rule="evenodd" d="M10.24 9.75A5 5 0 0 1 8 7.5l-.09-.19a.5.5 0 0 1 .1-.57l.75-.76a1 1 0 0 0 .2-1.12L7.47 1.59A2 2 0 0 0 5.07.5l-1.95.59A1.8 1.8 0 0 0 1.8 2.93c.42 4.75 3.6 12.29 12.97 13.01.88.07 1.66-.52 1.92-1.37l.57-1.9a2 2 0 0 0-1.09-2.4L12.88 8.8a1 1 0 0 0-1.12.2l-.76.76a.5.5 0 0 1-.57.09l-.19-.1Zm-.67 1.34.19.1a2 2 0 0 0 2.3-.38l.52-.51 2.96 1.34c.23.1.34.36.27.6l-.57 1.9c-.07.24-.25.32-.37.3-4.24-.32-7-2.17-8.77-4.42A14 14 0 0 1 3.3 2.8c0-.04 0-.08.04-.13a.44.44 0 0 1 .22-.15l1.96-.58a.5.5 0 0 1 .6.27l1.34 2.96-.5.51A2 2 0 0 0 6.56 8l.1.19a6.5 6.5 0 0 0 2.9 2.9Z"/></svg>