<svg xmlns="http://www.w3.org/2000/svg" viewBox="0 0 20 16" fill="currentColor"><path d="M2.5 2.14v.8c0 2.76 1.4 5.65 3.62 7.88 1.2 1.2 2.59 2.15 4.05 2.78l.02.03c-.36.34-.6.8-.67 1.32C4.82 12.9 1 7.92 1 2.94v-1.2a1 1 0 0 1 .78-.98L4.9.05a2 2 0 0 1 2.26 1.12l1.48 3.24a1 1 0 0 1-.36 1.25l-1.38.92a.2.2 0 0 0-.07.28 8.37 8.37 0 0 0 3.02 3.1c.1.15.2.3.33.41-.31.3-.54.7-.64 1.13a9.88 9.88 0 0 1-4.02-3.92 1.7 1.7 0 0 1 .55-2.25l1.03-.68-1.3-2.86a.5.5 0 0 0-.57-.28l-2.74.63ZM11.75 8a.75.75 0 0 0 0 1.5h6.5a.75.75 0 0 0 0-1.5h-6.5ZM11 12c0-.41.34-.75.75-.75h6.5a.75.75 0 0 1 0 1.5h-6.5A.75.75 0 0 1 11 12Zm.75 2.5a.75.75 0 0 0 0 1.5h6.5a.75.75 0 0 0 0-1.5h-6.5Z"/></svg>