<svg xmlns="http://www.w3.org/2000/svg" viewBox="0 0 20 16" fill="currentColor"><path d="M2.5 2.2V3c0 2.76 1.4 5.65 3.62 7.88a13.32 13.32 0 0 0 3.59 2.57c.01.1.04.19.07.28.1.32.24.63.4.93l.01.01.09.15v.01c.14.23.3.44.46.64C5.49 13.8 1 8.4 1 3V1.8a1 1 0 0 1 .78-.98L4.9.12a2 2 0 0 1 2.26 1.11l1.48 3.25a1 1 0 0 1-.36 1.24l-1.38.92a.2.2 0 0 0-.07.28 8.37 8.37 0 0 0 3.02 3.11 5.5 5.5 0 0 0-.08.24c-.17.5-.1 1 .13 1.4a1.7 1.7 0 0 1-.55-.2 9.88 9.88 0 0 1-3.83-3.82 1.7 1.7 0 0 1 .55-2.25l1.03-.7-1.3-2.85a.5.5 0 0 0-.57-.28L2.5 2.2Z"/><path fill-rule="evenodd" d="M18.69 11.03c.1-.06.14-.18.1-.29a3.98 3.98 0 0 0-.29-.67l-.07-.13a4.01 4.01 0 0 0-.44-.6.24.24 0 0 0-.3-.05l-.59.34a.28.28 0 0 1-.29-.02 3 3 0 0 0-.65-.38A.26.26 0 0 1 16 9v-.67a.24.24 0 0 0-.19-.24 4.02 4.02 0 0 0-1.62 0 .24.24 0 0 0-.19.24V9c0 .11-.07.2-.16.24a3 3 0 0 0-.65.38.26.26 0 0 1-.3.02l-.58-.34a.24.24 0 0 0-.3.05 4.4 4.4 0 0 0-.44.6l-.07.13c-.12.21-.22.44-.3.67-.03.11.01.23.11.29l.59.33c.09.06.14.16.12.27a3.02 3.02 0 0 0 0 .74c.02.1-.03.21-.12.27l-.59.33a.24.24 0 0 0-.1.29c.07.23.17.46.29.67l.07.13c.13.21.28.42.44.6.08.09.2.1.3.05l.59-.34c.09-.05.2-.04.29.02a3 3 0 0 0 .65.38c.1.04.16.13.16.24v.67c0 .11.08.21.19.24a4.01 4.01 0 0 0 1.62 0 .24.24 0 0 0 .19-.24v-.67c0-.11.07-.2.16-.24a3 3 0 0 0 .65-.38.3.3 0 0 1 .3-.02l.58.34c.1.05.22.04.3-.05.16-.18.31-.39.44-.6l.07-.13c.12-.21.22-.44.3-.67a.24.24 0 0 0-.11-.29l-.59-.33a.26.26 0 0 1-.12-.27 3.04 3.04 0 0 0 0-.74.26.26 0 0 1 .12-.27l.59-.33ZM15 10.5a1.5 1.5 0 1 1 0 3 1.5 1.5 0 0 1 0-3Z"/></svg>