<svg xmlns="http://www.w3.org/2000/svg" viewBox="0 0 20 16" fill="currentColor"><path fill-rule="evenodd" d="M11.36 10.1a.21.21 0 0 1-.27.06 8.38 8.38 0 0 1-3.25-3.24.2.2 0 0 1 .07-.28l1.38-.92a1 1 0 0 0 .36-1.24L8.17 1.23A2 2 0 0 0 5.91.11L2.78.82A1 1 0 0 0 2 1.8V3c0 6.5 6.5 13 13 13h1.2a1 1 0 0 0 .98-.78l.72-3.16a2 2 0 0 0-1.1-2.25l-3.07-1.46a1 1 0 0 0-1.22.28l-1.15 1.48ZM3.5 3v-.8l2.74-.63a.5.5 0 0 1 .57.28l1.3 2.86-1.03.69a1.7 1.7 0 0 0-.55 2.25 9.88 9.88 0 0 0 3.83 3.82c.73.4 1.66.23 2.18-.44l.9-1.16 2.72 1.3c.21.1.32.33.27.56l-.63 2.77H15c-2.76 0-5.65-1.4-7.88-3.62C4.9 8.65 3.5 5.76 3.5 3Z"/><path d="M16.19.75 12.5 4.44V3A.75.75 0 0 0 11 3v3a1 1 0 0 0 1 1h3a.75.75 0 0 0 0-1.5h-1.44l3.69-3.69A.75.75 0 1 0 16.19.75Z"/></svg>