<svg xmlns="http://www.w3.org/2000/svg" viewBox="0 0 20 16" fill="currentColor"><path d="M9.5 11c0-.28.22-.5.5-.5h1c.28 0 .5.22.5.5v1a.5.5 0 0 1-.5.5h-1a.5.5 0 0 1-.5-.5v-1Zm.5-4a.5.5 0 0 0-.5.5v1c0 .28.22.5.5.5h1a.5.5 0 0 0 .5-.5v-1A.5.5 0 0 0 11 7h-1Zm3.5 4c0-.28.22-.5.5-.5h1c.28 0 .5.22.5.5v1a.5.5 0 0 1-.5.5h-1a.5.5 0 0 1-.5-.5v-1Zm.5-4a.5.5 0 0 0-.5.5v1c0 .28.22.5.5.5h1a.5.5 0 0 0 .5-.5v-1A.5.5 0 0 0 15 7h-1Z"/><path fill-rule="evenodd" d="M17 1H3a2 2 0 0 0-2 2v10c0 1.1.9 2 2 2h14a2 2 0 0 0 2-2V3a2 2 0 0 0-2-2ZM9 2.5v1.25c0 .97.78 1.75 1.75 1.75h3.75c.97 0 1.75-.78 1.75-1.75V2.5H17c.28 0 .5.22.5.5v10a.5.5 0 0 1-.5.5H7.44a2 2 0 0 0 .06-.5V3a2 2 0 0 0-.06-.5H9Zm1.5 0h4.25v1.25c0 .14-.11.25-.25.25h-3.75a.25.25 0 0 1-.25-.25V2.5ZM3 2.5h2.5c.28 0 .5.22.5.5v10a.5.5 0 0 1-.5.5H3a.5.5 0 0 1-.5-.5V3c0-.28.22-.5.5-.5Z"/></svg>