<svg xmlns="http://www.w3.org/2000/svg" viewBox="0 0 20 16" fill="currentColor"><path fill-rule="evenodd" d="M9.82 11.09a6.5 6.5 0 0 1-2.9-2.91l1.33-.67a5 5 0 0 0 2.24 2.24l.19.09c.19.1.42.06.57-.1l.76-.75a1 1 0 0 1 1.12-.2l3.28 1.49a2 2 0 0 1 1.09 2.4l-.57 1.9A1.88 1.88 0 0 1 15 15.93c-9.36-.72-12.55-8.26-12.97-13a1.8 1.8 0 0 1 1.33-1.85L5.33.5a2 2 0 0 1 2.4 1.09L9.2 4.87A1 1 0 0 1 9 5.99l-.76.76a.5.5 0 0 0-.09.57l.1.19-1.35.67-.09-.19a2 2 0 0 1 .37-2.3l.51-.52-1.34-2.96a.5.5 0 0 0-.6-.27l-1.96.58c-.1.04-.18.1-.22.15a.17.17 0 0 0-.04.13 14 14 0 0 0 2.81 7.22c1.77 2.25 4.53 4.1 8.77 4.43.12 0 .3-.07.37-.3l.57-1.9a.5.5 0 0 0-.27-.6l-2.96-1.35-.51.5a2 2 0 0 1-2.31.38l-.19-.1Z"/></svg>