<svg xmlns="http://www.w3.org/2000/svg" viewBox="0 0 20 16" fill="currentColor"><path fill-rule="evenodd" d="M11.36 10.05a.21.21 0 0 1-.27.05 8.38 8.38 0 0 1-3.25-3.24.2.2 0 0 1 .07-.28l1.38-.92a1 1 0 0 0 .36-1.25L8.17 1.17A2 2 0 0 0 5.91.05L2.78.76a1 1 0 0 0-.78.98v1.2c0 6.5 6.5 13 13 13h1.2a1 1 0 0 0 .98-.78L17.9 12a2 2 0 0 0-1.1-2.25l-3.07-1.47a1 1 0 0 0-1.22.3l-1.15 1.47ZM3.5 2.94v-.8l2.74-.63a.5.5 0 0 1 .57.28l1.3 2.86-1.03.68a1.7 1.7 0 0 0-.55 2.26 9.88 9.88 0 0 0 3.83 3.82c.73.4 1.66.23 2.18-.44l.9-1.16 2.72 1.3c.21.1.32.33.27.56l-.63 2.77H15c-2.76 0-5.65-1.4-7.88-3.62C4.9 8.59 3.5 5.7 3.5 2.94Z"/><path d="M16.4 6.71c.14.4.57.64.97.51a.7.7 0 0 0 .48-.9A9.96 9.96 0 0 0 11.7.22a.7.7 0 0 0-.9.5.8.8 0 0 0 .52.96 8.47 8.47 0 0 1 5.08 5.03Z"/><path d="M11 2.63a.7.7 0 0 0-.9.48c-.12.4.13.83.52.98A5.98 5.98 0 0 1 14 7.43c.16.4.59.64 1 .52a.7.7 0 0 0 .46-.9A7.47 7.47 0 0 0 11 2.63Z"/></svg>