<svg xmlns="http://www.w3.org/2000/svg" viewBox="0 0 21 21" fill="currentColor"><path fill-rule="evenodd" d="m4.36 3.06-1.16.58c-.64.31-1 1-.93 1.7l.1.82a14.13 14.13 0 0 0 12.47 12.48l.82.09c.7.08 1.39-.3 1.7-.93l.58-1.16a1 1 0 0 0-.4-1.31l-2.92-1.67a1 1 0 0 0-1.05.03l-.98.65a3 3 0 0 1-3 .19l-.59-.3A5 5 0 0 1 6.76 12l1.8-.9a3 3 0 0 0 1.33 1.35l.6.3a1 1 0 0 0 1-.07l.97-.65a3 3 0 0 1 3.15-.11l2.93 1.67a3 3 0 0 1 1.2 3.95l-.59 1.16a3.7 3.7 0 0 1-3.71 2.02l-.82-.1A16.13 16.13 0 0 1 .38 6.38l-.1-.82A3.7 3.7 0 0 1 2.3 1.85l1.16-.58a3 3 0 0 1 3.95 1.2l1.67 2.92a3 3 0 0 1-.1 3.15l-.66.98a1 1 0 0 0-.06 1l.3.59-1.8.89-.29-.59a3 3 0 0 1 .19-3l.65-.98a1 1 0 0 0 .03-1.05L5.67 3.46a1 1 0 0 0-1.31-.4Z"/></svg>