<svg xmlns="http://www.w3.org/2000/svg" viewBox="0 0 20 20" fill="currentColor"><path fill-rule="evenodd" d="m4.26 11-1.5 3H2V6h.76l1.5 3h5.8l-1.5-6h1.3l3.5 6h3.7l.84 1-.84 1h-3.7l-3.5 6h-1.3l1.5-6h-5.8Zm.3-5.9A2 2 0 0 0 2.75 4H2a2 2 0 0 0-2 2v8c0 1.1.9 2 2 2h.76a2 2 0 0 0 1.8-1.1L5.5 13h2l-.88 3.51A2 2 0 0 0 8.56 19h1.3a2 2 0 0 0 1.72-1l2.92-5h2.56a2 2 0 0 0 1.54-.72l.83-1a2 2 0 0 0 0-2.56l-.83-1A2 2 0 0 0 17.06 7H14.5l-2.92-5a2 2 0 0 0-1.73-1H8.56a2 2 0 0 0-1.94 2.49L7.5 7h-2l-.95-1.9Z"/></svg>