<svg xmlns="http://www.w3.org/2000/svg" viewBox="0 0 24 24" fill="currentColor"><path fill-rule="evenodd" d="m6.26 13-1.5 3H4V8h.76l1.5 3h5.8l-1.5-6h1.3l3.5 6h3.7l.84 1-.84 1h-3.7l-3.5 6h-1.3l1.5-6h-5.8Zm.3-5.9A2 2 0 0 0 4.75 6H4a2 2 0 0 0-2 2v8c0 1.1.9 2 2 2h.76a2 2 0 0 0 1.8-1.1L7.5 15h2l-.88 3.51A2 2 0 0 0 10.56 21h1.3a2 2 0 0 0 1.72-1l2.92-5h2.56a2 2 0 0 0 1.54-.72l.83-1a2 2 0 0 0 0-2.56l-.83-1A2 2 0 0 0 19.06 9H16.5l-2.92-5a2 2 0 0 0-1.73-1h-1.29a2 2 0 0 0-1.94 2.49L9.5 9h-2l-.95-1.9Z"/></svg>