<svg xmlns="http://www.w3.org/2000/svg" viewBox="0 0 20 16" fill="currentColor"><path fill-rule="evenodd" d="M18.5 10.25v4a.75.75 0 0 0 1.5 0V2.05c0-.44-.23-.85-.62-1.05-.4-.22-.9-.17-1.28.16-.86.75-2.1 2.26-2.1 4.09V8.5c0 .97.78 1.75 1.75 1.75h.75Zm0-7.36v5.86h-.75a.25.25 0 0 1-.25-.25V5.25c0-.87.46-1.72 1-2.36Z"/><path d="M.75 1c.41 0 .75.34.75.75v3.5c0 .14.11.25.25.25H2V1.75a.75.75 0 1 1 1.5 0V5.5h.25c.14 0 .25-.11.25-.25v-3.5a.75.75 0 1 1 1.5 0v3.5C5.5 6.22 4.72 7 3.75 7H3.5v7.25a.75.75 0 0 1-1.5 0V7h-.25C.78 7 0 6.22 0 5.25v-3.5C0 1.34.34 1 .75 1Zm9.75 14A6.99 6.99 0 0 1 5 12.33V8.25a5.5 5.5 0 0 0 10.32 2.4c.33.38.75.68 1.23.87A7 7 0 0 1 10.5 15Zm0-12.5c-1.33 0-2.55.47-3.5 1.26V1.94a6.97 6.97 0 0 1 8 .7 6.1 6.1 0 0 0-.45 1.64A5.49 5.49 0 0 0 10.5 2.5Z"/><path fill-rule="evenodd" d="M10.5 4a4 4 0 1 1 0 8 4 4 0 0 1 0-8ZM13 8a2.5 2.5 0 1 1-5 0 2.5 2.5 0 0 1 5 0Z"/></svg>