<svg xmlns="http://www.w3.org/2000/svg" viewBox="0 0 21 16" fill="currentColor"><path fill-rule="evenodd" d="M16 6a2 2 0 0 1 2 2v3.5a1 1 0 0 1-1 1h-1.5V15a1 1 0 0 1-1 1h-9a1 1 0 0 1-1-1v-2.5H3a1 1 0 0 1-1-1V8c0-1.1.9-2 2-2V1.75C4 .78 4.78 0 5.75 0h6.84c.46 0 .9.18 1.23.51l1.67 1.67c.33.32.51.77.51 1.23V6ZM5.5 1.75V6h9V3.41a.25.25 0 0 0-.07-.17l-1.67-1.67a.25.25 0 0 0-.17-.07H5.75a.25.25 0 0 0-.25.25ZM4 7.5a.5.5 0 0 0-.5.5v3h1a1 1 0 0 1 1-1h9a1 1 0 0 1 1 1h1V8a.5.5 0 0 0-.5-.5H4Zm2 4v3h8v-3H6Z"/></svg>