<svg xmlns="http://www.w3.org/2000/svg" viewBox="0 0 24 24" fill="currentColor"><path fill-rule="evenodd" d="M7.49 15.57A2.02 2.02 0 0 1 10 17.53V19h8a1 1 0 0 0 1-1v-8h-1.5a2 2 0 0 1-1.94-2.49l.19-.75a1.29 1.29 0 1 0-2.5 0l.19.75A2 2 0 0 1 11.5 10H10v1.47a2.02 2.02 0 0 1-2.51 1.96l-.73-.18a1.29 1.29 0 1 0 0 2.5l.73-.18Zm4-7.57-.18-.75a3.28 3.28 0 1 1 6.38 0L17.5 8H19a2 2 0 0 1 2 2v8a3 3 0 0 1-3 3h-8a2 2 0 0 1-2-2v-1.47a.02.02 0 0 0-.03-.02l-.72.18c-.41.1-.83.12-1.24.07H6a3.29 3.29 0 0 1 0-6.52h.01c.4-.05.83-.03 1.24.07l.72.18c.02 0 .03 0 .03-.02V10a2 2 0 0 1 2-2h1.5Z"/></svg>