<svg xmlns="http://www.w3.org/2000/svg" viewBox="0 0 20 20" fill="currentColor"><path fill-rule="evenodd" d="M5.49 13.57A2.02 2.02 0 0 1 8 15.53V17h8a1 1 0 0 0 1-1V8h-1.5a2 2 0 0 1-1.94-2.49l.19-.75a1.29 1.29 0 1 0-2.5 0l.19.75A2 2 0 0 1 9.5 8H8v1.47a2.02 2.02 0 0 1-2.51 1.96l-.73-.18a1.29 1.29 0 1 0 0 2.5l.73-.18Zm4-7.57-.18-.75c-.1-.41-.12-.83-.07-1.23V4a3.29 3.29 0 0 1 6.52 0v.02c.05.4.03.82-.07 1.23L15.5 6H17a2 2 0 0 1 2 2v8a3 3 0 0 1-3 3H8a2 2 0 0 1-2-2v-1.47a.02.02 0 0 0-.03-.02l-.72.18c-.41.1-.83.12-1.24.07H4A3.29 3.29 0 1 1 5.25 9.3l.72.18C6 9.5 6 9.5 6 9.47V8a2 2 0 0 1 2-2h1.5Z"/></svg>