<svg xmlns="http://www.w3.org/2000/svg" viewBox="0 0 20 16" fill="currentColor"><path fill-rule="evenodd" d="m13.33 4.27.32-.96a1.21 1.21 0 1 0-2.3 0l.32.96a1.5 1.5 0 0 1-1.42 1.98h-2v1.72a1.52 1.52 0 0 1-2 1.44l-.94-.3a1.21 1.21 0 1 0 0 2.29l.94-.31c.98-.33 2 .4 2 1.44v1.97H16a.5.5 0 0 0 .5-.5V6.25h-1.75a1.5 1.5 0 0 1-1.42-1.98Zm-6.6 8.24-.94.31a2.7 2.7 0 1 1 0-5.14l.93.31c.02 0 .03 0 .03-.02V5.25c0-.28.22-.5.5-.5h3l-.32-.96a2.72 2.72 0 1 1 5.14 0l-.32.96h2.75c.28 0 .5.22.5.5V14a2 2 0 0 1-2 2H7.25a.5.5 0 0 1-.5-.5v-2.97a.02.02 0 0 0-.03-.02Z"/></svg>