<svg xmlns="http://www.w3.org/2000/svg" viewBox="0 0 20 16" fill="currentColor"><path fill-rule="evenodd" d="M7.5 8.94A2 2 0 0 1 7 9H6a2 2 0 0 1-2-2V5c0-1.1.9-2 2-2h1a2 2 0 0 1 2 2v4.53c0 1.16-.53 2.25-1.45 2.96l-.5.4A.75.75 0 0 1 6 12.75a.75.75 0 0 1 .13-1.05l.5-.4c.55-.42.87-1.07.87-1.77v-.6ZM6 4.5a.5.5 0 0 0-.5.5v2c0 .28.22.5.5.5h1a.5.5 0 0 0 .5-.5V5a.5.5 0 0 0-.5-.5H6Zm10 5.03c0 1.16-.53 2.25-1.45 2.96l-.5.4a.75.75 0 0 1-1.05-.14.75.75 0 0 1 .13-1.05l.5-.4c.55-.42.87-1.07.87-1.77v-.6A2 2 0 0 1 14 9h-1a2 2 0 0 1-2-2V5c0-1.1.9-2 2-2h1a2 2 0 0 1 2 2v4.53ZM14 4.5h-1a.5.5 0 0 0-.5.5v2c0 .28.22.5.5.5h1a.5.5 0 0 0 .5-.5V5a.5.5 0 0 0-.5-.5Z"/></svg>