<svg xmlns="http://www.w3.org/2000/svg" viewBox="0 0 20 16" fill="currentColor"><path d="m15.07 5.54-.5-.16.07-.35c.38-1.86.13-3.36-.72-3.85-.82-.47-2.16.02-3.52 1.2l-.4.36a9.48 9.48 0 0 0-.25-.24C8.33 1.23 6.9.7 6.05 1.2c-.82.48-1.06 1.88-.72 3.65l.12.52c-.2.05-.4.12-.58.18C3.2 6.13 2 7.05 2 8c0 .97 1.27 1.95 3 2.54l.43.14-.12.56c-.33 1.74-.07 3.11.75 3.58.84.49 2.26-.01 3.64-1.22l.33-.3.42.39c1.34 1.14 2.66 1.61 3.48 1.14.84-.49 1.12-1.97.76-3.77l-.1-.42.3-.09C16.7 9.94 18 8.98 18 8c0-.95-1.23-1.87-2.93-2.45Zm-4.23-2.66c1.16-1 2.25-1.4 2.74-1.12.53.3.73 1.53.4 3.14l-.07.3a16 16 0 0 0-2.1-.32 15.2 15.2 0 0 0-1.34-1.66l.37-.34ZM7.22 9.61l.5.8c-.49-.04-.97-.12-1.45-.23.14-.45.3-.91.5-1.39l.46.82Zm-.94-3.76a15 15 0 0 1 1.42-.24 18.47 18.47 0 0 0-.92 1.6c-.2-.46-.36-.92-.5-1.36ZM7.13 8a19.63 19.63 0 0 1 1.44-2.48 19.6 19.6 0 0 1 2.86 0 21.9 21.9 0 0 1 1.44 2.47 20.76 20.76 0 0 1-1.43 2.5 19.65 19.65 0 0 1-2.87 0A18.98 18.98 0 0 1 7.13 8Zm5.65 1.6c.16-.27.3-.55.45-.83.2.45.38.91.53 1.38-.48.11-.97.2-1.47.25l.49-.8Zm.45-2.39a26.15 26.15 0 0 0-.93-1.6c.5.06.98.14 1.43.25-.14.46-.31.9-.5 1.35ZM10 3.7c.32.35.63.73.92 1.12a20.5 20.5 0 0 0-1.86 0c.3-.4.62-.78.94-1.12ZM6.38 1.78c.53-.3 1.7.13 2.92 1.22l.24.22A15.2 15.2 0 0 0 8.2 4.88c-.7.06-1.4.17-2.1.32a12.1 12.1 0 0 1-.11-.48c-.3-1.51-.1-2.65.4-2.94Zm-.76 8.24a6.37 6.37 0 0 1-2.36-1.1A1.4 1.4 0 0 1 2.67 8c0-.57.99-1.3 2.41-1.8.18-.07.36-.12.54-.17.22.67.47 1.34.77 1.98-.3.66-.56 1.33-.77 2.02Zm3.64 3.06c-.52.47-1.11.85-1.76 1.1-.35.17-.75.19-1.1.04-.5-.28-.7-1.39-.43-2.87.04-.17.07-.35.12-.52.7.15 1.4.25 2.12.3.41.59.86 1.15 1.35 1.67l-.3.28Zm.77-.76c-.32-.34-.64-.72-.95-1.13a22.22 22.22 0 0 0 1.87 0c-.29.4-.6.77-.92 1.13Zm4.08.94a1.4 1.4 0 0 1-.52.98c-.5.29-1.55-.09-2.7-1.07l-.4-.36c.48-.53.93-1.09 1.33-1.68a15.4 15.4 0 0 0 2.13-.32l.08.38c.15.67.18 1.38.08 2.07Zm.57-3.36-.27.08a14.9 14.9 0 0 0-.8-2c.3-.63.56-1.29.77-1.96l.47.15c1.46.5 2.48 1.24 2.48 1.81 0 .61-1.1 1.4-2.65 1.92ZM10 9.43a1.43 1.43 0 1 0 0-2.86 1.43 1.43 0 0 0 0 2.86Z"/></svg>