<svg xmlns="http://www.w3.org/2000/svg" viewBox="0 0 20 16" fill="currentColor"><path d="M7 6.25c0 .41.34.75.75.75h4.5a.75.75 0 0 0 0-1.5h-4.5a.75.75 0 0 0-.75.75Zm0 3.5c0 .41.34.75.75.75h4.5a.75.75 0 0 0 0-1.5h-4.5a.75.75 0 0 0-.75.75Z"/><path fill-rule="evenodd" d="m6 14 1.65 1.65c.2.2.5.2.7 0L10 14l1.65 1.65c.2.2.5.2.7 0L14 14l1.79 1.79c.08.08.21.02.21-.1V.3a.13.13 0 0 0-.21-.09L14 2 12.35.35a.5.5 0 0 0-.7 0L10 2 8.35.35a.5.5 0 0 0-.7 0L6 2 4.21.21a.13.13 0 0 0-.21.1V15.7c0 .11.13.17.21.09L6 14Zm.5-1.62a.7.7 0 0 0-1 0V3.62a.7.7 0 0 0 1 0L8 2.12l1.3 1.3a1 1 0 0 0 1.4 0l1.3-1.3 1.5 1.5a.7.7 0 0 0 1 0v8.76a.7.7 0 0 0-1 0l-1.5 1.5-1.3-1.3a1 1 0 0 0-1.4 0L8 13.89l-1.5-1.5Z"/></svg>