<svg xmlns="http://www.w3.org/2000/svg" viewBox="0 0 20 16" fill="currentColor"><path d="M11 .5c.3-.3.77-.3 1.06 0l3.15 3.15c.2.2.2.5 0 .7L12.06 7.5A.75.75 0 1 1 11 6.44l1.69-1.69H6.75A3.25 3.25 0 0 0 3.5 8v.04c0 .48-.34.96-.82.96-.34 0-.63-.23-.66-.57a4.75 4.75 0 0 1 4.73-5.18h5.94L11 1.56A.75.75 0 0 1 11 .5Z"/><path d="M9.03 15.5c-.3.3-.77.3-1.06 0l-3.15-3.15a.5.5 0 0 1 0-.7L7.97 8.5a.75.75 0 1 1 1.06 1.06l-1.69 1.69h5.91c1.8 0 3.25-1.46 3.25-3.25v-.04c0-.48.34-.96.82-.96.34 0 .63.23.66.57L18 8a4.75 4.75 0 0 1-4.75 4.75h-5.9l1.68 1.69c.3.3.3.77 0 1.06Z"/></svg>