<svg xmlns="http://www.w3.org/2000/svg" viewBox="0 0 20 16" fill="currentColor"><path d="M11 .5c.3-.3.77-.3 1.06 0l3.82 3.82c.16.16.05.43-.17.43H6.75A3.25 3.25 0 0 0 3.5 8v.04c0 .48-.34.96-.82.96-.34 0-.63-.23-.66-.57a4.75 4.75 0 0 1 4.73-5.18h5.94L11 1.56A.75.75 0 0 1 11 .5ZM4.32 11.25a.25.25 0 0 0-.17.43l3.82 3.82a.75.75 0 1 0 1.06-1.06l-1.69-1.69h5.91a4.75 4.75 0 0 0 4.73-5.18c-.03-.34-.32-.57-.66-.57-.48 0-.83.48-.82.96V8c0 1.8-1.46 3.25-3.25 3.25H4.32Z"/><path d="M9.75 9.5V7.56l-.16.18a.74.74 0 1 1-1.1-1.02l.63-.65a1.25 1.25 0 0 1 2.13.89V9.5a.75.75 0 0 1-1.5 0Z"/></svg>