<svg xmlns="http://www.w3.org/2000/svg" viewBox="0 0 20 16" fill="currentColor"><path d="M11 .5c.3-.3.77-.3 1.06 0l4.25 4.25H6.75A3.25 3.25 0 0 0 3.5 8v.04c0 .48-.34.96-.82.96-.34 0-.63-.23-.66-.57a4.75 4.75 0 0 1 4.73-5.18h5.94L11 1.56A.75.75 0 0 1 11 .5ZM3.72 11.25l4.25 4.25a.75.75 0 1 0 1.06-1.06l-1.69-1.69h5.91a4.75 4.75 0 0 0 4.73-5.18c-.03-.34-.32-.57-.66-.57-.48 0-.83.48-.82.96V8c0 1.8-1.46 3.25-3.25 3.25H3.72Z"/><path d="M10.25 6c.41 0 .75.34.75.75V9.5a.75.75 0 0 1-1.5 0V8A.75.75 0 0 1 9 6.6l.87-.5c.12-.07.25-.1.38-.1Z"/></svg>