<svg xmlns="http://www.w3.org/2000/svg" viewBox="0 0 20 16" fill="currentColor"><path d="M14.5 5a1.5 1.5 0 1 1-3 0 1.5 1.5 0 0 1 3 0Z"/><path fill-rule="evenodd" d="M8.5 3.5H5.13a2 2 0 0 0-1.96 1.6l-.44 2.2a1 1 0 0 0 .98 1.2h2.46a.82.82 0 0 1 .23.4l2.68 2.7c.12.1.26.18.41.22v2.84a1 1 0 0 0 1.29.95l2.28-.68A2 2 0 0 0 14.5 13V9.5a8.1 8.1 0 0 0 3.2-7.65l-.14-.93a.58.58 0 0 0-.5-.5L16.14.3A8.1 8.1 0 0 0 8.5 3.5Zm3.95 5.49L9.82 10.2 7.8 8.18l1.21-2.63a6.6 6.6 0 0 1 6.92-3.76l.24.04.04.24A6.6 6.6 0 0 1 12.45 9ZM6.69 7H4.33l.32-1.6a.5.5 0 0 1 .49-.4h2.48l-.93 2ZM13 10.38v2.63a.5.5 0 0 1-.36.48L11 14v-2.7l2-.93Z"/><path fill-rule="evenodd" d="M7.27 10.73a2.5 2.5 0 0 1 0 3.54c-.98.97-3.8 2.2-4.77 1.23-.98-.98.26-3.8 1.23-4.77a2.5 2.5 0 0 1 3.54 0ZM6.2 11.8a1 1 0 0 0-1.42 0 5.15 5.15 0 0 0-1.14 2.56A5.15 5.15 0 0 0 6.2 13.2a1 1 0 0 0 0-1.4Z"/></svg>