<svg xmlns="http://www.w3.org/2000/svg" viewBox="0 0 20 20" fill="currentColor"><path d="M13.5 8a1.5 1.5 0 1 0 0-3 1.5 1.5 0 0 0 0 3Z"/><path fill-rule="evenodd" d="m5.42 10.42 4.16 4.16c.12.12.26.2.42.23v2.71a2 2 0 0 0 2.74 1.86l2.37-.95A3 3 0 0 0 17 15.65V10.7A11.47 11.47 0 0 0 19.67 2l-.1-.9a.75.75 0 0 0-.66-.67l-.9-.1A11.48 11.48 0 0 0 9.3 3H4.34a3 3 0 0 0-2.78 1.89L.62 7.26A2 2 0 0 0 2.48 10h2.7c.04.16.12.3.24.42ZM5.86 8H2.48l.95-2.37A1 1 0 0 1 4.35 5h3.1c-.5.69-.92 1.43-1.26 2.22L5.86 8ZM15 12.55v3.1a1 1 0 0 1-.63.92l-2.37.95v-3.38l.78-.33c.8-.34 1.53-.76 2.22-1.26Zm-7.63-3L8.03 8a9.48 9.48 0 0 1 9.66-5.7 9.48 9.48 0 0 1-5.7 9.66l-1.53.66-3.09-3.09Z"/><path fill-rule="evenodd" d="m.19 18.68.42-2.92a3.21 3.21 0 1 1 3.63 3.63l-2.92.42a1 1 0 0 1-1.13-1.13Zm2.17-1.04 1.6-.23a1.21 1.21 0 1 0-1.37-1.37l-.23 1.6Z"/></svg>