<svg xmlns="http://www.w3.org/2000/svg" viewBox="0 0 20 16" fill="currentColor"><path d="M10.57 8.57 9.43 7.43l-2.15 3.3 3.29-2.16ZM10 .5a7.5 7.5 0 1 0 0 15 7.5 7.5 0 0 0 0-15Zm4.71 5.29.45-.19a.24.24 0 0 1 .32.13.24.24 0 0 1-.13.32l-.45.18a.24.24 0 0 1-.32-.13.24.24 0 0 1 .13-.31ZM11.77 3.1l.18-.45a.24.24 0 0 1 .32-.13.24.24 0 0 1 .13.32l-.19.45a.24.24 0 0 1-.31.13.24.24 0 0 1-.13-.32ZM10 2.07a.24.24 0 0 1 .24.24v.49a.24.24 0 0 1-.48 0v-.5a.24.24 0 0 1 .24-.24Zm-2.27.45a.24.24 0 0 1 .32.13l.18.45a.24.24 0 1 1-.44.19l-.19-.45a.24.24 0 0 1 .13-.32ZM5.81 3.81a.24.24 0 0 1 .34 0l.34.34a.24.24 0 0 1-.34.34l-.34-.34a.24.24 0 0 1 0-.34ZM4.07 8a.24.24 0 0 1 .24-.24h.49a.24.24 0 0 1 0 .48h-.5A.24.24 0 0 1 4.07 8Zm1.22 2.21-.45.19a.24.24 0 0 1-.33-.22.24.24 0 0 1 .14-.23l.45-.18a.24.24 0 0 1 .32.13.24.24 0 0 1-.13.31Zm.13-4.1a.24.24 0 0 1-.32.12l-.45-.18a.24.24 0 0 1 .19-.45l.45.19a.24.24 0 0 1 .13.31Zm2.81 6.79-.18.45a.24.24 0 0 1-.4.07.24.24 0 0 1-.05-.26l.19-.45a.24.24 0 1 1 .44.19Zm2.01.79a.24.24 0 0 1-.48 0v-.49a.24.24 0 1 1 .48 0v.49Zm2.03-.21a.24.24 0 0 1-.32-.13l-.18-.45a.24.24 0 0 1 .13-.32.24.24 0 0 1 .31.13l.19.45a.24.24 0 0 1-.13.32Zm1.92-1.29a.24.24 0 0 1-.34 0l-.34-.34a.24.24 0 0 1 .34-.34l.34.34a.24.24 0 0 1 0 .34Zm-3.28-3.28-5.32 3.5 3.5-5.32 5.31-3.5-3.49 5.32Zm4.57 1.36a.24.24 0 0 1-.32.13l-.45-.19a.24.24 0 0 1-.13-.31.24.24 0 0 1 .23-.15c.03 0 .06 0 .09.02l.45.18a.24.24 0 0 1 .13.32Zm.2-2.03h-.48a.24.24 0 1 1 0-.48h.49a.24.24 0 0 1 0 .48Z"/></svg>