<svg xmlns="http://www.w3.org/2000/svg" viewBox="0 0 20 16" fill="currentColor"><path d="m9.8 9.7-.92.05-.12-.68a8.56 8.56 0 0 0-.55-1.62c-.27-.61-.54-1.22-.77-1.85a3.2 3.2 0 0 1-.09-2.08A3.6 3.6 0 0 1 8.38 1.9c.28-.26.6-.49.9-.74l.64-.58L10 .5c.18.16.34.33.53.48l.84.68a3.65 3.65 0 0 1 1.4 2.42c.05.5-.01 1-.19 1.46-.18.52-.4 1.02-.61 1.53-.3.67-.59 1.33-.74 2.05l-.09.57c0 .05-.02.07-.08.07l-.85-.06a86.7 86.7 0 0 0-.2-7.03 82.17 82.17 0 0 0-.2 7.04Zm-2.4.23a2.92 2.92 0 0 0-.41-.9c-.2-.28-.43-.5-.76-.6a1.12 1.12 0 0 0-1.43.92c-.03.22 0 .45 0 .69a.99.99 0 0 1-.5 0 2.07 2.07 0 0 1-1.47-1.09 2.53 2.53 0 0 1 1.9-3.75c.7-.07 1.32.16 1.87.59.48.37.84.84 1.13 1.36.35.63.6 1.31.74 2.03l.07.52c0 .08-.02.1-.09.1-.35.05-.7.1-1.05.13ZM4.92 6.62 4.9 6.6l-.45.23a.12.12 0 0 1-.17-.03c-.08-.1-.18-.18-.27-.27l-.1-.08c.01.12.02.25.05.37.03.25.03.25-.2.36l-.3.17c.02.02.06.04.1.04l.39.06a.13.13 0 0 1 .13.13l.08.49a.16.16 0 0 0 .07-.08l.16-.3c.1-.19.04-.17.24-.14l.13.02.34.05-.45-.44.27-.56Zm7.68 3.31-.7-.09a7 7 0 0 0-.35-.03c-.06 0-.08-.02-.08-.1a6.36 6.36 0 0 1 1.21-3.18c.35-.46.77-.86 1.3-1.1.91-.4 1.78-.33 2.57.3.68.53 1 1.27.95 2.13a2.3 2.3 0 0 1-1.32 2.04 1.68 1.68 0 0 1-.98.14c.05-.32.06-.62-.06-.92a1.13 1.13 0 0 0-1.73-.5 2.1 2.1 0 0 0-.67.94l-.14.37Zm2.32-2.32h.1l.43-.06a.1.1 0 0 1 .14.06l.2.4.05.09.03-.13.07-.43a.08.08 0 0 1 .05-.07h.03l.45-.08c.03 0 .06 0 .09-.02l-.34-.2c-.2-.1-.2-.1-.17-.33l.06-.38c-.13.1-.25.21-.37.33-.07.09-.13.08-.21.03l-.42-.22c0 .03 0 .07.02.1.06.12.11.24.18.35.05.09.04.14-.03.2l-.36.36Zm-4.89 6.31.07-.44.1-1.62c0-.1 0-.18.02-.27a.1.1 0 0 1 .06-.07h.87l.07.35a4.9 4.9 0 0 0 .78 1.76c0 .03 0 .06-.03.09a4.34 4.34 0 0 1-1.9 1.77.2.2 0 0 1-.14 0 4.39 4.39 0 0 1-1.82-1.63c-.1-.15-.11-.27 0-.44a4.4 4.4 0 0 0 .72-1.83c.01-.08.04-.1.13-.1l.72.02c.08 0 .11.02.12.1 0 .33.01.66.04.98.03.42.09.84.13 1.26l.02.06h.04Zm-4.36-1.59c.4.16.8.2 1.2-.02.38-.22.54-.58.63-1l1.04.15-.06.33c-.1.45-.3.87-.58 1.24a2 2 0 0 1-.37.36c-.43.32-.99.2-1.34-.09a1.45 1.45 0 0 1-.5-.85l-.02-.12Zm5.77-.87 1.06-.15c.09.41.26.77.64.98.39.22.78.19 1.2.02l-.08.3c-.16.45-.44.77-.9.9a1 1 0 0 1-1.02-.23c-.4-.36-.61-.82-.77-1.32l-.13-.5Zm-1.44-.3c-.78 0-1.57-.03-2.35-.2a2.9 2.9 0 0 1-.57-.18.32.32 0 0 1-.12-.09.1.1 0 0 1 0-.15.89.89 0 0 1 .28-.16 9.17 9.17 0 0 1 3.04-.31c.76 0 1.52.05 2.26.24.13.03.25.08.37.14.07.03.13.1.16.16.02.1-.08.15-.15.17-.21.08-.43.15-.65.2-.63.12-1.26.18-1.9.18h-.36Zm2.67-.52v-.04a1 1 0 0 0-.15-.05c-.24-.04-.47-.08-.71-.1-.91-.09-1.83-.1-2.74-.06-.52.03-1.05.1-1.57.15a.86.86 0 0 0-.17.06v.04l.26.06a21.42 21.42 0 0 0 3.57.11c.43-.01.85-.07 1.28-.1l.23-.07Z"/></svg>