<svg xmlns="http://www.w3.org/2000/svg" viewBox="0 0 16 16" fill="currentColor"><path fill-rule="evenodd" d="M1 3.75A2.75 2.75 0 0 1 3.75 1h8.5A2.75 2.75 0 0 1 15 3.75v8.5A2.75 2.75 0 0 1 12.25 15h-8.5A2.75 2.75 0 0 1 1 12.25v-8.5ZM3.75 2.5c-.69 0-1.25.56-1.25 1.25V6h11V3.75c0-.69-.56-1.25-1.25-1.25h-8.5Zm9.75 5h-11v4.75c0 .69.56 1.25 1.25 1.25h8.5c.69 0 1.25-.56 1.25-1.25V7.5ZM9.25 10a.75.75 0 1 0 0-1.5.75.75 0 0 0 0 1.5Zm2.5 0a.75.75 0 1 0 0-1.5.75.75 0 0 0 0 1.5ZM10 4.25a.75.75 0 1 1-1.5 0 .75.75 0 0 1 1.5 0Zm2.5 0a.75.75 0 1 1-1.5 0 .75.75 0 0 1 1.5 0Z"/><path d="M10 4.25a.75.75 0 1 1-1.5 0 .75.75 0 0 1 1.5 0Zm2.5 0a.75.75 0 1 1-1.5 0 .75.75 0 0 1 1.5 0ZM9.25 10a.75.75 0 1 0 0-1.5.75.75 0 0 0 0 1.5Zm2.5 0a.75.75 0 1 0 0-1.5.75.75 0 0 0 0 1.5Z"/><path d="M1 3.75A2.75 2.75 0 0 1 3.75 1h8.5A2.75 2.75 0 0 1 15 3.75v8.5A2.75 2.75 0 0 1 12.25 15h-8.5A2.75 2.75 0 0 1 1 12.25v-8.5ZM3.75 2.5c-.69 0-1.25.56-1.25 1.25V6h11V3.75c0-.69-.56-1.25-1.25-1.25h-8.5Zm9.75 5h-11v4.75c0 .69.56 1.25 1.25 1.25h8.5c.69 0 1.25-.56 1.25-1.25V7.5Z"/></svg>