<svg xmlns="http://www.w3.org/2000/svg" viewBox="0 0 24 24" fill="currentColor"><path d="M11 15v-2H9a1 1 0 1 1 0-2h2V9a1 1 0 1 1 2 0v2h2a1 1 0 1 1 0 2h-2v2a1 1 0 1 1-2 0Z"/><path fill-rule="evenodd" d="M12 22a6 6 0 0 1-4.8-2.4l-.51-.68a7.71 7.71 0 0 1-1.08-2l-2.4-6.57A4 4 0 0 1 5.2 5.41l5.92-2.96a2 2 0 0 1 1.78 0l5.92 2.96a4 4 0 0 1 1.97 4.94l-2.39 6.57a7.71 7.71 0 0 1-1.08 2l-.51.68A6 6 0 0 1 12 22Zm-3.2-3.6a4 4 0 0 0 6.4 0l.51-.68c.34-.45.61-.95.8-1.48l2.4-6.57a2 2 0 0 0-1-2.48L12 4.24 6.08 7.19a2 2 0 0 0-.98 2.48l2.39 6.57c.2.53.46 1.03.8 1.48l.51.68Z"/></svg>