<svg xmlns="http://www.w3.org/2000/svg" viewBox="0 0 20 18" fill="currentColor"><path fill-rule="evenodd" d="M.1 17H2l.04.04.03-.04h15.86l.03.04L18 17h2V1h-2l-.04-.04-.03.04H2.07L2.04.96 2 1H0v16h.1Zm18.9-.1h.9V1.1H18V8h1v8.9ZM17.9 8V4c0-.5-.4-.9-.9-.9v3.2c.2.54.36 1.1.43 1.7h.47Zm-.45.1h.45V14c0 .5-.4.9-.9.9v-3.2a7.48 7.48 0 0 0 .45-3.6Zm-.12-.1A7.35 7.35 0 0 0 17 6.6V8h.33Zm-.33.1h.35a7.47 7.47 0 0 1-.35 3.3V8.1Zm-.1-.1V6.32a7.39 7.39 0 0 0-.9-1.65V8h.9Zm-.9.1h.9v3.58c-.23.6-.53 1.15-.9 1.65V8.1Zm-.1-.1V4.53c-.2-.25-.4-.5-.63-.73l-3.11 3.11c.3.31.52.68.67 1.09h3.07Zm-3.04.1h3.04v5.37c-.2.25-.4.5-.63.73l-3.11-3.11a2.99 2.99 0 0 0 .7-2.99Zm-.14-.1a2.9 2.9 0 0 0-.63-1.01L11.07 8h1.65Zm-1.75.1h1.79a2.9 2.9 0 0 1-.67 2.92l-1.99-2v-.05l.87-.87Zm-.04-.1 1.09-1.09a2.9 2.9 0 0 0-4.03 0L10 8.93V8h.93Zm-.83.83V8.1h.73l-.73.73Zm-.1.24L7.99 11.1c.52.5 1.23.81 2.01.81V9.07ZM10 12a3 3 0 0 1-2.09-.84l-3.1 3.1c.22.23.47.45.72.64H10V12Zm.1 2.9V12a2.99 2.99 0 0 0 1.99-.84l3.1 3.1c-.22.23-.47.45-.72.64H10.1Zm-.1.1H5.67c.5.37 1.06.67 1.65.9H10V15Zm.1.9V15h4.23c-.5.37-1.06.67-1.65.9H10.1Zm-.1.1H7.6c.75.26 1.56.4 2.4.4V16Zm.1.4V16h2.3a7.3 7.3 0 0 1-2.3.4Zm-.1.1c-.95 0-1.86-.18-2.7-.5H4.1c0 .5.4.9.9.9h5v-.4Zm.1.4v-.4a7.48 7.48 0 0 0 2.6-.5h3.2c0 .5-.4.9-.9.9h-4.9Zm5.34 0h2.39l-1.16-1.16A1 1 0 0 1 16 16a1 1 0 0 1-.56.9Zm2.56 0V8.1h.9v8.8H18Zm-7.9-5V9.17l1.92 1.92c-.5.48-1.18.78-1.92.8ZM4.56 1.1H2.17l1.16 1.16A1 1 0 0 1 4 2a1 1 0 0 1 .56-.9Zm-2.46.07 1.16 1.16A1 1 0 0 0 3 3a1 1 0 0 0-.9.56V1.17ZM2.1 4v10c0 .5.4.9.9.9v-3.2a7.48 7.48 0 0 1 0-5.4V3.1c-.5 0-.9.4-.9.9Zm1-.9v2.96A7.5 7.5 0 0 1 4 4.5V3.1h-.9Zm1.07 0 .56.56c.2-.2.42-.38.64-.56h-1.2ZM5.5 3H4.1v-.9h2.96A7.5 7.5 0 0 0 5.5 3Zm.03.1c-.25.2-.5.4-.73.63l3.11 3.11a2.99 2.99 0 0 1 4.18 0l3.1-3.1a7.43 7.43 0 0 0-.72-.64H5.53Zm-.8.7 3.11 3.11a2.99 2.99 0 0 0 0 4.18l-3.1 3.1a7.43 7.43 0 0 1-.64-.72V4.53c.2-.25.4-.5.63-.73ZM7.1 9c0 .78.31 1.5.81 2.02L9.93 9 7.9 6.99c-.49.51-.8 1.23-.8 2.01ZM5.67 3c.5-.37 1.06-.67 1.65-.9h5.36c.6.23 1.15.53 1.65.9H5.67Zm8.96.1c.22.18.44.36.64.56l.56-.56h-1.2ZM15.9 3h-1.4a7.5 7.5 0 0 0-1.56-.9h2.96V3Zm.1.1v1.4c.36.48.66 1 .9 1.56V3.1H16Zm.9-.1a.9.9 0 0 0-.23-.6l-.6.6h.83Zm1 .56A1 1 0 0 0 17 3a1 1 0 0 0-.26-.67l1.16-1.16v2.4Zm0 10.88a1 1 0 0 1-.9.56 1 1 0 0 1-.26.67l1.16 1.16v-2.4Zm-1 .46v-2.96a7.49 7.49 0 0 1-.9 1.56v1.4h.9Zm-.83.1h.83a.9.9 0 0 1-.23.6l-.6-.6Zm-.24-.1-.56-.56c-.2.2-.42.38-.64.56h1.2Zm-1.33.1h1.4v.9h-2.96a7.49 7.49 0 0 0 1.56-.9Zm-9.13-.1a7.52 7.52 0 0 1-.64-.56l-.56.56h1.2ZM4.1 15h1.4c.48.36 1 .66 1.56.9H4.1V15Zm-.1-.1v-1.4a7.5 7.5 0 0 1-.9-1.56v2.96H4Zm-.9.1c0 .23.09.44.23.6l.6-.6H3.1ZM3 15a1 1 0 0 1-.9-.56v2.39l1.16-1.16A1 1 0 0 1 3 15Zm-1-1v2.9H.1V1.1H2V14ZM3.93 3H3.1a.9.9 0 0 1 .23-.6l.6.6ZM2.6 9c0-.84.14-1.65.4-2.4v4.8A7.39 7.39 0 0 1 2.6 9ZM4 4.67c-.37.5-.67 1.06-.9 1.65v5.36c.23.6.53 1.15.9 1.65V4.67ZM2.17 16.9l1.16-1.16A1 1 0 0 0 4 16c0 .4.23.74.56.9H2.17Zm1.23-1.23a.9.9 0 0 0 .6.23v-.83l-.6.6Zm12.6.23a.9.9 0 0 0 .6-.23l-.6-.6v.83Zm1.83-14.8-1.16 1.16A1 1 0 0 0 16 2a1 1 0 0 0-.56-.9h2.39ZM16 2.93V2.1a.9.9 0 0 1 .6.23l-.6.6ZM15 1.1c.5 0 .9.4.9.9h-3.2a7.48 7.48 0 0 0-5.4 0H4.1c0-.5.4-.9.9-.9h10Zm-5 .5c.84 0 1.65.14 2.4.4H7.6c.75-.26 1.56-.4 2.4-.4Zm-6.6.73A.9.9 0 0 1 4 2.1v.83l-.6-.6Zm.7 2.04v-1.2l.56.56c-.2.2-.38.42-.56.64Zm0 9.26v1.2l.56-.56c-.2-.2-.38-.42-.56-.64Zm11.8-9.26v-1.2l-.56.56c.2.2.38.42.56.64Zm0 9.26v1.2l-.56-.56c.2-.2.38-.42.56-.64Z"/><path d="M10.75 9.3v1.45a.75.75 0 0 1-1.5 0V9.3a1.5 1.5 0 1 1 1.5 0Z"/><path fill-rule="evenodd" d="m3.41 3.47 5.89-2.2a2 2 0 0 1 1.4 0l5.89 2.2a1.87 1.87 0 0 1 1.23 2.02C17.1 9.97 14.64 17 10 17 5.36 17 2.9 9.97 2.18 5.5c-.14-.89.4-1.72 1.23-2.03Zm6.41-.8-5.88 2.2c-.24.1-.3.28-.28.39.34 2.12 1.1 4.82 2.27 6.94 1.21 2.18 2.6 3.3 4.07 3.3 1.47 0 2.86-1.12 4.07-3.3a22.44 22.44 0 0 0 2.27-6.94c.01-.11-.04-.3-.28-.38l-5.88-2.21a.5.5 0 0 0-.36 0Z"/></svg>