<svg xmlns="http://www.w3.org/2000/svg" viewBox="0 0 16 16" fill="currentColor"><path d="M5.03 2.21c-1.02.4-1.93.89-2.45 1.18a.2.2 0 0 0-.1.16c-.01.66-.03 1.73.02 2.36.33 2.01 1.34 4.2 2.5 5.9.6.85 1.2 1.55 1.76 2.03.6.5 1.02.66 1.24.66.23 0 .68-.17 1.3-.67a10.5 10.5 0 0 0 1.84-2.01 12.32 12.32 0 0 0 2.36-5.88c.05-.63.03-1.71.02-2.39a.2.2 0 0 0-.1-.16c-.52-.3-1.43-.77-2.45-1.18A8.7 8.7 0 0 0 8 1.5c-.86 0-1.93.3-2.97.71ZM4.48.82C5.56.39 6.85 0 8 0s2.44.39 3.52.82c1.1.44 2.08.95 2.63 1.26.53.3.85.84.87 1.44.01.65.03 1.82-.02 2.54a13.83 13.83 0 0 1-2.64 6.63A12 12 0 0 1 10.24 15c-.68.55-1.47 1-2.24 1-.78 0-1.55-.46-2.2-1.02a11.8 11.8 0 0 1-2.03-2.32A17.03 17.03 0 0 1 1 6.06C.95 5.33.97 4.17.98 3.51c.02-.6.34-1.15.87-1.44A23.1 23.1 0 0 1 4.48.81Z"/></svg>