<svg xmlns="http://www.w3.org/2000/svg" viewBox="0 0 24 24" fill="currentColor"><path fill-rule="evenodd" d="M15.5 10a3.5 3.5 0 1 1-7 0 3.5 3.5 0 0 1 7 0Zm-2 0a1.5 1.5 0 1 0-3 0 1.5 1.5 0 0 0 3 0Z"/><path fill-rule="evenodd" d="M5.82 17.45a7.73 7.73 0 0 1-.21-.53l-2.4-6.57A4 4 0 0 1 5.2 5.41l5.92-2.96a2 2 0 0 1 1.78 0l5.92 2.96a4 4 0 0 1 1.97 4.94l-2.39 6.57a7.71 7.71 0 0 1-1.08 2l-.51.68a6 6 0 0 1-9.6 0l-.51-.68a7.71 7.71 0 0 1-.87-1.47Zm1.66-1.23a8.96 8.96 0 0 1 9.04 0l2.38-6.55a2 2 0 0 0-.98-2.48L12 4.24 6.08 7.19a2 2 0 0 0-.98 2.48l2.38 6.55Zm.99 1.74.33.44a4 4 0 0 0 6.4 0l.33-.44a6.97 6.97 0 0 0-7.06 0Z"/></svg>