<svg xmlns="http://www.w3.org/2000/svg" viewBox="0 0 20 16" fill="currentColor"><path d="M11.5 7c0 .56-.3 1.04-.75 1.3v1.45a.75.75 0 0 1-1.5 0V8.3A1.5 1.5 0 1 1 11.5 7Z"/><path fill-rule="evenodd" d="M9.3.26a2 2 0 0 1 1.4 0l5.89 2.21a1.87 1.87 0 0 1 1.23 2.02C17.1 8.97 14.64 16 10 16 5.36 16 2.9 8.97 2.18 4.5c-.14-.89.4-1.72 1.23-2.03L9.3.27ZM3.94 3.88c-.24.08-.3.27-.28.38.34 2.12 1.1 4.82 2.27 6.94 1.21 2.18 2.6 3.3 4.07 3.3 1.47 0 2.86-1.12 4.07-3.3a22.44 22.44 0 0 0 2.27-6.94c.01-.11-.04-.3-.28-.38l-5.88-2.21a.5.5 0 0 0-.36 0l-5.88 2.2Z"/></svg>