<svg xmlns="http://www.w3.org/2000/svg" viewBox="0 0 20 20" fill="currentColor"><path d="M9 11a1 1 0 0 1 0-2h.5c.83 0 1.5.67 1.5 1.5V13a1 1 0 1 1 0 2H9a1 1 0 1 1 0-2v-2Zm1-3.5A1.25 1.25 0 1 0 10 5a1.25 1.25 0 0 0 0 2.5Z"/><path fill-rule="evenodd" d="M5.2 17.6a6 6 0 0 0 9.6 0l.51-.68c.46-.61.82-1.28 1.08-2l2.4-6.57a4 4 0 0 0-1.98-4.94L10.9.45a2 2 0 0 0-1.78 0L3.19 3.4a4 4 0 0 0-1.97 4.94l2.39 6.57c.26.72.62 1.39 1.08 2l.51.68Zm1.09-1.88c-.34-.45-.6-.95-.8-1.48l-2.4-6.57a2 2 0 0 1 1-2.48L10 2.24l5.92 2.95a2 2 0 0 1 .98 2.48l-2.39 6.57c-.2.53-.46 1.03-.8 1.48l-.51.68a4 4 0 0 1-6.4 0l-.51-.68Z"/></svg>