<svg xmlns="http://www.w3.org/2000/svg" viewBox="0 0 20 20" fill="currentColor"><path d="M11.41 12.83 10 11.4l-1.41 1.42a1 1 0 1 1-1.42-1.42L8.6 10 7.17 8.59A1 1 0 0 1 8.6 7.17L10 8.6l1.41-1.42a1 1 0 1 1 1.42 1.42L11.4 10l1.42 1.41a1 1 0 0 1-1.42 1.42Z"/><path fill-rule="evenodd" d="M10 20a6 6 0 0 1-4.8-2.4l-.51-.68a7.71 7.71 0 0 1-1.08-2L1.2 8.35a4 4 0 0 1 2-4.94L9.1.45a2 2 0 0 1 1.78 0l5.92 2.96a4 4 0 0 1 1.97 4.94l-2.39 6.57a7.71 7.71 0 0 1-1.08 2l-.51.68A6 6 0 0 1 10 20Zm-3.2-3.6a4 4 0 0 0 6.4 0l.51-.68c.34-.45.6-.95.8-1.48l2.4-6.57a2 2 0 0 0-1-2.48L10 2.24 4.08 5.19a2 2 0 0 0-.98 2.48l2.39 6.57c.2.53.46 1.03.8 1.48l.51.68Z"/></svg>