<svg xmlns="http://www.w3.org/2000/svg" viewBox="0 0 16 16" fill="currentColor"><path d="M9.5 6c0 .56-.3 1.04-.75 1.3v1.45a.75.75 0 0 1-1.5 0V7.3A1.5 1.5 0 1 1 9.5 6Z"/><path d="M8 0C6.85 0 5.56.39 4.48.82c-1.1.44-2.08.95-2.63 1.26-.53.3-.85.85-.87 1.44a31.33 31.33 0 0 0 .03 2.6c.37 2.29 1.49 4.7 2.76 6.54a11.8 11.8 0 0 0 2.02 2.32C6.45 15.54 7.22 16 8 16c.77 0 1.56-.45 2.24-1 .72-.58 1.45-1.38 2.12-2.3A13.83 13.83 0 0 0 15 6.05c.05-.72.03-1.89.02-2.54a1.7 1.7 0 0 0-.87-1.44c-.55-.31-1.52-.82-2.63-1.26A10.12 10.12 0 0 0 8 0ZM2.58 3.39c.52-.3 1.43-.77 2.45-1.18A8.7 8.7 0 0 1 8 1.5c.86 0 1.93.3 2.97.71 1.02.4 1.93.89 2.45 1.18.05.03.1.09.1.16.01.68.03 1.76-.02 2.4a12.32 12.32 0 0 1-2.36 5.87 10.5 10.5 0 0 1-1.84 2.01c-.62.5-1.07.67-1.3.67-.22 0-.65-.16-1.24-.66a10.61 10.61 0 0 1-1.75-2.03 15.57 15.57 0 0 1-2.51-5.9c-.05-.63-.03-1.7-.02-2.36a.2.2 0 0 1 .1-.16Z"/></svg>