<svg xmlns="http://www.w3.org/2000/svg" viewBox="0 0 20 16" fill="currentColor"><path fill-rule="evenodd" d="M4.37 1.4A2.9 2.9 0 0 1 6.8.25c.82 0 1.46.33 1.92.86.44.5.68 1.14.8 1.76.25 1.21.1 2.63-.29 3.44-.74 1.65-.93 2.32-.93 2.94v2.25a2 2 0 1 1-4 0V9.77c0-.26-.04-.52-.13-.8-.4-1.33-.79-3.38-.62-5.13.09-.87.32-1.76.83-2.44Zm.66 2.59c-.14 1.48.2 3.31.57 4.55.07.23.12.46.16.71h1.03c0-.98.32-1.91 1.07-3.56.23-.48.38-1.57.18-2.53a2.26 2.26 0 0 0-.46-1.07.98.98 0 0 0-.79-.34c-.61 0-.97.22-1.22.55-.28.37-.46.94-.54 1.69Zm10.5-.29a2.9 2.9 0 0 0-2.42-1.16c-.82 0-1.46.33-1.92.86a3.8 3.8 0 0 0-.8 1.76 6.16 6.16 0 0 0 .29 3.45c.74 1.64.93 2.31.93 2.93v2.25a2 2 0 0 0 4 0v-1.73c0-.25.04-.52.13-.79.4-1.34.79-3.38.62-5.14a4.81 4.81 0 0 0-.83-2.44Zm-.66 2.58c.14 1.48-.2 3.32-.57 4.56a5.1 5.1 0 0 0-.16.7h-1.03c0-.97-.32-1.9-1.07-3.56a4.72 4.72 0 0 1-.18-2.52c.09-.47.25-.84.46-1.07a.98.98 0 0 1 .79-.35c.61 0 .97.22 1.22.56.28.36.46.94.54 1.68Z"/></svg>