<svg xmlns="http://www.w3.org/2000/svg" viewBox="0 0 20 16" fill="currentColor"><path fill-rule="evenodd" d="M1.5 1.75c0-.41.34-.75.75-.75h.68c.78 0 1.46.51 1.68 1.25h12.15a1.75 1.75 0 0 1 1.71 2.12l-1.03 4.79c-.11.49-.54.84-1.04.84H6.28l.28 1.3c.03.12.13.2.25.2H16a.75.75 0 0 1 0 1.5H6.8c-.82 0-1.53-.57-1.7-1.38L3.26 3.15l-.08-.45a.25.25 0 0 0-.25-.2h-.68a.75.75 0 0 1-.75-.75ZM5.96 8.5h10.08L17 4.05a.25.25 0 0 0-.24-.3H4.93L5.96 8.5Z"/><path d="M7 15a1 1 0 1 1-2 0 1 1 0 0 1 2 0Zm8.75 1a1 1 0 1 0 0-2 1 1 0 0 0 0 2Z"/></svg>