<svg xmlns="http://www.w3.org/2000/svg" viewBox="0 0 24 24" fill="currentColor"><path d="M19.41 3A1 1 0 1 0 18 4.41L19.59 6h-4.07a2 2 0 0 0-1.64.85l-6.1 8.72a1 1 0 0 1-.82.43H3a1 1 0 1 0 0 2h4.48a2 2 0 0 0 1.64-.85l6.1-8.72a1 1 0 0 1 .82-.43h3.55L18 9.59A1 1 0 0 0 19.41 11l3.3-3.3a1 1 0 0 0 0-1.4L19.4 3ZM9.88 7.94a1 1 0 0 1-1.64 1.15l-.46-.66A1 1 0 0 0 6.96 8H3a1 1 0 0 1 0-2h4.48a2 2 0 0 1 1.64.85l.76 1.09Z"/><path d="M13.12 16.06a1 1 0 0 1 1.64-1.15l.46.66a1 1 0 0 0 .82.43h3.55L18 14.41A1 1 0 0 1 19.41 13l3.3 3.3a1 1 0 0 1 0 1.4L19.4 21a1 1 0 0 1-1.4-1.41L19.59 18h-4.07a2 2 0 0 1-1.64-.85l-.76-1.09Z"/></svg>