<svg xmlns="http://www.w3.org/2000/svg" viewBox="0 0 21 20" fill="currentColor"><path d="M17.41 1A1 1 0 0 0 16 2.41L17.59 4h-4.07a2 2 0 0 0-1.64.85l-6.1 8.72a1 1 0 0 1-.82.43H1a1 1 0 1 0 0 2h4.48a2 2 0 0 0 1.64-.85l6.1-8.72a1 1 0 0 1 .82-.43h3.55L16 7.59A1 1 0 1 0 17.41 9l3.3-3.3a1 1 0 0 0 0-1.4L17.4 1ZM7.88 5.94a1 1 0 1 1-1.64 1.15l-.46-.66A1 1 0 0 0 4.96 6H1a1 1 0 1 1 0-2h4.48a2 2 0 0 1 1.64.85l.76 1.09Z"/><path d="M11.12 14.06a1 1 0 1 1 1.64-1.15l.46.66a1 1 0 0 0 .82.43h3.55L16 12.41A1 1 0 0 1 17.41 11l3.3 3.3a1 1 0 0 1 0 1.4L17.4 19a1 1 0 0 1-1.4-1.41L17.59 16h-4.07a2 2 0 0 1-1.64-.85l-.76-1.09Z"/></svg>