<svg xmlns="http://www.w3.org/2000/svg" viewBox="0 0 20 16" fill="currentColor"><path d="M14.81.5a.75.75 0 1 0-1.06 1.06l1.69 1.69H12.5c-.55 0-1.07.26-1.4.7L9.94 5.5l.94 1.25 1.42-1.9c.05-.06.12-.1.2-.1h2.94l-1.69 1.69a.75.75 0 0 0 1.06 1.06l3.15-3.15a.5.5 0 0 0 0-.7L14.8.5Z"/><path d="M14.81 8.5a.75.75 0 1 0-1.06 1.06l1.69 1.69H12.5a.25.25 0 0 1-.2-.1l-5.4-7.2c-.33-.44-.85-.7-1.4-.7H2.75a.75.75 0 0 0 0 1.5H5.5c.08 0 .15.04.2.1l5.4 7.2c.33.44.85.7 1.4.7h2.94l-1.69 1.69a.75.75 0 0 0 1.06 1.06l3.15-3.15a.5.5 0 0 0 0-.7L14.8 8.5ZM5.7 11.15l1.42-1.9.94 1.25-1.16 1.55c-.33.44-.85.7-1.4.7H2.75a.75.75 0 0 1 0-1.5H5.5c.08 0 .15-.04.2-.1Z"/></svg>