<svg xmlns="http://www.w3.org/2000/svg" viewBox="0 0 16 16" fill="currentColor"><path d="M2.75 1c.41 0 .75.34.75.75v.86a2.5 2.5 0 0 1 0 4.78v6.86a.75.75 0 0 1-1.5 0V7.39A2.5 2.5 0 0 1 2 2.6v-.86c0-.41.34-.75.75-.75Zm1 4a1 1 0 1 0-2 0 1 1 0 0 0 2 0ZM8 1c.41 0 .75.34.75.75v6.86a2.5 2.5 0 0 1 0 4.78v.86a.75.75 0 0 1-1.5 0v-.86a2.5 2.5 0 0 1 0-4.78V1.75c0-.41.34-.75.75-.75Zm1 10a1 1 0 1 0-2 0 1 1 0 0 0 2 0Zm4.25-10c.41 0 .75.34.75.75v2.61a2.5 2.5 0 0 1 0 4.78v5.11a.75.75 0 0 1-1.5 0V9.14a2.5 2.5 0 0 1 0-4.78V1.75c0-.41.34-.75.75-.75Zm0 6.75a1 1 0 1 0 0-2 1 1 0 0 0 0 2Z"/></svg>