<svg xmlns="http://www.w3.org/2000/svg" viewBox="0 0 20 16" fill="currentColor"><path fill-rule="evenodd" d="M4.75 15a.75.75 0 0 1-.75-.75V6.87a2.25 2.25 0 0 1 0-4.24v-.88a.75.75 0 0 1 1.5 0v.88a2.25 2.25 0 0 1 0 4.24v7.38c0 .41-.34.75-.75.75ZM5.5 4.75a.75.75 0 1 0-1.5 0 .75.75 0 0 0 1.5 0ZM10 1c.41 0 .75.34.75.75v7.38a2.25 2.25 0 0 1 0 4.24v.88a.75.75 0 0 1-1.5 0v-.88a2.25 2.25 0 0 1 0-4.24V1.75c0-.41.34-.75.75-.75Zm.75 10.25a.75.75 0 1 0-1.5 0 .75.75 0 0 0 1.5 0ZM15.25 1a.75.75 0 0 0-.75.75v4.38a2.25 2.25 0 0 0 0 4.24v3.88a.75.75 0 0 0 1.5 0v-3.88a2.25 2.25 0 0 0 0-4.24V1.75a.75.75 0 0 0-.75-.75Zm0 8a.75.75 0 1 1 0-1.5.75.75 0 0 1 0 1.5Z"/></svg>