<svg xmlns="http://www.w3.org/2000/svg" viewBox="0 0 16 16" fill="currentColor"><path fill-rule="evenodd" d="M5.75 0A2.75 2.75 0 0 0 3 2.75v10.5A2.75 2.75 0 0 0 5.75 16h4.5A2.75 2.75 0 0 0 13 13.25V2.75A2.75 2.75 0 0 0 10.25 0h-4.5ZM4.5 2.75c0-.69.56-1.25 1.25-1.25h4.5c.69 0 1.25.56 1.25 1.25v10.5c0 .69-.56 1.25-1.25 1.25h-4.5c-.69 0-1.25-.56-1.25-1.25V2.75Zm3.25 9.5a.75.75 0 0 0 0 1.5h.5a.75.75 0 0 0 0-1.5h-.5Z"/><path d="M7.75 12.25a.75.75 0 0 0 0 1.5h.5a.75.75 0 0 0 0-1.5h-.5Z"/><path d="M5.75 0A2.75 2.75 0 0 0 3 2.75v10.5A2.75 2.75 0 0 0 5.75 16h4.5A2.75 2.75 0 0 0 13 13.25V2.75A2.75 2.75 0 0 0 10.25 0h-4.5ZM4.5 2.75c0-.69.56-1.25 1.25-1.25h4.5c.69 0 1.25.56 1.25 1.25v10.5c0 .69-.56 1.25-1.25 1.25h-4.5c-.69 0-1.25-.56-1.25-1.25V2.75Z"/></svg>