<svg xmlns="http://www.w3.org/2000/svg" viewBox="0 0 20 16" fill="currentColor"><path d="M3 1.5h7c.28 0 .5.22.5.5v3.78H12V2a2 2 0 0 0-2-2H3a2 2 0 0 0-2 2v12c0 1.1.9 2 2 2h7a2 2 0 0 0 2-2v-3.72h-1.5V14a.5.5 0 0 1-.5.5H3a.5.5 0 0 1-.5-.5V2c0-.28.22-.5.5-.5Z"/><path d="M14 3.53c.3-.3.77-.3 1.06 0l3.8 3.8a1 1 0 0 1 0 1.4l-3.8 3.8A.75.75 0 0 1 14 11.47l2.69-2.69H9.25a.75.75 0 0 1 0-1.5h7.44L14 4.59a.75.75 0 0 1 0-1.06ZM6.5 13.5a.75.75 0 1 0 0-1.5.75.75 0 0 0 0 1.5Zm3-.75a.75.75 0 1 1-1.5 0 .75.75 0 0 1 1.5 0Zm-5.25.75a.75.75 0 1 0 0-1.5.75.75 0 0 0 0 1.5Z"/></svg>