<svg xmlns="http://www.w3.org/2000/svg" viewBox="0 0 20 20" fill="currentColor"><path d="M3.5 2.5 4 1.26A2 2 0 0 1 5.85 0h11.17a1 1 0 0 1 .93 1.37L17.5 2.5h-14ZM2 5H.82a.75.75 0 0 1-.64-1.14l.46-.75c.22-.38.63-.61 1.07-.61H3.5L2 5Zm14 0H2v12a3 3 0 0 0 3 3h3.1a7.02 7.02 0 0 1-1.43-2H5a1 1 0 0 1-1-1V7h10v1.07a7 7 0 0 1 3.5 1.57V5h.3c.43 0 .84-.23 1.06-.6l.46-.76a.75.75 0 0 0-.64-1.14H17.5L16 5Z"/><path d="M14 15a1 1 0 1 1-2 0 1 1 0 0 1 2 0Z"/><path fill-rule="evenodd" d="M18 15a5 5 0 1 1-10 0 5 5 0 0 1 10 0Zm-2 0a3 3 0 1 0-6 0 3 3 0 0 0 6 0Z"/></svg>