<svg xmlns="http://www.w3.org/2000/svg" viewBox="0 0 24 24" fill="currentColor"><path d="M5.5 4.5 6 3.26A2 2 0 0 1 7.85 2h11.17a1 1 0 0 1 .93 1.37L19.5 4.5h-14ZM4 7H2.38a.5.5 0 0 1-.43-.76L2.71 5a1 1 0 0 1 .86-.49H5.5L4 7Zm14 0H4v12a3 3 0 0 0 3 3h3.1a7.02 7.02 0 0 1-1.43-2H7a1 1 0 0 1-1-1V9h10v1.07a7 7 0 0 1 3.5 1.57V7h.43a1 1 0 0 0 .86-.49l.76-1.25a.5.5 0 0 0-.43-.76H19.5L18 7Z"/><path d="M16 17a1 1 0 1 1-2 0 1 1 0 0 1 2 0Z"/><path fill-rule="evenodd" d="M20 17a5 5 0 1 1-10 0 5 5 0 0 1 10 0Zm-2 0a3 3 0 1 0-6 0 3 3 0 0 0 6 0Z"/></svg>