<svg xmlns="http://www.w3.org/2000/svg" viewBox="0 0 20 16" fill="currentColor"><path fill-rule="evenodd" d="M14.76 3.37a3.59 3.59 0 0 0-.9-1.5l-.45-.46a1.44 1.44 0 0 0-1.91-.1c-.88.7-2.12.7-3 0a1.44 1.44 0 0 0-1.9.1l-.46.45c-.42.42-.73.94-.9 1.5l-.77 2.56C2.36 6.3 1 6.86 1 7.5c0 1.1 4.03 2 9 2s9-.9 9-2c0-.64-1.36-1.21-3.47-1.58l-.77-2.55ZM4.73 7.4l.91-.16L6.68 3.8c.1-.33.28-.63.52-.88.24-.23.6-.25.9-.09a3.9 3.9 0 0 0 3.8 0c.3-.16.66-.14.9.1.24.24.42.54.52.87l1.04 3.44.91.16a.1.1 0 0 1 0 .2c-1.42.25-3.25.4-5.27.4-2.02 0-3.85-.15-5.27-.4a.1.1 0 0 1 0-.2Zm6.81 7.37a1.58 1.58 0 0 1-.76-.83l-.55-1.36a.24.24 0 0 0-.13-.14.26.26 0 0 0-.2 0 .24.24 0 0 0-.13.14l-.55 1.36a1.58 1.58 0 0 1-1.73.98l-1.41-.24a2 2 0 0 1-1.51-1.19l-.43-1a1.72 1.72 0 0 1 1.96-2.36l3.44.77a2 2 0 0 0 .92-.01l2.91-.73a2 2 0 0 1 2.32 2.72l-.26.61a2 2 0 0 1-1.5 1.19l-1.42.24c-.33.05-.67 0-.97-.15Zm.67-1.34h.05l1.41-.23a.5.5 0 0 0 .38-.3l.26-.61a.5.5 0 0 0-.57-.68l-2.07.52.5 1.25c0 .02.02.04.04.05ZM5.77 11.6a.22.22 0 0 0-.25.3l.43 1c.07.16.2.27.38.3l1.4.24a.09.09 0 0 0 .1-.06l.49-1.22-2.55-.56Z"/></svg>