<svg xmlns="http://www.w3.org/2000/svg" viewBox="0 0 16 16" fill="currentColor"><path d="M1 3.75A2.75 2.75 0 0 1 3.75 1h8.5A2.75 2.75 0 0 1 15 3.75v5.06a2.75 2.75 0 0 0-1.5-.61V3.75c0-.69-.56-1.25-1.25-1.25h-8.5c-.69 0-1.25.56-1.25 1.25v8.5c0 .69.56 1.25 1.25 1.25h4.47c.07.26.19.52.35.76l.5.74H3.74A2.75 2.75 0 0 1 1 12.25v-8.5Z"/><path d="M14.71 9.96a1.75 1.75 0 0 0-2.5-.43l-2.4 1.8c-.75.56-.92 1.6-.4 2.37l.88 1.34c.56.83 1.7 1.03 2.5.43l2.4-1.8c.75-.56.92-1.6.4-2.37l-.88-1.34Zm-1.6.77a.25.25 0 0 1 .35.07l.9 1.33c.06.1.04.26-.07.34l-1.6 1.2-1.17-1.75 1.58-1.19Z"/></svg>