<svg xmlns="http://www.w3.org/2000/svg" viewBox="0 0 16 16" fill="currentColor"><path d="M8 0c.27 0 .51.14.65.37l2.34 3.98 4.45 1.17a.75.75 0 0 1 .41 1.18l-2.84 3.78.24 4.73a.75.75 0 0 1-1.05.73L8 14.07l-4.2 1.87a.75.75 0 0 1-1.05-.73L3 10.48.15 6.7a.75.75 0 0 1 .4-1.18l4.46-1.17L7.35.37A.75.75 0 0 1 8 0Zm0 2.23L6.15 5.38c-.1.17-.27.3-.46.35l-3.67.96L4.35 9.8c.1.14.16.31.15.49l-.19 3.78 3.39-1.5c.19-.1.41-.1.6 0l3.39 1.5-.19-3.78c0-.18.04-.35.15-.49l2.33-3.1-3.67-.97a.75.75 0 0 1-.46-.35L8 2.23Z"/></svg>