<svg xmlns="http://www.w3.org/2000/svg" viewBox="0 0 20 16" fill="currentColor"><path d="M11.78 1.28A.75.75 0 1 0 10.72.22l-1.5 1.5a.75.75 0 1 0 1.06 1.06l1.5-1.5Z"/><path fill-rule="evenodd" d="m2.94 8.16 2.9-.38L7.1 5.14a1 1 0 0 1 1.8 0l1.26 2.64 2.9.38a1 1 0 0 1 .55 1.72l-2.11 2 .53 2.88a1 1 0 0 1-1.46 1.06L8 14.42l-2.57 1.4a1 1 0 0 1-1.46-1.06l.53-2.87-2.1-2.01a1 1 0 0 1 .55-1.72Zm6.22 1L8 6.73 6.84 9.16l-2.66.35 1.95 1.85-.5 2.64L8 12.72 10.36 14l-.49-2.64 1.95-1.85-2.66-.35Z"/><path d="M17.78 6.22c.3.3.3.77 0 1.06l-1.5 1.5a.75.75 0 0 1-1.06-1.06l1.5-1.5c.3-.3.77-.3 1.06 0Zm0-4.94A.75.75 0 1 0 16.72.22l-5 5a.75.75 0 1 0 1.06 1.06l5-5Z"/></svg>