<svg xmlns="http://www.w3.org/2000/svg" viewBox="0 0 20 16" fill="currentColor"><path fill-rule="evenodd" d="m10 2.4 1.74 2.54c.32.47.8.82 1.35.98l2.95.87-1.88 2.43a2.5 2.5 0 0 0-.51 1.6l.08 3.06-2.9-1.02a2.5 2.5 0 0 0-1.67 0l-2.9 1.02.1-3.06a2.5 2.5 0 0 0-.52-1.6L3.96 6.8l2.95-.87a2.5 2.5 0 0 0 1.35-.98L10 2.4Zm.82-1.45a1 1 0 0 0-1.64 0L7.03 4.1a1 1 0 0 1-.55.4L2.84 5.55a1 1 0 0 0-.51 1.57l2.32 3a1 1 0 0 1 .2.64l-.1 3.8a1 1 0 0 0 1.33.97l3.58-1.27a1 1 0 0 1 .68 0l3.58 1.27a1 1 0 0 0 1.33-.97l-.1-3.8a1 1 0 0 1 .2-.63l2.32-3.01a1 1 0 0 0-.51-1.57l-3.64-1.08a1 1 0 0 1-.55-.4L10.82.96Z"/></svg>