<svg xmlns="http://www.w3.org/2000/svg" viewBox="0 0 24 24" fill="currentColor"><path fill-rule="evenodd" d="M6.76 3a4 4 0 0 0-3.84 2.9l-1 3.52A1.5 1.5 0 0 0 4 11.18V21h2V10.61a2 2 0 0 1 .61.25l.04.02a4 4 0 0 0 4.2 0l.1-.06a2 2 0 0 1 2.1 0l.1.06a4 4 0 0 0 4.2 0l.04-.02a2 2 0 0 1 .61-.25V13h-3a2 2 0 0 0-2 2v6h2v-6h3v6h2v-9.82a1.5 1.5 0 0 0 2.09-1.76l-1-3.52A4 4 0 0 0 17.23 3H6.76ZM4.84 6.45A2 2 0 0 1 6.76 5h10.48a2 2 0 0 1 1.92 1.45l.68 2.37a4 4 0 0 0-3.5.34l-.04.02a2 2 0 0 1-2.1 0l-.1-.06a4 4 0 0 0-4.2 0l-.1.06a2 2 0 0 1-2.1 0l-.04-.02a4 4 0 0 0-3.5-.34l.68-2.37Z"/><path d="M9 13a1 1 0 0 0-1 1v1a1 1 0 0 0 1 1h1a1 1 0 0 0 1-1v-1a1 1 0 0 0-1-1H9Z"/></svg>