<svg xmlns="http://www.w3.org/2000/svg" viewBox="0 0 20 16" fill="currentColor"><path fill-rule="evenodd" d="M1.5 16V6.6A2 2 0 0 1 .42 4.3l.7-2.79A2 2 0 0 1 3.06 0h13.88a2 2 0 0 1 1.94 1.51l.7 2.8A2 2 0 0 1 18.5 6.6V16H17V9.5h-3.75a.25.25 0 0 0-.25.25V16h-1.5V9.75c0-.97.78-1.75 1.75-1.75H17V6.78a2 2 0 0 1-.24-.08l-1.02-.4a2 2 0 0 0-1.48 0l-1.02.4a2 2 0 0 1-1.48 0l-1.02-.4a2 2 0 0 0-1.48 0l-1.02.4a2 2 0 0 1-1.48 0l-1.02-.4a2 2 0 0 0-1.48 0l-1.02.4a2 2 0 0 1-.24.08V16H1.5Zm.68-10.74.13.05a.5.5 0 0 0 .38 0l1.01-.4a3.5 3.5 0 0 1 2.6 0l1.01.4a.5.5 0 0 0 .38 0l1.01-.4a3.5 3.5 0 0 1 2.6 0l1.01.4a.5.5 0 0 0 .38 0l1.01-.4a3.5 3.5 0 0 1 2.6 0l1.01.4a.5.5 0 0 0 .38 0l.13-.05a.5.5 0 0 0 .3-.59l-.7-2.8a.5.5 0 0 0-.48-.37H3.06a.5.5 0 0 0-.48.38l-.7 2.79a.5.5 0 0 0 .3.59Z"/><path fill-rule="evenodd" d="M4.5 10c0-1.1.9-2 2-2H8a2 2 0 0 1 2 2v1.5a2 2 0 0 1-2 2H6.5a2 2 0 0 1-2-2V10Zm2-.5a.5.5 0 0 0-.5.5v1.5c0 .28.22.5.5.5H8a.5.5 0 0 0 .5-.5V10a.5.5 0 0 0-.5-.5H6.5Z"/></svg>