<svg xmlns="http://www.w3.org/2000/svg" viewBox="0 0 20 16" fill="currentColor"><path d="M4.37 12.57c-.3.3-.33.79-.03 1.09.3.3.79.27 1.09-.03l1.07-1.07c.28-.28.24-.74-.04-1.02-.28-.28-.74-.32-1.02-.04l-1.07 1.07ZM2.76 8.75A.74.74 0 0 1 2 8.03v-.06c0-.4.35-.72.76-.72H4.3c.4 0 .7.35.7.75s-.3.75-.7.75H2.76Zm1.61-5.32a.77.77 0 0 1-.03-1.09c.3-.3.79-.27 1.09.03L6.5 3.44c.28.28.24.74-.04 1.02-.28.28-.74.32-1.02.04L4.37 3.43Zm4.88 11.79c0 .42.32.78.74.78h.02c.42 0 .74-.36.74-.78V13.7c0-.4-.35-.7-.75-.7s-.75.3-.75.7v1.52Zm6.41-1.56c.3-.3.27-.79-.03-1.09l-1.07-1.07c-.28-.28-.74-.24-1.02.04-.28.28-.32.74-.04 1.02l1.07 1.07c.3.3.79.33 1.09.03ZM18 8a.77.77 0 0 0-.79-.75H15.7c-.4 0-.7.35-.7.75s.3.75.7.75h1.51c.43 0 .79-.32.79-.75Zm-2.34-5.66a.77.77 0 0 0-1.09.03L13.5 3.44c-.28.28-.24.74.04 1.02.28.28.74.32 1.02.04l1.07-1.07c.3-.3.33-.79.03-1.09ZM10 0a.77.77 0 0 0-.75.79V2.3c0 .4.35.7.75.7s.75-.3.75-.7V.8A.77.77 0 0 0 10 0Z"/><path fill-rule="evenodd" d="M13.5 8a3.5 3.5 0 1 1-7 0 3.5 3.5 0 0 1 7 0ZM12 8a2 2 0 1 0-4 0 2 2 0 0 0 4 0Z"/></svg>