<svg xmlns="http://www.w3.org/2000/svg" viewBox="0 0 20 16" fill="currentColor"><path d="M6.5 12.5a1 1 0 1 1-2 0 1 1 0 0 1 2 0Z"/><path fill-rule="evenodd" d="M9 4V2a2 2 0 0 0-2-2H4a2 2 0 0 0-2 2v10.5A3.5 3.5 0 0 0 5.5 16H16a2 2 0 0 0 2-2v-3a2 2 0 0 0-2-2h-2.09l-1.49 1.5H16c.28 0 .5.22.5.5v3a.5.5 0 0 1-.5.5H8.44l-.32.32 7.28-7.31c.78-.79.78-2.06 0-2.84l-2.12-2.13a2 2 0 0 0-2.83 0L9 3.99ZM3.5 5.5h4V8h-4V5.5Zm0-1.5V2c0-.28.22-.5.5-.5h3c.28 0 .5.22.5.5v2h-4ZM9 11.81v-5.7l2.51-2.52c.2-.2.51-.2.7 0l2.13 2.13c.2.2.2.53 0 .73L9 11.81ZM3.5 9.5h4v3a2 2 0 1 1-4 0v-3Z"/></svg>