<svg xmlns="http://www.w3.org/2000/svg" viewBox="0 0 20 20" fill="currentColor"><path d="M6.5 14.5a1 1 0 1 1-2 0 1 1 0 0 1 2 0Z"/><path fill-rule="evenodd" d="M1 4v10.5a4.48 4.48 0 0 0 1.22 3.08 4.55 4.55 0 0 0 1.54 1.07c.53.23 1.12.35 1.74.35H16a3 3 0 0 0 3-3v-3a3 3 0 0 0-2.76-2.99 3 3 0 0 0-.43-3.7L13.7 4.19a3 3 0 0 0-3.7-.43A3 3 0 0 0 7 1H4a3 3 0 0 0-3 3Zm2 3.5h5V10H3V7.5Zm0 7V12h5v2.5a2.5 2.5 0 0 1-5 0Zm0-9V4a1 1 0 0 1 1-1h3a1 1 0 0 1 1 1v1.5H3Zm7 .96.86-.86a1 1 0 0 1 1.42 0l2.12 2.12a1 1 0 0 1 0 1.42l-4.4 4.4V6.46ZM9.36 17l5-5H16a1 1 0 0 1 1 1v3a1 1 0 0 1-1 1H9.36Z"/></svg>