<svg xmlns="http://www.w3.org/2000/svg" viewBox="0 0 20 16" fill="currentColor"><path fill-rule="evenodd" d="M3 0a2 2 0 0 0-2 2v12c0 1.1.9 2 2 2h8.23a5.52 5.52 0 0 1-1.13-1.5h-.35v-.86a5.5 5.5 0 0 1 .23-3.89h-.23v-3.5h5.75v.27c.52.05 1.03.17 1.5.35V2a2 2 0 0 0-2-2H3Zm12 1.5c.28 0 .5.22.5.5v2.75H9.75V1.5H15Zm-6.75 13H3a.5.5 0 0 1-.5-.5v-2.75h5.75v3.25Zm0-4.75H2.5v-3.5h5.75v3.5Zm-5.75-5V2c0-.28.22-.5.5-.5h5.25v3.25H2.5Z"/><path fill-rule="evenodd" d="M15 16a4 4 0 1 0 0-8 4 4 0 0 0 0 8Zm.75-5.75v1.44l.5.5a.75.75 0 0 1-1.06 1.06l-.65-.65a1 1 0 0 1-.29-.7v-1.65a.75.75 0 0 1 1.5 0Z"/></svg>