<svg xmlns="http://www.w3.org/2000/svg" viewBox="0 0 16 16" fill="currentColor"><path d="M3.75 1A2.75 2.75 0 0 0 1 3.75v2.67c0 .73.29 1.43.8 1.95l5.5 5.5c.35.34.76.58 1.2.7a4.48 4.48 0 0 1-.5-2.13L2.87 7.31a1.25 1.25 0 0 1-.37-.89V3.75c0-.69.56-1.25 1.25-1.25h2.9c.34 0 .66.14.9.38L12.5 8c.76 0 1.48.19 2.1.52a2.74 2.74 0 0 0-.68-1.2l-5.3-5.48A2.75 2.75 0 0 0 6.66 1h-2.9Z"/><path d="M5 6a1 1 0 1 0 0-2 1 1 0 0 0 0 2Zm11 6.5a3.5 3.5 0 1 1-7 0 3.5 3.5 0 0 1 7 0ZM12.5 10a.5.5 0 0 0-.5.5V12h-1.5a.5.5 0 1 0 0 1H12v1.5a.5.5 0 0 0 1 0V13h1.5a.5.5 0 1 0 0-1H13v-1.5a.5.5 0 0 0-.5-.5Z"/></svg>