<svg xmlns="http://www.w3.org/2000/svg" viewBox="0 0 20 16" fill="currentColor"><path d="M16.75 7.5c-.41 0-.75-.34-.8-.75a6 6 0 0 0-11.9 0c-.05.41-.39.75-.8.75a.7.7 0 0 1-.71-.75 7.5 7.5 0 0 1 14.92 0 .7.7 0 0 1-.71.75Z"/><path d="M14.94 6.75c.07.41-.28.75-.69.75-.41 0-.74-.34-.83-.74a3.5 3.5 0 0 0-6.84 0c-.09.4-.42.74-.83.74s-.76-.34-.7-.75a5 5 0 0 1 9.9 0Z"/><path fill-rule="evenodd" d="M12.5 7.5a2.5 2.5 0 0 1-1.75 2.39v4.61h1.5a.75.75 0 0 1 0 1.5h-4.5a.75.75 0 0 1 0-1.5h1.5V9.89A2.5 2.5 0 1 1 12.5 7.5Zm-2.5 1a1 1 0 1 0 0-2 1 1 0 0 0 0 2Z"/></svg>