<svg xmlns="http://www.w3.org/2000/svg" viewBox="0 0 16 16" fill="currentColor"><path d="M5 1.75C5 .78 5.78 0 6.75 0h2.5C10.22 0 11 .78 11 1.75v.75h3.25a.75.75 0 0 1 0 1.5h-.31l-.79 9.48A2.75 2.75 0 0 1 10.41 16H5.59a2.75 2.75 0 0 1-2.74-2.52L2.06 4h-.31a.75.75 0 0 1 0-1.5H5v-.75Zm1.5.75h3v-.75a.25.25 0 0 0-.25-.25h-2.5a.25.25 0 0 0-.25.25v.75ZM3.57 4l.77 9.35c.06.65.6 1.15 1.25 1.15h4.82c.65 0 1.2-.5 1.25-1.15L12.43 4H3.57Zm2.68 1.5c.41 0 .75.34.75.75v6a.75.75 0 0 1-1.5 0v-6c0-.41.34-.75.75-.75Zm3.5 0c.41 0 .75.34.75.75v6a.75.75 0 0 1-1.5 0v-6c0-.41.34-.75.75-.75Z"/></svg>