<svg xmlns="http://www.w3.org/2000/svg" viewBox="0 0 20 16" fill="currentColor"><path fill-rule="evenodd" d="M9.25 12H5a3 3 0 0 1-1.62-5.53 3 3 0 0 1 2.99-4.45A4.07 4.07 0 0 1 10 0c1.85 0 3.4 1.1 3.86 2.58a2.5 2.5 0 0 1 2.69 3.85A3 3 0 0 1 15 12h-4.25v3.25a.75.75 0 0 1-1.5 0V12ZM4.19 7.73A1.5 1.5 0 0 0 5 10.5h4.25V9.31L7.47 7.53a.75.75 0 0 1 1.06-1.06l.72.72V6a.75.75 0 0 1 1.5 0v2.19l.72-.72a.75.75 0 1 1 1.06 1.06l-1.78 1.78v.19H15a1.5 1.5 0 0 0 .77-2.79L14.4 6.9l.92-1.32a1 1 0 0 0-1.08-1.54l-1.39.37-.42-1.37C12.19 2.26 11.29 1.5 10 1.5c-1.1 0-1.95.57-2.3 1.23l-.49.9-1.02-.12L6 3.5a1.5 1.5 0 0 0-1.3 2.23l.69 1.24-1.2.76Z"/></svg>