<svg xmlns="http://www.w3.org/2000/svg" viewBox="0 0 20 16" fill="currentColor"><path fill-rule="evenodd" d="M10.75 13c.97 0 1.75-.78 1.75-1.75v-1.5c0-.69-.56-1.25-1.25-1.25h-2.5c-.69 0-1.25.56-1.25 1.25v1.5c0 .97.78 1.75 1.75 1.75h1.5Zm.25-1.75c0 .14-.11.25-.25.25h-1.5a.25.25 0 0 1-.25-.25V10h2v1.25Z"/><path fill-rule="evenodd" d="M3.5 3.75c0 .7.4 1.3 1 1.58V9h-.75C2.78 9 2 9.78 2 10.75v1.75c0 .97.78 1.75 1.75 1.75h.86A2.5 2.5 0 0 0 7 16h6a2.5 2.5 0 0 0 2.39-1.75h.86c.97 0 1.75-.78 1.75-1.75v-2c0-.97-.78-1.75-1.75-1.75h-.75V5.33c.6-.28 1-.88 1-1.58v-2C16.5.78 15.72 0 14.75 0h-9.5C4.28 0 3.5.78 3.5 1.75v2Zm1.5-2c0-.14.11-.25.25-.25H7.5V4H5.25A.25.25 0 0 1 5 3.75v-2ZM9 4V1.5h2V4H9Zm3.5 0V1.5h2.25c.14 0 .25.11.25.25v2c0 .14-.11.25-.25.25H12.5ZM11 6.75a.75.75 0 0 0 1.5 0V5.5H14v8a1 1 0 0 1-1 1H7a1 1 0 0 1-1-1v-8h1.5v1.25a.75.75 0 0 0 1.5 0V5.5h2v1.25ZM3.75 10.5h.75v2.25h-.75a.25.25 0 0 1-.25-.25v-1.75c0-.14.11-.25.25-.25Zm12.5 2.25h-.75v-2.5h.75c.14 0 .25.11.25.25v2c0 .14-.11.25-.25.25Z"/></svg>