<svg xmlns="http://www.w3.org/2000/svg" viewBox="0 0 20 16" fill="currentColor"><path d="M10 4.5a2 2 0 1 0 0-4 2 2 0 0 0 0 4Z"/><path d="M12 6.8c1.3-.21 2.56-.64 3.75-1.29.36-.2.47-.66.25-1.01a.8.8 0 0 0-1.05-.26 10.57 10.57 0 0 1-9.9 0A.8.8 0 0 0 4 4.5a.72.72 0 0 0 .25 1.01A11.7 11.7 0 0 0 8 6.81v3.16c0 .16-.04.3-.1.45a2.5 2.5 0 0 0-.03.11l-1.34 4.02a.75.75 0 1 0 1.42.47l1.34-4.01a.75.75 0 0 1 1.42 0l1.34 4.02a.75.75 0 0 0 1.42-.47l-1.34-4.03a2.6 2.6 0 0 0-.03-.1c-.06-.15-.1-.3-.1-.46V6.8Z"/></svg>