<svg xmlns="http://www.w3.org/2000/svg" viewBox="0 0 20 16" fill="currentColor"><path fill-rule="evenodd" d="M7.86 7.5a3.75 3.75 0 1 0 0-7.5 3.75 3.75 0 0 0 0 7.5Zm0-6a2.25 2.25 0 1 1 0 4.5 2.25 2.25 0 0 1 0-4.5Zm2.87 13.97a5.5 5.5 0 0 1-.79-1.31c-.65.22-1.34.34-2.07.34h-.03a6.48 6.48 0 0 1-5.05-2.42 1.3 1.3 0 0 1-.29-.7c0-.17.04-.21.06-.23.19-.17.42-.29.68-.33 2.14-.37 4.31-.48 6.47-.33a5.5 5.5 0 0 1 .66-1.46 28.67 28.67 0 0 0-7.38.31c-.55.1-1.04.34-1.43.7-.85.76-.65 2.09.07 2.98A7.98 7.98 0 0 0 7.83 16h.05c1 0 1.96-.19 2.85-.53ZM15 16a4 4 0 1 0 0-8 4 4 0 0 0 0 8Zm.75-5.75v1.44l.5.5a.75.75 0 0 1-1.06 1.06l-.65-.65a1 1 0 0 1-.29-.7v-1.65a.75.75 0 0 1 1.5 0Z"/><path fill-rule="evenodd" d="M7.86 7.5a3.75 3.75 0 1 0 0-7.5 3.75 3.75 0 0 0 0 7.5Zm0-6a2.25 2.25 0 1 1 0 4.5 2.25 2.25 0 0 1 0-4.5Z"/><path d="M10.73 15.47a5.5 5.5 0 0 1-.79-1.31c-.65.22-1.34.34-2.07.34h-.03a6.48 6.48 0 0 1-5.05-2.42 1.3 1.3 0 0 1-.29-.7c0-.17.04-.21.06-.23.19-.17.42-.29.68-.33 2.14-.37 4.31-.48 6.47-.33a5.5 5.5 0 0 1 .66-1.46 28.67 28.67 0 0 0-7.38.31c-.55.1-1.04.34-1.43.7-.85.76-.65 2.09.07 2.98A7.98 7.98 0 0 0 7.83 16h.05c1 0 1.96-.19 2.85-.53Z"/><path fill-rule="evenodd" d="M15 16a4 4 0 1 0 0-8 4 4 0 0 0 0 8Zm.75-5.75v1.44l.5.5a.75.75 0 0 1-1.06 1.06l-.65-.65a1 1 0 0 1-.29-.7v-1.65a.75.75 0 0 1 1.5 0Z"/></svg>