<svg xmlns="http://www.w3.org/2000/svg" viewBox="0 0 24 24" fill="currentColor"><path fill-rule="evenodd" d="M15.3 7a3.5 3.5 0 1 1-7 0 3.5 3.5 0 0 1 7 0Zm-2 0a1.5 1.5 0 1 0-3 0 1.5 1.5 0 0 0 3 0Z"/><path d="M7.01 15.77c0-.34.25-.64.59-.7 1.26-.23 2.54-.35 3.82-.38.34-.01.62-.28.72-.6.18-.58-.17-1.42-.77-1.4a27.1 27.1 0 0 0-4.12.41A2.71 2.71 0 0 0 5 15.77c0 .69.2 1.37.65 1.88a8.48 8.48 0 0 0 5.35 2.8c.55.06 1-.4.99-.95 0-.55-.44-1-.99-1.08a6.48 6.48 0 0 1-3.86-2.1c-.04-.05-.14-.22-.14-.55ZM21 12c.32 0 .58-.31.42-.58A4 4 0 0 0 18 9.5h-1a1 1 0 1 0 0 2h1a2 2 0 0 1 1.02.28c.2.12.44.22.68.22H21Zm-15-.5a2 2 0 0 0-2 2v1a1 1 0 1 1-2 0v-1a4 4 0 0 1 4-4h1a1 1 0 0 1 0 2H6ZM5 8a2 2 0 1 0 0-4 2 2 0 0 0 0 4Zm16-2a2 2 0 1 1-4 0 2 2 0 0 1 4 0Zm-6 8a1 1 0 1 0 0 2h6a1 1 0 1 0 0-2h-6Zm-1 4a1 1 0 0 1 1-1h6a1 1 0 1 1 0 2h-6a1 1 0 0 1-1-1Zm1 2a1 1 0 1 0 0 2h6a1 1 0 1 0 0-2h-6Z"/></svg>