<svg xmlns="http://www.w3.org/2000/svg" viewBox="0 0 20 16" fill="currentColor"><path fill-rule="evenodd" d="M6.07 11.72c2.6-.3 5.25-.3 7.86 0 .69.08 1.23.35 1.56.66a.82.82 0 0 1-.27.37A8.17 8.17 0 0 1 10 14.5c-2.12 0-3.97-.7-5.22-1.75a.82.82 0 0 1-.27-.37c.33-.31.87-.58 1.56-.66Zm9.44.69ZM3.48 11.29c-.8.76-.53 1.88.34 2.6A9.66 9.66 0 0 0 10 16a9.6 9.6 0 0 0 6.18-2.1c.87-.73 1.15-1.85.34-2.6a4.2 4.2 0 0 0-2.42-1.07c-2.72-.3-5.48-.3-8.2 0-.98.1-1.83.5-2.42 1.06Z"/><path d="M14 6v-.5a4 4 0 0 0-7.93-.75c-.08.41-.4.75-.82.75-.41 0-.76-.34-.7-.75a5.5 5.5 0 0 1 10.95.75V6a3 3 0 0 1-3 3h-1.87a1 1 0 0 1-.13 0h-1a1 1 0 1 1 0-2h1c.37 0 .7.2.87.5h1.13c.83 0 1.5-.67 1.5-1.5Z"/><path d="M11.34 6.18a1.5 1.5 0 1 0-2.67 0 2 2 0 0 0-1.05 1.14 3 3 0 1 1 5.27-1 .5.5 0 0 1-.39.18h-.68a2 2 0 0 0-.48-.32Z"/></svg>