<svg xmlns="http://www.w3.org/2000/svg" viewBox="0 0 20 16" fill="currentColor"><path fill-rule="evenodd" d="M7.86 7.5a3.75 3.75 0 1 0 0-7.5 3.75 3.75 0 0 0 0 7.5Zm0-6a2.25 2.25 0 1 1 0 4.5 2.25 2.25 0 0 1 0-4.5Zm1.71 14.32a2.25 2.25 0 0 1 .18-1.6 6.5 6.5 0 0 1-1.88.28h-.03a6.48 6.48 0 0 1-5.05-2.42 1.3 1.3 0 0 1-.29-.7c-.01-.17.04-.21.06-.23.19-.17.42-.29.68-.33a26 26 0 0 1 6.82-.3c.04-.06.09-.1.13-.14a2.24 2.24 0 0 1-.68-1.4 27.92 27.92 0 0 0-6.52.36c-.55.1-1.04.34-1.43.7-.85.76-.65 2.09.07 2.98A7.98 7.98 0 0 0 7.83 16h.05c.58 0 1.15-.06 1.7-.18Z"/><rect x="11" y="8" rx=".75"/><rect x="11" y="11.25" rx=".75"/><rect x="11" y="14.5" rx=".75"/><path fill-rule="evenodd" d="M11.6 3.75a3.75 3.75 0 1 1-7.5 0 3.75 3.75 0 0 1 7.5 0Zm-1.5 0a2.25 2.25 0 1 0-4.5 0 2.25 2.25 0 0 0 4.5 0Z"/><path d="M9.5 15.25c0 .2.02.38.07.57-.54.12-1.11.18-1.7.18h-.03a7.98 7.98 0 0 1-6.21-2.98c-.72-.9-.92-2.22-.07-2.99.39-.35.88-.6 1.43-.69 2.15-.37 4.34-.5 6.52-.37.05.55.3 1.04.68 1.4l-.13.14a27.17 27.17 0 0 0-6.82.3c-.26.05-.5.17-.68.34-.02.02-.07.06-.06.23.01.2.11.47.3.7a6.5 6.5 0 0 0 5.04 2.42h.03c.66 0 1.29-.1 1.88-.28-.16.3-.25.66-.25 1.03ZM11.75 8a.75.75 0 0 0 0 1.5h6.5a.75.75 0 0 0 0-1.5h-6.5ZM11 12c0-.41.34-.75.75-.75h6.5a.75.75 0 0 1 0 1.5h-6.5A.75.75 0 0 1 11 12Zm.75 2.5a.75.75 0 0 0 0 1.5h6.5a.75.75 0 0 0 0-1.5h-6.5Z"/></svg>