<svg xmlns="http://www.w3.org/2000/svg" viewBox="0 0 20 20" fill="currentColor"><path fill-rule="evenodd" d="M13.3 5a3.5 3.5 0 1 1-7 0 3.5 3.5 0 0 1 7 0Zm-2 0a1.5 1.5 0 1 0-3 0 1.5 1.5 0 0 0 3 0ZM3.66 15.65a2.8 2.8 0 0 1-.65-1.88c0-1.31.94-2.44 2.24-2.67a27.1 27.1 0 0 1 9.53 0A2.71 2.71 0 0 1 17 13.77c0 .69-.2 1.37-.65 1.88a8.48 8.48 0 0 1-12.7 0Zm1.35-1.88c0 .33.1.5.14.55a6.48 6.48 0 0 0 9.72 0c.05-.05.14-.22.14-.55a.71.71 0 0 0-.59-.7c-2.91-.52-5.9-.52-8.82 0a.71.71 0 0 0-.59.7Z"/><path d="M4 9.5a2 2 0 0 0-2 2v1a1 1 0 1 1-2 0v-1a4 4 0 0 1 4-4h1a1 1 0 0 1 0 2H4ZM3 6a2 2 0 1 0 0-4 2 2 0 0 0 0 4Zm16-2a2 2 0 1 1-4 0 2 2 0 0 1 4 0Zm-4 5.5h1a2 2 0 0 1 2 2v1a1 1 0 1 0 2 0v-1a4 4 0 0 0-4-4h-1a1 1 0 1 0 0 2Z"/></svg>