<svg xmlns="http://www.w3.org/2000/svg" viewBox="0 0 20 16" fill="currentColor"><path fill-rule="evenodd" d="M11.6 3.75a3.75 3.75 0 1 1-7.5 0 3.75 3.75 0 0 1 7.5 0Zm-1.5 0a2.25 2.25 0 1 0-4.5 0 2.25 2.25 0 0 0 4.5 0Z"/><path d="M12.75 14.25v.08A7.96 7.96 0 0 1 7.88 16h-.04a7.98 7.98 0 0 1-6.21-2.98c-.72-.9-.92-2.22-.07-2.99.39-.35.88-.6 1.43-.69 3.22-.56 6.51-.56 9.74 0h.02v.41h-1c-.67 0-1.28.3-1.69.76a27.17 27.17 0 0 0-6.82.3c-.26.05-.5.17-.68.34-.02.02-.07.06-.06.23.01.2.11.47.3.7a6.5 6.5 0 0 0 5.04 2.42h.03c.96 0 1.87-.21 2.7-.59.34.22.74.34 1.18.34h1Z"/><path d="M15.75 8.75v2.5h2.5a.75.75 0 0 1 0 1.5h-2.5v2.5a.75.75 0 0 1-1.5 0v-2.5h-2.5a.75.75 0 0 1 0-1.5h2.5v-2.5a.75.75 0 0 1 1.5 0Z"/></svg>