<svg xmlns="http://www.w3.org/2000/svg" viewBox="0 0 20 20" fill="currentColor"><path fill-rule="evenodd" d="M14.5 4.5a4.5 4.5 0 1 1-9 0 4.5 4.5 0 0 1 9 0Zm-2 0a2.5 2.5 0 1 0-5 0 2.5 2.5 0 0 0 5 0Zm5.4 11.63a9.98 9.98 0 0 1-15.8 0c-.73-.94-.94-2.28-.18-3.2a4.03 4.03 0 0 1 2.55-1.41c3.65-.5 7.41-.5 11.06 0 1.03.14 1.92.67 2.55 1.42.76.91.55 2.25-.18 3.19ZM3.46 14.22l-.01.02v.12c0 .14.08.35.23.54A7.98 7.98 0 0 0 9.99 18h.02a7.98 7.98 0 0 0 6.31-3.1c.15-.2.23-.4.24-.54v-.12l-.02-.02a2.03 2.03 0 0 0-1.28-.72 38.43 38.43 0 0 0-10.52 0 2 2 0 0 0-1.28.72Z"/></svg>