<svg xmlns="http://www.w3.org/2000/svg" viewBox="0 0 20 16" fill="currentColor"><path fill-rule="evenodd" d="M11.75 6.5c-.72 0-1.36.34-1.77.86a3.75 3.75 0 1 1 3.57-.86h-1.8Zm-.75-5A2.25 2.25 0 1 0 11 6a2.25 2.25 0 0 0 0-4.5Z"/><path d="M6.13 9.34c1.12-.2 2.25-.32 3.38-.38.05.56.3 1.05.68 1.41l-.06.07c-1.25.04-2.5.16-3.75.38-.26.04-.5.16-.68.33-.02.02-.07.06-.06.23.01.2.11.47.3.7a6.5 6.5 0 0 0 3.74 2.29 2.24 2.24 0 0 0-.1 1.5 8 8 0 0 1-4.81-2.85c-.72-.9-.92-2.22-.07-2.99.39-.35.88-.6 1.43-.69Zm-.72-2.09c.33 0 .59.26.59.59l-.13.02c-.74.13-1.42.44-1.98.89h-.14c-.69 0-1.25.56-1.25 1.25v1.25a.75.75 0 0 1-1.5 0V10a2.75 2.75 0 0 1 2.75-2.75h1.66ZM3.75 6a2 2 0 1 0 0-4 2 2 0 0 0 0 4Zm8 2a.75.75 0 0 0 0 1.5h6.5a.75.75 0 0 0 0-1.5h-6.5Zm0 3.25a.75.75 0 0 0 0 1.5h6.5a.75.75 0 0 0 0-1.5h-6.5Zm-.75 4c0-.41.34-.75.75-.75h6.5a.75.75 0 0 1 0 1.5h-6.5a.75.75 0 0 1-.75-.75Z"/></svg>