<svg xmlns="http://www.w3.org/2000/svg" viewBox="0 0 20 20" fill="currentColor"><path fill-rule="evenodd" d="M13.06 4.5a4.5 4.5 0 1 1-9 0 4.5 4.5 0 0 1 9 0Zm-2 0a2.5 2.5 0 1 0-5 0 2.5 2.5 0 0 0 5 0Z"/><path d="M2.02 14.22a2 2 0 0 1 1.28-.72c2.92-.4 5.92-.47 8.86-.2a4.5 4.5 0 0 1 1.07-1.9 40.48 40.48 0 0 0-10.2.12 4.03 4.03 0 0 0-2.55 1.42c-.76.91-.55 2.25.18 3.19a10.02 10.02 0 0 0 10.42 3.55A3.01 3.01 0 0 1 11 19v-1.38a8 8 0 0 1-2.43.38h-.02a7.98 7.98 0 0 1-6.32-3.1c-.15-.2-.22-.4-.23-.54v-.12l.02-.02Z"/><path fill-rule="evenodd" d="M20 16a1 1 0 0 0-1-1v-.5a2.5 2.5 0 0 0-5 0v.5a1 1 0 0 0-1 1v3a1 1 0 0 0 1 1h5a1 1 0 0 0 1-1v-3Zm-3-1.5v.5h-1v-.5a.5.5 0 0 1 1 0Zm-.5 4a1 1 0 1 1 0-2 1 1 0 0 1 0 2Z"/></svg>