<svg xmlns="http://www.w3.org/2000/svg" viewBox="0 0 20 16" fill="currentColor"><path fill-rule="evenodd" d="M10 7.5A3.75 3.75 0 1 0 10 0a3.75 3.75 0 0 0 0 7.5Zm0-6A2.25 2.25 0 1 1 10 6a2.25 2.25 0 0 1 0-4.5Zm-6.16 8.83c-.76.92-.5 2.27.32 3.14a7.98 7.98 0 0 0 11.68 0c.81-.87 1.08-2.22.32-3.14a3.64 3.64 0 0 0-2.3-1.28 27.35 27.35 0 0 0-7.73 0c-.92.13-1.73.6-2.29 1.28Zm1.06 1.4c-.03-.22.02-.35.1-.44.33-.4.8-.67 1.34-.75 2.43-.35 4.9-.35 7.32 0 .54.08 1.01.35 1.34.75.08.1.13.22.1.43-.03.23-.15.5-.36.72a6.48 6.48 0 0 1-9.48 0 1.33 1.33 0 0 1-.36-.72ZM5 4.25a2.25 2.25 0 1 1-4.5 0 2.25 2.25 0 0 1 4.5 0Zm-1.5 0a.75.75 0 1 0-1.5 0 .75.75 0 0 0 1.5 0Z"/><path d="M4.7 7.25c.17 0 .3.13.3.3 0 .13-.08.24-.2.29-.58.21-1.1.52-1.56.91h-.49c-.69 0-1.25.56-1.25 1.25v1.25a.75.75 0 0 1-1.5 0V10a2.75 2.75 0 0 1 2.75-2.75H4.7Zm12.55 1.5h-.62c-.41-.36-.9-.65-1.41-.86a.34.34 0 0 1-.22-.31c0-.18.15-.33.33-.33h1.92A2.75 2.75 0 0 1 20 10v1.25a.75.75 0 0 1-1.5 0V10c0-.69-.56-1.25-1.25-1.25Z"/><path fill-rule="evenodd" d="M17.25 6.5a2.25 2.25 0 1 1 0-4.5 2.25 2.25 0 0 1 0 4.5Zm0-1.5a.75.75 0 1 0 0-1.5.75.75 0 0 0 0 1.5Z"/></svg>