<svg xmlns="http://www.w3.org/2000/svg" viewBox="0 0 20 16" fill="currentColor"><path fill-rule="evenodd" d="M7.86 7.5a3.75 3.75 0 1 0 0-7.5 3.75 3.75 0 0 0 0 7.5Zm0-6a2.25 2.25 0 1 1 0 4.5 2.25 2.25 0 0 1 0-4.5Z"/><path d="M10.56 15.53a2.5 2.5 0 0 1-.06-.53v-1.06c-.8.36-1.7.56-2.63.56h-.03a6.48 6.48 0 0 1-5.05-2.42 1.3 1.3 0 0 1-.29-.7c0-.17.04-.21.06-.23.19-.17.42-.29.68-.33 2.54-.44 5.13-.51 7.69-.22.16-.24.37-.45.6-.63.04-.27.1-.53.2-.79-2.9-.39-5.85-.34-8.74.16-.55.1-1.04.34-1.43.7-.85.76-.65 2.09.07 2.98A7.98 7.98 0 0 0 7.83 16h.05c.94 0 1.84-.17 2.68-.47Z"/><path fill-rule="evenodd" d="M18 11v-.5a2.5 2.5 0 0 0-5 0v.5a1 1 0 0 0-1 1v3a1 1 0 0 0 1 1h5a1 1 0 0 0 1-1v-3a1 1 0 0 0-1-1Zm-1.5 0h-2v-.5a1 1 0 1 1 2 0v.5Zm-.25 2.5a.75.75 0 1 1-1.5 0 .75.75 0 0 1 1.5 0Z"/></svg>