<svg xmlns="http://www.w3.org/2000/svg" viewBox="0 0 20 16" fill="currentColor"><path fill-rule="evenodd" d="M10 7.5A3.75 3.75 0 1 0 10 0a3.75 3.75 0 0 0 0 7.5Zm0-6A2.25 2.25 0 1 1 10 6a2.25 2.25 0 0 1 0-4.5Zm.02 14.5a7.99 7.99 0 0 0 6.2-2.98c.72-.9.93-2.22.08-2.99-.4-.35-.88-.6-1.43-.69a28.67 28.67 0 0 0-9.74 0c-.55.1-1.04.34-1.43.7-.85.76-.65 2.09.07 2.98A7.98 7.98 0 0 0 9.97 16h.05Zm-5.38-4.62c0-.17.04-.21.06-.23.19-.17.42-.29.68-.33 3.06-.53 6.18-.53 9.23 0 .27.04.5.16.68.33.02.02.07.06.06.23-.01.2-.1.47-.3.7a6.48 6.48 0 0 1-5.04 2.42h-.03a6.48 6.48 0 0 1-5.05-2.42 1.3 1.3 0 0 1-.29-.7Z"/><path d="M17.25 8.75h-.15a4.36 4.36 0 0 0-1.98-.89L15 7.84v-.59h2.25A2.75 2.75 0 0 1 20 10v2h-1.5v-2c0-.69-.56-1.25-1.25-1.25Zm-14.35 0a4.36 4.36 0 0 1 1.97-.89L5 7.84v-.59H2.75A2.75 2.75 0 0 0 0 10v2h1.5v-2c0-.69.56-1.25 1.25-1.25h.14ZM2.75 6a2 2 0 1 0 0-4 2 2 0 0 0 0 4Zm12.5-2a2 2 0 1 0 4 0 2 2 0 0 0-4 0Z"/></svg>