<svg xmlns="http://www.w3.org/2000/svg" viewBox="0 0 20 16" fill="currentColor"><path fill-rule="evenodd" d="M13.75 3.75a3.75 3.75 0 1 1-7.5 0 3.75 3.75 0 0 1 7.5 0Zm-1.5 0a2.25 2.25 0 1 0-4.5 0 2.25 2.25 0 0 0 4.5 0Zm3.98 9.27A7.98 7.98 0 0 1 10.02 16h-.04a7.99 7.99 0 0 1-6.21-2.98c-.72-.9-.92-2.22-.07-2.99.4-.35.88-.6 1.43-.69 3.22-.56 6.52-.56 9.74 0 .55.1 1.04.34 1.43.7.85.76.65 2.09-.07 2.98ZM4.7 11.15c-.02.02-.07.06-.06.23.02.2.11.47.3.7a6.5 6.5 0 0 0 5.04 2.42h.04c2.03 0 3.85-.95 5.04-2.42.19-.23.28-.5.3-.7 0-.17-.04-.21-.06-.23a1.36 1.36 0 0 0-.68-.33 27.17 27.17 0 0 0-9.24 0c-.26.04-.49.16-.68.33Z"/></svg>