<svg xmlns="http://www.w3.org/2000/svg" viewBox="0 0 21 20" fill="currentColor"><path fill-rule="evenodd" d="M14 4.5a4.5 4.5 0 1 1-9 0 4.5 4.5 0 0 1 9 0Zm-2 0a2.5 2.5 0 1 0-5 0 2.5 2.5 0 0 0 5 0Z"/><path d="M11 19c0 .3.04.6.13.87-.53.08-1.07.13-1.62.13h-.02a9.98 9.98 0 0 1-7.9-3.87c-.72-.94-.93-2.28-.17-3.2a4.03 4.03 0 0 1 2.55-1.41c2.52-.35 5.09-.46 7.64-.33a2.99 2.99 0 0 0-.6 1.98 37.3 37.3 0 0 0-6.77.33 2.03 2.03 0 0 0-1.3.74v.12c.02.14.09.35.24.54A7.98 7.98 0 0 0 9.49 18h.02c.6 0 1.18-.07 1.74-.2A3 3 0 0 0 11 19Zm3-7a1 1 0 1 0 0 2h6a1 1 0 1 0 0-2h-6Zm-1 4a1 1 0 0 1 1-1h6a1 1 0 1 1 0 2h-6a1 1 0 0 1-1-1Zm1 2a1 1 0 1 0 0 2h6a1 1 0 1 0 0-2h-6Z"/></svg>