<svg xmlns="http://www.w3.org/2000/svg" viewBox="0 0 24 24" fill="currentColor"><path fill-rule="evenodd" d="M15 6.5a4.5 4.5 0 1 1-9 0 4.5 4.5 0 0 1 9 0Zm-2 0a2.5 2.5 0 1 0-5 0 2.5 2.5 0 0 0 5 0Z"/><path d="M12.55 19.73A3 3 0 0 0 14.87 21c-1.32.64-2.8 1-4.36 1h-.02a9.98 9.98 0 0 1-7.9-3.87c-.72-.94-.93-2.28-.17-3.2a4.03 4.03 0 0 1 2.55-1.41c3.45-.48 7-.5 10.47-.08-.28.45-.44.99-.44 1.56-.45 0-.87.1-1.26.27-2.82-.23-5.7-.16-8.5.23a2.03 2.03 0 0 0-1.3.74v.12c.02.14.09.35.24.54a7.98 7.98 0 0 0 6.31 3.1h.02c.7 0 1.39-.1 2.04-.27Z"/><path d="M19 15v2h2a1 1 0 1 1 0 2h-2v2a1 1 0 1 1-2 0v-2h-2a1 1 0 1 1 0-2h2v-2a1 1 0 1 1 2 0Z"/></svg>