<svg xmlns="http://www.w3.org/2000/svg" viewBox="0 0 20 16" fill="currentColor"><path fill-rule="evenodd" d="M7.5 7.5a3.75 3.75 0 1 0 0-7.5 3.75 3.75 0 0 0 0 7.5Zm0-6a2.25 2.25 0 1 1 0 4.5 2.25 2.25 0 0 1 0-4.5ZM7.52 16a7.99 7.99 0 0 0 6.2-2.98c.72-.9.93-2.22.08-2.99-.4-.35-.88-.6-1.43-.69a28.67 28.67 0 0 0-9.74 0c-.55.1-1.04.34-1.43.7-.85.76-.65 2.09.07 2.98A7.98 7.98 0 0 0 7.47 16h.05Zm-5.38-4.62c0-.17.04-.21.06-.23.19-.17.42-.29.68-.33 3.06-.53 6.18-.53 9.23 0 .27.04.5.16.68.33.02.02.07.06.06.23-.01.2-.1.47-.3.7a6.48 6.48 0 0 1-5.04 2.42h-.03a6.48 6.48 0 0 1-5.05-2.42 1.3 1.3 0 0 1-.29-.7Z"/><path d="M18.73 13.02a7.98 7.98 0 0 1-6.1 2.98 9.55 9.55 0 0 0 2.17-1.92 6.51 6.51 0 0 0 2.76-2c.18-.23.28-.5.3-.7 0-.17-.05-.21-.07-.23a1.36 1.36 0 0 0-.68-.33c-.44-.08-.88-.14-1.33-.2a3.13 3.13 0 0 0-.86-1.6c.82.07 1.63.18 2.45.32.55.1 1.04.34 1.43.7.85.76.64 2.09-.07 2.98ZM12.5 7.5c-.4 0-.79-.06-1.15-.18.36-.4.67-.84.9-1.33l.25.01a2.25 2.25 0 1 0-.25-4.49 5.28 5.28 0 0 0-.9-1.33A3.75 3.75 0 1 1 12.5 7.5Z"/></svg>