<svg xmlns="http://www.w3.org/2000/svg" viewBox="0 0 16 16" fill="currentColor"><path d="M2.75 3.5c-.69 0-1.25.56-1.25 1.25v6.5c0 .69.56 1.25 1.25 1.25h5c.69 0 1.25-.56 1.25-1.25v-6.5c0-.69-.56-1.25-1.25-1.25h-5ZM0 4.75A2.75 2.75 0 0 1 2.75 2h5a2.75 2.75 0 0 1 2.75 2.75v.04l2.97-1.49A1.75 1.75 0 0 1 16 4.87v6.26c0 1.3-1.37 2.15-2.53 1.57l-2.97-1.5v.04A2.75 2.75 0 0 1 7.75 14h-5A2.75 2.75 0 0 1 0 11.25v-6.5Zm10.5 4.79 3.64 1.82c.16.08.36-.04.36-.23V4.87c0-.19-.2-.3-.36-.23L10.5 6.46v3.08Z"/></svg>