<svg xmlns="http://www.w3.org/2000/svg" viewBox="0 0 16 16" fill="currentColor"><path d="M15.85 5.68a5.7 5.7 0 0 1-2.24 3.17l-.39.28a2.6 2.6 0 0 1-3.55-.54l-.51-.66a1.47 1.47 0 0 0-2.32 0l-.51.66a2.6 2.6 0 0 1-3.55.54l-.4-.28A5.7 5.7 0 0 1 .16 5.68 3.6 3.6 0 0 1 1.28 2l.1-.09A3.8 3.8 0 0 1 3.85 1h8.3c.9 0 1.78.32 2.47.91l.1.09a3.6 3.6 0 0 1 1.13 3.68l-1.45-.4a2.1 2.1 0 0 0-.66-2.15l-.1-.08a2.3 2.3 0 0 0-1.49-.55h-8.3c-.55 0-1.08.2-1.5.55l-.09.08a2.1 2.1 0 0 0-.66 2.15 4.2 4.2 0 0 0 1.65 2.34l.39.28a1.1 1.1 0 0 0 1.5-.23l.52-.66a2.97 2.97 0 0 1 4.68 0l.51.66a1.1 1.1 0 0 0 1.51.23l.4-.28a4.2 4.2 0 0 0 1.64-2.34l1.45.4Z"/><path d="M6 4c0-.41.34-.75.75-.75h2.5a.75.75 0 0 1 0 1.5h-2.5A.75.75 0 0 1 6 4Zm-2.14 7.31a.75.75 0 1 0-1.22.88A6.6 6.6 0 0 0 8 15.13a6.6 6.6 0 0 0 5.36-2.94.75.75 0 1 0-1.22-.88A5.1 5.1 0 0 1 8 13.62a5.1 5.1 0 0 1-4.14-2.3Z"/></svg>