<svg xmlns="http://www.w3.org/2000/svg" viewBox="0 0 20 20" fill="currentColor"><path d="M12 6a1 1 0 1 0 0-2H8a1 1 0 0 0 0 2h4Z"/><path fill-rule="evenodd" d="M.8 1.8c.5-.51 1.19-.8 1.9-.8h14.6A2.7 2.7 0 0 1 20 3.7v2.2a5.4 5.4 0 0 1-2.03 4.21l-.08.07a5.28 5.28 0 0 1-7.34-.72.71.71 0 0 0-1.1 0 5.28 5.28 0 0 1-7.34.72l-.08-.07A5.4 5.4 0 0 1 0 5.9V3.7c0-.72.29-1.4.8-1.92ZM2.7 3a.7.7 0 0 0-.7.7v2.2c0 1.03.47 2 1.28 2.65l.08.07a3.28 3.28 0 0 0 4.56-.45 2.71 2.71 0 0 1 4.16 0 3.28 3.28 0 0 0 4.56.45l.08-.07A3.4 3.4 0 0 0 18 5.89V3.7a.7.7 0 0 0-.7-.71H2.7Z"/><path d="M6.53 15.3c-.37-.38-.97-.52-1.43-.23-.48.3-.63.93-.26 1.36a7.48 7.48 0 0 0 10.89.45c.43-.42.3-1.11-.2-1.43-.44-.27-1-.17-1.39.17a5.48 5.48 0 0 1-7.6-.31Z"/></svg>