<svg xmlns="http://www.w3.org/2000/svg" viewBox="0 0 24 24" fill="currentColor"><path d="M14 8a1 1 0 1 0 0-2h-4a1 1 0 0 0 0 2h4Z"/><path fill-rule="evenodd" d="M3.83 4.76A6 6 0 0 1 8.07 3h7.86a6 6 0 0 1 4.24 1.76l.4.4A4.88 4.88 0 0 1 22 8.6v2.31a4.67 4.67 0 0 1-8.73 2.32l-.51-.9a.87.87 0 0 0-1.52 0l-.51.9A4.67 4.67 0 0 1 2 10.92V8.61c0-1.3.51-2.54 1.43-3.45l.4-.4ZM8.07 5a4 4 0 0 0-2.83 1.17l-.4.4A2.88 2.88 0 0 0 4 8.61v2.31a2.67 2.67 0 0 0 5 1.33l.5-.9a2.87 2.87 0 0 1 5 0l.5.9a2.67 2.67 0 0 0 5-1.33V8.61c0-.77-.3-1.5-.84-2.04l-.4-.4A4 4 0 0 0 15.93 5H8.07Z"/><path d="M8.53 17.3c-.37-.38-.97-.52-1.43-.23-.48.3-.63.93-.26 1.36a7.48 7.48 0 0 0 10.89.45c.43-.42.3-1.11-.2-1.43-.44-.27-1-.17-1.39.17a5.48 5.48 0 0 1-7.6-.31Z"/></svg>