<svg xmlns="http://www.w3.org/2000/svg" viewBox="0 0 16 16" fill="currentColor"><path d="M11.23.21a.75.75 0 0 1 .86-.13l3.5 1.75c.25.13.41.39.41.67v11c0 .28-.16.54-.41.67l-3.5 1.75a.75.75 0 0 1-.86-.13l-4.66-4.55-2.32 2.07a.75.75 0 0 1-.79.13l-3-1.25A.75.75 0 0 1 0 11.5v-7c0-.3.18-.58.46-.7l3-1.24a.75.75 0 0 1 .79.13l2.32 2.07L11.23.21ZM7.69 5.76 9.09 7 11 5.28V2.53L7.7 5.76Zm4.81-3.8v12.08l2-1V2.96l-2-1ZM11 13.46v-2.74l-7.4-6.6-1.51.64 8.91 8.7Zm0-4.75V7.29l-.8.71.8.7ZM1.5 6.28v3.44L3 8.25v-.5L1.5 6.28Zm2.83 2.77-2.24 2.2 1.51.63 1.9-1.7-1.17-1.13Z"/></svg>