<svg xmlns="http://www.w3.org/2000/svg" viewBox="0 0 16 16" fill="currentColor"><path d="M10.25 2a.75.75 0 0 0-1.19-.6L4.82 4.44a.25.25 0 0 1-.14.05h-.93C2.78 4.5 2 5.28 2 6.25v4c0 .97.78 1.75 1.75 1.75h.93c.05 0 .1.02.14.05l4.24 3.06a.75.75 0 0 0 1.19-.61V2ZM5.7 5.67l3.05-2.2v9.56l-3.05-2.2a1.8 1.8 0 0 0-1.02-.33h-.93a.25.25 0 0 1-.25-.25v-4c0-.14.11-.25.25-.25h.93c.36 0 .72-.12 1.02-.33Zm7.42 5.86a.7.7 0 0 1-.99.24c-.36-.22-.46-.7-.27-1.08a5.97 5.97 0 0 0 0-5.38c-.19-.38-.09-.86.27-1.08a.7.7 0 0 1 .99.24 7.47 7.47 0 0 1 0 7.06Z"/></svg>