<svg xmlns="http://www.w3.org/2000/svg" viewBox="0 0 24 24" fill="currentColor"><path fill-rule="evenodd" d="M1 15V9c0-1.1.9-2 2-2h1.24a2 2 0 0 0 1.33-.5L9 3.43a3 3 0 0 1 5 2.25v12.64a3 3 0 0 1-5 2.24l-3.43-3.05A2 2 0 0 0 4.24 17H3a2 2 0 0 1-2-2Zm2 0h1.24a4 4 0 0 1 2.66 1.01l3.44 3.06a1 1 0 0 0 1.66-.75V5.68a1 1 0 0 0-1.66-.75L6.9 8a4 4 0 0 1-2.66 1H3v6Z"/><path d="m16 9.41 2.09 2.09L16 13.59A1 1 0 1 0 17.41 15l2.09-2.09L21.59 15A1 1 0 0 0 23 13.59l-2.09-2.09L23 9.41A1 1 0 0 0 21.59 8l-2.09 2.09L17.41 8A1 1 0 1 0 16 9.41Z"/></svg>