<svg xmlns="http://www.w3.org/2000/svg" viewBox="0 0 20 16" fill="currentColor"><path fill-rule="evenodd" d="M10 14.44c0 .63-.73.98-1.22.59l-3.5-2.81a1 1 0 0 0-.63-.22H3a2 2 0 0 1-2-2V6c0-1.1.9-2 2-2h1.65a1 1 0 0 0 .62-.22L8.78.98a.75.75 0 0 1 1.22.58v12.88ZM2.5 10c0 .28.22.5.5.5h1.65c.57 0 1.12.2 1.56.55l2.29 1.83V3.12L6.21 4.95c-.44.36-1 .55-1.56.55H3a.5.5 0 0 0-.5.5v4Z"/><path d="M17.5 8c0 1.93-.5 3.75-1.38 5.33a.8.8 0 0 0 .26 1.06c.35.21.8.11 1-.24a12.44 12.44 0 0 0 0-12.3.72.72 0 0 0-1-.24.8.8 0 0 0-.25 1.06C17 4.25 17.5 6.07 17.5 8Z"/><path d="M16.5 8a9.9 9.9 0 0 1-1.25 4.84.7.7 0 0 1-1 .24.8.8 0 0 1-.26-1.07A8.46 8.46 0 0 0 14 4a.8.8 0 0 1 .27-1.07.7.7 0 0 1 1 .24A9.95 9.95 0 0 1 16.5 8Z"/><path d="M14 8c0 1.28-.32 2.48-.88 3.53a.7.7 0 0 1-.99.24c-.36-.22-.46-.7-.27-1.08a5.97 5.97 0 0 0 0-5.38c-.19-.38-.09-.86.27-1.08a.7.7 0 0 1 .99.24C13.68 5.52 14 6.72 14 8Z"/></svg>