<svg xmlns="http://www.w3.org/2000/svg" viewBox="0 0 20 16" fill="currentColor"><path fill-rule="evenodd" d="M12.5 14.44c0 .63-.73.98-1.22.59l-3.5-2.81a1 1 0 0 0-.63-.22H5.5a2 2 0 0 1-2-2V6c0-1.1.9-2 2-2h1.65a1 1 0 0 0 .62-.22l3.51-2.8a.75.75 0 0 1 1.22.58v12.88ZM5 10c0 .28.22.5.5.5h1.65c.57 0 1.12.2 1.56.55L11 12.88V3.12L8.71 4.95c-.44.36-1 .55-1.56.55H5.5A.5.5 0 0 0 5 6v4Z"/><path d="M16.5 8c0 1.28-.32 2.48-.88 3.53a.7.7 0 0 1-.99.24c-.36-.22-.46-.7-.27-1.08a5.97 5.97 0 0 0 0-5.38c-.19-.38-.09-.86.27-1.08a.7.7 0 0 1 .99.24c.56 1.05.88 2.25.88 3.53Z"/></svg>