<svg xmlns="http://www.w3.org/2000/svg" viewBox="0 0 16 16" fill="currentColor"><path d="M9.75 2a.75.75 0 0 0-1.19-.6L4.32 4.44a.25.25 0 0 1-.14.05h-.93c-.97 0-1.75.78-1.75 1.75v4c0 .97.78 1.75 1.75 1.75h.93c.05 0 .1.02.14.05l4.24 3.06a.75.75 0 0 0 1.19-.61V2ZM5.2 5.67l3.05-2.2v9.56l-3.05-2.2a1.8 1.8 0 0 0-1.02-.33h-.93a.25.25 0 0 1-.25-.25v-4c0-.14.11-.25.25-.25h.93c.36 0 .72-.12 1.02-.33Zm7.37 6.68a.81.81 0 0 1-.29-1.03 7.97 7.97 0 0 0 0-6.64.81.81 0 0 1 .29-1.03.7.7 0 0 1 1.02.28 9.46 9.46 0 0 1 0 8.14.7.7 0 0 1-1.02.28Z"/></svg>