<svg xmlns="http://www.w3.org/2000/svg" viewBox="0 0 23 20" fill="currentColor"><path fill-rule="evenodd" d="M0 13V7c0-1.1.9-2 2-2h1.24a2 2 0 0 0 1.33-.5L8 1.43a3 3 0 0 1 5 2.25v12.64a3 3 0 0 1-5 2.24l-3.43-3.05A2 2 0 0 0 3.24 15H2a2 2 0 0 1-2-2Zm2 0h1.24a4 4 0 0 1 2.66 1.01l3.44 3.06a1 1 0 0 0 1.66-.75V3.68a1 1 0 0 0-1.66-.75L5.9 6a4 4 0 0 1-2.66 1H2v6Z"/><path d="m15 7.41 2.09 2.09L15 11.59A1 1 0 1 0 16.41 13l2.09-2.09L20.59 13A1 1 0 0 0 22 11.59L19.91 9.5 22 7.41A1 1 0 0 0 20.59 6L18.5 8.09 16.41 6A1 1 0 1 0 15 7.41Z"/></svg>