<svg xmlns="http://www.w3.org/2000/svg" viewBox="0 0 20 16" fill="currentColor"><path fill-rule="evenodd" d="M11 14.44c0 .63-.73.98-1.22.59l-3.5-2.81a1 1 0 0 0-.63-.22H4a2 2 0 0 1-2-2V6c0-1.1.9-2 2-2h1.65a1 1 0 0 0 .62-.22L9.78.98a.75.75 0 0 1 1.22.58v12.88ZM3.5 10c0 .28.22.5.5.5h1.65c.57 0 1.12.2 1.56.55l2.29 1.83V3.12L7.21 4.95c-.44.36-1 .55-1.56.55H4a.5.5 0 0 0-.5.5v4Z"/><path d="M16 8c0 1.45-.36 2.82-1 4.01a.8.8 0 0 0 .26 1.07.7.7 0 0 0 1-.24 9.95 9.95 0 0 0 0-9.68.7.7 0 0 0-1-.24.8.8 0 0 0-.27 1.07A8.37 8.37 0 0 1 16 8Z"/><path d="M15 8c0-1.28-.32-2.48-.88-3.53a.7.7 0 0 0-.99-.24c-.36.22-.46.7-.27 1.08a5.98 5.98 0 0 1 0 5.38c-.19.38-.09.86.27 1.08.35.21.8.12.99-.24.56-1.05.88-2.25.88-3.53Z"/></svg>