<svg xmlns="http://www.w3.org/2000/svg" viewBox="0 0 20 20" fill="currentColor"><path fill-rule="evenodd" d="M1 13V7c0-1.1.9-2 2-2h1.24a2 2 0 0 0 1.33-.5L9 1.43a3 3 0 0 1 5 2.25v12.64a3 3 0 0 1-5 2.24l-3.43-3.05A2 2 0 0 0 4.24 15H3a2 2 0 0 1-2-2Zm2 0h1.24a4 4 0 0 1 2.66 1.01l3.44 3.06a1 1 0 0 0 1.66-.75V3.68a1 1 0 0 0-1.66-.75L6.9 6a4 4 0 0 1-2.66 1H3v6Z"/><path d="M17.36 14.13c-.53.56-1.36.1-1.36-.67v-.44c0-.24.1-.47.24-.67a3.98 3.98 0 0 0 0-4.7c-.15-.2-.24-.43-.24-.67v-.44c0-.77.83-1.23 1.36-.67a5.98 5.98 0 0 1 0 8.26Z"/></svg>