<svg xmlns="http://www.w3.org/2000/svg" viewBox="0 0 22 20" fill="currentColor"><path fill-rule="evenodd" d="M0 7v6c0 1.1.9 2 2 2h1.24a2 2 0 0 1 1.33.5L8 18.57a3 3 0 0 0 5-2.25V3.68a3 3 0 0 0-5-2.24L4.58 4.49A2 2 0 0 1 3.24 5H2a2 2 0 0 0-2 2Zm2 0h1.24A4 4 0 0 0 5.9 5.99l3.44-3.06a1 1 0 0 1 1.66.75v12.64a1 1 0 0 1-1.66.75L5.9 14a4 4 0 0 0-2.66-1H2V7Z"/><path d="M15 13.46c0 .77.83 1.23 1.36.67a5.98 5.98 0 0 0 0-8.26c-.53-.56-1.36-.1-1.36.67v.44c0 .24.1.47.24.67a3.98 3.98 0 0 1 0 4.7c-.15.2-.24.43-.24.67v.44Z"/><path d="M16.27 19.05c-.61.28-1.27-.2-1.27-.87v-.09c0-.4.25-.77.61-.95a8 8 0 0 0 0-14.28 1.08 1.08 0 0 1-.61-.95v-.09c0-.68.66-1.15 1.27-.87a10 10 0 0 1 0 18.1Z"/></svg>