<svg xmlns="http://www.w3.org/2000/svg" viewBox="0 0 16 16" fill="currentColor"><path d="M8.75 2a.75.75 0 0 0-1.19-.6L3.32 4.44a.25.25 0 0 1-.14.05h-.93C1.28 4.5.5 5.28.5 6.25v4c0 .97.78 1.75 1.75 1.75h.93c.05 0 .1.02.14.05l4.24 3.06a.75.75 0 0 0 1.19-.61V2ZM4.2 5.67l3.05-2.2v9.56l-3.05-2.2a1.8 1.8 0 0 0-1.02-.33h-.93a.25.25 0 0 1-.25-.25v-4c0-.14.11-.25.25-.25h.93c.36 0 .72-.12 1.02-.33Zm8.72 6.61a.8.8 0 0 0 .26 1.06.7.7 0 0 0 1-.24 10.45 10.45 0 0 0 0-10.2.7.7 0 0 0-1-.24.8.8 0 0 0-.26 1.06 8.96 8.96 0 0 1 0 8.56Z"/><path d="M11.62 4.47a.7.7 0 0 0-.99-.24c-.36.22-.46.7-.27 1.08a5.97 5.97 0 0 1 0 5.38c-.19.38-.09.86.27 1.08.35.21.8.12.99-.24a7.47 7.47 0 0 0 0-7.06Z"/></svg>