<svg xmlns="http://www.w3.org/2000/svg" viewBox="0 0 16 16" fill="currentColor"><path d="M9.5 0c.41 0 .75.34.75.75v14.5a.75.75 0 0 1-1.5 0V.75c0-.41.34-.75.75-.75ZM4 2c.41 0 .75.34.75.75v10.5a.75.75 0 0 1-1.5 0V2.75c0-.41.34-.75.75-.75Zm8.25 1c.41 0 .75.34.75.75v8.5a.75.75 0 0 1-1.5 0v-8.5c0-.41.34-.75.75-.75Zm-5.5 1.5c.41 0 .75.34.75.75v5.5a.75.75 0 0 1-1.5 0v-5.5c0-.41.34-.75.75-.75ZM15 6c.41 0 .75.34.75.75v2.5a.75.75 0 0 1-1.5 0v-2.5c0-.41.34-.75.75-.75Zm-13.75.5c.41 0 .75.34.75.75v1.5a.75.75 0 0 1-1.5 0v-1.5c0-.41.34-.75.75-.75Z"/></svg>