<svg xmlns="http://www.w3.org/2000/svg" viewBox="0 0 20 16" fill="currentColor"><path d="M10 16a.75.75 0 0 1-.75-.75V.75a.75.75 0 0 1 1.5 0v14.5c0 .41-.34.75-.75.75Zm3-3a.75.75 0 0 1-.75-.75v-8.5a.75.75 0 0 1 1.5 0v8.5c0 .41-.34.75-.75.75Zm2.25-3.75a.75.75 0 0 0 1.5 0v-2.5a.75.75 0 0 0-1.5 0v2.5ZM19 9a.75.75 0 0 1-.75-.75v-.5a.75.75 0 0 1 1.5 0v.5c0 .41-.34.75-.75.75ZM.25 8.25a.75.75 0 0 0 1.5 0v-.5a.75.75 0 0 0-1.5 0v.5ZM4 14a.75.75 0 0 1-.75-.75V2.75a.75.75 0 0 1 1.5 0v10.5c0 .41-.34.75-.75.75Zm2.25-2.75a.75.75 0 0 0 1.5 0v-6.5a.75.75 0 0 0-1.5 0v6.5Z"/></svg>