<svg xmlns="http://www.w3.org/2000/svg" viewBox="0 0 16 16" fill="currentColor"><path d="M8 16A8 8 0 1 0 8 0a8 8 0 0 0 0 16Zm4.41-3.26c-.2.4-1.49 1.17-2.43 1.47a6.52 6.52 0 0 1-5.52-.75c-.73-.48-.89-.68-.89-1.07 0-.78.86-2.16 2.34-3.72.84-.9 2-1.94 2.13-1.9.25.05 2.21 1.96 2.95 2.86 1.16 1.43 1.7 2.6 1.42 3.11ZM6.07 4.92l.16.14a20.03 20.03 0 0 0-3.15 5.1c-.26.7-.36 1.39-.25 1.67.07.2 0 .13-.24-.26a6.71 6.71 0 0 1-1.06-3.16 6.5 6.5 0 0 1 1.7-4.8c.31-.34.34-.34.74-.21a6.8 6.8 0 0 1 2.1 1.52Zm6.38-1.61c.18 0 1.5 1.32 1.95 3.42.12.59.13 1.85.02 2.44a7.7 7.7 0 0 1-.49 1.54 7.95 7.95 0 0 1-.72 1.2l.02-.18c.06-.3-.01-.83-.2-1.37-.54-1.65-2.1-3.9-3.21-5.3l.14-.13c.54-.5.98-.9 1.54-1.26.31-.19.75-.36.95-.36Zm-4.67-.06C7.28 3 6 2.37 4.99 2.42c-.38.02-.36 0 .25-.3a6.5 6.5 0 0 1 6.13.31h-.1c-.4-.03-1.18-.08-2.71.66-.3.15-.55.26-.57.26l-.21-.1Z"/></svg>